<?xml version="1.0" encoding="UTF-8" standalone="no" ?>
<!DOCTYPE svg PUBLIC "-//W3C//DTD SVG 1.1//EN" "http://www.w3.org/Graphics/SVG/1.1/DTD/svg11.dtd">
<svg xmlns="http://www.w3.org/2000/svg" xmlns:xlink="http://www.w3.org/1999/xlink" version="1.1" width="65" height="75" viewBox="0 0 65 75" xml:space="preserve">
<desc>Created with Fabric.js 3.6.3</desc>
<defs>
</defs>
<g transform="matrix(0.13 0 0 -0.13 32.79 37.62)" id="oUZFlMwbvwpTinLQqf15L"  >
<path style="stroke: none; stroke-width: 1; stroke-dasharray: none; stroke-linecap: butt; stroke-dashoffset: 0; stroke-linejoin: miter; stroke-miterlimit: 4; fill: rgb(239,50,55); fill-rule: nonzero; opacity: 1;" vector-effect="non-scaling-stroke"  transform=" translate(-3184.03, -3719.16)" d="M 3430.51 3461.48 L 3356.98 3614.71 C 3345.85 3637.89 3350.66 3665.08 3367.83 3684.2200000000003 C 3399.68 3719.7300000000005 3416.96 3764.57 3416.96 3806.46 C 3416.96 3948.41 3297.03 4004.7 3208.92 4004.7 L 2955.06 4004.7 C 2944.32 4004.7 2935.62 3996 2935.62 3985.2599999999998 L 2935.62 3853.9199999999996 C 2935.62 3834.2499999999995 2951.5699999999997 3818.3099999999995 2971.24 3818.3099999999995 L 3080.7799999999997 3818.3099999999995 C 3096.0099999999998 3818.3099999999995 3110.39 3823.9499999999994 3122.79 3832.7899999999995 C 3134.72 3841.2999999999997 3150.08 3845.3099999999995 3166.39 3842.3399999999997 C 3188.8599999999997 3838.2599999999998 3207.0899999999997 3820.3099999999995 3211.45 3797.89 C 3218.52 3761.5 3190.8399999999997 3729.66 3155.74 3729.66 C 3143.9799999999996 3729.66 3133.06 3733.23 3123.99 3739.3399999999997 C 3110.22 3748.64 3094.5 3754.66 3077.8799999999997 3754.66 L 2971.24 3754.66 C 2951.5699999999997 3754.66 2935.62 3738.72 2935.62 3719.0499999999997 L 2935.62 3453.0699999999997 C 2935.62 3442.33 2944.3199999999997 3433.6299999999997 2955.06 3433.6299999999997 L 3116.05 3433.6299999999997 C 3126.79 3433.6299999999997 3135.4900000000002 3442.3299999999995 3135.4900000000002 3453.0699999999997 L 3135.4900000000002 3534.7899999999995 C 3135.4900000000002 3538.9199999999996 3140.55 3540.8999999999996 3143.3500000000004 3537.8699999999994 L 3212.1200000000003 3444.6599999999994 C 3215.36 3437.9099999999994 3222.1700000000005 3433.629999999999 3229.6500000000005 3433.629999999999 L 3412.9800000000005 3433.629999999999 C 3427.3000000000006 3433.629999999999 3436.7000000000003 3448.5699999999993 3430.5100000000007 3461.479999999999" stroke-linecap="round" />
</g>
</svg>