<svg height="515" width="561" xmlns="http://www.w3.org/2000/svg" xmlns:xlink="http://www.w3.org/1999/xlink"><clipPath id="a" stroke-width="0" transform="matrix(.13 0 0 -.13 458.662218 401.432686)"><path d="m3577.13 522.77c-363.1-25.211-966.4-16.711-966.4-16.711-311.41 22.703-370.4 125.402-321.41 242.3 75.71 180.102 408.21 393.501 468.81 398.501 99.9 8.1 205.2-31.59 205.2-31.59l65 13.69c-20 53.9 185.5 173.9 279.4 122.1 50.03-27.68 128.62-20.34 199.94-13 62.41 6.42 119.26 12.84 146.56-4.2 16.2-10.1 29.1-23.8 39.2-38.3 26.5-37.9 34.3-81.6 34.3-81.6l.3.11.8.19h.2c4.7 1.41 22.1 5.8 45 7 32.2 1.7 75.1-3.2 108.7-32.5 7.7-6.7 15.9-14.9 24.5-24.2 60.6-66.201 138.6-191.298 156.6-264.29 20.49-83.301-123.71-252.211-486.7-277.5"/></clipPath><clipPath id="b" stroke-width="0" transform="matrix(.13 0 0 -.13 416.222218 443.652686)"><path d="m401.56011719-289.9999707c-363.1-25.211-966.4-16.711-966.4-16.711-311.41 22.703-370.4 125.402-321.41 242.3 75.71 180.102 408.21 393.501 468.81 398.501 99.9 8.1 205.2-31.59 205.2-31.59l65 13.69c-20 53.9 185.5 173.9 279.4 122.1 50.03-27.68 128.62-20.34 199.94-13 62.41 6.42 119.26 12.84 146.56-4.2 16.2-10.1 29.1-23.8 39.2-38.3 26.5-37.9 34.3-81.6 34.3-81.6l.3.11.8.19h.2c4.7 1.41 22.1 5.8 45 7 32.2 1.7 75.1-3.2 108.7-32.5 7.7-6.7 15.9-14.9 24.5-24.2 60.6-66.201 138.6-191.298 156.6-264.29 20.49-83.301-123.71-252.211-486.7-277.5"/></clipPath><clipPath id="c" stroke-width="0" transform="matrix(.13 0 0 -.13 212.402218 440.502686)"><path d="m-1240.11099023 244.72998535s-5.692-257.69 420.933-447.709c426.628-190.02 1586.618-282.68 1797.928 386.969l-657.08 188.69h-881.42l-194.057-87.92z"/></clipPath><clipPath id="d" stroke-width="0" transform="matrix(.13 0 0 -.13 218.132218 420.902686)"><path d="m385.8899707 39.15997559v-42.888c0-2.383-.28-4.621-.84-6.852-3.07-12.57-14.53-22.07-28.22-22.07h-1017.86c-13.7 0-25.16 9.5-28.23 22.07-.56 2.231-.841 4.469-.841 6.852v42.888z"/></clipPath><clipPath id="e" stroke-width="0" transform="matrix(.13 0 0 -.13 254.902218 483.432686)"><path d="m395.02-116.78200244c-69.31-72.246-291.36-86.628-384-65.539-25.3 5.743-117.39 9.082-185.99 33.68-37.04 13.141-67.22 32.43-76.44 61.633-26.55 83.289 207.79 241.738 207.79 241.738s149.52-28.781 180.54-36.191c42.62-9.918 78.26-13.828 109.56-15.231 20.12-.867 38.39-.726 55.43-.59 43.21.352 78.51.704 115.88-15.339 59.4-25.571 60.24-117.52-22.77-204.161"/></clipPath><clipPath id="f" stroke-width="0" transform="matrix(.13 0 0 -.13 150.372218 466.912686)"><path d="m758.08994629 69.09902441c-22.36-151.051-255.31-315.25-255.31-315.25s-64.56 60.512-85.8 58c-21.38-2.519-110.11 3.77-110.11 3.77s-701.912 262.57-785.756 263.961c-52.543.84-204.16 46.961-279.199 166.57-44.575 70.992-62.043 167.97-15.93 296.68 76.019 212.25 450.656 55.88 818.035-147.02 121.99-67.488 230.29-121.57 317.76-162.789 145.47-68.48 233.93-101.449 233.93-101.449l48.63 17.328z"/></clipPath><rect fill="none" height="100%" width="100%"/><path d="m84.73628324 37.19670154c17.48344-20.9014 41.12524-37.0786 69.30573-36.7315 48.087.5915 74.0805 43.1613 101.6899 76.0084 14.3156 17.0326 30.5318 33.4646 51.7751 41.4635 31.8721 12.0029 67.3595 4.9933 98.4061-6.1464 13.9074-4.9894 30.3836-12.0068 46.0447-8.424 47.6203 10.894 42.6582 69.0118 34.7919 105.8057-10.621 49.6782-27.8785 102.5752-62.8654 140.7484-83.7538 91.3783-234.494 35.3613-310.04324-37.5557-5.55295-5.3586-10.87489-10.959-15.87677-16.8389-12.93864-15.2061-24.04441-31.98-32.70878-49.9785-24.37084-50.6285-27.7225-112.1783-6.60608-164.502 6.13691-15.2074 15.02163-30.6189 26.08684-43.849" fill="#73cd91"/><path d="m310.21501451 396.96540154c-4.7684 0-9.5719-.1742-14.3806-.5122l-16.1148-4.6267c15.8275-3.9585 32.7912-9.4367 35.126-15.1385 4.511-11.0188-30.3823-112.5891-40.443-121.5734-4.1938-6.9875-32.8588-27.8395-75.0022-27.8395-1.1986 0-2.4128.0169-3.6335.052-54.9159 1.5561-78.12909 27.7875-78.12909 27.7875-3.86347 3.4502-11.3867 20.5465-18.93541 40.9292-.27976-.325-.559-.65-.83681-.9776-12.93864-15.2061-24.04441-31.98-32.70878-49.9785-13.51844-28.0826-20.56938-59.5257-20.56431-90.8908.00351-25.181 4.55507-50.3113 13.95823-73.6112 6.13691-15.2074 15.02163-30.6189 26.08684-43.849 17.29858-20.6817 40.62747-36.7367 68.41523-36.7367.2964 0 .5928.0013.8905.0052 48.087.5915 74.0805 43.1613 101.6899 76.0084 14.3156 17.0326 30.5318 33.4646 51.7751 41.4635 11.7572 4.4278 24.011 6.2686 36.348 6.2686 20.5426 0 41.3257-5.1012 60.4864-11.856.0208 0 .0403 0 .0611-.0013l-3.5464 3.8233c-.1222.1313-.1846.3081-.1729.4862.013.1781.0988.3458.2379.4589.0962.0832 5.0453 4.0586 16.7492 4.0586h.0156c2.1515 0 4.5292-.1326 7.1474-.4485l-2.1801 2.8054-10.0555 3.4632c-1.4872.5057-2.4076 1.8486-2.4011 3.3033 0 .5408.1248 1.0959.3783 1.625v.0026l.2327.481c-.8125-.0429-1.6419-.0637-2.4843-.0637-22.6252 0-54.7833 14.9812-54.7833 14.9812s.0026.0039.0052.0117c.1157.2795 2.3361 5.4054 9.5914 5.4054.7228 0 1.495-.052 2.3205-.1625l-5.1155 5.0219s2.1099 3.3748 8.7204 3.3748c.3731 0 .7618-.0104 1.1635-.0325 2.717-.1534 6.1061-.8528 10.3038-2.4713l-2.7664 6.1685s1.6822.6305 4.9478.6305c3.8142 0 9.789-.8593 17.771-4.5851.65-.3042 1.3156-.6279 1.9929-.9698 0-.0013 0-.0013.0013-.0013l-1.8018 5.1844s1.5808.4576 4.2575.4576c2.8002 0 6.7964-.4992 11.4387-2.5441 1.9578-.8619 4.0326-2.0007 6.1789-3.4905.0013-.0013.0026-.0026.0039-.0026l-.1521 4.29s.0026 0 .0065-.0013c.0975-.026 1.2974-.3432 3.0394-.9243l7.0954 14.6783h-20.3008c-.1716 0-.3393.0689-.4602.1911-.1209.1209-.1898.2873-.1898.4589v13.0286c0 .1716.0689.3393.1898.4602s.2886.1898.4602.1898h32.4311c.1716 0 .338-.0689.4589-.1898.1222-.1209.1911-.2886.1911-.4602v-7.6024l46.488-16.0147c-.0988 14.5912-2.4154 29.3748-5.0609 41.7482-10.621 49.6782-27.8785 102.5752-62.8654 140.7484-31.0609 33.8871-71.3375 47.5046-113.5706 47.5046m-145.8509-212.8477c1.5639 10.0932 4.4317 19.3752 7.0278 25.3734.7618 1.7524 2.2074 3.5867 4.0508 5.3989 2.7664 2.7118 6.4402 5.3534 10.1023 7.3346 3.6699 1.976 7.2969 3.3059 10.1075 3.3163 2.0072-.0039 4.3862-.6383 6.9134-1.6757 3.7869-1.5574 7.8923-4.0378 11.3581-6.7964 3.4645-2.7677 6.292-5.7837 7.4971-8.5631 2.0553-4.7814 4.3368-11.6298 5.9787-19.2972l.0936.3588c1.3676-4.017 2.4011-7.7337 3.1577-11.1722 2.8847-6.4168 7.8884-21.2524.221-34.6723 0 0-.8879-5.6134-6.3323-10.9109h40.4248c.3588 0 .65-.2912.65-.65 0-.3601-.2912-.65-.65-.65-13.9555 0-27.911 0-41.8652 0-5.044-4.2211-13.2821-7.9118-26.6708-7.9118-31.2546 0-45.7106 21.762-33.5881 55.1785.52 2.0384 1.0543 3.8545 1.5236 5.3391m279.5598 5.8136h-31.1311v-11.7286h20.2787l1.6575 3.4281-.0013-.0013.3354.6968v-.0013c.7436 1.5353 2.34 2.457 3.9793 2.4622.2808 0 .5642-.0273.8437-.0858.3003-.0273.6019-.091.8996-.1937l3.1382-1.0816zm15.0033-79.3884c-1.2337-1.6497-2.4245-3.4645-3.5451-5.4639-.2977-.5304-.6266-1.0413-.9867-1.5353 1.6276.4485 3.1941.9555 4.693 1.5171l.4147 5.2845z" fill="#d9f1dd"/><g fill="#73cd91"><path d="m347.95601705 342.31709202v.65h31.7811v11.7299h-31.1311v-12.3799h-.65v.65-.65h-.65v13.0299c0 .1703.0689.338.1898.4589s.2886.1911.4602.1911h32.4311c.1703 0 .338-.0702.4589-.1911s.1911-.2886.1911-.4589v-13.0299c0-.1703-.0702-.338-.1911-.4589s-.2886-.1911-.4589-.1911h-32.4311c-.1716 0-.3393.0702-.4602.1911s-.1898.2886-.1898.4589z"/><path d="m331.32601578 324.67838123v.65h31.7811v11.7273h-31.1311v-12.3773h-.65v.65-.65h-.65v13.0273c0 .1716.0689.3393.1898.4602s.2886.1898.4602.1898h32.4311c.1716 0 .3393-.0689.4602-.1898s.1898-.2886.1898-.4602v-13.0273c0-.1716-.0689-.3393-.1898-.4602s-.2886-.1898-.4602-.1898h-32.4311c-.1716 0-.3393.0689-.4602.1898s-.1898.2886-.1898.4602z"/><path d="m254.9873234 216.81837996v.65h31.7811v11.7286h-31.1311v-12.3786h-.65v.65-.65h-.65v13.0286c0 .1716.0689.3393.1898.4602.1222.1209.2886.1898.4602.1898h32.4311c.1716 0 .3393-.0689.4602-.1898s.1898-.2886.1898-.4602v-13.0286c0-.1703-.0689-.338-.1898-.4589s-.2886-.1911-.4602-.1911h-32.4311c-.1716 0-.338.0702-.4602.1911-.1209.1209-.1898.2886-.1898.4589z"/><path d="m273.21733102 200.18837108v.65h31.7798v11.7286h-31.1311v-12.3786h-.6487v.65-.65h-.65v13.0286c0 .1716.0689.3393.1898.4602s.2886.1898.4602.1898h32.4298c.1716 0 .3393-.0689.4602-.1898s.1898-.2886.1898-.4602v-13.0286c0-.1716-.0689-.338-.1898-.4589s-.2886-.1911-.4602-.1911h-32.4298c-.1716 0-.3393.0689-.4602.1911-.1209.1209-.1898.2873-.1898.4589z"/><path d="m397.02602086 49.67838758v.65h31.7824v11.7299h-31.1324v-12.3799h-.65v.65-.65h-.65v13.0299c0 .1703.0702.338.1911.4589s.2886.1911.4589.1911h32.4324c.1703 0 .338-.0702.4589-.1911s.1911-.2886.1911-.4589v-13.0299c0-.1703-.0702-.338-.1911-.4589s-.2886-.1911-.4589-.1911h-32.4324c-.1703 0-.338.0702-.4589.1911s-.1911.2886-.1911.4589z"/><path d="m379.44732975 31.88837488v.65h31.7811v11.7286h-31.1311v-12.3786h-.65v.65-.65h-.65v13.0286c0 .1703.0689.338.1898.4589s.2886.1911.4602.1911h32.4311c.1716 0 .338-.0702.4602-.1911.1209-.1209.1898-.2886.1898-.4589v-13.0286c0-.1716-.0689-.3393-.1898-.4602-.1222-.1209-.2886-.1898-.4602-.1898h-32.4311c-.1716 0-.3393.0689-.4602.1898s-.1898.2886-.1898.4602z"/><path d="m138.74601896 39.08837742v.65h31.7811v11.7286h-31.1311v-12.3786h-.65v.65-.65h-.65v13.0286c0 .1716.0702.3393.1911.4589.1209.1222.2886.1911.4589.1911h32.4311c.1716 0 .3393-.0689.4602-.1911.1209-.1196.1898-.2873.1898-.4589v-13.0286c0-.1716-.0689-.338-.1898-.4589-.1209-.1222-.2886-.1911-.4602-.1911h-32.4311c-.1703 0-.338.0689-.4589.1911-.1209.1209-.1911.2873-.1911.4589z"/><path d="m121.16640198 21.29839774v.65h31.78201v11.7286h-31.13201v-12.3786h-.65v.65-.65h-.65v13.0286c0 .1716.06955.338.19032.4602.12142.1209.28847.1898.45968.1898h32.43201c.1703 0 .338-.0689.4589-.1898.1209-.1222.1911-.2886.1911-.4602v-13.0286c0-.1716-.0702-.338-.1911-.4589s-.2886-.1911-.4589-.1911h-32.43201c-.17121 0-.33826.0702-.45968.1911-.12077.1209-.19032.2873-.19032.4589z"/><path d="m238.82601578 96.69839139v.65h31.7824v11.7286h-31.1324v-12.3786h-.65v.65-.65h-.65v13.0286c0 .1716.0702.338.1911.4589.1209.1222.2886.1911.4589.1911h32.4324c.1703 0 .338-.0689.4589-.1911.1209-.1209.1911-.2873.1911-.4589v-13.0286c0-.1716-.0702-.338-.1911-.4602-.1209-.1209-.2886-.1898-.4589-.1898h-32.4324c-.1703 0-.338.0689-.4589.1898s-.1911.2886-.1911.4602z"/><path d="m416.34603229 177.63838758v.65h31.7811v11.7286h-31.1311v-12.3786h-.65v.65-.65h-.65v13.0286c0 .1716.0689.3393.1898.4602s.2886.1898.4602.1898h32.4311c.1716 0 .338-.0689.4589-.1898.1222-.1209.1911-.2886.1911-.4602v-13.0286c0-.1716-.0689-.338-.1911-.4589-.1209-.1222-.2873-.1911-.4589-.1911h-32.4311c-.1716 0-.3393.0689-.4602.1911-.1209.1209-.1898.2873-.1898.4589z"/><path d="m455.86731198 294.71837996v.65h31.7798v11.7286h-31.1298v-12.3786h-.65v.65-.65h-.65v13.0286c0 .1703.0702.338.1911.4589s.2886.1911.4589.1911h32.4311c.1703 0 .338-.0702.4589-.1911s.1898-.2886.1898-.4589v-13.0286c0-.1703-.0689-.338-.1898-.4589s-.2886-.1911-.4589-.1911h-32.4311c-.1703 0-.338.0702-.4589.1911s-.1911.2886-.1911.4589z"/><path d="m292.25601705 216.81837996v.65h31.7811v11.7286h-31.1311v-12.3786h-.65v.65-.65h-.65v13.0286c0 .1716.0689.3393.1911.4602.1209.1209.2873.1898.4589.1898h32.4311c.1716 0 .3393-.0689.4602-.1898s.1898-.2886.1898-.4602v-13.0286c0-.1703-.0689-.338-.1898-.4589s-.2886-.1911-.4602-.1911h-32.4311c-.1716 0-.338.0702-.4589.1911-.1222.1209-.1911.2886-.1911.4589z"/><path d="m422.09272975 268.18137108c-15.7677-.1729-31.7772-.2587-47.6658-.2587-15.8873 0-31.655.0858-46.9365.2587-.3588.0039-.6461.299-.6422.6578s.299.6461.6578.6422c15.2763-.1729 31.0375-.2587 46.9209-.2587 15.8847 0 31.889.0858 47.6515.2587.3601.0039.6539-.2834.6578-.6422.0039-.3601-.2834-.6539-.6435-.6578"/><path d="m436.52463356 268.18267234c-2.6416 0-5.2832 0-7.9261 0-.3588 0-.65.2912-.65.65s.2912.65.65.65h7.9261c.3588 0 .65-.2912.65-.65s-.2912-.65-.65-.65"/><path d="m49.68094118 307.09398694c15.76757.1716 31.77785.2587 47.66632.2587 15.88795 0 31.65526-.0871 46.93546-.2587.3588-.0039.6474-.2977.6435-.6565-.0052-.3601-.299-.6474-.6578-.6435-15.2763.1716-31.03789.2587-46.92116.2587-15.88392 0-31.88913-.0858-47.65215-.2587-.35906-.0039-.65299.2847-.65715.6435-.00403.3588.28392.6526.64298.6565"/><path d="m35.25877737 307.09268568h7.92701c.35893 0 .65-.2912.65-.65s-.29107-.65-.65-.65c-2.64277 0-5.28489 0-7.92701 0-.35906 0-.65.2912-.65.65s.29094.65.65.65"/><path d="m270.24621451 131.57269012h4.472c.3601 0 .65-.2912.65-.65 0-.3601-.2899-.65-.65-.65-1.4898 0-2.9809 0-4.472 0-.3588 0-.65.2899-.65.65 0 .3588.2912.65.65.65"/><path d="m222.38861324 131.57269012h42.0472c.3588 0 .65-.2912.65-.65 0-.3601-.2912-.65-.65-.65-14.0153 0-28.0319 0-42.0472 0-.3601 0-.65.2899-.65.65 0 .3588.2899.65.65.65"/><path d="m64.55828689 230.40697996v-.65h-31.78149v-11.7286h31.13149v12.3786h.65v-.65.65h.65v-13.0286c0-.1703-.06955-.338-.19045-.4589s-.28847-.1911-.45955-.1911h-32.43149c-.17108 0-.33865.0702-.45955.1911s-.19045.2886-.19045.4589v13.0286c0 .1716.06955.3393.19045.4602s.28847.1898.45955.1898h32.43149c.17108 0 .33865-.0689.45955-.1898s.19045-.2886.19045-.4602z"/><path d="m33.13795816 195.54267996c-1.49045 0-2.98142 0-4.47226 0-.35906 0-.65.2912-.65.65s.29094.65.65.65h4.47226c.35906 0 .65-.2912.65-.65s-.29094-.65-.65-.65"/><path d="m80.99685943 195.54267996c-14.01621 0-28.03229 0-42.0485 0-.35854 0-.65.2912-.65.65s.29146.65.65.65h42.0485c.35893 0 .65-.2912.65-.65s-.29107-.65-.65-.65"/></g><path d="m.6505069 464.58255663h559.5434c.3588 0 .65-.29107.65-.65 0-.35854-.2912-.65-.65-.65h-559.5434c-.3595306 0-.65050782.29146-.65050782.65 0 .35893.29097722.65.65050782.65" fill="#1d2a30"/><path d="m348.33911705 477.43475599s-8.3759 11.85483.2925 15.82243c8.6697 3.97007 85.4542-5.16087 121.3836-5.5393 35.9268-.37726 55.5672-13.90337 54.8054-18.01813-.7618-4.1158-9.5394-11.92854-9.5394-11.92854l-6.0957 7.14337s6.5468 1.94194 6.3193 4.95677c-.2275 3.01587-23.9863 12.82996-53.9279 8.69583-16.7284-2.3101-44.0245.6734-65.7345 3.65573-17.1496 2.35521-30.8139 4.7125-33.033 4.46017-5.0284-.57187-.2197-11.88343-.2197-11.88343z" fill="#1d2a30"/><path d="m468.40473356 481.1111825c-47.203 3.27743-125.632 2.17243-125.632 2.17243-40.4833-2.95139-48.152-16.30226-41.7833-31.499 9.8423-23.41326 53.0673-51.15513 60.9453-51.80513 12.987-1.053 26.676 4.1067 26.676 4.1067l8.45-1.7797c-2.6-7.007 24.115-22.607 36.322-15.873 6.5039 3.5984 16.7206 2.6442 25.9922 1.69 8.1133-.8346 15.5038-1.6692 19.0528.546 2.106 1.313 3.783 3.094 5.096 4.979 3.445 4.927 4.459 10.608 4.459 10.608l.039-.0143.104-.0247h.026c.611-.1833 2.873-.754 5.85-.91 4.186-.221 9.763.416 14.131 4.225 1.001.871 2.067 1.937 3.185 3.146 7.878 8.60613 18.018 24.86874 20.358 34.3577 2.6637 10.82913-16.0823 32.78743-63.271 36.075" fill="#969796"/><g clip-path="url(#a)"><path d="m448.83813356 412.24479202c-1.2064 0-2.0228-.156-2.3244-.5083-2.574-2.9913 7.202-5.499 10.283-12.0913 1.9721-4.2172-2.3725-4.9959-6.4272-4.9959-2.2802 0-4.4681.2457-5.3898.2652-1.3091.0195-4.8217.5642-8.2602.5642-3.3215 0-6.5728-.5083-7.7038-2.4882-.9841-1.729 3.7648-2.3686 9.763-2.3686 8.0327 0 18.3079 1.1479 20.072 2.3686 2.7326 1.8824 3.0511 7.3138 5.3898 7.3138.3094 0 .6552-.0962 1.0452-.3068 2.5623-1.3754 12.051-6.5143 18.5549-7.1136.078.1066.1547.2145.2288.3224l.0013.0013c1.6731 2.3907 2.7677 4.9894 3.4385 6.9862.3354.9971.5655 1.8447.7098 2.4388.0728.2964.1248.5304.1573.689.0338.1586.0468.2353.0468.2353.0039.0208.0078.0416.0143.0611-4.4434 1.2389-31.2819 8.6268-39.5993 8.6268" fill="#757677"/></g><g clip-path="url(#b)"><path d="m373.80060944 483.05308758c-.0065 0-.0078 0-.0143 0-9.1364 0-16.8818-.0442-22.3444-.08983-2.7313-.02184-4.8919-.0442-6.3687-.06097-1.3533-.01573-2.1307-.02587-2.2542-.02847-8.0756-.58799-14.8304-1.59549-20.4087-2.94073-.117-.3874-.2093-.6032-.2197-.624l-.1066-.16913-4.0703-4.63021c-.0377-.06812-.0767-.13559-.117-.20319-.9958-1.68493-2.4882-3.0108-4.3888-3.82681-3.8857-1.66816-7.6011-2.00642-11.6857-2.05413-.2457-.39-.4693-.78559-.6708-1.1843 8.5007-4.4408 16.2305-9.79823 22.9008-16.18396.1027-.00104.2054-.00104.3081-.00104 6.4181 0 11.622 1.81194 17.2107 7.0785 8.0886 7.64504 17.1717 12.67084 22.5784 12.67084.78 0 1.4833-.10504 2.0956-.32084 0 0 .676-19.31826 19.5-33.18913s23.257-9.93187 27.0127-13.61087c3.7713-3.67913 5.9813-10.34813-4.8087-14.19613-10.777-3.835-16.042-5.1623-16.042-5.1623s.9698-.0754 2.5948-.0754c4.0638 0 12.2278.4719 19.5832 3.7687 10.283 4.602 19.279 15.61274 14.911 18.0817-3.8688 2.1892 4.1574 5.9176 11.2268 5.9176.9113 0 1.8057-.06097 2.6572-.19656 6.6027-1.06691 28.522-1.18261 32.916-1.365-3.939.83239-21.346 6.27913-21.346 10.465 0 0 5.382 8.84 5.343 18.83739-.026 6.669 5.187 9.4575 10.1777 9.4575 2.4804 0 4.9049-.68757 6.6053-1.93076 5.1337-3.74413 6.149-8.87913 4.225-18.65604-1.4495-7.3658-4.8633-9.59556-9.4341-9.59556-1.495 0-3.1135.2392-4.8282.61386 0 0 6.6222-3.99139 10.2934-3.99139.6084 0 1.1349.1092 1.5379.36413 2.821 1.80726 10.79 1.04 12.337 9.51483 1.547 8.49017-3.861 15.43243-1.287 17.74604.6526.58656 2.0995.85982 3.9364.85982 5.408 0 14.2012-2.35989 16.1226-6.00743 2.574-4.875.871-33.241-1.612-33.83913-.1755-.0416-.4017-.06097-.6708-.06097-3.4918 0-14.2532 3.27847-14.5782 3.37441.104-.325 1.8707-5.46 7.605-6.47257 4.3368-.76427 9.6291-4.84237 10.9356-9.44957 3.8259 4.2432 8.1835 10.2804 11.8781 16.41523 3.7934 6.28927 6.8913 12.70503 8.0275 17.33017.1508.61243.2288 1.26893.2288 1.96573.0026 2.6507-1.1362 5.88354-3.5763 9.27667-7.3073 10.19434-26.2561 21.7308-59.3372 24.0292-28.1554 1.95403-67.4791 2.3491-94.5789 2.3491" fill="#757677"/></g><path d="m468.40473356 481.10988917-.0455-.6474c-28.1619 1.95403-67.4934 2.3491-94.5932 2.3491-9.1364 0-16.8818-.0442-22.3444-.08983-2.7313-.02184-4.8919-.0442-6.3687-.06097s-2.2685-.02847-2.2711-.02847l-.0091.65.0468-.6474c-16.1369-1.17403-26.9997-4.0183-33.7519-7.90153-3.3774-1.93986-5.7252-4.1301-7.2306-6.49493-1.5054-2.36444-2.1814-4.9101-2.184-7.62437 0-2.71323.6864-5.59754 1.937-8.58h-.0013c4.8165-11.4933 18.0258-24.27334 31.0037-34.1731 6.4883-4.9543 12.9194-9.2014 18.2039-12.2434 2.6429-1.5197 4.9998-2.7391 6.9251-3.5932 1.9188-.8541 3.4346-1.3351 4.2666-1.3988 1.183-.0949 2.3751-.1391 3.562-.1391 5.8175-.0013 11.5375 1.0504 15.795 2.106 2.1294.5265 3.8922 1.053 5.122 1.4482.6136.1963 1.0946.3614 1.4209.4758s.4927.1768.4927.1768c.1157.0442.2431.0533.364.0286l8.45-1.781c.1833-.0377.3445-.1573.4355-.3211.091-.1651.1053-.364.0403-.5408-.091-.2457-.1365-.5057-.1365-.7904-.0182-1.2077.91-2.9133 2.6286-4.6826 2.5597-2.6611 6.7691-5.4795 11.4712-7.605 4.7008-2.1307 9.9021-3.5711 14.4326-3.5685 2.639-.0013 5.0401.4862 7.0031 1.5691h-.0013c3.6907 2.0358 8.4071 2.6416 13.4264 2.6442 8.4682-.0026 17.8685-1.7511 24.5739-1.7459 3.0524-.0065 5.5237.377 7.0148 1.3195 2.0137 1.2545 3.6322 2.9692 4.9062 4.7996l.0013.0013c1.6731 2.3907 2.7677 4.9894 3.4385 6.9862.3354.9971.5655 1.8447.7098 2.4388.0728.2964.1248.5304.1573.689.0338.1586.0468.2353.0468.2353.0338.1898.1495.3536.3159.4498.1677.0962.3666.1131.5473.0468l.0039-.0013.0689-.0169-.1534-.6318v.65h.026l.1859-.0273c.559-.1677 2.7898-.7332 5.6979-.884.4576-.0247.9321-.0377 1.4196-.0377 3.8753 0 8.5384.8632 12.2512 4.1041.975.8489 2.0267 1.8993 3.133 3.0966l-.0013-.0026c3.8974 4.2562 8.3876 10.45057 12.1784 16.74543 3.7934 6.28927 6.8913 12.70503 8.0275 17.33017.1508.61243.2288 1.26893.2288 1.96573.0026 2.6507-1.1362 5.88354-3.5763 9.27667-7.3073 10.19434-26.2561 21.7308-59.3372 24.0292l.0455.6474.0442.64857c22.23-1.54934 38.2148-7.22514 48.6733-13.98267 5.2286-3.38 9.0779-7.03066 11.6311-10.5833 2.5506-3.5542 3.8155-7.01493 3.8194-10.03587 0-.79326-.0884-1.55493-.2665-2.27656-1.2025-4.86434-4.3446-11.32573-8.1757-17.69014-3.8337-6.3609-8.3525-12.60233-12.3344-16.95213l-.0013-.0026c-1.1284-1.2194-2.2087-2.301-3.2344-3.1941-4.0482-3.5256-9.0506-4.4239-13.1053-4.4239-.5122 0-1.0088.0143-1.4872.039-3.0459.1612-5.3391.7397-6.0021.9373l.1859.6227v-.65h-.026l-.1547.0182-.104.026-.0702.0208-.0377.0143.2236.6097.6396-.1144c-.0117-.0468-1.027-5.7954-4.5669-10.8667l.0013.0013c-1.3507-1.9396-3.0862-3.7882-5.2858-5.1584-1.8928-1.17-4.5526-1.5106-7.7025-1.5171-6.903.0039-16.2682 1.7498-24.5739 1.7459-4.9153.0039-9.4354-.6162-12.7972-2.4817v-.0013c-2.2139-1.2194-4.836-1.7303-7.631-1.7303-6.3999.0065-13.7631 2.6585-19.5858 6.0723-2.9107 1.7095-5.434 3.6101-7.2553 5.499-1.8096 1.8941-2.9731 3.7661-2.9913 5.5848 0 .4251.0689.845.2171 1.2428l.6097-.2262-.1339-.6357-8.45 1.7797.1339.6357.2288-.6084c-.039-.0104-11.349-4.2848-23.2895-4.29-1.2194 0-2.4453.0455-3.6673.1443h-.0013c-1.1375.1001-2.6949.6279-4.6865 1.5054-6.9342 3.0758-18.9098 10.556-30.2861 19.86036-11.3685 9.30917-22.1221 20.40181-26.5187 30.83431-1.2987 3.10076-2.0371 6.14913-2.0371 9.08323-.0013 2.93163.7449 5.74847 2.3868 8.32416 2.4648 3.86594 6.8991 7.16417 13.7254 9.71997 6.8302 2.55684 16.0758 4.38347 28.2607 5.27267l.0377.00143c.0026 0 12.7231.17927 31.0024.17927 27.1154 0 66.456-.39403 94.6829-2.35313z" fill="#1d2a30"/><path d="m387.79341959 404.92908472c.0221.0065 5.9475 1.9825 20.878 5.5367 2.834.6734 4.7606 1.6549 5.9462 2.7417 1.1856 1.092 1.6575 2.2555 1.664 3.4658.0104 1.8902-1.2597 4.00257-3.393 5.6758-2.1242 1.67336-5.0674 2.89107-8.2225 3.08503-2.9133.1924-6.7132 1.87434-10.8966 4.51191-6.2634 3.9624-13.3263 10.11413-18.902 16.84826-5.5666 6.74063-9.6785 14.04143-9.8956 20.45667-.0065.19747-.0091.39247-.0091.585-.0026 3.15406.8385 5.67073 2.2126 7.62333 2.0631 2.93254 5.2572 4.56573 8.4526 5.47664 3.2019.91 6.4324 1.10656 8.6762 1.1076 1.7797 0 2.9367-.12597 2.9549-.12701.3562-.039.6149-.36049.5759-.71799-.039-.35594-.3601-.61347-.7163-.57434 0 0-.0624.00663-.1911.01677-.3861.03406-1.3351.10257-2.6234.10257-2.8873.00299-7.4867-.35347-11.271-2.15514-1.8954-.89986-3.5815-2.14903-4.7944-3.8766-1.2129-1.73017-1.9734-3.94836-1.976-6.87583 0-.17823.0026-.3601.0091-.5434.1196-3.9208 1.898-8.41997 4.7086-12.93747 4.212-6.7808 10.7172-13.60177 17.1574-18.76173 3.2188-2.58063 6.422-4.74747 9.3028-6.29174 2.8769-1.54726 5.4457-2.4583 7.306-2.5701 3.4372-.21476 6.6066-1.52243 8.9453-3.36063 2.3309-1.83937 3.8792-4.2276 3.8896-6.6976.0052-1.5743-.6708-3.1395-2.0865-4.4252-1.4157-1.2909-3.5451-2.3374-6.5234-3.0472-7.449-1.7732-12.6464-3.1525-15.9796-4.0859-1.6653-.4667-2.8652-.8229-3.6478-1.0608-.3913-.1196-.6773-.2093-.8658-.2704-.1872-.0598-.2743-.0884-.2743-.0884-.3406-.1131-.7085.0702-.8216.4108-.1144.3406.0702.7085.4108.8229" fill="#1d2a30"/><path d="m397.71361198 402.27109075s.1521-.0065.4485-.013c.2977-.0078.7358-.0143 1.2961-.0143 5.2325-.0091 21.1562.6149 32.3765 7.241 3.835 2.2503 9.1884 3.0329 15.0137 3.0368 16.2864-.0065 36.3922-6.2348 36.4234-6.24.3432-.1053.5343-.4693.429-.8125-.1066-.3432-.4706-.5356-.8125-.429-.0013 0-.3081.0949-.8866.2639-4.0365 1.183-21.1718 5.9228-35.1533 5.9176-5.7083.0052-10.8758-.7995-14.3533-2.8561-11.6493-6.8471-27.7004-7.4126-33.0369-7.4217-1.1414 0-1.7914.0273-1.8005.0286-.3575.0143-.637.3185-.6214.6773.0156.3575.3185.637.6773.6214" fill="#1d2a30"/><path d="m464.1048234 441.83311663s.0819-.03146.2431-.0884c1.1219-.4082 5.9787-2.04646 9.8124-2.03879 1.092-.00104 2.0917.13299 2.8756.4316.7891.30316 1.3468.74243 1.6913 1.39139.9672 1.83014 2.3595 5.50927 3.4879 9.6018 1.1323 4.095 2.0085 8.63174 2.0059 12.19764.0039 1.98653-.2795 3.66327-.8632 4.75306-.9763 1.8525-3.0069 2.9783-5.291 3.61764-2.275.63843-4.745.78156-6.4259.78-.624 0-1.1401-.0182-1.4989-.03757-.1794-.0091-.3185-.01976-.4121-.02587l-.1378-.0117c-.3575-.0325-.6747.2301-.7085.5876s.2288.67327.5863.70681c.0156.00156.8684.08073 2.171.08073 1.7537 0 4.3186-.14014 6.7769-.82927 2.4466-.68757 4.8451-1.93323 6.0879-4.25893.7423-1.4092 1.0127-3.26014 1.0153-5.3625-.0013-3.76857-.9035-8.37434-2.0527-12.54357-1.1531-4.17066-2.5467-7.87566-3.5906-9.86167-.5122-.97903-1.3832-1.625-2.3803-1.99979-1.001-.37934-2.1437-.51584-3.3371-.5174-4.7593.0091-10.4806 2.20493-10.517 2.21156-.3354.1274-.5044.50323-.377.83837.1274.33566.5031.50479.8385.37726" fill="#1d2a30"/><path d="m372.87212213 451.49601536c.0403.01274 12.2928 4.29104 27.7459 4.29247 3.5659 0 7.3021-.2275 11.0981-.79157 5.889-.87399 10.3129-1.17923 13.6162-1.17923 3.9494 0 6.292.43823 7.6141.85423.6617.20761 1.0686.4108 1.2974.54743l.2197.14768.0299.02496.1872-.20007-.2028.18577.0156.0143.1872-.20007-.2028.18577.4784-.4407h-.65v13.57733h.65l.1183-.6383c-.0221-.00403-5.8474-1.08069-12.2226-1.0816-3.1902.00091-6.5182.26754-9.3561 1.09681-2.1268.62309-5.6628 1.22486-9.9021 1.66309-4.2419.43927-9.1975.71851-14.2129.71851-8.7464.00416-17.6969-.86424-23.2856-3.15094-.3328-.13507-.7124.02496-.8476.35594-.1352.33319.0234.71253.3562.8476 5.9124 2.4024 14.937 3.24233 23.777 3.2474 5.0635-.00091 10.0581-.28184 14.3468-.72514 4.2913-.44577 7.8637-1.0465 10.1322-1.70976 2.6468-.77597 5.876-1.04351 8.9921-1.04351 3.1148 0 6.1191.26507 8.3395.53014 1.1102.13247 2.0241.26507 2.6598.36556.6357.09854.9867.16354.9867.16354.1898.0351.3861-.01573.5343-.1391s.234-.3068.234-.50024v-13.57733c0-.16406-.0611-.31993-.1716-.44083-.1963-.20163-2.0241-1.97587-10.1023-1.97847-3.3826 0-7.8676.3133-13.806 1.1934-3.7245.5525-7.3983.7774-10.9083.7774-7.6063.00104-14.4469-1.05664-19.3804-2.11393-2.4661-.52767-4.4551-1.05677-5.8266-1.45184-.6851-.1976-1.2155-.36153-1.573-.47736-.3575-.11427-.5369-.17667-.5382-.17667-.3393-.11843-.7098.0598-.8281.3991-.1183.33917.0611.70993.4004.82823" fill="#1d2a30"/><path d="m414.31161578 388.66949202c.0104.0039 4.0612 1.7121 9.2885 3.4242 5.2338 1.7082 11.6194 3.4307 16.4229 3.4372l.2522-.0026c2.2802-.0299 4.6423-.0949 6.8458-.0949 2.7105-.0013 5.187.1027 6.9121.4693.8606.1807 1.5288.4329 1.9201.7111.1963.1378.3237.2769.4017.4095.0767.1339.1144.2639.1157.442.0065.3484-.1924.9256-.7696 1.6926-4.1249 5.5081-5.1662 7.3398-5.1883 7.3788-.1768.312-.0676.7085.2444.8853.3133.1768.7098.0676.8866-.2444l.0442-.0754c.2353-.3939 1.4625-2.3699 5.0531-7.1656.6604-.8866 1.0244-1.6822 1.0296-2.4713.0026-.3939-.1027-.7761-.2951-1.1011-.3406-.5733-.8983-.9568-1.56-1.2441-.9971-.4277-2.2841-.6604-3.7856-.8034-1.4989-.1404-3.2084-.1833-5.0089-.1833-2.2282 0-4.5955.065-6.8627.0949l-.2353.0026c-4.5058.0052-10.8498-1.677-16.0186-3.3735-2.587-.8463-4.8867-1.6939-6.5377-2.3296-.8268-.3172-1.4898-.5824-1.9474-.767-.4563-.1859-.702-.2886-.7033-.2899-.3302-.1391-.7111.0156-.8515.3471-.1391.3302.0156.7124.3471.8515" fill="#1d2a30"/><path d="m367.38042975 460.81558409c.0676.01833 6.9251 1.9266 24.0071 1.96833.2509.00104.5018.00104.7527.00104 16.7856 0 32.2751-1.40673 32.2868-1.40777.3575-.0325.6214-.34827.5889-.70577s-.3497-.62153-.7072-.58903c-.0026 0-.9607.08723-2.6702.21827-5.1285.39507-16.9624 1.1843-29.4983 1.1843-.2496 0-.4992 0-.7488-.00104-8.4942-.0208-14.4261-.50583-18.226-.98319-1.9006-.2392-3.2669-.4758-4.1548-.65104-.4446-.08827-.7683-.16146-.9802-.21073l-.2314-.05837-.0689-.01677c-.3458-.0975-.7046.10361-.8008.44941s.1053.70486.4511.80236" fill="#1d2a30"/><path d="m362.91680436 419.16752758-.5265-5.91214c-.0611-.6799.3952-1.3 1.0621-1.4456l13.8008-3.0186c.793-.1729 1.56.3835 1.6406 1.1908l.5577 5.5835c.0676.6747-.3718 1.2935-1.0309 1.4547l-13.8333 3.3462c-.806.195-1.5977-.37167-1.6705-1.19886" fill="#73cd91"/><path d="m362.91680436 419.16752758.6474-.05694-.5265-5.9124v-.0013l-.0026-.0637c0-.3263.2301-.6188.5564-.689l13.8008-3.0173.1534-.0169c.351 0 .6669.2691.7007.637l.559 5.5835.0026.0715c0 .3211-.2197.6084-.5408.6864h.0013l-13.8346 3.34633-.169.01937c-.3523 0-.6708-.27027-.7007-.64493l-.6474.05837-.6474.05733c.0962 1.05833.9802 1.83066 1.9955 1.82923.1573.00143.3172-.01833.4758-.0559h-.0013l13.8346-3.3462v-.0013c.9074-.2197 1.5353-1.0309 1.534-1.9487l-.0091-.2002-.559-5.5835c-.1053-1.0465-.9841-1.8083-1.9942-1.8083-.143 0-.2873.0156-.4316.0468l-13.8008 3.0173c-.9269.2041-1.5782 1.0231-1.5782 1.9591l.0078.1807v-.0013l.5265 5.91227z" fill="#1d2a30"/><path d="m367.9371234 412.66038504 7.4568 1.2805-1.6718.9841-7.9716-1.1323z" fill="#1d2a30"/><path d="m307.65301071 469.77481758s-16.2006 5.28827-7.4568 11.45924c8.7425 6.17149 20.5712 4.88566 30.2146-1.28583l1.0283-5.785s-5.915.80496-10.9291 3.3592c-5.0141 2.55489-16.7141-.01677-15.9432-1.43104.7722-1.41414 2.8288-1.41414 2.8288-1.41414z" fill="#1d2a30"/><path d="m360.56083102 484.13261885c1.2038 6.4584 46.3931-2.86 83.0843-9.3366 36.6899-6.4766 69.1678 1.03194 71.864-4.73486 2.6962-5.76511 9.3158-.1716 9.3158-.1716s-4.4018 9.8683-15.1684 14.26997c-10.7653 4.40076-61.3197 3.37402-89.674 9.1884-28.3543 5.81503-78.7202 14.27816-75.0984-7.78531z" fill="#1d2a30"/><path d="m50.74618959 408.62628821s-.73996 33.4997 54.72129 58.20217c55.46164 24.7026 206.26034 36.7484 233.73064-50.30597l-85.4204-24.5297h-114.5846l-25.22741 11.4296z" fill="#73cd91"/><g clip-path="url(#c)"><path d="m169.64651261 482.05341536c-25.4046-3.04889-48.14095-8.9258-63.47289-15.75886-7.79584-3.47191-14.46952-7.11503-20.18653-10.81184 1.45028.2717 2.70153.40924 3.68524.42497 7.43288.1235 52.22828 16.03524 79.97418 26.14573m120.9104-13.6799c-1.4703 0-3.0108-.01976-4.6449-.08983h.0013c-4.0365-.18187-8.6242-.6851-14.1245-1.9643h.0039c-3.5022-.8359-18.3365-3.71254-22.4419-4.5058.52-1.5184.9048-3.03667 1.1284-4.54337l-14.7875-10.37413-6.3219 2.25264s-11.4998-4.28597-30.4109-13.18837c-5.8643-2.76354-12.4488-5.97194-19.6261-9.63417 5.1935.36504 10.3038.52754 15.2867.52754 5.6134 0 11.0669-.2067 16.2929-.56264h53.4638c2.0878-.00156 3.8298-1.44326 4.3004-3.36427v.0026c.0845-.3393.1287-.68666.1274-1.04819v-1.77177c.1014-.06344.2002-.13104.2938-.2041.6149-.47333 1.0725-1.15297 1.1726-1.95247l2.2581-18.2065c1.105-.2574 2.223-.5226 3.3553-.7956l62.933 18.0713c-7.8962 24.33483-25.545 40.78334-48.1338 51.34987-.0416.00156-.0845.00156-.1261.00156" fill="#4ebe7b"/></g><path d="m50.74618959 408.62628821-.64948-.0143-.00104.0819c-.00052.923.19643 9.5706 7.19927 21.00943 7.00115 11.44 20.80091 25.64757 47.90799 37.71924 22.74649 10.12583 61.27069 18.096 100.86219 18.10003 28.7404-.00156 58.0359-4.2042 82.2367-14.8993 24.1969-10.68834 43.3212-27.92153 51.5164-53.9058.0533-.1677.0364-.3471-.0468-.5031-.0832-.1547-.2249-.2691-.3939-.3172l-85.4204-24.5297-.1794-.0247h-114.5846l-.2678.0572-25.1251 11.3841-63.10746 5.1948c-.33202.0273-.58903.3003-.59605.6331l.64948.0143.0533.6487 63.21952-5.2039.21489-.0559 25.09962-11.3724h114.3519l85.3333 24.5037.1794-.624-.6201-.1963c-8.0717 25.5671-26.8359 42.50883-50.8014 53.10734-23.9603 10.59253-53.0972 14.79062-81.7115 14.78906-39.4095.00403-77.8401-7.96406-100.33309-17.98823-26.91247-11.98847-40.47368-26.0143-47.32858-37.21003-6.85295-11.19534-7.00674-19.58554-7.00778-20.33044l.00052-.052-.65-.0156.0533.6487z" fill="#1d2a30"/><path d="m113.64713054 258.85708568c-10.06187 8.9843-44.95361 110.5546-40.44326 121.5734 4.51035 11.0201 63.65645 21.1991 63.65645 21.1991s-5.8461-114.6249-6.1451-116.5411-17.06809-26.2314-17.06809-26.2314" fill="#1d2a30"/><path d="m274.88822975 258.85708568c10.0607 8.9843 44.954 110.5546 40.443 121.5734-4.511 11.0201-63.6571 21.1991-63.6571 21.1991s5.8461-114.6249 6.1451-116.5411c.3003-1.9162 17.069-26.2314 17.069-26.2314" fill="#1d2a30"/><path d="m115.88962261 258.78289012s23.21319-26.2314 78.12909-27.7875c44.122-1.2506 74.3236 20.6011 78.6357 27.7875 4.3108 7.1877-19.6235 103.0081-19.6235 103.0081l13.3952 51.584s-71.8666 23.95497-136.0658 0l8.6229-54.4583s-22.61428-86.7178-23.09359-100.1338" fill="#1d2a30"/><path d="m192.18071134 257.0848825c-2.483.0013-5.0128-.3354-7.5478-1.1024-.3432-.104-.5369-.4667-.4329-.8099.0845-.2808.3419-.4615.6214-.4615.0624 0 .1261.0091.1885.0273 2.405.728 4.8048 1.0465 7.1708 1.0465h.0156c7.9495 0 15.5441-3.6387 21.3577-7.5413 5.8188-3.9013 9.8488-8.0444 10.7003-8.9492.1131-.1209.1677-.1807.1677-.1807.1287-.1417.3042-.2132.481-.2132.156 0 .312.0546.4368.1677.2665.2418.286.6526.0455.9191-.0221.0221-3.8792 4.2731-9.9437 8.5371-6.0658 4.2588-14.3455 8.5553-23.2609 8.5605" fill="#8e989b"/><path d="m222.62562404 283.32268123c-.0143 0-.0286-.0013-.0429-.0026-4.7541-.3094-9.5017-.9282-14.1674-1.8304-.3523-.0676-.5824-.4095-.5148-.7618.0598-.3107.3328-.5265.637-.5265.0416 0 .0832.0039.1248.0117 4.6124.8931 9.308 1.5041 14.0049 1.8109.3575.0234.6292.3328.6058.6903-.0221.3445-.3081.6084-.6474.6084" fill="#8e989b"/><path d="m201.40101071 279.7444952c-.052 0-.1053-.0052-.1586-.0195-19.7678-4.9426-38.4605-14.8122-51.1758-26.3744-.2665-.2405-.286-.6526-.0442-.9178.1287-.1404.3042-.2119.481-.2119.156 0 .3133.0559.4368.169 12.5177 11.388 31.057 21.1887 50.6181 26.0741.3484.0871.559.4407.4732.7891-.0741.2951-.3393.4914-.6305.4914" fill="#8e989b"/><path d="m254.72491642 302.16027869c-.0104 0-.0221 0-.0338-.0013-.3575-.0169-.6344-.3224-.6162-.6812.4511-8.9908 3.3189-17.7047 7.4087-25.6191.1157-.2236.3419-.3523.5772-.3523.1014 0 .2028.0234.299.0728.3185.1651.4433.5564.2782.8762-4.0248 7.7909-6.8263 16.3332-7.2644 25.0874-.0182.3471-.3042.6175-.6487.6175" fill="#8e989b"/><path d="m265.71191578 270.26789012c-.117 0-.2366-.0312-.3432-.0988-.3042-.1898-.3978-.5915-.2067-.8957 1.7667-2.8262 3.6907-5.5835 5.8526-8.1445.1287-.1534.312-.2314.4979-.2314.1469 0 .2964.0507.4186.1534.2743.2314.3081.6409.0767.9165-2.1099 2.4999-4.0001 5.2065-5.7434 7.995-.1235.1976-.3354.3055-.5525.3055" fill="#8e989b"/><path d="m270.65051198 291.78078821c.117-.5941.2327-1.1856.3471-1.7719.7046-.4277 1.4209-.8073 2.145-1.1284.0845-.0377.1742-.0546.2613-.0546.2496 0 .4875.1443.5954.3874.1443.3289-.0052.7124-.3328.8567-1.0114.4433-2.0215 1.027-3.016 1.7108" fill="#8e989b"/><path d="m259.86101198 314.67238123h-1.4131c-1.2948-3.0225-2.3868-5.2234-2.8574-6.1438-.1612-.3146-.247-.4758-.2483-.4771-.1053-.1989-.1001-.4407.0143-.6357.0104-.0169 2.0878-3.5412 5.3066-7.5751 2.7261-3.4086 6.2465-7.1903 10.0945-9.5277-.1144.5863-.2301 1.1778-.3471 1.7719-2.7131 1.8655-5.3105 4.4824-7.4971 7.0642-2.9913 3.5282-5.2312 6.9797-6.0723 8.3304-.0702.1118-.13.2093-.1794.2899.4459.8658 1.7082 3.3774 3.1993 6.903" fill="#8e989b"/><path d="m296.43762467 359.55568314c-.234 0-.4589-.1261-.5759-.3484-.2119-.4082-.65-.8502-1.2961-1.2571-.6435-.4069-1.4846-.7787-2.457-1.0868-1.9435-.6149-4.4083-.975-6.9147-.975-.0026 0-.0052 0-.0078 0-.0013 0-.0039 0-.0052 0-1.9357 0-3.8961.2145-5.6641.6721l.1716-1.3806c1.7602-.4069 3.6426-.5902 5.4977-.5915 3.952.0091 7.7649.8164 10.0737 2.2633.7696.4875 1.3845 1.0569 1.7524 1.7511.1677.3185.0455.7111-.273.8788-.0962.0507-.1989.0741-.3016.0741" fill="#8e989b"/><path d="m280.07370817 351.91288694.26-2.1021c.2249-.195.4745-.3952.7462-.5954 1.6172-1.1908 4.0885-2.3816 7.4204-2.3816h.0052c2.3322 0 5.0713.5798 8.2186 2.1073.3224.156.4576.5447.3016.8684-.1131.2314-.3445.3666-.5863.3666-.0949 0-.1911-.0221-.2821-.0663-2.9991-1.4534-5.5367-1.976-7.6518-1.976-2.9263.0013-5.0661.9997-6.5169 2.0293-.923.6565-1.56 1.3273-1.9149 1.7498" fill="#8e989b"/><path d="m131.82961515 294.49737869c-.3432 0-.6305-.2691-.6487-.6149-1.1102-20.6297-12.09143-28.4869-12.68254-28.9081l-.0234-.0156c-.29861-.2002-.37986-.6032-.1807-.9022.12545-.1872.33163-.2899.54184-.2899.12389 0 .24882.0364.35945.1092.10517.0585 12.12315 8.1523 13.28405 29.9364.0182.3588-.2561.6656-.6149.6838-.0117.0013-.0234.0013-.0351.0013" fill="#8e989b"/><path d="m121.43093483 294.93869329c-.11427-.0325-.22386-.0611-.32851-.0871h.00052c-.3484-.0884-.55861-.4433-.47021-.7904.06188-.2431.25337-.4199.48191-.4732.10452.4472.21073.9009.31629 1.3507" fill="#8e989b"/><path d="m129.45911547 309.84708568c-.0754 0-.1534-.013-.2275-.0416-.3367-.1261-.507-.5005-.3809-.8359.2353-.6253.6851-1.4911 1.1648-2.4609.4784-.9646.9815-2.0189 1.2961-2.9172.2106-.5954.3302-1.1271.3276-1.456l-.0143-.1859c-.1157-.7215-.5837-1.4911-1.3286-2.2399-.7423-.7475-1.7433-1.4625-2.8314-2.093-2.02462-1.1765-4.35903-2.067-5.88458-2.4908-.10556-.4498-.21177-.9035-.31629-1.3507.04771-.0117.0975-.0169.14781-.0169.05278 0 .1066.0065.16042.0195 2.45531.637 7.06654 2.4427 9.64574 5.0154.8554.8645 1.5041 1.8382 1.69 2.9445.0221.1326.0312.2639.0312.3978-.0039.5915-.169 1.2168-.4017 1.8863-.234.6669-.5434 1.3702-.8671 2.0566-.6461 1.3637-1.3598 2.691-1.6029 3.3475-.0975.26-.3458.4212-.6084.4212" fill="#8e989b"/><path d="m114.97864086 355.81827933c-.18226 0-.36361-.0767-.49205-.2262-1.15934-1.3429-2.85753-1.8824-4.67441-1.885-.53222 0-1.07042.0468-1.59965.1339-.03549.0065-.07111.0091-.10608.0091-.31278 0-.58864-.2262-.6409-.5447-.05785-.3536.18187-.689.53573-.7462.59371-.0988 1.20146-.1521 1.8109-.1521h.01417c2.05673 0 4.17326.6331 5.64382 2.3361.23517.2717.20475.6825-.06695.9165-.12298.1066-.2743.1586-.42458.1586" fill="#8e989b"/><path d="m94.77131832 359.56388504c-.21073 0-.41743-.1027-.54236-.2912-.19851-.299-.11674-.702.18239-.9009 2.16827-1.4378 4.46056-2.6988 6.83969-3.7531.0858-.0377.17524-.0559.26312-.0559.24921 0 .48698.1443.59462.3861.14573.3289-.0026.7124-.33059.858-2.31114 1.0244-4.54038 2.2503-6.64833 3.6478-.11024.0741-.23504.1092-.35854.1092" fill="#8e989b"/><path d="m106.96668896 363.75498821c-.02587 0-.05174-.0013-.07813-.0052-.35659-.0416-.611-.3653-.56836-.7215.01066-.0741.16861-1.3494 1.26555-2.6468 1.08927-1.2961 3.1291-2.5311 6.60816-2.5311h.03965c.67938 0 1.41414.0442 2.20948.143l.16497 1.3325c-.8749-.1222-1.66413-.1755-2.37445-.1755-3.11298.0078-4.69482 1.0075-5.57427 1.9786-.87698.9737-1.04104 1.9955-1.04819 2.0553h-.00052c-.04004.3289-.31993.5707-.64389.5707" fill="#8e989b"/><path d="m222.23172594 236.84367742s-12.35 12.155-27.235 12.155-29.224-14.079-29.224-14.079 7.709-3.835 9.776-11.518c.13-.455.234-.936.312-1.417.559-3.367-.338-9.048-1.638-14.755-2.041-8.905-5.07-17.823-5.07-17.823h48.295s-2.288 11.141-3.796 21.411c-.273 1.885-.533 3.731-.728 5.486-.221 1.885-.403 3.64-.494 5.2-.663 10.881 9.802 15.34 9.802 15.34" fill="#fff"/><path d="m222.23172594 236.84367742-.4563-.4641-.1326.1287c-.6812.6448-3.9338 3.6192-8.7243 6.4207-4.7918 2.8041-11.1137 5.4223-17.9218 5.4197-7.2345.0065-14.4534-3.4476-19.8419-6.9355-2.6936-1.742-4.9322-3.4853-6.4922-4.7918-.78-.6539-1.3923-1.1973-1.807-1.5769-.2067-.1898-.3653-.338-.4719-.4381l-.156-.1508-.455.4641.2886.5824c.0338-.0182 2.0046-.9997 4.2523-2.9718 2.2451-1.9721 4.7801-4.9452 5.863-8.9596l-.6279-.169.6253.1781c.1378-.4836.2457-.9867.3276-1.4911v.0026c.1235-.7462.1781-1.5769.1781-2.4817-.0026-3.4463-.7891-7.9768-1.8239-12.5242v-.0013c-2.0514-8.9466-5.0843-17.875-5.0882-17.8867l-.6149.2093v.65h48.295v-.65l-.637-.13c-.0013.0052-2.2906 11.1514-3.8025 21.4461v.0013c-.273 1.8876-.5343 3.7401-.7306 5.5081v-.0039c-.221 1.8902-.4043 3.6556-.4966 5.2377v-.0013c-.0221.3471-.0325.6877-.0325 1.0231-.0013 5.304 2.5792 9.0727 5.1207 11.4634 2.5454 2.3972 5.0635 3.471 5.1077 3.4905l.2548-.598-.4563-.4641.4563.4641.2548-.598-.0936-.0416c-.4966-.2275-2.8639-1.3923-5.0752-3.6322-2.2152-2.2464-4.2666-5.5237-4.2692-10.0841 0-.3094.0104-.624.0299-.9451v-.0013c.0897-1.5379.2704-3.2825.4914-5.1623v-.0039c.1937-1.742.4524-3.5815.7241-5.4652v.0013c.7527-5.1207 1.7004-10.4676 2.4596-14.5314.3796-2.0319.7124-3.7427.9503-4.9465.2379-1.2025.3796-1.8941.3796-1.8954.039-.1911-.0091-.3913-.1326-.5421s-.3081-.2392-.5031-.2392h-48.295c-.2093 0-.4069.1014-.5291.2717-.1209.169-.1534.39-.0871.5876.0013.0013.1872.5512.5031 1.5236.9438 2.9146 3.0264 9.5888 4.5487 16.2357v-.0013c1.0257 4.498 1.794 8.9804 1.7914 12.2356 0 .8515-.052 1.6172-.1599 2.2685l-.0013.0026c-.0741.4589-.1729.9152-.2951 1.3429l-.0026.0091c-.9841 3.6686-3.3371 6.4545-5.4652 8.3213-1.0608.9321-2.0631 1.6328-2.795 2.0982-.3666.2314-.6643.4056-.8697.52l-.234.1274-.0741.0377c-.1885.0936-.3198.2717-.3523.481-.0338.208.0364.4173.1859.5655.0208.0195 3.6322 3.5646 9.1338 7.1214 5.5016 3.5516 12.896 7.137 20.5465 7.1435 7.6219-.0039 14.5301-3.1005 19.539-6.1737 5.0089-3.0771 8.1276-6.1451 8.151-6.1685.156-.1521.2236-.3705.1833-.5837-.0403-.2145-.1846-.3926-.3835-.4771z" fill="#1d2a30"/><path d="m267.78221451 415.80438948v5.57544c0 .30979-.0364.60073-.1092.89076-.3991 1.6341-1.8889 2.8691-3.6686 2.8691h-132.3218c-1.781 0-3.2708-1.235-3.6699-2.8691-.0728-.29003-.10933-.58097-.10933-.89076v-5.57544z" fill="#6f7172"/><g clip-path="url(#d)"><path d="m267.51401515 422.27938282h-94.9104c-1.313-.68666-2.6416-1.3884-3.9871-2.1034h98.371v-.65.65c.2236 0 .4446-.0208.6591-.05993v1.27257c0 .25896-.0299.49153-.0897.73476v.0026c-.013.05174-.0273.10257-.0429.1534" fill="#565759"/></g><path d="m267.78221451 415.80438948h-.65v5.57544c0 .25896-.0299.49153-.0897.73476v.0026c-.3289 1.34576-1.5652 2.3751-3.0381 2.37354h-132.3218c-1.4729.00156-2.7105-1.02778-3.0381-2.37354l-.0013-.0026c-.0598-.24323-.0897-.4758-.0897-.73476v-4.92544h139.2287v-.65h-.65.65v-.65h-139.87883c-.17108 0-.33865.0689-.45955.1898-.12142.1209-.19045.2886-.19045.4602v5.57544c-.00052.36153.04368.70889.12844 1.04819l-.00091-.0026c.47125 1.92101 2.2126 3.36271 4.3017 3.36427h132.3218c2.0878-.00156 3.8298-1.44326 4.3004-3.36427v.0026c.0845-.3393.1287-.68666.1274-1.04819v-5.57544c0-.1716-.0689-.3393-.1898-.4602s-.2886-.1898-.4602-.1898z" fill="#1d2a30"/><path d="m266.47441578 418.19338821h-137.2644c-1.38905 0-2.63432-.9581-2.78096-2.145l-11.92295-96.1493c-.20163-1.6237.95966-2.9458 2.59441-2.9458h161.4834c1.6341 0 2.795 1.3221 2.5935 2.9458l-11.9223 96.1493c-.1469 1.1869-1.3923 2.145-2.7807 2.145" fill="#6f7172"/><path d="m266.47571705 418.19338821v-.65h-137.2644c-.5447.00156-1.0712-.1911-1.45964-.4914-.39104-.3029-.62972-.6955-.67652-1.0842l-11.92282-96.1493-.01781-.2821c.00156-.5616.20865-1.0335.55094-1.3767.34385-.3406.82316-.5538 1.41635-.5564h161.4834c.5928.0026 1.0712.2158 1.4157.5564.3419.3419.5486.8138.5499 1.3754l-.0182.2834-11.921 96.1493c-.0468.3887-.286.7813-.6773 1.0829-.3887.3016-.9152.49426-1.4586.4927v.65.65c.8437-.00156 1.6354-.28743 2.2529-.76323.6149-.47333 1.0725-1.15297 1.1726-1.95247l11.9223-96.148c.0182-.1508.0273-.299.0273-.4446.0013-.8918-.3432-1.7108-.9321-2.2958-.5876-.5876-1.4157-.9373-2.3335-.936h-161.4834c-.91819-.0013-1.74746.3497-2.33389.936-.58916.585-.93496 1.404-.9334 2.2971 0 .1456.0091.2938.02743.442l11.92295 96.1493c.10049.7995.55809 1.47914 1.17299 1.95247.6175.4758 1.40842.76167 2.25342.76323h137.2644z" fill="#1d2a30"/><path d="m265.92451578 416.20759012h-102.8001c-1.9201-1.04-3.8688-2.106-5.8448-3.1993-10.0477-5.5497-20.137-10.8316-29.89792-15.4557l-9.37378-73.5553c-.13715-1.079.76934-2.0982 1.8642-2.0982h155.9389c1.0959 0 2.002 1.0192 1.8642 2.0982z" fill="#8e8f8e"/><path d="m130.40341578 416.12308885-11.75057-92.209-.00858-.1352c-.00104-.3081.1365-.6227.36816-.8567.23257-.2353.54028-.3757.85969-.3744h155.9389c.3198-.0013.6279.1391.8606.3744.2314.234.3692.5473.3679.8554l-.0091.1365-11.7507 92.209c-.0455.3562.2067.6825.5629.728s.6812-.2067.7267-.5629l11.7507-92.2103.0195-.3003c-.0143-1.3676-1.1245-2.5142-2.5285-2.5298h-155.9389c-1.40361.0156-2.5142 1.1635-2.52785 2.5311l.01872.299 11.75083 92.2103c.0455.3562.3705.6084.7267.5629s.6084-.3718.5629-.728" fill="#1d2a30"/><path d="m199.29591451 375.92007933h-14.1063l16.3852-17.1535-7.6089 13.6136z" fill="#73cd91"/><path d="m199.29591451 375.91879393v-.65h-12.5866l11.8027-12.3552-5.1129 9.1481c-.1664.2964-.0754.6708.208.858l5.33 3.5412.3588-.5421v-.65.65l.3601-.5408-4.8282-3.2071 7.3138-13.0884c.1599-.286.0819-.6448-.1807-.8398-.2639-.195-.6305-.1625-.8567.0741l-16.3839 17.1535c-.1807.1885-.2301.4654-.1274.7046.1014.2405.3367.3939.5967.3939h14.1063c.2873 0 .5395-.1872.6227-.4615s-.0234-.5707-.2626-.7293z" fill="#1d2a30"/><path d="m193.99651515 385.15939329 17.3914-16.7934h-13.7722l4.9374 3.6465z" fill="#73cd91"/><path d="m193.99651515 385.15939329.4524.468 17.3901-16.7934c.1911-.1846.2509-.4654.1508-.7111-.0988-.2457-.3367-.4069-.6019-.4069h-13.7722c-.2808 0-.5291.1807-.6175.4472-.0871.2665.0052.559.2314.7267l4.4447 3.2812-8.2225 12.6347c-.1807.2769-.1248.6448.1313.8554s.6266.1963.8658-.0338l-.4524-.468.5447.3549 8.5566-13.1469c.1872-.2886.1183-.6734-.1586-.8775l-3.3488-2.4739h10.1881l-16.2331 15.6767.4511.4667.5447.3549z" fill="#1d2a30"/><path d="m313.8066069 476.10952631 4.1535 4.72576s3.8753 8.86834-6.8744 19.72334c-10.7484 10.855-38.7114 13.04576-49.5833 11.11253l-6.8523.92573-23.3051-5.005s-11.8027-5.7759-6.9836-15.90316c4.8191-10.12778 89.4452-15.5792 89.4452-15.5792" fill="#73cd91"/><path d="m313.80530563 476.11212488-.4875.42809 4.1535 4.72667.4875-.429-.5954.26.0026.0065c.0507.12246.624 1.56.6227 3.89597-.0052 3.45826-1.2285 8.8959-7.3658 15.1034-4.0963 4.14726-10.933 7.0707-18.3729 8.91306-7.4386 1.84951-15.4713 2.63757-21.9518 2.63757-3.4463 0-6.4558-.22334-8.684-.61997l-.2002-.00559-6.7392.91156-23.1946-4.98173-.1365.63583.286-.58344-.078-.03913c-.4121-.21333-2.3751-1.28479-4.2016-3.0901-1.8343-1.81077-3.4983-4.31327-3.4957-7.4217 0-1.35889.3133-2.84973 1.0933-4.48903.2197-.47177.7436-1.02674 1.5743-1.58483 1.5548-1.0517 4.1275-2.09937 7.3983-3.07437 11.4647-3.42823 31.4808-6.07893 48.5888-7.85577 8.5566-.8892 16.393-1.56416 22.0883-2.015 2.8483-.22659 5.161-.39663 6.7626-.50986 1.6003-.11427 2.4843-.17017 2.4869-.17173l-.0416-.6474-.4875.42809.4875-.42809-.0416-.64844c-.0065 0-21.1705 1.3624-42.952 3.9949-10.8914 1.31573-21.9349 2.9484-30.5851 4.89177-4.3264.97253-8.0522 2.02007-10.8823 3.16069-1.4157.57018-2.6078 1.16337-3.549 1.79764-.9373.63427-1.6393 1.30754-2.0215 2.10327-.8541 1.79413-1.2207 3.48673-1.2194 5.04816.0039 3.8376 2.1749 6.7743 4.277 8.72534 2.1099 1.95806 4.1925 2.97466 4.2263 2.99247l.1495.05226 23.3051 5.005.2236.00767 6.8523-.92573-.0871-.64337-.1144.63986c2.34.41587 5.408.64077 8.9115.64077 6.5845-.00143 14.6991-.79677 22.2651-2.67566 7.5647-1.885 14.5886-4.83184 18.9839-9.25938 6.3544-6.40913 7.748-12.24496 7.7415-16.01899 0-2.71934-.7072-4.36267-.7345-4.42247l-.1066-.16913-4.1535-4.7268c-.1339-.1508-.3289-.23153-.5304-.21827z" fill="#1d2a30"/><path d="m306.59451832 498.67314663c-9.0103 9.39198-37.8768 11.26164-49.92 8.52007-3.289-.74659-15.2607-1.18066-24.1787-4.3784-4.8152-1.70833-8.7386-4.2159-9.9372-8.01229-3.4515-10.82757 27.0127-31.42594 27.0127-31.42594s19.4376 3.74153 23.4702 4.70483c5.5406 1.28934 10.1738 1.79764 14.2428 1.98003 2.6156.11271 4.9907.09438 7.2059.0767 5.6173-.04576 10.2063-.09152 15.0644 1.99407 7.722 3.32423 7.8312 15.2776-2.9601 26.54093" fill="#6f7172"/><g clip-path="url(#e)"><path d="m234.19192594 502.74535536c-.6175-.18837-1.2246-.39-1.8174-.60177l-.0013-.00156c-2.366-.83681-4.4928-1.86927-6.149-3.12611-1.3195-1.00386-2.3361-2.13733-2.9731-3.43577 7.1071-5.69972 20.0395-17.16559 25.7153-29.16576.8242.1768 2.4544.52663 4.5903.98826 4.706 1.01504 11.8599 2.56438 18.2078 3.97007 3.1733.7033 6.1464 1.37007 8.5085 1.9149 1.6406.37687 2.9926.69927 3.9026.92937-2.1567 3.07073-4.8867 6.5-8.2225 9.88754-1.5405-.22594-3.4437-.59514-5.5276-1.05768-5.3703-1.18586-12.0081-2.97076-17.2978-4.45666-2.6442-.74334-4.953-1.41323-6.6001-1.8967-1.6471-.48334-2.6286-.78-2.6312-.78-.0624-.01976-.1261-.02834-.1872-.02834-.2795 0-.5382.18174-.6227.46254-.104.34437.091.70746.4342.81003.0039.00104 7.0265 2.12004 14.9123 4.24021 3.9429 1.05976 8.1016 2.12056 11.7117 2.91889 1.7056.37583 3.2825.69264 4.6644.92417-9.1195 8.86093-22.4497 17.121-40.6172 17.50437m50.7702-29.66743c-1.2883-.34177-3.7986-.92677-6.9524-1.64177-9.4965-2.14903-24.7117-5.42087-28.496-6.23337.1547-.36153.3029-.72163.4446-1.08316.5382.10413 1.3104.25389 2.249.43563 5.6498 1.0959 17.3563 3.38507 20.3437 4.09916l.0039.00091c5.4184 1.26152 9.984 1.78243 13.9984 1.98003-.4849.77337-1.014 1.59146-1.5912 2.44257" fill="#565759"/></g><path d="m306.59451832 498.67314663-.4693-.44993c-3.1018 3.25-8.9024 5.66761-15.5935 7.2124-6.6911 1.55194-14.2675 2.2633-20.9417 2.26187-5.0284.00143-9.5511-.4043-12.7712-1.13906-.8866-.19864-2.2516-.36361-3.9819-.56017-5.174-.585-13.5447-1.43507-20.1227-3.79587l-.0013-.00156c-2.366-.83681-4.4928-1.86927-6.149-3.12611-1.6588-1.25983-2.8366-2.72896-3.3865-4.46719v-.00104c-.1625-.51233-.2418-1.0517-.2418-1.62396-.0143-2.52174 1.6016-5.69101 4.1262-8.93438 3.7778-4.87253 9.5056-9.92576 14.2818-13.73892 2.3881-1.90684 4.5383-3.50701 6.0905-4.63021.7761-.56173 1.4027-1.00399 1.8343-1.30403.4316-.30173.6656-.4602.6669-.4602l-.364-.5382-.1235.6383c.0039 0 1.2142.23257 3.0992.59917 5.6498 1.0959 17.3563 3.38507 20.3437 4.09916l.0039.00091c5.5809 1.29909 10.2596 1.81246 14.3598 1.99732h.0013c1.6588.07111 3.2188.09087 4.7008.09087 1.7459 0 3.3813-.02743 4.9361-.02743 4.5474 0 8.3824.22854 12.4059 1.95507 1.6601.715 2.9198 1.8408 3.7843 3.29576.8632 1.45431 1.3247 3.25 1.326 5.29841.0052 4.78166-2.5519 10.92156-8.2836 16.89909l.4693.44993.4693.44941c5.8968-6.15927 8.6385-12.55774 8.645-17.79843 0-2.2425-.5083-4.27674-1.508-5.96167-.9958-1.68493-2.4882-3.0108-4.3888-3.82681-4.2731-1.83482-8.3408-2.06076-12.9194-2.06076-1.5704 0-3.2032.02743-4.9361.02743-1.4703 0-3.0108-.01976-4.6449-.08983h.0013c-4.0365-.18187-8.6242-.6851-14.1245-1.9643h.0039c-4.0742-.9724-23.4897-4.70847-23.4988-4.7099-.1677-.0325-.3445.00403-.4862.09893-.013.01027-6.851 4.63177-13.7085 10.67027-3.4294 3.02094-6.8653 6.39327-9.464 9.74337-2.5896 3.35413-4.3849 6.6742-4.3992 9.73167 0 .6916.0962 1.36903.3029 2.01812v-.00156c.6487 2.0566 2.0332 3.74153 3.8402 5.11004 1.8096 1.37319 4.0508 2.44816 6.4987 3.3176l-.0013-.00104c4.537 1.62604 9.7942 2.53604 14.3338 3.14184 2.2698.3016 4.3589.52663 6.0801.72163 1.7173.195 3.0823.36413 3.8402.53677 3.3696.76726 7.9599 1.17156 13.0598 1.17156 6.7652 0 14.4196-.71656 21.2355-2.29593 6.8133-1.58743 12.7959-4.0066 16.2383-7.579z" fill="#1d2a30"/><path d="m243.76322594 477.1385198c.0039.00104 7.0265 2.12004 14.9123 4.24021 3.9429 1.05976 8.1016 2.12056 11.7117 2.91889 3.6192.79521 6.6573 1.33354 8.4877 1.33757.2379 0 .4576-.0091.6617-.0299.3133-.0325.6071-.0468.8827-.0468 2.1788.0117 3.2695.88764 3.9299 1.76514.3237.44083.5239.89076.6383 1.22486.0585.16666.0949.3042.117.39663l.0208.10101.0039.02236.0091-.00247-.0091.00104v.00143l.0091-.00247-.0091.00104c.0546.35646.3848.59917.7397.54587.3549-.05278.5993-.38441.546-.73944-.0117-.05993-.1768-1.1674-1.0179-2.3192-.832-1.15414-2.418-2.30893-4.9777-2.2958-.3224 0-.6617.01677-1.0166.0533-.1469.01586-.3237.02444-.5278.0234-1.5951.00507-4.6345-.51597-8.2069-1.30754-5.3703-1.18586-12.0081-2.97076-17.2978-4.45666-2.6442-.74334-4.953-1.41323-6.6001-1.8967-1.6471-.48334-2.6286-.78-2.6312-.78-.3432-.104-.7059.091-.8099.4342-.104.34437.091.70746.4342.81003" fill="#1d2a30"/><path d="m248.77113102 465.94108631c.0052 0 2.0501.43823 5.1883 1.11566 4.706 1.01504 11.8599 2.56438 18.2078 3.97007 3.1733.7033 6.1464 1.37007 8.5085 1.9149 2.3595.5434 4.1249.96941 4.8308 1.17767 1.183.34684 2.3101.47177 3.315.47177 2.5688-.0026 4.3498-.8034 4.4018-.82524.3276-.14729.4732-.5317.3263-.85917-.1482-.32812-.533-.47333-.8593-.32656l-.0104.00507c-.143.06253-1.7082.70733-3.8584.7059-.8983 0-1.8993-.1118-2.9484-.41847-1.0374-.3042-3.8194-.95667-7.4607-1.78243-10.9109-2.46844-29.3683-6.42083-29.3696-6.42083-.351-.07514-.6968.14833-.7722.4992-.0741.35139.1495.69732.5005.77246" fill="#1d2a30"/><path d="m253.78662023 465.9380279-.0039.09139c-.026.49257-.2301 2.925-1.5756 5.80021-1.3494 2.87833-3.8181 6.19996-8.437 8.56323-.3185.16406-.4459.5551-.2821.87503.1625.31993.5551.4459.8749.28184 5.2273-2.66864 7.9287-6.5676 9.2937-9.77847 1.3689-3.2149 1.4274-5.74847 1.43-5.80424.0078-.35906-.2769-.65507-.6357-.66326-.3588-.0091-.6565.27573-.6643.63427" fill="#1d2a30"/><path d="m260.12072531 467.07862726-.0065.09243c-.0702 1.00997-.9568 9.68903-8.4279 15.28566-.2873.2158-.3458.62257-.13.91.2158.28691.624.34424.91.13 4.2432-3.18903 6.4805-7.27649 7.6544-10.5534 1.1739-3.27886 1.2948-5.75809 1.2974-5.80229.0182-.35841-.2587-.66261-.6175-.68094-.3588-.01677-.663.26-.6799.61854" fill="#1d2a30"/><path d="m266.83001451 469.54176012.0039.01716c.0169.10777.1027.67691.1027 1.56871 0 1.46809-.2327 3.80549-1.3793 6.40146s-3.1993 5.46104-6.89 8.01684c-.2951.2041-.3692.60892-.1651.90389.2041.2951.6097.3692.9048.1651 3.8831-2.68489 6.1061-5.76069 7.3398-8.5618 1.2363-2.80163 1.4898-5.32077 1.4898-6.92549 0-1.11371-.1222-1.7901-.1274-1.82104-.065-.35347-.4043-.58656-.7579-.52156-.3523.065-.5863.40326-.5213.75673" fill="#1d2a30"/><path d="m273.89412467 470.3192198.0117.10777c.0234.22893.0715.80834.0715 1.63566 0 1.755-.2197 4.61851-1.3429 7.59174-1.1258 2.97427-3.1343 6.05007-6.7444 8.32507-.3042.19149-.3952.59319-.2041.89726.1911.30277.5928.39507.8957.20423 3.8844-2.44413 6.0723-5.79319 7.2683-8.96753 1.1986-3.17889 1.4261-6.18969 1.4274-8.05077 0-1.16909-.091-1.88656-.0936-1.90892-.0455-.35594-.3718-.6084-.728-.56264-.3562.04563-.6071.37167-.5616.72813" fill="#1d2a30"/><path d="m281.44701705 471.29548504-.0052.12857c-.026.66716-.2171 3.8233-1.3507 7.40077-1.1336 3.58423-3.2045 7.55833-6.9186 9.9684-.3016.195-.3861.59826-.1911.8983.1963.3016.598.38753.8996.19149 4.3537-2.83673 6.5455-7.4984 7.6739-11.4075 1.1258-3.91573 1.1895-7.11906 1.1921-7.15403.0065-.35854-.2782-.65663-.637-.66326-.3588-.00767-.6565.27729-.663.63726" fill="#1d2a30"/><path d="m287.41782467 473.08198885.0078.04004c.039.21593.2145 1.2584.2145 2.77069 0 1.76774-.2392 4.17014-1.1973 6.64677-.9594 2.47754-2.6247 5.02983-5.5133 7.15-.2899.21177-.3523.61906-.1404.90844.2119.29003.6188.35243.9087.1391 3.1031-2.27344 4.927-5.05674 5.9579-7.72837 1.0322-2.67254 1.2844-5.2325 1.2844-7.11594 0-1.84236-.2418-3.03823-.2483-3.07073-.0715-.35087-.4147-.57837-.767-.50687-.351.07111-.5785.41444-.507.76687" fill="#1d2a30"/><path d="m248.85541134 457.25981314c-2.9068 19.63663-33.1903 40.9825-33.1903 40.9825s-8.3928-7.86656-11.154-7.54c-2.7794.32747-14.3143-.4901-14.3143-.4901s-91.24856-34.1341-102.14828-34.31493c-6.83059-.1092-26.5408-6.10493-36.29587-21.6541-5.79475-9.22896-8.06559-21.8361-2.0709-38.5684 9.88247-27.5925 58.58528-7.2644 106.34455 19.1126 15.8587 8.77344 29.9377 15.8041 41.3088 21.16257 18.9111 8.9024 30.4109 13.18837 30.4109 13.18837l6.3219-2.25264z" fill="#73cd91"/><g clip-path="url(#f)"><path d="m215.73362086 498.91231314s-8.0548-7.54923-10.9785-7.54923c-.0611 0-.1183.0026-.1755.00923-.4628.05434-1.1713.07761-2.028.07761-4.2809 0-12.2863-.56771-12.2863-.56771s-91.24856-34.1341-102.14828-34.31493c-.98371-.01573-2.23496-.15327-3.68524-.42497-1.1024-.20566-2.31868-.48906-3.62063-.85319-8.87861-2.48521-21.70805-8.76837-28.99-20.37594 11.46275.8541 30.97341 2.76094 40.274 6.24767 0 0-10.40858 2.57907-7.53844 5.08716 2.12927 1.87343 25.65576 5.04673 43.65959 5.04673 6.2634 0 11.8586-.38389 15.652-1.34069 13.2795-3.34243 39.8021-12.3708 53.5353-13.3341 18.9111 8.9024 30.4109 13.18837 30.4109 13.18837l6.3219-2.25264 14.7875 10.37413c-.2236 1.5067-.6084 3.02497-1.1284 4.54337-.1417.41184-.2925.8242-.4524 1.23604-.1417.36153-.2899.72163-.4446 1.08316-.1742.40417-.3562.80847-.5473 1.2116-5.6758 12.00017-18.6082 23.46604-25.7153 29.16576-.3614.28938-.7072.56511-1.0374.8242-.0182.01417-.0377.02938-.0546.04407-2.3335 1.83274-3.8103 2.8743-3.8103 2.8743" fill="#4ebe7b"/></g><path d="m248.85541134 457.25981314-.6435-.09646c-1.391 9.53563-9.5966 19.7457-17.4967 27.48733-3.9468 3.87517-7.8078 7.14493-10.6795 9.44177-1.4352 1.1492-2.6234 2.05556-3.4528 2.67306-.4134.30927-.7384.546-.9581.7059-.2197.16003-.3341.2392-.3341.2392l.3744.5317.4446-.47489c-.0078-.00598-2.0293-1.90164-4.433-3.80848-1.2038-.9542-2.4999-1.91152-3.7037-2.64316-.6032-.36517-1.1817-.67496-1.7277-.89934-.546-.22399-1.0543-.37076-1.5587-.37336l-.2522.0143h.0013c-.4121.04823-1.1089.07254-1.9526.07254-2.1138 0-5.1818-.14157-7.7116-.28327-2.5324-.1417-4.5253-.28184-4.5292-.2834l-.0455.64896.2275-.60827c-.0026-.00156-22.8163-8.53593-46.9976-17.09409-12.0913-4.27934-24.52307-8.56427-34.62134-11.79334-5.04972-1.61486-9.51548-2.96569-13.06955-3.92093-3.56434-.95407-6.17461-1.51827-7.67611-1.5483h-.00052c-3.25871-.04563-9.86076-1.55077-16.77403-4.9699-6.9251-3.41757-14.19184-8.74094-18.98156-16.38h-.00052c-3.35153-5.3417-5.50212-11.81583-5.50316-19.6261 0-5.4522 1.05066-11.5583 3.49375-18.3768 1.62851-4.5357 4.29-7.6804 7.84875-9.737 3.55927-2.0527 8.04986-3.0043 13.30472-3.0043 10.3025-.0039 23.48879 3.6699 38.02552 9.5433 14.53907 5.8721 30.43885 13.9321 46.23905 22.659 15.873 8.78176 29.9637 15.81853 41.3465 21.18194 18.9306 8.91163 30.446 13.20566 30.4603 13.21086.1443.0533.3016.05473.4459.00247l6.0047-2.13993 14.5132 10.18069.3731-.5317-.6435-.09646.6435.09646.3731-.53326-14.7875-10.37257c-.1729-.1209-.3926-.1508-.5915-.08073l-6.3219 2.2542.2184.61087.2275-.6084c-.0026-.00091-.7124-.26507-2.0813-.80431-4.1093-1.61889-14.1115-5.69413-28.2802-12.36326-11.3594-5.35327-25.4254-12.37834-41.2711-21.14437-15.8288-8.7412-31.7655-16.8233-46.38127-22.7266-14.61941-5.9007-27.90788-9.6343-38.5125-9.6382-5.40722 0-10.13038.975-13.9542 3.1785-3.82382 2.1996-6.71437 5.6407-8.42309 10.4247-2.48625 6.9381-3.57045 13.195-3.56993 18.8149-.00208 8.05103 2.22924 14.78867 5.70219 20.31614 4.96535 7.91232 12.43125 13.36166 19.50767 16.85593 7.08799 3.49167 13.75608 5.03997 17.32861 5.10393h-.00052c1.22278.0143 3.84865.55666 7.36073 1.50423 12.3357 3.31344 35.99921 11.5115 56.55221 18.87431 10.2778 3.6816 19.7834 7.15559 26.7176 9.70892 3.4684 1.27608 6.2933 2.32427 8.2511 3.05084 1.9578.72774 3.0459 1.13503 3.0485 1.13607l.182.03913c.0091 0 8.008.56823 12.3331.56914.8697-.00091 1.5886-.02184 2.1047-.08164h.0013l.0975-.0052c.2262-.00403.6097.08437 1.0634.2743 1.6107.65754 4.0287 2.4466 5.9813 4.05587.9815.80587 1.8551 1.56819 2.483 2.12823.6279.56017 1.0049.91403 1.0062.91507.2249.21073.5668.23413.819.05746.0169-.01326 7.6102-5.3651 15.5857-13.195 7.9677-7.84173 16.3579-18.12239 17.8724-28.2243.0364-.24479-.0676-.48646-.2691-.62816z" fill="#1d2a30"/><path d="m168.84011578 438.84331821c3.2487-.5616 6.4831-1.23253 9.6798-2.07233.3471-.09243.5538-.44746.4628-.7943-.091-.34736-.4459-.55497-.793-.4641-3.1525.82927-6.3505 1.49344-9.5706 2.04906-.3536.06084-.5902.39754-.5291.75101.0611.35399.3965.59163.7514.53066" fill="#1d2a30"/><path d="m80.98677023 440.6614225c13.04667 1.04312 26.2873 1.72003 39.52299 1.72003 13.60476 0 27.20406-.715 40.58236-2.4817.3549-.0468.6058-.37427.559-.7293-.0468-.35594-.3731-.60684-.7293-.56004-13.3094 1.75851-26.8528 2.47104-40.41206 2.47104-13.19097 0-26.39767-.67444-39.4199-1.71444-.3575-.02899-.67093.23764-.69927.59514-.02899.3575.23816.6708.59618.69927" fill="#1d2a30"/><path d="m79.15742578 477.97991615-4.15337 4.72667s-3.87413 8.86743 6.87466 19.72347c10.74944 10.85396 38.71166 13.04563 49.5846 11.11136l6.851.92534 23.3051-5.00357s11.8027-5.77733 6.9836-15.9042c-4.8191-10.1283-89.44559-15.57907-89.44559-15.57907" fill="#73cd91"/><path d="m79.15742578 477.97251472-.48802-.42913-4.15337 4.72667-.10725.16913c-.02639.05993-.73424 1.7017-.73424 4.4226-.00663 3.77403 1.38788 9.60973 7.74215 16.0173 4.39504 4.42767 11.41868 7.37607 18.98351 9.26003 7.56639 1.87941 15.68073 2.67514 22.2651 2.67514 3.50311 0 6.57111-.2249 8.91111-.63934l-.1131-.6409-.0871.64441 6.851.92586.2236-.00923 23.3051-5.00344.1495-.05226c.0351-.01833 2.1164-1.03597 4.2263-2.99364 2.1021-1.95143 4.2744-4.88813 4.2783-8.72573 0-1.56156-.3653-3.25403-1.2194-5.04816-.3822-.79417-1.0842-1.46757-2.0228-2.1034-1.7615-1.18417-4.4161-2.2425-7.7519-3.24181-11.661-3.4801-31.6797-6.11819-48.82696-7.90309-17.14115-1.78191-31.38434-2.7001-31.38941-2.7001-.20163-.01261-.39715.0676-.53014.21996l.48802.42913-.04173.64844c.00364 0 1.31885.08476 3.64052.25337 8.12409.59059 28.51225 2.20649 47.3772 4.77906 9.4315 1.2857 18.4834 2.81177 25.4124 4.5617 3.4632.87334 6.3973 1.8057 8.5618 2.77563 1.0816.48347 1.9708.97864 2.6312 1.4651.6617.48594 1.0842.9633 1.2779 1.37514.78 1.63917 1.092 3.13066 1.0933 4.48903.0039 3.31344-1.8941 5.94503-3.8623 7.77257-.9802.91156-1.9669 1.61083-2.7053 2.08-.3679.23413-.6747.4108-.8866.52923l-.2444.13-.0767.04004.2847.58396-.1365-.6357-23.1933 4.98004-6.7392-.91-.2015.00416c-2.2282.3965-5.2377.62153-8.68361.61997-6.48024.00156-14.51385-.78767-21.9518-2.63653-7.4399-1.8434-14.27712-4.76684-18.37316-8.91267-6.13743-6.2075-7.35969-11.6467-7.3658-15.10327 0-1.2467.1625-2.23743.32201-2.90836.08021-.33657.15886-.59254.21671-.76011l.0676-.1859.01625-.0416.0026-.00663-.59566-.26.48841.42913 4.1535-4.7268-.48854-.429-.04173.64844z" fill="#1d2a30"/><path d="m143.39051642 465.24658663s-19.4324 3.73997-23.46747 4.69313c-18.06545 4.26777-26.76778-.12389-36.51219 4.0625-7.72031 3.3176-7.8351 15.28111 2.95295 26.5343 9.00913 9.39497 37.87615 11.26931 49.92351 8.52917 5.0544-1.1492 30.6826-1.5925 34.1211-12.40486 3.4385-10.81327-27.0179-31.41424-27.0179-31.41424" fill="#6f7172"/><path d="m143.39051642 465.24658663-.1222-.6383c-.0078.00143-19.4194 3.7375-23.49451 4.69924-7.76555 1.83326-13.76531 2.05413-18.90382 2.05413-1.6393 0-3.19111-.02184-4.68507-.02184-4.62722 0-8.72885.21684-13.03055 2.06583-1.90177.81497-3.39365 2.14084-4.39101 3.82681-.99892 1.68649-1.50774 3.72073-1.50774 5.96427.00559 5.2416 2.74573 11.63799 8.63889 17.78972 3.44357 3.57344 9.42916 5.99521 16.24701 7.5842 6.81837 1.58184 14.47615 2.29827 21.24486 2.29827 5.09314-.00143 9.67694-.40469 13.04524-1.16896 1.1739-.27014 3.744-.52 6.9121-.89024 4.7632-.5616 10.9369-1.40907 16.2916-3.15653 2.6793-.87646 5.1558-1.97483 7.1578-3.4008 1.9994-1.42493 3.536-3.1967 4.2354-5.39396.2054-.64701.3003-1.32028.3003-2.00941-.0143-3.055-1.8096-6.3726-4.3992-9.72569-3.8987-5.02021-9.6811-10.10594-14.4989-13.95667-4.8165-3.84774-8.6658-6.45177-8.6749-6.4584-.1417-.09594-.3198-.13247-.4875-.09997l.1222.6383-.364.5382c.0013.00104.4199.28444 1.1622.80743 2.5974 1.83274 9.1091 6.58034 14.9461 12.06257 2.9185 2.73923 5.668 5.66423 7.6687 8.47743 2.0072 2.81177 3.2357 5.51434 3.2253 7.7168 0 .56927-.078 1.10604-.2392 1.61577-.7826 2.47104-2.8704 4.4226-5.7577 5.96024-4.3199 2.3075-10.3363 3.61062-15.73 4.41896-2.6988.40573-5.2442.69264-7.3567.9308-2.1164.24024-3.783.4277-4.8022.65767-3.2188.73177-7.735 1.1375-12.75664 1.13646-6.67628 0-14.25684-.71136-20.95132-2.26486-6.69552-1.5457-12.49885-3.96591-15.60208-7.21747-5.72702-5.96986-8.28243-12.10677-8.27736-16.88986.00052-2.04854.46319-3.84514 1.326-5.30101.86476-1.456 2.12511-2.58076 3.78573-3.29576 4.0508-1.74083 7.91934-1.96014 12.51757-1.96014 1.48018 0 3.03368.02184 4.68507.02184 5.17712.00156 11.31559-.22503 19.20243-2.0891 1.989-.47034 7.8663-1.64593 13.2236-2.69854 2.6806-.52819 5.2351-1.02479 7.1188-1.38996 1.885-.36504 3.0966-.59917 3.0992-.59917l-.1235-.6383-.364.5382z" fill="#1d2a30"/><path d="m148.82421927 477.75285441c-.0039.00156-1.7511.52923-4.4863 1.32236-4.1041 1.18937-10.4234 2.97427-16.3488 4.46017-2.96179.74243-5.82634 1.4092-8.26124 1.89007-2.43048.48087-4.44951.77233-5.64083.76986-.20254 0-.38038-.00923-.52663-.0234h.00052c-.3549-.03653-.6942-.05486-1.01764-.05486-2.55931-.01274-4.14531 1.14257-4.97653 2.2958-.84097 1.15076-1.00646 2.25927-1.01816 2.31816-.05382.35451.19045.68614.54535.74087.35503.05343.68601-.19136.73996-.54587l-.00611-.00143.00611.00143-.00611-.00143.00611.00143c.00754-.05889.18226-.97643.84292-1.82559.66872-.84747 1.755-1.67167 3.86646-1.68337.27677 0 .57083.01573.88361.04823h.00052c.20254.0208.42198.03003.65962.03003 1.83014-.00416 4.86837-.54236 8.48705-1.33913 10.82692-2.39187 26.61802-7.15663 26.62582-7.15767.3432-.10413.5382-.4667.4342-.8099-.104-.34489-.4654-.53833-.8099-.43576" fill="#1d2a30"/><path d="m143.93162213 466.52982012c-.0013 0-8.2056 1.7576-16.9065 3.65937-4.35136.9516-8.82674 1.93973-12.46362 2.7625-3.6426.82407-6.42434 1.47823-7.46083 1.78087-1.04962.30823-2.05049.41886-2.94879.41886-1.14725 0-2.12732-.1807-2.81437-.36309-.3432-.08931-.61347-.17914-.79417-.2457l-.20267-.07774-.04719-.01924-.00962-.00416c-.3276-.1482-.71253-.00143-.85982.325-.14716.3276-.00143.71253.32552.86086.05291.02184 1.83326.82264 4.40232.82407 1.0049 0 2.13122-.12389 3.31448-.47073.94757-.27976 3.75518-.94146 7.38205-1.7615 5.44778-1.23253 12.78771-2.83777 18.76381-4.13413 2.9887-.64753 5.6368-1.21927 7.5374-1.6276 1.9006-.40924 3.0511-.65663 3.0537-.65663.351-.07514.5746-.42094.4992-.77181-.0741-.35087-.4199-.57486-.7709-.4992" fill="#1d2a30"/><path d="m137.87651705 467.82831377c.0026.05434.0611 2.5883 1.43 5.80281 1.365 3.21243 4.0664 7.10983 9.295 9.7799.3198.1625.7111.03666.8749-.28327.1625-.31941.0364-.71097-.2834-.87503-4.9257-2.52031-7.4087-6.1308-8.6905-9.13094-.6383-1.49903-.9711-2.84323-1.1427-3.8051-.0871-.48243-.1326-.86827-.156-1.12983-.013-.13104-.0195-.23101-.0234-.29757l-.0039-.08996c-.0078-.35841-.3055-.64337-.6643-.6357-.3588.00806-.6435.30563-.6357.66469" fill="#1d2a30"/><path d="m131.55631324 469.0101198c.0026.0442.1235 2.52434 1.2974 5.80281 1.1739 3.27639 3.4112 7.36476 7.6544 10.55236.2873.2158.6942.15743.91-.12857.2158-.28743.1573-.69563-.1287-.91-3.9858-2.99559-6.0957-6.84073-7.2111-9.9515-.5577-1.55493-.8645-2.92253-1.0309-3.89649-.0832-.4875-.1326-.87451-.1599-1.13854-.013-.13247-.0221-.23257-.0273-.29913l-.0052-.09334c-.0182-.35906-.3224-.63583-.6812-.6175-.3588.01677-.6344.32084-.6175.6799" fill="#1d2a30"/><path d="m124.85496277 471.16645599c-.00611.0325-.12857.70733-.12857 1.82143 0 1.6042.25441 4.12503 1.48993 6.92614 1.235 2.80163 3.458 5.87639 7.3411 8.56063.2951.20566.7007.13156.9048-.16341.2041-.29562.13-.70083-.1651-.90493-3.692-2.55593-5.7434-5.41996-6.8913-8.01736-1.1453-2.59597-1.37943-4.93194-1.37943-6.40107 0-.50973.02847-.91403.0559-1.18664.01313-.13663.02691-.24076.03653-.30732l.01118-.0741.00312-.01781c.065-.35243-.16809-.6916-.52104-.7566s-.69212.16861-.75712.52104" fill="#1d2a30"/><path d="m117.78033054 472.01281441c-.00299.02184-.09347.73931-.09347 1.90931.00052 1.8616.22802 4.87253 1.42649 8.04986 1.19587 3.1759 3.38351 6.52483 7.26817 8.9674.3042.19097.7046.1001.8957-.2041.1924-.30316.1001-.70486-.2028-.8957-3.61166-2.275-5.61951-5.35184-6.74479-8.32663-1.12333-2.9718-1.34368-5.83583-1.34277-7.59083 0-.55094.02145-.99281.04225-1.29441.01066-.14976.02132-.26559.02886-.34229l.0117-.10764c.04576-.35646-.20618-.68146-.56212-.7267-.35594-.04563-.68146.20514-.72722.56173" fill="#1d2a30"/><path d="m110.21768023 473.17992758c.00156.03666.06604 3.2383 1.19236 7.15416 1.12788 3.9091 3.31955 8.57077 7.67312 11.4075.30108.19643.70382.11063.89934-.18993.19552-.30173.11011-.70343-.19045-.89934-3.96149-2.56906-6.05423-6.92406-7.13271-10.67729-.53989-1.87278-.82628-3.58774-.97656-4.82937-.07514-.61997-.11687-1.1232-.1391-1.46757-.0117-.17316-.01781-.30563-.02184-.39507l-.00468-.12896c-.00702-.35854-.30355-.64337-.66261-.63674-.35906.00754-.64389.30407-.63687.66261" fill="#1d2a30"/><path d="m104.27106054 474.69328472c-.00611.03107-.24778 1.22746-.24778 3.0693.00052 1.8824.25233 4.44236 1.28479 7.1149 1.0309 2.67163 2.85389 5.45597 5.95764 7.73097.28951.21229.69615.14976.90844-.14014.21229-.28899.14989-.69576-.13962-.90896-2.88899-2.12017-4.55455-4.67194-5.51382-7.15-.95771-2.47767-1.19795-4.88163-1.19743-6.64677 0-.86437.05694-1.5743.11323-2.06583.02795-.24427.05642-.43524.0767-.5616l.02431-.14274.00767-.04056c.07163-.35191-.15535-.69524-.50726-.76687s-.69472.15587-.76687.5083" fill="#1d2a30"/><path d="m341.33401388 395.48928663c-9.9424-27.5808-58.6027-7.1617-106.2997 19.3141-42.1746 23.41053-71.6625 34.48497-71.6625 34.48497l-6.3167-2.23691-14.7732 10.41014c2.9354 19.63 33.2761 40.91087 33.2761 40.91087s8.3642-7.88424 11.1384-7.56431c2.7742.32084 14.2974-.51649 14.2974-.51649s91.1963-34.31337 102.0877-34.50083c10.8914-.18837 54.444-15.38511 38.2525-60.30154" fill="#73cd91"/><path d="m341.33531515 395.48928663.6123-.221c-1.716-4.7684-4.6033-8.2004-8.4175-10.3948-3.8142-2.197-8.5215-3.1694-13.9087-3.1694-10.6041.0039-23.8953 3.757-38.5164 9.6889-14.6185 5.9332-30.5578 14.0569-46.3853 22.8423-21.0691 11.69467-38.9688 20.30873-51.5983 25.99727-6.3141 2.84323-11.3113 4.95716-14.729 6.3583-1.7082.7007-3.0225 1.2233-3.9078 1.57066-.8853.34684-1.339.5174-1.3403.51844l.2288.6084.2171-.61347-6.3167-2.23587c-.1989-.07007-.4199-.04069-.5915.08021l-14.7732 10.41066c-.2015.1417-.3055.38337-.2691.62764 1.5301 10.09996 9.9424 20.36229 17.927 28.18569 7.9937 7.81261 15.6013 13.1482 15.6195 13.16094.2522.17667.5941.15236.819-.05993 0 0 .1209-.11427.3445-.31941.78-.71656 2.7833-2.51979 4.8919-4.12906 1.0543-.80483 2.1359-1.56104 3.0875-2.10327.9438-.55003 1.7914-.8567 2.197-.84357l.0962.00507c.4979.05746 1.1804.0767 2.0085.07774 4.2965-.00104 12.4033-.59111 12.4111-.59267l.182-.039c.0039-.00104 1.4235-.53534 3.939-1.4742 8.7997-3.2851 30.9517-11.49837 52.0897-18.91097 10.5677-3.70656 20.8832-7.21097 29.1447-9.79823 4.1301-1.29337 7.7467-2.35677 10.6171-3.10024 2.8639-.74386 5.0154-1.16233 6.0801-1.17559 2.4167-.04511 6.2179-.77077 10.6262-2.30997 6.6027-2.31114 14.534-6.45684 20.8468-12.95684 6.3115-6.49337 10.9902-15.3751 10.985-27.01543 0-5.6407-1.0933-11.921-3.6049-18.8903l-.6123.221-.611.221c2.4687 6.8471 3.5282 12.9766 3.5282 18.4483-.0052 15.03554-7.9885 25.1888-17.1782 31.68724-4.5929 3.24246-9.4809 5.55243-13.7839 7.05809-4.2965 1.50514-8.0275 2.20194-10.218 2.23691-1.5015.03146-4.1106.59982-7.6726 1.55896-12.4241 3.36024-36.0607 11.60107-56.6202 19.00847-20.5543 7.40597-38.012 13.97396-38.0133 13.975l.2288.6084-.0468-.64844c-.0052 0-2.0241.14677-4.5786.29497-2.5545.14677-5.642.29354-7.7389.29354-.8008 0-1.4625-.0234-1.8577-.06851l-.247-.0143c-.5057.0026-1.0153.1508-1.5613.37427-1.8915.79014-4.303 2.61937-6.3063 4.2666-1.9929 1.64593-3.5386 3.10336-3.5451 3.10934l.4459.47333.3731-.53274c-.0013 0-.1144-.07969-.3354-.23907-1.6536-1.19093-9.1767-6.74076-16.6062-14.26503-7.4373-7.51556-14.7459-17.03663-16.0654-25.96997l-.6422.09594.3744.5317 14.4976-10.2167 6.0008 2.1242c.1443.0507.3016.04927.4446-.00416.0234-.0091 29.5399-11.09407 71.7496-34.52384 15.8015-8.7711 31.7031-16.874 46.2436-22.776 14.5392-5.9033 27.7264-9.5979 38.0276-9.5927 5.2338 0 9.7084.949 13.2587 2.9965 3.5503 2.0501 6.2088 5.187 7.8442 9.7097z" fill="#1d2a30"/><path d="m208.17302531 467.67798599c2.652.18993 5.3118.28847 7.9677.30667.3601.0026.6526-.28587.6552-.64584.0026-.35906-.2873-.65156-.6461-.65416-2.6299-.0182-5.2611-.1157-7.8845-.30264-.3575-.02639-.6682.24427-.6942.60177-.026.35854.2444.66937.6019.6942" fill="#1d2a30"/><path d="m161.34282531 450.17601631c9.7188 10.30601 25.4943 14.68844 38.7985 16.52261.3562.04823.6838-.20007.7319-.55601.0494-.35503-.2002-.6825-.5551-.73229-13.1729-1.80024-28.6949-6.18917-38.0289-16.12507-.247-.26104-.6578-.27417-.9191-.02743-.2613.24583-.2743.65663-.0273.91819" fill="#1d2a30"/><path d="m272.03511959 431.86664377c12.2421 2.33337 25.4163 4.54181 38.376 4.54181 6.8016 0 13.546-.60827 20.0642-2.13174.3497-.08229.5668-.43069.4849-.78-.0819-.34996-.4316-.5668-.7813-.48503-6.3986 1.495-13.0429 2.09677-19.7678 2.09677-12.8128 0-25.9116-2.18764-38.1329-4.51854-.3523-.06799-.6929.16354-.7605.51597-.0663.35347.1651.69264.5174.76076" fill="#1d2a30"/><path d="m256.66341388 428.61512568c2.6442.66976 5.3014 1.27153 7.9625 1.8408.351.0741.6968-.14924.7722-.50024.0741-.35087-.1495-.69563-.5005-.77077-2.6507-.5668-5.2923-1.16493-7.9157-1.82923-.3484-.08827-.702.12194-.7891.47086-.0884.34827.1222.70174.4706.78858" fill="#1d2a30"/><path d="m213.64672594 210.77777996c-.273 1.885-.533 3.731-.728 5.486-4.862 4.979-12.935 11.83-20.813 12.064-5.707.169-11.726-2.275-16.562-4.966.13-.455.234-.936.312-1.417.559-3.367-.338-9.048-1.638-14.755z" fill="#1d2a30"/><path d="m227.18081705 178.49548504s3.549-3.3371 5.2923-2.2399c1.742 1.0972 3.8025 4.2068 2.8522 7.0408-.9516 2.8327-5.0713 7.7701-5.3872 10.6509-.3172 2.8795-2.4531 6.1425-4.7918 4.2367s2.0345-19.6885 2.0345-19.6885" fill="#fff"/><path d="m227.18081705 178.49548504.4446.4732.1053-.0949c.247-.221.91-.793 1.6848-1.2922.767-.507 1.6692-.9113 2.2256-.897.2106.0013.3601.0429.4849.1209.611.3809 1.3351 1.1154 1.8759 2.0124.5473.8983.9152 1.9526.9126 2.9796 0 .4355-.0637.8671-.2054 1.2922-.4199 1.2727-1.6757 3.2253-2.8704 5.1753-.598.9815-1.1817 1.9708-1.6432 2.9159-.4602.9477-.8073 1.8447-.9035 2.6949-.1118 1.0374-.5005 2.1632-1.0322 2.9744-.2639.4069-.5629.7345-.8554.9438-.2964.2119-.572.3081-.8437.3081-.2834-.0026-.6045-.1001-1.0036-.4225-.0546-.0299-.2145-.2769-.3042-.7254-.0962-.4446-.1456-1.0595-.1443-1.781-.0026-2.7079.6708-6.8679 1.3481-10.3168.3393-1.7264.6786-3.2786.9321-4.4005.2548-1.1206.4225-1.8031.4225-1.8057l-.6305-.1547.4446.4732-.4446-.4732-.6318-.156c-.0013.0065-.6838 2.782-1.3676 6.2673-.6825 3.4892-1.3702 7.6674-1.3728 10.5664 0 .7787.0481 1.4677.1729 2.0527.1313.5811.3159 1.0894.754 1.4612.5707.4693 1.2038.7163 1.8252.715.5941 0 1.1427-.2197 1.6029-.5525.6929-.5031 1.2298-1.2519 1.638-2.0982.4056-.8489.6786-1.8005.7826-2.7339.0611-.5889.3484-1.3897.7787-2.2659.6448-1.3195 1.5938-2.821 2.4765-4.2601.884-1.4456 1.703-2.8132 2.1021-3.9884.1898-.5668.273-1.1414.273-1.7056-.0013-1.3338-.4602-2.5974-1.1011-3.6543-.6448-1.0569-1.4664-1.9123-2.2945-2.4375-.3666-.2314-.7813-.3224-1.1778-.3211-.6058.0026-1.1882.1911-1.7446.4433-1.6536.7631-3.133 2.1736-3.1616 2.1944-.0923.0858-.1547.195-.1859.3172z" fill="#1d2a30"/><path d="m162.18362023 178.49548504s-3.549-3.3371-5.2923-2.2399-3.8025 4.2068-2.8522 7.0408c.9503 2.8327 5.07 7.7701 5.3872 10.6509.3172 2.8795 2.4531 6.1425 4.7918 4.2367 2.3374-1.9058-2.0345-19.6885-2.0345-19.6885" fill="#fff"/><path d="m162.18362023 178.49548504.4446-.4732c-.0143-.0143-.6864-.6461-1.6133-1.2909-.4641-.3224-.9919-.65-1.5483-.9035-.5551-.2522-1.1388-.4407-1.7446-.4433-.3965-.0013-.8112.0897-1.1765.3211-.8281.5252-1.651 1.3806-2.2958 2.4375-.6396 1.0569-1.0985 2.3205-1.1011 3.6543 0 .5642.0845 1.1388.2743 1.7056.5304 1.56 1.8109 3.4931 2.9926 5.4392.5902.9685 1.1557 1.9305 1.5847 2.8093.4316.8762.7176 1.677.78 2.2659.1391 1.2454.5733 2.522 1.235 3.5425.3315.5096.7228.9555 1.1856 1.2896.4602.3328 1.0075.5525 1.6016.5525.6227.0013 1.2545-.2457 1.8252-.715.4394-.3718.624-.8801.754-1.4612.1248-.585.1729-1.274.1742-2.0527-.0026-2.899-.6903-7.0772-1.3741-10.5664-.6838-3.4853-1.3663-6.2608-1.3676-6.2673-.0299-.1222-.0936-.2314-.1859-.3172l-.4446.4732-.6318.1547c0 .0026.169.6851.4225 1.8057.7644 3.3527 2.2867 10.6444 2.2815 14.7173 0 .7215-.0494 1.3364-.1443 1.781-.0897.4485-.2496.6955-.3042.7254-.4004.3224-.7202.4199-1.0049.4225-.2717 0-.5473-.0962-.8424-.3081-.442-.3133-.8879-.8957-1.2259-1.6055-.3393-.7072-.5772-1.5353-.6617-2.3127-.0962-.8502-.4433-1.7472-.9035-2.6949-.6929-1.417-1.6601-2.938-2.5363-4.3693-.8775-1.4235-1.6627-2.7729-1.9773-3.7219-.1417-.4251-.2067-.8567-.2067-1.2922-.0013-1.027.3666-2.0813.9126-2.9796.5421-.897 1.2662-1.6302 1.8759-2.0124.1261-.078.2756-.1196.4849-.1209.3159-.0026.7514.1157 1.2051.325.6812.3107 1.3988.806 1.9318 1.2207.2678.2067.4901.3939.6435.5278l.1781.1573.0572.0533.4459-.4732-.6318.1547z" fill="#1d2a30"/><path d="m193.90611071 132.66638504c46.1487 0 33.6635 55.7986 25.1719 75.5313-2.9822 6.929-17.6995 16.6413-25.1719 16.6413-6.9485 0-20.8455-9.1481-23.6652-15.6585-8.5891-19.8302-20.3203-76.5141 23.6652-76.5141" fill="#fff"/><path d="m193.90611071 132.66638504v.65c12.8401.0117 20.9235 4.3329 25.8986 10.9395 4.9725 6.6118 6.8198 15.6273 6.8172 25.0276.0039 14.6146-4.4577 30.1054-8.1419 38.6568-.6877 1.6081-2.119 3.471-3.9988 5.317-2.8184 2.7742-6.6365 5.5276-10.4221 7.5712-3.7791 2.0475-7.553 3.3696-10.153 3.3605-1.5964.0026-3.7102-.5408-5.9839-1.482-3.4164-1.4092-7.2072-3.6959-10.3818-6.2205-3.1759-2.5168-5.733-5.304-6.7028-7.5634-3.7375-8.619-8.1003-24.3906-8.0951-39.2626-.0026-9.503 1.781-18.6225 6.5351-25.3058 4.7567-6.6755 12.4436-11.024 24.6285-11.0383v-.65-.65c-12.4865-.013-20.7064 4.5539-25.688 11.5856-4.9855 7.0239-6.773 16.4008-6.7756 26.0585.0039 15.1268 4.3953 30.9816 8.203 39.7787.7618 1.7524 2.2074 3.5867 4.0508 5.3989 2.7664 2.7118 6.4402 5.3534 10.1023 7.3346 3.6699 1.976 7.2969 3.3059 10.1075 3.3163 2.0072-.0039 4.3862-.6383 6.9134-1.6757 3.7869-1.5574 7.8923-4.0378 11.3581-6.7964 3.4645-2.7677 6.292-5.7837 7.4971-8.5631 3.7466-8.7139 8.242-24.2918 8.2472-39.1703-.0026-9.5602-1.859-18.8539-7.0785-25.8089-5.2182-6.9615-13.8164-11.4699-26.9373-11.4582z" fill="#1d2a30"/><path d="m202.30831578 178.52048377.1222-.0364c.5876-.169 3.224-.8658 6.1594-.8632 1.677-.0013 3.4463.2275 4.9816.8775 1.5366.6526 2.8392 1.6978 3.6959 3.406.1612.3211.5512.4511.8723.2912.3211-.1612.4511-.5512.2912-.8723-.9997-2.0072-2.5935-3.2838-4.3537-4.0235-1.7641-.7423-3.6959-.9789-5.4873-.9789-3.5828.0013-6.63.9477-6.6651.9568-.3432.1066-.5356.4706-.429.8138.1053.3432.4693.5343.8125.429" fill="#1d2a30"/><path d="m211.00032277 188.23268123c0 1.4183-.7202 2.5675-1.6081 2.5675-.8892 0-1.6081-1.1492-1.6081-2.5675s.7189-2.5675 1.6081-2.5675c.8879 0 1.6081 1.1492 1.6081 2.5675" fill="#1d2a30"/><path d="m187.45092277 177.27768377c-.0364-.0091-3.0836-.9555-6.6651-.9568-1.7927 0-3.7245.2366-5.4873.9789-1.7602.7397-3.354 2.0163-4.3537 4.0235-.1612.3211-.0299.7111.2912.8723.3198.1599.7111.0299.871-.2912.858-1.7082 2.1593-2.7534 3.6972-3.406 1.5353-.65 3.3046-.8788 4.9816-.8775 1.6757-.0013 3.2565.2249 4.4122.4524.5772.1131 1.0491.2262 1.3741.3094.1625.0429.2886.078.3718.1014l.1222.0364c.3432.1053.7072-.0858.8138-.429.1053-.3432-.0858-.7072-.429-.8138" fill="#1d2a30"/><path d="m178.37411451 188.23268123c0 1.4183.7202 2.5675 1.6081 2.5675s1.6081-1.1492 1.6081-2.5675-.7202-2.5675-1.6081-2.5675-1.6081 1.1492-1.6081 2.5675" fill="#1d2a30"/><path d="m189.26771071 199.10437996c-1.7485 1.8577 4.2848 4.9166 5.4197 4.9166s5.7239-2.4037 5.7239-3.8246" fill="#fff"/><path d="m188.79581198 198.65847996c-.3159.3276-.4979.7657-.4927 1.1908.0143.7488.4329 1.339.9386 1.8746.7761.7995 1.8746 1.5028 2.8964 2.0358.5109.2652 1.001.4849 1.4274.6422.4355.1547.7644.26 1.1232.2691.2535-.0026.4862-.0559.7553-.1326.9204-.273 2.2243-.9048 3.3657-1.6536.5681-.3757 1.0907-.7774 1.4976-1.1999.3952-.4264.7358-.8632.7553-1.4885 0-.3588-.2912-.65-.65-.65s-.65.2912-.65.65c.0026.0013-.0091.0871-.0988.2249-.1495.2431-.4992.5941-.9477.936-.6721.5187-1.5639 1.0413-2.3582 1.4196-.3978.1911-.7722.3458-1.0764.4485-.2977.1053-.5486.1495-.5928.1456-.0013.0026-.1534-.0169-.3445-.0767-.689-.2041-1.9721-.8086-3.0108-1.5249-.5226-.3562-.988-.7449-1.2974-1.1024-.3185-.3588-.4407-.6721-.4329-.8177.0052-.0988.0182-.1625.1391-.299.2457-.2626.234-.6734-.0273-.9191s-.6734-.234-.9191.0273" fill="#1d2a30"/><path d="m213.06291071 147.8656825s-16.5516 6.2283-35.5628 0c0 0-6.227-.364-8.6853 2.7677s0 12.8011.6552 16.7349c.6552 3.9325-5.408 6.6638-4.5877 16.6062l-.8203 3.7557s-6.7184-17.0846-5.0791-30.8516c1.638-13.7657 9.0129-18.3534 9.0129-18.3534s3.9611-11.8885 27.1817-11.8001c25.0276.0962 27.5535 13.6435 27.5535 13.6435s15.5688 11.7585 3.016 48.6317l-1.3221-5.0258s1.3221-7.4295-3.1681-13.9854c-2.1866-3.1902 1.3104-12.7816.4914-17.6982s-8.6853-4.4252-8.6853-4.4252" fill="#1d2a30"/><path d="m184.66151896 208.75327234s4.1522 2.1801 10.0204 2.1801 9.581-1.6159 9.581-1.6159" fill="#fff"/><path d="m184.35861896 209.32917234c.0559.026 4.2926 2.2516 10.3233 2.2542 5.9878 0 9.7838-1.6458 9.841-1.6705.3289-.143.4797-.5265.3367-.8554-.1443-.3289-.5265-.4797-.8554-.3367l-.0325.0143c-.3731.1547-3.9013 1.5496-9.2898 1.5483-2.8535.0013-5.2962-.5304-7.02-1.0608-.8619-.2652-1.5431-.5304-2.0059-.7267-.2314-.0988-.4082-.1794-.5252-.2353l-.13-.0637-.0377-.0195c-.3172-.1664-.7111-.0442-.8775.2743-.1677.3172-.0442.7098.273.8775" fill="#1d2a30"/><path d="m212.06262531 152.10677234s1.482 8.1445 5.4132 14.3728c3.9286 6.2283 8.5033 6.8562 9.8098 14.4469 0 0 11.9821-20.1968 1.8538-37.9236 0 0-3.1811-20.1227-34.4435-20.1227s-45.7171 21.7737-33.579 55.2045c0 0 9.7006-3.6998 10.7991-14.7199 0 0 1.339 6.4337-3.2123 12.9194 0 0 16.0901-2.379 20.2618-15.7937 0 0-1.6224 8.918-6.9979 12.6958 0 0 6.0749 7.6661 13.0546-4.3121 6.9797-11.9769 11.0513-19.1633 17.0404-16.7674" fill="#1d2a30"/><path d="m178.97882467 162.25449647c-.1989 0-.4004-.0104-.6032-.0325-.3562-.0377-.6149-.3575-.5772-.7137.0351-.3341.3172-.5824.6448-.5824.0234 0 .0468.0013.0689.0039.1586.0169.3133.0247.4667.0247h.0091c1.5795 0 2.99-.8814 4.2692-2.171 1.2779-1.2844 2.3738-2.9341 3.3111-4.277.1261-.1807.3276-.2769.533-.2769.1287 0 .2587.0377.3718.117.2938.2054.3666.611.1599.9048-.9269 1.3234-2.054 3.0368-3.4528 4.4473-1.3936 1.4053-3.1096 2.5519-5.2013 2.5558" fill="#45555c"/><path d="m190.36462594 151.18618377c-.1313 0-.2652-.0403-.3796-.1222-.2912-.2106-.3575-.6162-.1482-.9074 1.3754-1.911 3.7557-4.8568 6.5182-7.3554 2.7703-2.4856 5.8968-4.5799 8.9687-4.602h.0117c1.1596 0 2.3075.3289 3.3332 1.0608 1.0322.7319 1.9357 1.8499 2.6949 3.3943.1573.3224.0247.7111-.2977.8697-.0923.0455-.1898.0676-.286.0676-.2405 0-.4706-.1339-.5837-.364-.6903-1.404-1.4677-2.3322-2.2802-2.9081-.8125-.5746-1.664-.8177-2.5922-.8203-.0143 0-.0286 0-.0429 0-2.4323 0-5.4132 1.8629-8.0535 4.2666-2.6624 2.405-5.0063 5.3014-6.3349 7.15-.1274.1768-.3263.2704-.5278.2704" fill="#45555c"/><path d="m161.31711769 148.55147996c-.2873 0-.5499-.1924-.6266-.4836-.0923-.3471.1131-.7033.4602-.7943 1.5587-.4134 2.9536-1.3117 4.2328-2.405.1222-.104.2717-.1547.4212-.1547.1833 0 .3666.0767.4953.2275.2327.273.2002.6838-.0728.9165-1.3624 1.1622-2.9172 2.1853-4.7424 2.6715-.0559.0143-.1118.0221-.1677.0221" fill="#45555c"/><path d="m169.99312594 142.56310027c-.1807 0-.3601-.0754-.4888-.221-.2366-.2691-.2106-.6799.0585-.9178 3.0355-2.6702 6.9524-6.0775 11.245-8.8296 4.2939-2.7495 8.97-4.8672 13.585-4.8737h.0299c3.5568 0 7.0629 1.3195 10.1192 4.5266.247.2587.2379.6708-.0208.9191-.1261.1196-.2886.1794-.4498.1794-.1716 0-.3419-.0676-.4693-.2002-2.8587-2.9796-5.9553-4.1171-9.2092-4.1249-.0065 0-.013 0-.0182 0-4.199 0-8.6853 1.9825-12.8648 4.667-4.1873 2.6845-8.0613 6.0476-11.0877 8.7126-.1235.1092-.2769.1625-.429.1625" fill="#45555c"/><path d="m229.96781769 155.82948631c-.3133 0-.5902-.2275-.6409-.5473-.5226-3.2591-1.4703-6.5169-3.3059-9.191-.2028-.2951-.1274-.7007.169-.9035.1118-.0767.2405-.1131.3666-.1131.208 0 .4108.0988.5369.2821 1.9942 2.9107 2.9757 6.3557 3.5165 9.7201.0572.3536-.1833.6877-.5382.7449-.0351.0052-.0702.0078-.104.0078" fill="#45555c"/><path d="m222.89552467 142.80308123c-.1144 0-.2314-.0299-.3367-.0949-1.2545-.7631-2.704-1.2259-4.1405-1.2259-.0013 0-.0026 0-.0039 0l-.2795.0065c-.0091 0-.0182 0-.0273 0-.3458 0-.6344-.273-.6487-.6227-.0156-.3588.2639-.6617.6227-.676l.3328-.0078c1.716.0013 3.3865.5434 4.8204 1.4157.3055.1859.403.5863.2171.8931-.1222.2015-.3367.312-.5564.312" fill="#45555c"/><path d="m214.82381769 135.6941952c-.0767 0-.1547-.0143-.2301-.0429-.3354-.1274-.5044-.5018-.377-.8372.0091-.026.195-.5174.572-1.1388.3796-.6214.9438-1.3819 1.7641-1.9253.5447-.3601 1.2168-.6175 1.9786-.6175h.0052c1.1271 0 2.3621.5473 3.6751 1.8135.2587.2496.2665.6604.0182.9191-.1274.1326-.2977.2002-.4693.2002-.1612 0-.3237-.0611-.4498-.182-1.1713-1.1232-2.0852-1.4508-2.7742-1.4508-.4459.0013-.8333.1339-1.196.3562-.3627.2236-.6903.5408-.9646.8814-.5512.6773-.8788 1.4365-.9347 1.5808l-.0091.0221c-.0988.2613-.3458.4212-.6084.4212" fill="#45555c"/><path d="m233.75521769 307.47137996v-.65h-74.386c-1.5444 0-2.938-.6253-3.9507-1.6367-1.0127-1.014-1.6367-2.4063-1.6367-3.952s.624-2.938 1.6367-3.952c1.0127-1.0114 2.4063-1.6367 3.9507-1.6367h74.386c1.5457 0 2.938.6253 3.952 1.6367 1.0127 1.014 1.6367 2.4063 1.6367 3.952s-.624 2.938-1.6367 3.952c-1.014 1.0114-2.4063 1.6367-3.952 1.6367v.65.65c3.8051-.0013 6.8887-3.0836 6.8887-6.8887s-3.0836-6.8887-6.8887-6.8887h-74.386c-3.8038 0-6.8874 3.0836-6.8874 6.8887s3.0836 6.8874 6.8874 6.8887h74.386z" fill="#fff"/><path d="m187.35181261 298.41037996c.9152 0 1.1193-.442 1.3039-.9477h.7969v7.5387h-1.1856v-5.7512h-.9152z" fill="#fff"/><path d="m192.07862277 303.26717996c0 .5382.2366.7436.6136.7436.3783 0 .6149-.2054.6149-.7436v-4.0703c0-.5382-.2366-.7436-.6149-.7436-.377 0-.6136.2054-.6136.7436zm-1.1843-3.9962c0-1.2064.6344-1.8954 1.7979-1.8954s1.7992.689 1.7992 1.8954v3.9221c0 1.2064-.6357 1.8954-1.7992 1.8954s-1.7979-.689-1.7979-1.8954z" fill="#fff"/><path d="m196.44861515 303.26717996c0 .5382.2366.7436.6136.7436s.6136-.2054.6136-.7436v-4.0703c0-.5382-.2366-.7436-.6136-.7436s-.6136.2054-.6136.7436zm-1.1856-3.9962c0-1.2064.6357-1.8954 1.7992-1.8954 1.1622 0 1.7992.689 1.7992 1.8954v3.9221c0 1.2064-.637 1.8954-1.7992 1.8954-1.1635 0-1.7992-.689-1.7992-1.8954z" fill="#fff"/><path d="m204.19291578 303.90548123c0 .3328.1404.4732.3874.4732.2366 0 .3874-.1404.3874-.4732v-2.587c0-.3328-.1508-.4732-.3874-.4732-.247 0-.3874.1404-.3874.4732zm-.754-2.5324c0-.7748.3978-1.2051 1.1414-1.2051s1.1414.4303 1.1414 1.2051v2.4778c0 .7748-.3978 1.2051-1.1414 1.2051s-1.1414-.4303-1.1414-1.2051zm.377-3.9091h.6994l-2.9718 7.5387h-.7007zm-3.3605 3.6842c0 .3328.1391.4732.3874.4732.2366 0 .3874-.1404.3874-.4732v-2.587c0-.3341-.1508-.4732-.3874-.4732-.2483 0-.3874.1391-.3874.4732zm-.754-2.5324c0-.7748.3978-1.2051 1.1414-1.2051.7423 0 1.1414.4303 1.1414 1.2051v2.4778c0 .7748-.3991 1.2051-1.1414 1.2051-.7436 0-1.1414-.4303-1.1414-1.2051z" fill="#fff"/></svg>