<svg height="443" width="599" xmlns="http://www.w3.org/2000/svg"><g transform="translate(300 293)"><g transform="matrix(.12 0 0 -.12 -296.1768 249.6752)"><path d="m3960.6 883.609h-1490.4l-120.14 1641.211 1733.66-2.93z" fill="#cad4bb"/><path d="m3960.6 883.609v25h-1467.17l-116.47 1591.171 1679.81-2.85-121.1-1611.45 24.93-1.871v25-25l24.93-1.879 123.12 1638.28c.52 6.95-1.86 13.76-6.59 18.86a24.95 24.95 0 0 1 -18.3 8.02l-1733.66 2.93c-6.96.01-13.6-2.87-18.34-7.96-4.74-5.1-7.14-11.92-6.64-18.86l120.14-1641.219c.96-13.09 11.81-23.172 24.94-23.172h1490.4c13.05 0 23.95 10.11 24.93 23.121z" fill="#091019"/></g><path d="m3561.59 1896.39 111.16 1075.08c2.09 20.22-12.59 38.3-32.81 40.39l-155.57 16.08c-20.21 2.09-38.31-12.6-40.4-32.81l-111.16-1075.08z" fill="#e98523" transform="matrix(.12 0 0 -.12 -294.6456 245.6312)"/><path d="m3561.59 1896.39 24.87-2.57 111.16 1075.08.33 6.4c0 15.66-5.94 30.24-15.79 41.22-9.82 10.99-23.84 18.58-39.65 20.21l-155.56 16.08a62.64 62.64 0 0 1 -6.4.33c-15.67 0-30.25-5.94-41.22-15.79a61.67 61.67 0 0 1 -20.22-39.65l-111.16-1075.08c-1.43-13.73 8.56-26.01 22.29-27.44l228.78-23.66c6.55-.67 13.23 1.32 18.34 5.47s8.42 10.28 9.1 16.83l-24.87 2.57 2.57 24.87-203.91 21.09 108.59 1050.2a11.63 11.63 0 0 0 3.85 7.56c2.17 1.93 4.89 3.03 7.86 3.03l1.25-.07 155.57-16.08c3.12-.33 5.61-1.71 7.56-3.85 1.92-2.16 3.02-4.87 3.02-7.84l-.06-1.26-111.17-1075.08 24.87-2.57 2.57 24.87z" fill="#091019" transform="matrix(.12 0 0 -.12 -294.6456 245.6324)"/><g transform="matrix(.12 0 0 -.12 -299.496 246.4924)"><path d="m2709.8 1741.97v1080.8c0 20.32-16.48 36.8-36.8 36.8h-156.41c-20.32 0-36.8-16.48-36.8-36.8v-1080.8z" fill="#e98523"/><path d="m2709.8 1741.97h25v1080.8a61.72 61.72 0 0 1 -18.11 43.7 61.73 61.73 0 0 1 -43.69 18.1h-156.41a61.73 61.73 0 0 1 -43.69-18.1 61.72 61.72 0 0 1 -18.11-43.7v-1080.8a25.14 25.14 0 0 1 7.33-17.68c4.65-4.66 11.09-7.32 17.67-7.32h230.01c6.58 0 13.02 2.66 17.67 7.32a25.14 25.14 0 0 1 7.33 17.68h-25v25h-205.01v1055.8c.02 3.34 1.29 6.13 3.46 8.34 2.21 2.18 5.01 3.45 8.34 3.46h156.41c3.33-.01 6.13-1.28 8.34-3.46 2.17-2.21 3.44-5 3.45-8.34v-1080.8h25.01v25z" fill="#091019"/></g><path d="m3310.9 1950.29v979.61c0 20.32-16.48 36.8-36.8 36.8h-156.4c-20.32 0-36.8-16.48-36.8-36.8v-979.61z" fill="#e98523" transform="matrix(.12 0 0 -.12 -296.288 245.6488)"/><path d="m3310.9 1950.29h25v979.61a61.73 61.73 0 0 1 -18.1 43.69c-11.1 11.15-26.71 18.12-43.7 18.11h-156.4a61.77 61.77 0 0 1 -43.7-18.1c-11.14-11.11-18.11-26.71-18.1-43.7v-979.61a25.17 25.17 0 0 1 7.32-17.68c4.66-4.66 11.09-7.32 17.68-7.32h230c6.58 0 13.02 2.66 17.68 7.32a25.17 25.17 0 0 1 7.32 17.68h-25v25h-205v954.61c.01 3.33 1.28 6.12 3.46 8.34 2.21 2.18 5.01 3.45 8.34 3.46h156.4c3.34-.02 6.13-1.28 8.34-3.46 2.18-2.21 3.45-5.01 3.46-8.34v-979.61h25v25z" fill="#091019" transform="matrix(.12 0 0 -.12 -296.288 245.65)"/><path d="m3090.79 1991.06-97.12 974.77c-2.01 20.22-20.05 34.98-40.27 32.97l-155.63-15.51c-20.22-2.01-34.98-20.04-32.97-40.27l97.13-974.76z" fill="#e98523" transform="matrix(.12 0 0 -.12 -297.714 245.5244)"/><path d="m3090.79 1991.06 24.88 2.48-97.12 974.77c-1.57 15.86-9.14 29.93-20.15 39.8-10.98 9.89-25.6 15.87-41.31 15.87a61.33 61.33 0 0 1 -6.18-.31h.01l-155.63-15.5c-15.85-1.57-29.93-9.14-39.8-20.15-9.89-10.98-15.87-25.6-15.87-41.31 0-2.03.1-4.1.31-6.18v.02l97.13-974.77c1.36-13.74 13.61-23.77 27.35-22.4l228.86 22.8c6.55.65 12.69 3.95 16.86 9.04 4.18 5.09 6.19 11.77 5.54 18.32l-24.88-2.48-2.48 24.87-203.98-20.32-94.65 949.89v.02l-.06 1.19c0 2.98 1.11 5.7 3.04 7.87 1.96 2.14 4.46 3.51 7.59 3.83l155.63 15.51h.01l1.2.06c2.98 0 5.7-1.11 7.87-3.04 2.14-1.96 3.51-4.47 3.83-7.59l97.12-974.77 24.88 2.48-2.48 24.87z" fill="#091019" transform="matrix(.12 0 0 -.12 -297.7152 245.5244)"/><path d="m3983.43 1760.86 96.05 974.88c1.99 20.23-12.78 38.24-33.01 40.23l-155.64 15.34c-20.22 1.99-38.25-12.78-40.23-33.02l-96.07-974.88z" fill="#f4ad19" transform="matrix(.12 0 0 -.12 -292.4408 246.6304)"/><path d="m3983.43 1760.86 24.88-2.45 96.05 974.88v.01l.3 6.1c0 15.72-5.98 30.35-15.89 41.33a61.7 61.7 0 0 1 -39.85 20.12l-155.64 15.34a62.43 62.43 0 0 1 -6.1.3c-15.71 0-30.35-5.98-41.34-15.89-11.01-9.88-18.58-23.98-20.12-39.87v.02l-96.07-974.89a25.22 25.22 0 0 1 5.55-18.31c4.18-5.09 10.33-8.37 16.88-9.02l228.9-22.55c6.55-.64 13.22 1.38 18.31 5.56 5.09 4.17 8.37 10.32 9.02 16.87l-24.88 2.45 2.45 24.88-204.02 20.1 93.61 950 .01.02c.32 3.12 1.68 5.62 3.83 7.59 2.16 1.93 4.89 3.04 7.87 3.04l1.2-.06 155.64-15.34c3.13-.32 5.63-1.68 7.6-3.83 1.93-2.16 3.04-4.88 3.04-7.86l-.06-1.21v.01l-96.05-974.89 24.88-2.45 2.45 24.88z" fill="#091019" transform="matrix(.12 0 0 -.12 -292.442 246.6316)"/><path d="m2864.73 1814.95v777.22c0 20.32-16.48 36.79-36.8 36.79h-156.4c-20.32 0-36.8-16.47-36.8-36.79v-777.22z" fill="#f4ad19" transform="matrix(.12 0 0 -.12 -298.6676 246.914)"/><path d="m2864.73 1814.95h25v777.22a61.73 61.73 0 0 1 -18.1 43.69c-11.11 11.15-26.72 18.12-43.7 18.1h-156.4a61.72 61.72 0 0 1 -43.7-18.09c-11.14-11.11-18.12-26.71-18.1-43.7v-777.22c0-6.58 2.66-13.02 7.32-17.67a25.14 25.14 0 0 1 17.68-7.33h230c6.58 0 13.02 2.67 17.67 7.33 4.66 4.65 7.33 11.09 7.33 17.67h-25v25h-205v752.22c.01 3.33 1.28 6.12 3.45 8.33 2.22 2.18 5.02 3.45 8.35 3.46h156.4c3.34-.01 6.13-1.28 8.34-3.45 2.17-2.22 3.44-5.01 3.46-8.34v-777.22h25v25z" fill="#091019" transform="matrix(.12 0 0 -.12 -298.6676 246.9152)"/><g transform="matrix(.12 0 0 -.12 -297.3264 246.7856)"><path d="m3115.22 1838.62v777.21c0 20.32-16.47 36.8-36.79 36.8h-156.41c-20.32 0-36.8-16.48-36.8-36.8v-777.21z" fill="#f4ad19"/><path d="m3115.22 1838.62h25v777.21c.02 16.99-6.95 32.6-18.09 43.7a61.67 61.67 0 0 1 -43.7 18.1h-156.41a61.67 61.67 0 0 1 -43.7-18.1c-11.14-11.1-18.11-26.71-18.1-43.7v-777.21a25.14 25.14 0 0 1 7.33-17.68c4.65-4.66 11.09-7.32 17.67-7.32h230a25.13 25.13 0 0 1 25 25h-25v25h-205v752.21c.02 3.34 1.29 6.13 3.46 8.35 2.22 2.17 5.01 3.44 8.34 3.45h156.41c3.33-.01 6.12-1.28 8.34-3.45 2.17-2.22 3.44-5.01 3.45-8.35v-777.21h25v25z" fill="#091019"/></g><g transform="matrix(.12 0 0 -.12 -295.6964 246.5504)"><path d="m3422.47 1920.22v703.61c0 20.32-16.47 36.79-36.8 36.79h-156.4c-20.33 0-36.8-16.47-36.8-36.79v-703.61z" fill="#f4ad19"/><path d="m3422.47 1920.22h25v703.61a61.73 61.73 0 0 1 -18.1 43.69c-11.1 11.15-26.71 18.12-43.7 18.1h-156.4c-16.99.02-32.6-6.95-43.7-18.1a61.73 61.73 0 0 1 -18.1-43.69v-703.61a25.17 25.17 0 0 1 7.32-17.68c4.66-4.66 11.1-7.32 17.68-7.32h230c6.58 0 13.02 2.66 17.68 7.32a25.17 25.17 0 0 1 7.32 17.68h-25v25h-205v678.61c.01 3.33 1.28 6.12 3.46 8.34 2.21 2.17 5 3.44 8.34 3.45h156.4c3.34-.01 6.13-1.28 8.34-3.45 2.18-2.22 3.45-5.01 3.46-8.34v-703.61h25v25z" fill="#091019"/></g><g transform="matrix(.12 0 0 -.12 -299.976 246.4092)"><path d="m2678.58 1974.9-118.31 693.58c-3.42 20.04-22.44 33.51-42.47 30.1l-154.18-26.3c-20.03-3.42-33.49-22.44-30.08-42.47l118.32-693.6z" fill="#f4ad19"/><path d="m2678.58 1974.9 24.65 4.2-118.31 693.59v.01a61.79 61.79 0 0 1 -21.29 37.01c-10.83 9.06-24.77 14.39-39.6 14.4-3.45 0-6.94-.29-10.43-.89l-154.18-26.3c-14.99-2.55-27.99-10.44-37.02-21.29-9.05-10.83-14.39-24.77-14.39-39.6 0-3.45.29-6.94.88-10.42l118.32-693.6a25.16 25.16 0 0 1 10.19-16.19c5.37-3.81 12.17-5.36 18.66-4.25l226.73 38.68c13.61 2.32 22.76 15.24 20.44 28.85l-24.65-4.2-4.2 24.64-202.08-34.48-114.12 668.95-.17 2.02c-.01 2.77 1 5.43 2.76 7.55 1.8 2.11 4.11 3.54 7.06 4.06l154.18 26.29 2.02.18c2.77 0 5.42-1 7.54-2.77 2.11-1.79 3.54-4.11 4.06-7.07v.01l118.31-693.59 24.64 4.21-4.2 24.64z" fill="#091019"/></g><g transform="matrix(.12 0 0 -.12 -293.1296 245.9908)"><path d="m3902.83 2088.78v574.81c0 20.32-16.47 36.8-36.79 36.8h-156.41c-20.32 0-36.8-16.48-36.8-36.8v-574.81z" fill="#e98523"/><path d="m3902.83 2088.78h25v574.81a61.71 61.71 0 0 1 -18.1 43.7 61.73 61.73 0 0 1 -43.69 18.1h-156.41c-16.99.01-32.59-6.96-43.7-18.1-11.14-11.11-18.11-26.71-18.1-43.7v-574.81c0-6.58 2.67-13.02 7.32-17.68 4.66-4.65 11.1-7.32 17.68-7.32h230a25.19 25.19 0 0 1 17.68 7.32c4.65 4.66 7.32 11.1 7.32 17.68h-25v25h-205v549.81c.01 3.34 1.28 6.13 3.46 8.34 2.21 2.18 5 3.45 8.34 3.46h156.41c3.33-.01 6.12-1.28 8.34-3.46 2.17-2.21 3.44-5 3.45-8.34v-574.81h25v25z" fill="#091019"/></g><g transform="matrix(.12 0 0 -.12 -294.1088 245.9604)"><path d="m3718.74 1980.36v804.81c0 20.33-16.47 36.81-36.8 36.81h-156.4c-20.33 0-36.8-16.48-36.8-36.81v-804.81z" fill="#f4ad19"/><path d="m3718.74 1980.36h25v804.81c.01 16.99-6.96 32.6-18.1 43.7-11.1 11.15-26.71 18.12-43.7 18.11h-156.4c-16.99.01-32.6-6.96-43.7-18.11-11.14-11.1-18.11-26.71-18.1-43.7v-804.81c0-6.58 2.67-13.02 7.32-17.67 4.66-4.66 11.1-7.33 17.68-7.33h230c6.58 0 13.02 2.67 17.68 7.33 4.65 4.65 7.32 11.09 7.32 17.67h-25v25h-205v779.81c.01 3.34 1.28 6.13 3.46 8.35 2.21 2.17 5 3.44 8.34 3.46h156.4c3.34-.02 6.13-1.29 8.34-3.46 2.18-2.22 3.45-5.01 3.46-8.35v-804.81h25v25z" fill="#091019"/></g><g transform="matrix(.12 0 0 -.12 -296.178 249.9944)"><path d="m3667.19 2389.57c-2.59-15.01-5.86-29.93-9.92-44.67-22.66-80.79-63.55-150.94-122.64-210.44-89.04-89.03-211.25-139.68-337.23-139.68-86.07.26-166.32 21.97-240.7 65.11-57.82 33.86-107.65 79.85-146.47 133.79-38.48 49.09-66.43 104.31-83.68 165.79l-4.04 30.1h-362.71l101.2-1490.398h1508.8l101.2 1490.398z" fill="#fcfcfc"/><path d="m3667.19 2389.57-24.64 4.25c-2.46-14.27-5.56-28.39-9.39-42.28l.03.11c-21.6-76.86-60.1-142.93-116.3-199.58l.06.07c-84.28-84.31-200.28-132.39-319.55-132.36h.08c-81.92.3-157.43 20.73-228.24 61.73l.09-.05c-54.7 32.04-101.97 75.64-138.8 126.83l-.62.82c-36.48 46.55-62.87 98.65-79.29 157.11l-24.07-6.75 24.78 3.32-4.04 30.11c-1.67 12.42-12.26 21.67-24.78 21.67h-362.71c-6.96 0-13.51-2.84-18.26-7.93-4.75-5.08-7.15-11.81-6.68-18.76l101.19-1490.4c.89-13.089 11.82-23.308 24.95-23.308h1508.8c13.13 0 24.06 10.219 24.95 23.308l101.19 1490.4c.47 6.95-1.92 13.68-6.68 18.76-4.75 5.09-11.3 7.93-18.26 7.93h-403.81c-12.15 0-22.57-8.78-24.64-20.75l24.64-4.25v-25h377.05l-97.8-1440.398h-1462.08l-97.8 1440.398h335.95v25l-24.78-3.33 4.04-30.1a29 29 0 0 1 .71-3.43c18.08-64.49 47.59-122.84 88.08-174.45l19.67 15.42-20.29-14.6c40.81-56.7 93.19-105.07 154.12-140.77l.1-.05c77.96-45.27 162.93-68.25 253.17-68.48h.07c132.69.02 261.1 53.25 354.9 147l.07.06c61.98 62.35 105.26 136.6 128.97 221.3l.03.12c4.29 15.59 7.74 31.31 10.45 47.07l-24.63 4.24v-25z" fill="#091019"/></g><g transform="matrix(.12 0 0 -.12 -296.178 248.9076)"><path d="m2849.8 1400.64c230.36 36.83 461.72 53.82 693.63 76.68 122.82 12.11 210.58 21.71 340.59 55.82 32.88 8.62 65.64 17.84 97.81 28.84l33.78 11.91 55.39 815.68h-403.81c-2.59-15.01-5.86-29.93-9.92-44.67-22.66-80.79-63.55-150.94-122.64-210.44-89.04-89.03-211.25-139.68-337.23-139.68-86.07.26-166.32 21.97-240.7 65.11-57.82 33.86-107.65 79.85-146.47 133.79-38.48 49.09-66.43 104.31-83.68 165.79l-4.04 30.1h-362.71l73.51-1082.67c136.52 42.59 277.83 71.57 416.49 93.74" fill="#ec3c26"/><path d="m2849.8 1400.64 3.94-24.69c228.96 36.62 459.82 53.6 692.14 76.49 122.79 12.09 212.88 21.95 344.49 56.52 33.16 8.7 66.51 18.07 99.54 29.36l34.33 12.1c9.27 3.41 15.65 11.92 16.32 21.78l55.38 815.68c.47 6.95-1.92 13.68-6.68 18.76-4.75 5.09-11.3 7.93-18.26 7.93h-403.81c-12.15 0-22.57-8.78-24.64-20.75-2.46-14.27-5.56-28.39-9.39-42.28l.03.11c-21.6-76.86-60.1-142.93-116.3-199.58l.06.07c-84.28-84.31-200.28-132.39-319.55-132.36h.08c-81.92.3-157.43 20.73-228.24 61.73l.09-.05c-54.7 32.04-101.97 75.64-138.8 126.83l-.62.82c-36.48 46.55-62.87 98.65-79.29 157.11l-24.07-6.75 24.78 3.32-4.04 30.11c-1.67 12.41-12.26 21.67-24.78 21.67h-362.71c-6.96 0-13.51-2.84-18.26-7.93-4.75-5.08-7.15-11.81-6.68-18.76l73.51-1082.68c.52-7.66 4.48-14.59 10.82-18.93 6.33-4.34 14.24-5.52 21.57-3.24 134.91 42.1 275.07 70.88 412.98 92.92l-3.94 24.69-3.95 24.68c-139.39-22.29-281.86-51.46-419.99-94.56l7.45-23.86 24.94 1.69-71.69 1055.98h314.08l1.13-8.43c.14-1.04.43-2.42.71-3.43 18.08-64.49 47.59-122.84 88.08-174.45l19.67 15.42-20.29-14.6c40.81-56.7 93.19-105.07 154.12-140.77l.1-.05c77.96-45.27 162.93-68.25 253.17-68.48h.07c132.69.02 261.1 53.25 354.9 147l.07.06c61.98 62.35 105.26 136.6 128.97 221.3l.03.12c4.29 15.59 7.74 31.31 10.45 47.07l-24.63 4.24v-25h377.05l-53.57-788.99 24.94-1.69-8.62 23.46-33.25-11.72c-31.3-10.7-63.47-19.76-96.06-28.31-128.41-33.66-213.85-42.99-336.7-55.12-231.49-22.83-463.37-39.83-695.13-76.88l3.95-24.68" fill="#091019"/></g><path d="m3602.7 1194.17c-122.96-13.08-246.37-20.9-369.46-32.56-59.3-5.62-118.42-12.46-177.5-20.05l-21.67-2.83-18.03-2.49-67.21-9.9c-167.35-26.06-335.22-59.97-495.36-116.26l7.53-110.908h1508.8l24.76 364.748c-127.57-35.38-258.82-55.58-391.86-69.75" fill="#ec3c26" transform="matrix(.12 0 0 -.12 -296.1312 252.996)"/><path d="m3602.7 1194.17-2.65 24.86c-122.25-13.01-245.56-20.82-369.17-32.53-59.64-5.66-119.03-12.52-178.33-20.15l-21.73-2.83-.17-.02-18.21-2.52.09.02-67.54-9.96c-168.1-26.18-337.47-60.32-499.81-117.37-10.62-3.73-17.42-14.06-16.66-25.28l7.53-110.91c.89-13.089 11.82-23.308 24.95-23.308h1508.8c13.13 0 24.06 10.219 24.95 23.308l24.75 364.75a25.03 25.03 0 0 1 -9.14 21.07 25.01 25.01 0 0 1 -22.48 4.71c-125.67-34.86-255.55-54.89-387.83-68.98l2.65-24.86 2.64-24.86c133.81 14.26 266.43 34.61 395.9 70.52l-6.68 24.09-24.94 1.69-23.18-341.438h-1462.08l-5.95 87.598-24.94-1.69 8.29-23.592c157.94 55.532 324.31 89.212 490.92 115.152l66.86 9.85.09.01 17.87 2.47-.17-.02 21.59 2.81c58.88 7.57 117.73 14.37 176.68 19.97l369.74 32.58z" fill="#091019" transform="matrix(.12 0 0 -.12 -296.1412 252.996)"/><path d="m3960.6 889.969h-600.12a104.13 104.13 0 0 1 10.06 9.031c.05.059.1.121.16.172h590.59z" fill="#06090a" transform="matrix(.12 0 0 -.12 -293.8168 253.9884)"/><path d="m3726.25 1449.87.14.14zm.75.75.22.22zm.75.75c.04.05.1.11.15.16zm.75.76.08.08zm.74.74c.06.07.13.13.19.2-.06-.07-.13-.13-.19-.2m.75.76.08.08c-.02-.02-.06-.05-.08-.08m.74.75.15.15zm.75.76.11.11zm.74.75.12.12zm.75.76.09.09zm.75.75c.02.03.03.04.06.07-.02-.02-.05-.05-.06-.07" fill="#f8f8f7" transform="matrix(.12 0 0 -.12 -293.4412 251.0204)"/><path d="m3981.42 1781.84 4.91 8.51-.01-.03z" fill="#d72424" transform="matrix(.12 0 0 -.12 -292.0856 249.2408)"/><path d="m3417.48 1202.4.06.79v1.14l-.05 2.87c111.03 67.5 214.37 148.28 307.27 241.17l1.49 1.5.14.14.61.61.22.22.53.53a2.2 2.2 0 0 0 .15.16l.6.6.08.08.66.66c.06.07.13.13.19.2.19.18.37.37.56.56.02.03.06.06.08.08l.66.67.15.15c.2.21.4.4.6.61l.11.11.63.64.12.12.63.64.09.09.66.66c.01.02.04.05.06.07l20.62 21.33c42.05 7.48 86.01 17.04 135.97 30.16 32.56 8.54 65.29 17.73 97.73 28.74l-17.27-254.32c-120.35-32.02-244.47-50.9-370.78-64.35-60.63-6.45-121.52-11.63-182.57-16.63" fill="#f8f8f7" transform="matrix(.12 0 0 -.12 -293.5848 251.466)"/><g fill="#06090a"><path d="m3970.83 1283.38 17.27 254.32 1.81.62 23.86 8.31-17.51-257.77-1.7.06c-2.24 0-4.48-.3-6.68-.91z" transform="matrix(.12 0 0 -.12 -295.996 252.18)"/><path d="m3754.4 1478.8 28.53 30.87c31.53 6.31 64.62 13.9 101.09 23.47 32.88 8.62 65.64 17.84 97.81 28.84l33.78 11.91.33 4.72-2.17-31.98-23.86-8.31-1.81-.62c-32.44-11.01-65.17-20.2-97.73-28.74-49.96-13.12-93.92-22.68-135.97-30.16m263.57 129.81 13.21 194.55z" transform="matrix(.12 0 0 -.12 -293.5048 247.4776)"/><path d="m3969.8 899.172 24.76 364.748c-127.57-35.38-258.82-55.58-391.86-69.75-62.3-6.63-124.71-11.92-187.14-17.03l1.92 25.26 182.57 16.63c126.31 13.45 250.43 32.33 370.78 64.35l17.05 4.63c2.2.61 4.44.91 6.68.91.57 0 1.14-.02 1.7-.06z" transform="matrix(.12 0 0 -.12 -293.5692 252.936)"/></g><path d="m3987.71 1792.73.02.04c0-.01-.02-.04-.02-.04m.44.77c.01.01.02.03.02.04 0-.01-.01-.03-.02-.04m.54.95.36.63zm.51.88.37.65zm.46.82.46.8zm.46.81 17.76 32.03z" fill="#d72424" transform="matrix(.12 0 0 -.12 -292.006 249.1032)"/><path d="m4007.88 1828.99c9.97 18.48 19.6 37.14 28.86 55.97-9.27-18.84-18.89-37.49-28.86-55.97" fill="#06090a" transform="matrix(.12 0 0 -.12 -291.8872 248.8564)"/><path d="m3810.4 1540.98c64.34 75.2 121.5 155.9 171.02 240.86l4.9 8.48 1.39 2.41s.02.03.02.04l.42.73c.01.01.02.03.02.04a26.84 26.84 0 0 1 .52.91l.36.63c.05.09.1.16.15.25.12.22.24.43.37.65.03.06.06.12.09.17.15.27.31.54.46.8l17.76 32.04-15.09-222.23c-4.64-2.55-7.79-7.48-7.79-13.15a14.89 14.89 0 0 1 .52-3.92l-11.78-4.06c-31.3-10.7-63.47-19.76-96.06-28.31-23.72-6.22-45.99-11.61-67.28-16.34" fill="#d72424" transform="matrix(.12 0 0 -.12 -296.2568 249.1388)"/><g fill="#06090a"><path d="m3782.89 1509.66 27.51 31.32c21.29 4.73 43.56 10.12 67.28 16.34 32.59 8.55 64.76 17.61 96.06 28.31l11.78 4.06c1.72-6.38 7.55-11.08 14.48-11.08h15.94l-.33-4.72-33.78-11.91c-32.17-11-64.93-20.22-97.81-28.84-36.47-9.57-69.56-17.16-101.09-23.47-.01 0-.03-.01-.04-.01m209.9 97.1 15.09 222.23c9.97 18.48 19.59 37.13 28.86 55.96l-5.56-81.79-13.21-194.55h-17.97c-2.61 0-5.07-.67-7.21-1.85" transform="matrix(.12 0 0 -.12 -295.9884 249.156)"/><path d="m3969.8 899.172h-599.1a103.35 103.35 0 0 1 17.92 25h557.82l20.81 306.598c-118.65-30.35-239.79-48.45-361.91-61.46l-2.64 24.86c133.04 14.17 264.29 34.37 391.86 69.75zm-556.15 252.748 1.91 25.22 187.14 17.03 2.64-24.86c-63.98-6.8-127.91-12.18-191.69-17.39" transform="matrix(.12 0 0 -.12 -293.6956 252.996)"/></g><path d="m3946.44 924.172h-557.82a102.19 102.19 0 0 1 11.2 45.238l13.83 182.51 191.69 17.39-2.64 24.86 2.64-24.86c122.12 13.01 243.26 31.11 361.91 61.46z" fill="#d72424" transform="matrix(.12 0 0 -.12 -293.7116 253.0264)"/><path d="m3990 1988.61h-110c-8.28 0-15 6.71-15 15a15.01 15.01 0 0 0 15 15h110a15.01 15.01 0 0 0 15-15c0-8.29-6.72-15-15-15" fill="#f46f48" transform="matrix(.12 0 0 -.12 -297.9 248.0532)"/><path d="m4040.99 1578.61h-25.05l2.03 30h25.06z" fill="#1c3154" transform="matrix(.12 0 0 -.12 -298.3376 251.2032)"/><path d="m4015.94 1578.61 2.03 30z" fill="#0c121e" transform="matrix(.12 0 0 -.12 -291.914 250.2732)"/><path d="m3985.52 1589.69a14.89 14.89 0 0 0 -.52 3.92c0 5.67 3.15 10.6 7.79 13.15l-1.01-14.87z" fill="#ed4b27" transform="matrix(.12 0 0 -.12 -292.0568 250.2376)"/><path d="m4015.94 1578.61h-15.94c-6.93 0-12.76 4.7-14.48 11.08l6.26 2.2 1.01 14.87c2.14 1.18 4.6 1.85 7.21 1.85h17.97z" fill="#0c121e" transform="matrix(.12 0 0 -.12 -294.5688 250.2732)"/><g fill="#f46f48"><path d="m3690 1798.61h-120c-8.28 0-15 6.71-15 15a15.01 15.01 0 0 0 15 15h120a15.01 15.01 0 0 0 15-15c0-8.29-6.72-15-15-15" transform="matrix(.12 0 0 -.12 -293.97 249.0932)"/><path d="m3740 1548.61h-120c-8.28 0-15 6.71-15 15a15.01 15.01 0 0 0 15 15h120a15.01 15.01 0 0 0 15-15c0-8.29-6.72-15-15-15" transform="matrix(.12 0 0 -.12 -293.71 250.4332)"/></g><path d="m1615.75 2018.78-8.58 1451.67 911.66 435.62 79.32-166.02-806.29-385.27 7.89-1334.9z" fill="#48646f" transform="matrix(.12 0 0 -.12 -302.1192 242.9704)"/><path d="m1615.75 2018.78 30 .18-8.47 1432.63 867.41 414.48 53.46-111.89-779.22-372.33c-10.45-4.99-17.14-15.68-17.07-27.25l7.71-1304.9-154-.92.18-30 30 .18-30-.18.18-30 184 1.1c16.57.09 29.92 13.61 29.82 30.17l-7.78 1315.87 789.12 377.06c14.95 7.14 21.28 25.05 14.13 40l-79.32 166.03a30.24 30.24 0 0 1 -17.08 15.35c-7.45 2.63-15.8 2.19-22.93-1.22l-911.66-435.62c-10.44-4.99-17.13-15.67-17.06-27.25l8.58-1451.67c.05-7.89 3.3-15.6 8.92-21.16 5.61-5.55 13.36-8.7 21.26-8.66z" fill="#091019" transform="matrix(.12 0 0 -.12 -302.1204 242.9704)"/><g transform="matrix(.12 0 0 -.12 -304.2384 248.4332)"><path d="m2379.21 898.609h-1349.79l-169.674 2080.001h1689.154z" fill="#ec3c26"/><path d="m2379.21 898.609v30h-1322.13l-164.787 2020.001h1624.057l-167.04-2047.559 29.9-2.442v30-30l29.9-2.437 169.69 2079.998c.68 8.32-2.18 16.63-7.84 22.77-5.67 6.14-13.71 9.67-22.06 9.67h-1689.154a30.1 30.1 0 0 1 -22.058-9.67 30.09 30.09 0 0 1 -7.84-22.77l169.675-2079.998c1.277-15.613 14.237-27.563 29.897-27.563h1349.79c15.66 0 28.63 11.95 29.9 27.563z" fill="#091019"/></g><g transform="matrix(.12 0 0 -.12 -304.35 242.8032)"><path d="m710 2858.61h1950v270h-1950z" fill="#fcfcfc"/><path d="m2660 2858.61v30h-1920v210h1890v-240h30v30-30h30v270c0 7.9-3.2 15.62-8.79 21.21a30.17 30.17 0 0 1 -21.21 8.79h-1950c-7.898 0-15.625-3.2-21.215-8.79a30.2 30.2 0 0 1 -8.785-21.21v-270c0-7.9 3.199-15.63 8.785-21.22 5.59-5.58 13.317-8.78 21.215-8.78h1950c7.9 0 15.63 3.2 21.21 8.78a30.21 30.21 0 0 1 8.79 21.22z" fill="#091019"/></g><g transform="matrix(.12 0 0 -.12 -304.2372 249.8188)"><path d="m2448.53 1758.61h-428.53v89.8c0 179.34-145.67 324.72-325 324.72-179.34 0-325-145.38-325-324.72v-89.8h-409.906l12.773-160h397.133v-91.56c0-179.34 145.66-324.71 325-324.71 179.33 0 325 145.37 325 324.71v91.56h415.76z" fill="#f4ad19"/><path d="m2448.53 1758.61v20h-408.53v69.8c-.02 190.42-154.63 344.7-345 344.72-190.38-.02-344.98-154.3-345-344.72v-69.8h-389.906c-5.571 0-10.918-2.34-14.696-6.44a20.03 20.03 0 0 1 -5.242-15.15l12.774-160c.832-10.41 9.496-18.41 19.937-18.41h377.133v-71.56c.02-190.42 154.62-344.7 345-344.71 190.37.01 344.98 154.29 345 344.71v71.56h395.76a19.99 19.99 0 0 1 19.94 18.41l12.77 160a20.02 20.02 0 0 1 -5.24 15.15c-3.78 4.09-9.13 6.44-14.7 6.44v-20l-19.93 1.59-11.31-141.59h-397.29c-5.27 0-10.42-2.14-14.14-5.86a20.13 20.13 0 0 1 -5.86-14.14v-91.56c-.01-84.2-34.14-160.25-89.39-215.46-55.27-55.18-131.41-89.24-215.61-89.25-84.21.01-160.34 34.07-215.62 89.25-55.24 55.21-89.37 131.26-89.38 215.46v91.56a20.13 20.13 0 0 1 -5.86 14.14c-3.72 3.72-8.87 5.86-14.14 5.86h-378.668l-9.578 120h388.246c5.27 0 10.42 2.13 14.14 5.85 3.73 3.73 5.86 8.88 5.86 14.15v89.8c.01 84.2 34.14 160.25 89.38 215.46 55.28 55.18 131.41 89.25 215.62 89.26 84.2-.01 160.34-34.08 215.61-89.26 55.25-55.21 89.38-131.26 89.39-215.46v-89.8c0-5.27 2.13-10.42 5.86-14.15 3.72-3.72 8.87-5.85 14.14-5.85h428.53v20l-19.93 1.59z" fill="#091019"/></g><g fill="#f46e46"><path d="m1162.01 2580.45c-17.7 0-32.04 14.34-32.04 32.04 0 17.69 14.34 32.03 32.04 32.03s32.03-14.34 32.03-32.03c0-17.7-14.33-32.04-32.03-32.04" transform="matrix(.12 0 0 -.12 -307.1412 244.8376)"/><path d="m1210.85 2150.57c-17.7 0-32.04 14.34-32.04 32.04s14.34 32.04 32.04 32.04 32.04-14.34 32.04-32.04-14.34-32.04-32.04-32.04" transform="matrix(.12 0 0 -.12 -306.882 247.1332)"/><path d="m1259.7 1114.97c-17.69 0-32.03 14.34-32.03 32.04s14.34 32.04 32.03 32.04c17.7 0 32.04-14.34 32.04-32.04s-14.34-32.04-32.04-32.04" transform="matrix(.12 0 0 -.12 -306.614 252.6512)"/></g><g transform="matrix(.12 0 0 -.12 -304.29 242.7732)"><path d="m730 2998.61h1930" fill="#ec3c26"/><path d="m730 2968.61h1930c16.57 0 30 13.43 30 30s-13.43 30-30 30h-1930c-16.57 0-30-13.43-30-30s13.43-30 30-30" fill="#091019"/></g><g transform="matrix(.12 0 0 -.12 -304.27 249.8132)"><path d="m980 1678.61h1440" fill="#ec3c26"/><path d="m980 1658.61h1440c11.05 0 20 8.95 20 20 0 11.04-8.95 20-20 20h-1440c-11.047 0-20-8.96-20-20a20 20 0 0 1 20-20" fill="#091019"/></g><g transform="matrix(.12 0 0 -.12 -304.27 249.8432)"><path d="m1700 1178.61v990z" fill="#ec3c26"/><path d="m1720 1178.61v990c0 11.04-8.95 20-20 20s-20-8.96-20-20v-990c0-11.05 8.95-20 20-20s20 8.95 20 20" fill="#091019"/></g><path d="m1453.98 928.609h-396.9l-6.84 83.821c131.71 24.58 260.11 63.86 382.55 117.01l12.13-160.018a102.09 102.09 0 0 1 9.06-40.813" fill="#d72424" transform="matrix(.12 0 0 -.12 -304.3532 248.3324)"/><path d="m1465.9 908.609h-436.48l-8.09 98.671 28.91 5.15 6.84-83.821h396.9c3.22-7.14 7.24-13.847 11.92-20" fill="#06090a" transform="matrix(.12 0 0 -.12 -306.7044 253.6424)"/><path d="m2630 2916.92c-47.72 7.49-96.67 12.33-146.53 14.46l-2.42 21.62-.74 6.8-1.06 8.81h150.75z" fill="#f8f8f7" transform="matrix(.12 0 0 -.12 -299.7156 243.0724)"/><path d="m2670 2909.96a1231.12 1231.12 0 0 1 -40 6.96v51.69h30a30.08 30.08 0 0 1 10 1.7z" fill="#06090a" transform="matrix(.12 0 0 -.12 -299.2 243.0868)"/><path d="m2630 3028.61h-159.2c-3.69 23.29-7.83 46.69-12.43 70h171.63z" fill="#f8f8f7" transform="matrix(.12 0 0 -.12 -299.7628 242.4332)"/><g fill="#06090a"><path d="m2670 3026.9c-3.13 1.1-6.49 1.71-10 1.71h-30v70h-171.63l-8.37 40h220z" transform="matrix(.12 0 0 -.12 -299.68 242.3312)"/><path d="m2660 2968.61h-180.75l-2.42 19.22-6.03 40.78h159.2 30c3.51 0 6.87-.61 10-1.71v-56.59a30.08 30.08 0 0 0 -10-1.7" transform="matrix(.12 0 0 -.12 -299.618 242.7732)"/></g><g transform="matrix(.12 0 0 -.12 -300.48 250.5132)"><path d="m3390 1491.96c0-34.99-18.48-63.35-53.48-63.35h-1833.29c-34.99 0-73.23 28.36-73.23 63.35v113.3c0 34.99 38.24 63.35 73.23 63.35h1833.29c35 0 53.48-28.36 53.48-63.35z" fill="#7b341e"/><path d="m3390 1491.96h-30c.05-12.32-3.42-21.61-7.22-26.28-1.92-2.42-3.8-3.91-6.15-5.07-2.37-1.12-5.39-1.98-10.11-2h-1833.29c-4.69-.02-10.2.99-15.62 3.05-8.17 3.02-15.94 8.48-20.78 14.27-2.44 2.89-4.19 5.79-5.27 8.47-1.09 2.69-1.55 5.11-1.56 7.56v113.3c.01 3.24.83 6.52 2.86 10.3 2.98 5.6 9.12 11.86 16.81 16.24 7.63 4.45 16.53 6.86 23.56 6.81h1833.29c4.72-.02 7.74-.89 10.11-2.01 3.44-1.72 6.21-4.26 8.89-9.42 2.59-5.09 4.5-12.74 4.48-21.92v-113.3h30 30v113.3c-.05 22.67-5.82 45.06-20.01 63.31-7.07 9.05-16.37 16.83-27.33 22.09-10.93 5.29-23.35 7.97-36.14 7.95h-1833.29c-12.81-.02-25.2-2.55-36.78-6.91-17.36-6.59-33.1-17.2-45.39-31.63-6.12-7.22-11.35-15.46-15.1-24.69-3.74-9.21-5.97-19.45-5.96-30.12v-113.3c-.01-14.26 3.95-27.64 10.18-39.02 9.42-17.14 23.51-30.23 39.52-39.5 16.06-9.21 34.31-14.78 53.53-14.83h1833.29c12.79-.02 25.21 2.66 36.14 7.95 16.52 7.89 28.93 21.41 36.44 36.48 7.59 15.13 10.88 31.86 10.9 48.92z" fill="#091019"/></g><path d="m3329.04 1795.43h-1808.47v-164.14c73.18 4.06 79.62 31.14 164.6 31.14 91.87 0 91.87-31.67 183.75-31.67 91.85 0 91.85 31.67 183.72 31.67 91.86 0 91.86-31.67 183.72-31.67s91.86 31.67 183.72 31.67c91.85 0 91.85-31.67 183.71-31.67 91.85 0 91.85 31.67 183.71 31.67 91.84 0 91.84-31.67 183.67-31.67 91.84 0 91.84 31.67 183.69 31.67 88.54 0 91.74-29.43 174.18-31.54z" fill="#43bb4f" transform="matrix(.12 0 0 -.12 -300.406 249.632)"/><path d="m3329.04 1795.43v30h-1808.47c-7.9 0-15.63-3.2-21.22-8.78-5.58-5.59-8.78-13.32-8.78-21.22v-164.14c0-8.24 3.39-16.13 9.38-21.79a29.98 29.98 0 0 1 22.28-8.16c20.09 1.1 36.44 3.9 50.38 7.46 10.44 2.66 19.45 5.68 27.59 8.47 12.27 4.22 22.44 7.82 34.99 10.53 12.55 2.69 27.83 4.62 49.98 4.63 21.27-.01 36.21-1.8 48.47-4.32 9.2-1.91 17.01-4.27 25.23-7.01 12.25-4.07 25.74-9.3 43.4-13.45 17.65-4.15 38.91-6.91 66.65-6.9 24.66-.01 44.16 2.16 60.61 5.58 12.33 2.54 22.82 5.76 32.1 8.86 13.99 4.7 24.92 8.87 38.04 11.93 13.14 3.05 29.02 5.29 52.97 5.31 21.27-.01 36.21-1.8 48.46-4.32 9.21-1.91 17.01-4.27 25.23-7.01 12.24-4.07 25.74-9.3 43.4-13.45 17.64-4.15 38.9-6.91 66.63-6.9 24.66-.01 44.16 2.16 60.62 5.58 12.32 2.54 22.82 5.76 32.09 8.86 14 4.7 24.93 8.87 38.05 11.93 13.14 3.05 29.02 5.29 52.96 5.31 21.27-.01 36.21-1.8 48.46-4.32 9.2-1.91 17.01-4.27 25.23-7.01 12.24-4.07 25.73-9.3 43.39-13.45 17.64-4.15 38.9-6.91 66.63-6.9 24.66-.01 44.16 2.16 60.62 5.58 12.32 2.54 22.82 5.76 32.09 8.86 13.99 4.7 24.92 8.87 38.04 11.93 13.14 3.05 29.02 5.29 52.96 5.31 21.26-.01 36.2-1.8 48.45-4.32 9.2-1.91 17-4.27 25.22-7.01 12.24-4.07 25.73-9.3 43.38-13.45 17.64-4.15 38.9-6.91 66.62-6.9 24.66-.01 44.16 2.16 60.61 5.58 12.32 2.54 22.82 5.76 32.09 8.86 13.99 4.7 24.92 8.87 38.04 11.93 13.13 3.05 29.01 5.29 52.95 5.31 20.5 0 35.13-1.67 47.12-4.05 9.02-1.8 16.64-4.02 24.51-6.6 11.74-3.82 24.36-8.76 40.71-12.95 16.34-4.2 35.93-7.31 61.08-7.93 8.12-.21 15.88 2.83 21.7 8.51 5.82 5.67 9.06 13.35 9.06 21.48v164.54c0 7.9-3.2 15.63-8.78 21.22-5.59 5.58-13.32 8.78-21.22 8.78v-30h-30v-164.54h30l.77 29.99c-18.86.5-32.24 2.47-43.58 5.07-8.52 1.96-16 4.33-24.02 7.05-11.96 4.05-25.36 9.08-42.64 12.98-17.27 3.91-37.98 6.47-64.71 6.46-24.66 0-44.16-2.16-60.61-5.58-12.33-2.54-22.82-5.76-32.1-8.86-13.99-4.7-24.92-8.87-38.04-11.93-13.13-3.05-29-5.3-52.94-5.31-21.26.01-36.2 1.8-48.45 4.32-9.2 1.91-17 4.27-25.22 7.01-12.24 4.07-25.73 9.3-43.38 13.45-17.64 4.14-38.9 6.91-66.62 6.9-24.66 0-44.16-2.16-60.62-5.58-12.32-2.54-22.82-5.76-32.09-8.86-14-4.7-24.92-8.87-38.05-11.93-13.13-3.05-29.01-5.3-52.95-5.31-21.27.01-36.21 1.8-48.46 4.32-9.21 1.91-17.01 4.27-25.23 7.01-12.24 4.07-25.73 9.3-43.39 13.45-17.64 4.14-38.9 6.91-66.63 6.9-24.66 0-44.17-2.16-60.62-5.58-12.33-2.54-22.82-5.76-32.09-8.86-14-4.7-24.93-8.87-38.05-11.93-13.14-3.05-29.02-5.3-52.96-5.31-21.27.01-36.21 1.8-48.47 4.32-9.2 1.91-17.01 4.27-25.23 7.01-12.24 4.07-25.73 9.3-43.39 13.45-17.64 4.14-38.9 6.91-66.63 6.9-24.67 0-44.17-2.16-60.63-5.58-12.32-2.54-22.82-5.76-32.09-8.86-14-4.7-24.93-8.87-38.05-11.93-13.13-3.05-29.01-5.3-52.95-5.31-21.28.01-36.23 1.8-48.48 4.32-9.21 1.91-17.01 4.27-25.24 7.01-12.24 4.07-25.74 9.3-43.4 13.45-17.64 4.14-38.9 6.91-66.63 6.9-22.82 0-41.21-1.84-56.88-4.83-11.74-2.22-21.88-5.08-30.87-7.96-13.55-4.36-24.24-8.51-35.72-11.67-11.51-3.17-24.23-5.68-42.8-6.73l1.67-29.96h30v134.14h1778.47v30h-30z" fill="#091019" transform="matrix(.12 0 0 -.12 -300.406 249.6308)"/><g transform="matrix(.12 0 0 -.12 -300.45 248.8532)"><path d="m3410 1858.61c0-27.62-22.38-50-50-50h-1890c-27.61 0-50 22.38-50 50 0 27.61 22.39 50 50 50h1890c27.62 0 50-22.39 50-50" fill="#d14624"/><path d="m3410 1858.61h-30c-.02-5.62-2.19-10.43-5.86-14.15-3.71-3.66-8.52-5.84-14.14-5.85h-1890c-5.62.01-10.43 2.19-14.14 5.85-3.67 3.72-5.84 8.53-5.86 14.15.02 5.62 2.19 10.43 5.86 14.14 3.71 3.66 8.52 5.84 14.14 5.86h1890c5.62-.02 10.43-2.2 14.14-5.86 3.67-3.71 5.84-8.52 5.86-14.14h30 30c.01 21.99-9 42.18-23.43 56.57a79.9 79.9 0 0 1 -56.57 23.43h-1890c-21.99.01-42.18-9-56.57-23.43-14.43-14.38-23.44-34.58-23.43-56.57a79.9 79.9 0 0 1 23.43-56.57c14.39-14.43 34.58-23.45 56.57-23.43h1890c22-.02 42.19 9 56.57 23.43a79.9 79.9 0 0 1 23.43 56.57z" fill="#091019"/></g><g transform="matrix(.12 0 0 -.12 -300.406 245.5268)"><path d="m3398.59 2060.66c-8.24 530.79-441.03 841.96-973.78 841.96s-965.53-311.17-973.8-841.96z" fill="#e98523"/><path d="m3398.59 2060.66 30 .46c-2.11 136.72-31.66 260.18-83.69 368.05-78.01 161.88-206.42 288.2-365.88 373.46-159.51 85.32-350.07 129.98-554.21 130-272.14-.02-520.35-79.41-702.6-228.74-91.07-74.65-165.49-166.83-217.49-274.72-52.04-107.87-81.59-231.32-83.71-368.05l-.47-30.46h2008.52l-.47 30.46-30-.46v30h-1947.58v-30l30-.47c2.02 128.68 29.66 243.16 77.75 342.92 72.16 149.57 190.51 266.49 340.15 346.61 149.59 80.06 330.48 122.92 525.9 122.9 260.61.02 495.17-76.18 664.56-215.13 84.75-69.5 153.38-154.63 201.49-254.38 48.08-99.76 75.72-214.24 77.74-342.92l29.99.47v30z" fill="#091019"/></g><g transform="matrix(.12 0 0 -.12 -300.48 248.7328)"><path d="m3370 2068.61h-1920v-160h209.85l173.79-217.84 173.78 217.84h1362.58z" fill="#f4d12e"/><path d="m3370 2068.61v30h-1920a30.17 30.17 0 0 1 -21.21-8.79c-5.59-5.59-8.79-13.31-8.79-21.21v-160a30.21 30.21 0 0 1 8.79-21.22c5.58-5.58 13.31-8.78 21.21-8.78h195.41l164.78-206.55c5.68-7.11 14.34-11.29 23.45-11.29s17.77 4.18 23.45 11.29l164.77 206.55h1348.14c7.9 0 15.63 3.2 21.21 8.78a30.21 30.21 0 0 1 8.79 21.22v160c0 7.9-3.2 15.62-8.79 21.21a30.17 30.17 0 0 1 -21.21 8.79v-30h-30v-130h-1332.58c-9.11 0-17.77-4.17-23.45-11.29l-150.33-188.44-150.34 188.44c-5.68 7.12-14.34 11.29-23.45 11.29h-179.85v100h1890v30h-30z" fill="#091019"/></g><g transform="matrix(.12 0 0 -.12 -300.48 251.5232)"><path d="m1450 1278.61h1920v160h-1920z" fill="#d14624"/><path d="m3370 1438.61v30h-1920a30.17 30.17 0 0 1 -21.21-8.79c-5.59-5.59-8.79-13.31-8.79-21.21v-160a30.21 30.21 0 0 1 8.79-21.22c5.58-5.58 13.31-8.78 21.21-8.78h1920c7.9 0 15.63 3.2 21.21 8.78a30.21 30.21 0 0 1 8.79 21.22v160c0 7.9-3.2 15.62-8.79 21.21a30.17 30.17 0 0 1 -21.21 8.79v-30h-30v-130h-1860v100h1890v30h-30z" fill="#091019"/></g><g transform="matrix(.12 0 0 -.12 -303.01 251.5232)"><path d="m1450 1278.61h970v160h-970z" fill="#d14624"/><path d="m2420 1438.61v30h-970a30.17 30.17 0 0 1 -21.21-8.79c-5.59-5.59-8.79-13.31-8.79-21.21v-160a30.21 30.21 0 0 1 8.79-21.22c5.58-5.58 13.31-8.78 21.21-8.78h970c7.9 0 15.63 3.2 21.21 8.78a30.21 30.21 0 0 1 8.79 21.22v160c0 7.9-3.2 15.62-8.79 21.21a30.17 30.17 0 0 1 -21.21 8.79v-30h-30v-130h-910v100h940v30h-30z" fill="#091019"/></g><g transform="matrix(.12 0 0 -.12 -300.4144 252.9632)"><path d="m3369.82 970.672c0-39.121-31.72-72.063-70.84-72.063h-1753.23c-39.13 0-70.84 32.942-70.84 72.063l-17.71 233.658c0 39.12 31.71 74.28 70.84 74.28h1788.66c39.1 0 70.84-35.16 70.84-74.28z" fill="#f4ad19"/><path d="m3369.82 970.672h-30c.01-11.383-4.62-21.961-12.21-29.742-7.63-7.758-17.6-12.309-28.63-12.321h-1753.23c-11.03.012-21 4.563-28.63 12.321-7.59 7.781-12.22 18.359-12.21 29.742v1.129l-17.8 234.799-29.91-2.27h30c-.06 11.38 4.79 22.97 12.64 31.29 3.89 4.16 8.42 7.45 13.18 9.64 4.78 2.19 9.74 3.34 15.02 3.35h1788.66c5.27-.01 10.22-1.16 15-3.35 7.14-3.27 13.79-9.1 18.48-16.44 4.72-7.33 7.37-15.94 7.36-24.49h30l-29.91 2.27-17.81-234.799v-1.129h30l29.92-2.274 17.8 234.792v1.14c-.06 27.74-11.07 53.29-28.87 72.32-8.93 9.53-19.66 17.47-31.84 23.1-12.17 5.62-25.85 8.86-40.13 8.86h-1788.66c-14.29 0-27.97-3.24-40.14-8.86-18.29-8.46-33.27-22.05-43.86-38.53-10.57-16.49-16.83-36.11-16.84-56.89v-1.13l17.79-234.802 29.92 2.274h-30c.01-27.75 11.23-53.192 29.28-71.66 18-18.5 43.46-30.41 71.56-30.403h1753.23c28.1-.007 53.55 11.903 71.56 30.391 18.05 18.48 29.27 43.922 29.28 71.672h-30l29.92-2.274z" fill="#091019"/></g><g fill="#7b341e"><path d="m1802.83 2309.53 69.8-23.52c15.7-5.29 32.72 3.14 38.01 18.84 5.29 15.71-3.15 32.72-18.85 38.02l-69.8 23.52c-15.7 5.29-32.71-3.15-38.01-18.85-5.29-15.7 3.15-32.72 18.85-38.01" transform="matrix(.12 0 0 -.12 -303.4872 246.364)"/><path d="m2984.64 2542.22 55.75-38.91c13.58-9.48 32.28-6.16 41.77 7.43 9.48 13.58 6.16 32.28-7.43 41.77l-55.74 38.91c-13.59 9.48-32.29 6.16-41.77-7.43-9.49-13.58-6.16-32.29 7.42-41.77" transform="matrix(.12 0 0 -.12 -297.1828 245.1832)"/><path d="m2042.24 2605.67 78.42-31.37c15.39-6.16 32.85 1.32 39 16.71 6.15 15.38-1.33 32.84-16.71 38.99l-78.43 31.38c-15.38 6.16-32.84-1.33-38.99-16.71-6.16-15.38 1.32-32.84 16.71-39" transform="matrix(.12 0 0 -.12 -302.1708 244.8008)"/><path d="m3066.9 2242.57 59.01 41.62c13.53 9.55 16.77 28.27 7.22 41.81-9.55 13.53-28.27 16.77-41.81 7.22l-59-41.62c-13.54-9.55-16.78-28.27-7.23-41.81s28.27-16.77 41.81-7.22" transform="matrix(.12 0 0 -.12 -296.9132 246.5668)"/><path d="m2535.93 2290.85 87.4-15.1c16.33-2.82 31.85 8.13 34.67 24.46s-8.13 31.85-24.46 34.67l-87.4 15.1c-16.33 2.82-31.85-8.13-34.67-24.46s8.13-31.85 24.46-34.67" transform="matrix(.12 0 0 -.12 -299.5476 246.4332)"/><path d="m2172.02 2296.1 86.22 42.85c14.83 7.37 20.88 25.38 13.51 40.22-7.38 14.83-25.38 20.88-40.22 13.51l-86.22-42.85c-14.83-7.38-20.88-25.38-13.51-40.22 7.38-14.84 25.38-20.89 40.22-13.51" transform="matrix(.12 0 0 -.12 -301.5836 246.2668)"/><path d="m2513.61 2627.12 66.94 35.9c14.6 7.83 20.09 26.02 12.25 40.62-7.83 14.6-26.01 20.09-40.61 12.26l-66.94-35.9c-14.6-7.83-20.09-26.02-12.25-40.62 7.83-14.6 26.01-20.09 40.61-12.26" transform="matrix(.12 0 0 -.12 -299.818 244.5212)"/></g><g fill="#370f12"><path d="m1603.92 1536.88c-9.98 0-18.08 8.08-18.08 18.06 0 9.99 8.1 18.08 18.08 18.08s18.08-8.09 18.08-18.08c0-9.98-8.1-18.06-18.08-18.06" transform="matrix(.12 0 0 -.12 -304.7804 250.474)"/><path d="m2015.69 1497.28c-9.98 0-18.07 8.08-18.07 18.07 0 9.98 8.09 18.08 18.07 18.08s18.07-8.1 18.07-18.08c0-9.99-8.09-18.07-18.07-18.07" transform="matrix(.12 0 0 -.12 -302.5828 250.6832)"/></g><g fill="#ae6f45"><path d="m2189.91 1513.12c-9.98 0-18.08 8.08-18.08 18.07 0 9.98 8.1 18.07 18.08 18.07a18.08 18.08 0 0 0 18.07-18.07c0-9.99-8.1-18.07-18.07-18.07" transform="matrix(.12 0 0 -.12 -301.658 250.6028)"/><path d="m2934.28 1528.95c-9.98 0-18.09 8.09-18.09 18.07 0 10 8.11 18.09 18.09 18.09 9.96 0 18.06-8.09 18.06-18.09 0-9.98-8.1-18.07-18.06-18.07" transform="matrix(.12 0 0 -.12 -297.6824 250.5136)"/><path d="m1786.05 1505.21c-9.98 0-18.07 8.07-18.07 18.05 0 9.99 8.09 18.08 18.07 18.08s18.07-8.09 18.07-18.08c0-9.98-8.09-18.05-18.07-18.05" transform="matrix(.12 0 0 -.12 -303.806 250.6436)"/></g><g fill="#370f12"><path d="m2427.46 1552.71a18.08 18.08 0 0 0 -18.07 18.07c0 9.98 8.1 18.08 18.07 18.08a18.1 18.1 0 0 0 18.09-18.08c0-9.98-8.11-18.07-18.09-18.07" transform="matrix(.12 0 0 -.12 -300.3864 250.3836)"/><path d="m2752.13 1497.28c-9.98 0-18.07 8.08-18.07 18.07 0 9.98 8.09 18.08 18.07 18.08s18.06-8.1 18.06-18.08c0-9.99-8.08-18.07-18.06-18.07" transform="matrix(.12 0 0 -.12 -298.6556 250.6832)"/></g><path d="m1890 1308.61h120v100h-120z" fill="#e67b48" transform="matrix(.12 0 0 -.12 -302.93 251.5232)"/><path d="m1890 1298.61h120v10h-120z" fill="#1c3154" transform="matrix(.12 0 0 -.12 -302.93 251.8132)"/><path d="m2120 1308.61h50v100h-50z" fill="#e67b48" transform="matrix(.12 0 0 -.12 -301.89 251.5232)"/><path d="m2120 1298.61h50v10h-50z" fill="#1c3154" transform="matrix(.12 0 0 -.12 -301.89 251.8132)"/><path d="m2930 1358.37v50.24h27.86l-18.33-33.39v-.3l-7.75-13.56z" fill="#e67b48" transform="matrix(.12 0 0 -.12 -297.6316 251.3788)"/><path d="m3354.76 1468.61h-366.74c21.91 46.25 41.09 93.26 57.56 141 6.63 1.79 12.68 3.7 18.29 5.58 13.99 4.7 24.92 8.87 38.04 11.93 13.13 3.05 29.01 5.29 52.95 5.31 20.5 0 35.13-1.67 47.12-4.05 9.02-1.8 16.64-4.02 24.51-6.6 11.74-3.82 24.36-8.76 40.71-12.95 16.34-4.2 35.93-7.31 61.08-7.93l.78-.01c7.84 0 15.29 3.03 20.92 8.52 3.6 3.5 6.21 7.77 7.68 12.44 1.43-4.56 2.35-10.2 2.34-16.59v-113.3c.04-10.13-2.3-18.2-5.24-23.35m-48.31 72.73a18.07 18.07 0 0 1 -18.07-18.08 18.05 18.05 0 0 1 18.07-18.05c9.96 0 18.06 8.07 18.06 18.05 0 9.99-8.1 18.08-18.06 18.08m-144.79 13.6c0-9.98 8.11-18.06 18.09-18.06s18.06 8.08 18.06 18.06c0 9.99-8.08 18.08-18.06 18.08s-18.09-8.09-18.09-18.08z" fill="#591e16" transform="matrix(.12 0 0 -.12 -296.4012 250.4924)"/><g fill="#070b0e"><path d="m3370 1439.08v29.53h-15.24c2.94 5.15 5.28 13.22 5.24 23.35v113.3c.01 6.39-.91 12.03-2.34 16.59.91 2.89 1.38 5.93 1.38 9.04v43.79c27.41-6.97 47.68-31.82 47.68-61.4v-118.77a63.06 63.06 0 0 0 -12.66-38c-.86 1.17-1.81 2.28-2.85 3.31a30.17 30.17 0 0 1 -21.21 8.79z" transform="matrix(.12 0 0 -.12 -297.2788 250.4756)"/><path d="m3329.06 1600.89-.78.01c-25.15.62-44.74 3.73-61.08 7.93-16.35 4.19-28.97 9.13-40.71 12.95-7.87 2.58-15.49 4.8-24.51 6.6-11.99 2.38-26.62 4.05-47.12 4.05-23.94-.02-39.82-2.26-52.95-5.31-13.12-3.06-24.05-7.23-38.04-11.93-5.61-1.88-11.66-3.79-18.29-5.58 7.65 22.19 14.71 44.52 21.2 67.02h.06l-9.67-32.04c25.08 8.54 47.89 17.84 97.69 17.84 88.54 0 91.74-29.43 174.18-31.54v45.74h14.34c5.4 0 10.65-.67 15.66-1.95v-43.79c0-3.11-.47-6.15-1.38-9.04-1.47-4.67-4.08-8.94-7.68-12.44-5.63-5.49-13.08-8.52-20.92-8.52" transform="matrix(.12 0 0 -.12 -296.2572 250.0312)"/><path d="m2969.7 1431.16h-.09a1424.56 1424.56 0 0 1 18.41 37.45h366.74 15.24v-29.53h-396.29zm404.37 7.92h-4.07v29.53a30.17 30.17 0 0 0 21.21-8.79c1.04-1.03 1.99-2.14 2.85-3.31a63.53 63.53 0 0 0 -19.99-17.43" transform="matrix(.12 0 0 -.12 -296.3608 251.0368)"/></g><path d="m3306.45 1505.21a18.05 18.05 0 0 0 -18.07 18.05 18.07 18.07 0 0 0 18.07 18.08c9.96 0 18.06-8.09 18.06-18.08 0-9.98-8.1-18.05-18.06-18.05" fill="#804229" transform="matrix(.12 0 0 -.12 -295.6928 250.6436)"/><path d="m3299.04 1676.63h-47.41c-9.29 3.18-19.68 6.55-32.06 9.35-17.22 3.89-37.85 6.46-64.45 6.46h-.26-.17c-24.58 0-44.03-2.17-60.44-5.58-9.91-2.04-18.64-4.52-26.5-7.03a1357 1357 0 0 1 21.47 85.6h209.82z" fill="#349c3e" transform="matrix(.12 0 0 -.12 -296.3568 249.5836)"/><g fill="#080d11"><path d="m3329.04 1676.63h-30v88.8h-209.82l2.78 13.18h237.04zm-77.41 0h-184.79l.91 3.2c7.86 2.51 16.59 4.99 26.5 7.03 16.41 3.41 35.86 5.58 60.44 5.58h.17.26c26.6 0 47.23-2.57 64.45-6.46 12.38-2.8 22.77-6.17 32.06-9.35" transform="matrix(.12 0 0 -.12 -296.2728 249.5544)"/><path d="m3329.04 1778.61h-237.04l3.35 16.82h233.69z" transform="matrix(.12 0 0 -.12 -296.2024 249.2324)"/></g><path d="m3299.04 1663.48c-4.62.72-8.84 1.56-12.81 2.47-8.52 1.96-16 4.33-24.02 7.05l-10.58 3.63h47.41z" fill="#21582a" transform="matrix(.12 0 0 -.12 -295.8608 249.8672)"/><path d="m3329.04 1630.89c-82.44 2.11-85.64 31.54-174.18 31.54-49.8 0-72.61-9.3-97.69-17.84l9.67 32.04h184.79l10.58-3.63c8.02-2.72 15.5-5.09 24.02-7.05 3.97-.91 8.19-1.75 12.81-2.47v13.15h30z" fill="#070a0b" transform="matrix(.12 0 0 -.12 -296.2732 252.4412)"/><path d="m3360 1838.61h-257.1c2.13 13.28 4.06 26.61 5.81 40h251.29c5.62-.02 10.43-2.2 14.14-5.86 3.67-3.71 5.84-8.52 5.86-14.14-.02-5.62-2.19-10.43-5.86-14.15-3.71-3.66-8.52-5.84-14.14-5.85" fill="#bb2f22" transform="matrix(.12 0 0 -.12 -296.044 248.8532)"/><g fill="#070c0f"><path d="m3371.09 1803.33h-274.29l6.1 35.28h257.1c5.62.01 10.43 2.19 14.14 5.85 3.67 3.72 5.84 8.53 5.86 14.15-.02 5.62-2.19 10.43-5.86 14.14-3.71 3.66-8.52 5.84-14.14 5.86h10c7.9 0 15.63 3.2 21.21 8.78 3.16 3.16 5.55 6.99 7.04 11.16 14.6-9.09 24.31-25.28 24.31-43.75 0-28.42-23.03-51.47-51.47-51.47" transform="matrix(.12 0 0 -.12 -295.9516 248.8928)"/><path d="m3370 1878.61h-261.29l3.32 27.67h259.06c9.97 0 19.28-2.83 27.16-7.73-1.49-4.17-3.88-8-7.04-11.16-5.58-5.58-13.31-8.78-21.21-8.78" transform="matrix(.12 0 0 -.12 -295.9876 248.6728)"/></g><path d="m3367.22 2098.61h-247.09c-1.68 57.85-6.75 114.78-15.2 170.79l20.98 14.79c13.53 9.55 16.77 28.27 7.22 41.81-5.85 8.28-15.12 12.71-24.54 12.71a29.83 29.83 0 0 1 -15.1-4.1c-11.18 55.72-25.8 110.51-43.85 164.35a29.86 29.86 0 0 1 7.89-1.05c9.48-.01 18.79 4.47 24.63 12.83 9.48 13.58 6.16 32.28-7.43 41.77l-55.74 38.91c-1.71 1.19-3.51 2.19-5.35 2.98-23.44 55.79-50.73 110.52-81.86 164.21l-.82 1.38c57.42-28.95 110.52-63.22 158.41-102.5 84.75-69.5 153.38-154.63 201.49-254.38 43.24-89.72 69.95-191.35 76.36-304.5" fill="#e1661c" transform="matrix(.12 0 0 -.12 -296.5308 245.806)"/><g fill="#080c0f"><path d="m3370 2068.61v30h-2.78c-6.41 113.15-33.12 214.78-76.36 304.5-48.11 99.75-116.74 184.88-201.49 254.38-47.89 39.28-100.99 73.55-158.41 102.5a1468.09 1468.09 0 0 1 -45.96 72.55c296.5-132.31 500.97-397.81 513.14-753.58-1.49 4.05-3.85 7.78-6.93 10.86a30.17 30.17 0 0 1 -21.21 8.79z" transform="matrix(.12 0 0 -.12 -296.5784 245.6996)"/><path d="m3398.59 2060.66h-7.69v3.99h-270.18l-.59 33.96h247.09 2.78v-30 30a30.17 30.17 0 0 0 21.21-8.79c3.08-3.08 5.44-6.81 6.93-10.86z" transform="matrix(.12 0 0 -.12 -295.9432 247.6756)"/></g><g fill="#762818"><path d="m3057.53 2497.91a29.86 29.86 0 0 0 -7.89 1.05c-10.78 32.15-22.78 63.96-36 95.44 1.84-.79 3.64-1.79 5.35-2.98l55.74-38.91c13.59-9.49 16.91-28.19 7.43-41.77-5.84-8.36-15.15-12.84-24.63-12.83" transform="matrix(.12 0 0 -.12 -297.062 245.188)"/><path d="m3104.93 2269.4a1374.82 1374.82 0 0 1 -11.44 65.21 29.83 29.83 0 0 0 15.1 4.1c9.42 0 18.69-4.43 24.54-12.71 9.55-13.54 6.31-32.26-7.22-41.81z" transform="matrix(.12 0 0 -.12 -296.716 246.4772)"/></g><path d="m3120.75 2060.66h-.01v.53z" fill="#080c0f" transform="matrix(.12 0 0 -.12 -296.6888 247.7716)"/><path d="m3340 1938.61h-224.78l2.33 30h112.45c11.05 0 20 8.95 20 20 0 11.04-8.95 20-20 20h-110.33l.87 30h219.46z" fill="#f2bb21" transform="matrix(.12 0 0 -.12 -296.1232 248.1632)"/><path d="m3390.9 1906.28h-19.81-259.06l3.19 32.33h224.78v100h-219.46l.22 21.37-.01.68h270.15zm-270.16 154.91-.06 3.46h.04z" fill="#080d10" transform="matrix(.12 0 0 -.12 -295.9864 248.1752)"/><path d="m3390.9 2060.66h-270.15l-.01.53-.02 3.46h270.18z" fill="#080b0c" transform="matrix(.12 0 0 -.12 -295.9772 247.768)"/><path d="m3340 1308.61h-23.25-.05-106.7v100h-50v-100h-101.7v100h281.7z" fill="#bb2f22" transform="matrix(.12 0 0 -.12 -296.268 251.5232)"/><path d="m3390.9 1280.7h-6.23c-8.07 7.73-17.43 14.24-27.84 19.05-12.16 5.61-25.81 8.86-40.08 8.86h23.25v100h-281.7v6.71h-96.78l8.18 15.84h373.68a63.04 63.04 0 0 1 30.69 7.92h16.83z" fill="#070c0f" transform="matrix(.12 0 0 -.12 -297.3652 251.4668)"/><path d="m2930 1308.61h-31.01c10.62 16.3 20.97 32.87 31.01 49.76z" fill="#bb2f22" transform="matrix(.12 0 0 -.12 -297.7888 251.6488)"/><path d="m3384.67 1280.7h-504.3l18.62 27.91h31.01v-10h120v5.84h8.3v4.16h101.7v-10h50v10h106.7.05c14.27 0 27.92-3.25 40.08-8.86 10.41-4.81 19.77-11.32 27.84-19.05" fill="#070c0f" transform="matrix(.12 0 0 -.12 -296.6224 251.8592)"/><path d="m2939.53 1308.61h-9.53v49.76l1.78 2.99 7.75 13.56z" fill="#d04f2f" transform="matrix(.12 0 0 -.12 -297.6824 251.6112)"/><path d="m3050 1298.61h-120v10h9.53v-4.16h110.47z" fill="#0f1c2a" transform="matrix(.12 0 0 -.12 -297.39 251.8132)"/><path d="m3343.38 1431.16h-373.68l4.01 7.92h396.29v-.47.47h4.07a63.04 63.04 0 0 0 -30.69-7.92" fill="#07090a" transform="matrix(.12 0 0 -.12 -296.4168 251.1144)"/><path d="m3298.98 928.609h-765.39c125.9 88.801 233.95 195.471 324.12 320.001h458.99c5.27-.01 10.22-1.16 15-3.35 7.14-3.27 13.79-9.1 18.48-16.44 4.53-7.05 7.16-15.27 7.35-23.5l-17.71-233.519v-1.129c.01-11.383-4.62-21.961-12.21-29.742-7.63-7.758-17.6-12.309-28.63-12.321m-318.98 280.001c-16.57 0-30-13.43-30-30s13.43-30 30-30h60c16.57 0 30 13.43 30 30s-13.43 30-30 30z" fill="#f38f18" transform="matrix(.12 0 0 -.12 -297.6172 252.9632)"/><path d="m3301.43 900.602h-809.05c13.95 9.128 27.68 18.457 41.21 28.007h765.39c11.03.012 21 4.563 28.63 12.321 7.59 7.781 12.22 18.359 12.21 29.742v1.129l17.71 233.519c-.19 8.23-2.82 16.45-7.35 23.5-4.69 7.34-11.34 13.17-18.48 16.44-4.78 2.19-9.73 3.34-15 3.35h-458.99l17.13 24.18h444.3c39.1 0 70.84-31.75 70.84-70.87l-17.71-230.26c0-39.121-31.72-71.058-70.84-71.058" fill="#080c0f" transform="matrix(.12 0 0 -.12 -297.6516 252.974)"/><path d="m3179.75 1536.88c-9.98 0-18.09 8.08-18.09 18.06 0 9.99 8.11 18.08 18.09 18.08s18.06-8.09 18.06-18.08c0-9.98-8.08-18.06-18.06-18.06" fill="#1b0b0c" transform="matrix(.12 0 0 -.12 -296.3776 250.474)"/><path d="m2957.98 1408.61h-.12l3.55 6.71h.11z" fill="#091019" transform="matrix(.12 0 0 -.12 -297.5528 251.2352)"/><path d="m2939.53 1374.92v.3l18.33 33.39h.12z" fill="#e67b48" transform="matrix(.12 0 0 -.12 -297.6112 251.3424)"/><path d="m3058.3 1308.61h-8.3v100h-92.02 100.32z" fill="#bb2f22" transform="matrix(.12 0 0 -.12 -297.2868 251.5232)"/><g fill="#070c0f"><path d="m3058.3 1408.61h-100.32l3.54 6.71h96.78z" transform="matrix(.12 0 0 -.12 -297.2868 251.2352)"/><path d="m3050 1304.45h8.301v4.16h-8.301z" transform="matrix(.12 0 0 -.12 -297.038 251.8036)"/></g><path d="m3050 1308.61h-110.47v66.31l18.45 33.69h92.02z" fill="#d04f2f" transform="matrix(.12 0 0 -.12 -297.3624 251.5232)"/><path d="m2939.53 1304.45h110.469v4.16h-110.469z" fill="#0f1c2a" transform="matrix(.12 0 0 -.12 -297.3612 251.8036)"/><path d="m3160 1308.61h50v100h-50z" fill="#d04f2f" transform="matrix(.12 0 0 -.12 -296.35 251.5232)"/><path d="m3160 1298.61h50v10h-50z" fill="#0f1c2a" transform="matrix(.12 0 0 -.12 -296.35 251.8132)"/><g fill="#ee8b17"><path d="m1770 1098.61h-70c-16.57 0-30 13.43-30 30s13.43 30 30 30h70c16.57 0 30-13.43 30-30s-13.43-30-30-30" transform="matrix(.12 0 0 -.12 -304.08 252.7532)"/><path d="m2100 1138.61h-70c-16.57 0-30 13.43-30 30s13.43 30 30 30h70c16.57 0 30-13.43 30-30s-13.43-30-30-30" transform="matrix(.12 0 0 -.12 -302.32 252.5332)"/></g><path d="m3040 1148.61h-60c-16.57 0-30 13.43-30 30s13.43 30 30 30h60c16.57 0 30-13.43 30-30s-13.43-30-30-30" fill="#eb7517" transform="matrix(.12 0 0 -.12 -297.28 252.4832)"/><path d="m2670 1128.61h-70c-16.57 0-30 13.43-30 30 0 16.56 13.43 30 30 30h70c16.57 0 30-13.44 30-30 0-16.57-13.43-30-30-30" fill="#ee8b17" transform="matrix(.12 0 0 -.12 -299.28 252.5932)"/><path d="m2450 2908.61v500c0 16.57-13.43 30-30 30s-30-13.43-30-30v-500c0-16.57 13.43-30 30-30s30 13.43 30 30" fill="#091019" transform="matrix(.12 0 0 -.12 -300.43 241.9232)"/><g transform="matrix(.12 0 0 -.12 -299.1184 241.7664)"><path d="m2900.64 3186.97-470.64 162.08v-324.16l470.64 162.08-470.64 162.08v-324.17z" fill="#ec3c26"/><path d="m2900.64 3186.97 9.77 28.36-470.64 162.09c-9.2 3.16-19.27 1.7-27.19-3.95-7.92-5.64-12.58-14.69-12.58-24.42v-324.16a29.92 29.92 0 0 1 12.58-24.43 29.9 29.9 0 0 1 27.19-3.94l470.64 162.08c12.08 4.16 20.23 15.59 20.23 28.37 0 12.77-8.15 24.2-20.23 28.36l-470.64 162.08a29.9 29.9 0 0 1 -27.19-3.94c-7.92-5.65-12.58-14.7-12.58-24.42v-324.17a29.9 29.9 0 0 1 39.77-28.36l470.64 162.08c12.08 4.16 20.23 15.59 20.23 28.37 0 12.77-8.15 24.2-20.23 28.36l-9.77-28.36-9.76 28.36-430.88-148.39v240.05l348.51-120.02-348.51-120.02v240.04l430.88-148.39 9.76 28.37-9.76 28.36z" fill="#091019"/></g><path d="m3117.55 1968.61h-1537.55c-11.05 0-20 8.95-20 20 0 11.04 8.95 20 20 20h1539.67z" fill="#f5df5b" transform="matrix(.12 0 0 -.12 -300.8608 248.1632)"/><path d="m3230 1968.61h-112.45l2.12 40h110.33c11.05 0 20-8.96 20-20 0-11.05-8.95-20-20-20" fill="#f4cf4f" transform="matrix(.12 0 0 -.12 -296.3536 248.1632)"/><g fill="#091019"><path d="m1702.21 3802.63h-20c-.01-5.93-2.34-11.11-6.22-15.02-3.9-3.87-9.09-6.2-15.01-6.22-5.93.02-11.11 2.35-15.02 6.22-3.87 3.91-6.21 9.09-6.22 15.02.01 5.93 2.35 11.11 6.22 15.01 3.91 3.88 9.09 6.22 15.02 6.23 5.92-.01 11.11-2.35 15.01-6.23 3.88-3.9 6.21-9.08 6.22-15.01h20 20c-.01 33.83-27.41 61.22-61.23 61.24-33.83-.02-61.23-27.41-61.24-61.24.01-33.83 27.41-61.22 61.24-61.24 33.82.02 61.22 27.41 61.23 61.24z" transform="matrix(.12 0 0 -.12 -304.4764 238.4856)"/><path d="m3192.21 3812.63h-20c-.01-5.93-2.35-11.11-6.22-15.02-3.91-3.87-9.09-6.2-15.01-6.22-5.93.02-11.11 2.35-15.02 6.22-3.87 3.91-6.2 9.09-6.21 15.02.01 5.93 2.34 11.11 6.21 15.01 3.91 3.88 9.09 6.22 15.02 6.23 5.92-.01 11.1-2.35 15.01-6.23 3.87-3.9 6.21-9.08 6.22-15.01h20 20c-.01 33.82-27.41 61.22-61.23 61.24-33.83-.02-61.22-27.42-61.23-61.24.01-33.83 27.4-61.22 61.23-61.24 33.82.02 61.22 27.41 61.23 61.24z" transform="matrix(.12 0 0 -.12 -296.5276 238.4356)"/><g transform="matrix(.12 0 0 -.12 -307.2 236.6932)"><path d="m1178.28 4195.18-84.85-84.86a20 20 0 0 1 0-28.28c7.81-7.81 20.47-7.81 28.29 0l84.85 84.85c7.81 7.81 7.81 20.48 0 28.29s-20.47 7.81-28.29 0"/><path d="m1178.28 4195.18-84.85-84.86a20 20 0 0 1 0-28.28c7.81-7.81 20.47-7.81 28.29 0l84.85 84.85c7.81 7.81 7.81 20.48 0 28.29s-20.47 7.81-28.29 0"/><path d="m1206.57 4110.32-84.85 84.86c-7.82 7.81-20.48 7.81-28.29 0s-7.81-20.48 0-28.29l84.85-84.85c7.82-7.81 20.48-7.81 28.29 0a20 20 0 0 1 0 28.28"/><path d="m1206.57 4110.32-84.85 84.86c-7.82 7.81-20.48 7.81-28.29 0s-7.81-20.48 0-28.29l84.85-84.85c7.82-7.81 20.48-7.81 28.29 0a20 20 0 0 1 0 28.28"/></g><g transform="matrix(.12 0 0 -.12 -293.6 239.8432)"><path d="m3728.28 3605.18-84.84-84.86a20 20 0 0 1 28.28-28.28l84.84 84.85c7.81 7.81 7.81 20.48 0 28.29s-20.47 7.8-28.28 0"/><path d="m3728.28 3605.18-84.84-84.86a20 20 0 0 1 28.28-28.28l84.84 84.85c7.81 7.81 7.81 20.48 0 28.29s-20.47 7.8-28.28 0"/><path d="m3756.56 3520.32-84.84 84.86c-7.81 7.8-20.47 7.81-28.28 0s-7.81-20.48 0-28.29l84.84-84.85a20 20 0 0 1 28.28 28.28"/><path d="m3756.56 3520.32-84.84 84.86c-7.81 7.8-20.47 7.81-28.28 0s-7.81-20.48 0-28.29l84.84-84.85a20 20 0 0 1 28.28 28.28"/></g><path d="m977.953 3668.34-.34-54.89c-.07-11.05 8.828-20.06 19.875-20.13s20.052 8.83 20.122 19.88l.34 54.89c.07 11.05-8.83 20.06-19.872 20.12-11.047.08-20.055-8.82-20.125-19.87" transform="matrix(.12 0 0 -.12 -308.0136 239.3424)"/><path d="m770.766 3423.96 54.894-.34a20 20 0 0 1 20.125 19.87c.07 11.05-8.828 20.06-19.875 20.13l-54.898.34c-11.043.07-20.055-8.83-20.121-19.88-.071-11.04 8.828-20.05 19.875-20.12" transform="matrix(.12 0 0 -.12 -309.0808 240.4048)"/><path d="m796.512 3615.62 35.136-35.57c7.762-7.86 20.426-7.94 28.286-.18s7.937 20.43.175 28.29l-35.136 35.57c-7.762 7.86-20.426 7.93-28.285.17s-7.938-20.43-.176-28.28" transform="matrix(.12 0 0 -.12 -308.9172 239.5068)"/><path d="m4176.32 3046.86-54.37-7.57c-10.94-1.52-18.57-11.62-17.05-22.56a19.99 19.99 0 0 1 22.56-17.05l54.37 7.56c10.94 1.52 18.57 11.62 17.05 22.56s-11.62 18.58-22.56 17.06" transform="matrix(.12 0 0 -.12 -291.1968 242.6424)"/><path d="m3904.67 3216.73 7.57-54.37a20 20 0 0 1 22.57-17.05c10.94 1.52 18.57 11.62 17.05 22.56l-7.57 54.37c-1.52 10.94-11.62 18.58-22.57 17.05-10.94-1.52-18.57-11.62-17.05-22.56" transform="matrix(.12 0 0 -.12 -292.3824 241.736)"/><path d="m4098.05 3218.82-30.15-39.89c-6.66-8.81-4.91-21.35 3.9-28.01a20 20 0 0 1 28.01 3.89l30.15 39.9c6.66 8.81 4.91 21.35-3.9 28.01s-21.35 4.92-28.01-3.9" transform="matrix(.12 0 0 -.12 -291.4716 241.7684)"/><path d="m2687.22 4394.46c-38.89 28.79-70.49-9.91-78.07-20.59-7.58 10.68-38.45 49.38-77.33 20.59-43.64-32.31 18.18-154.2 78.18-160.44v-.04.02-.02.04c70 6.24 120.85 128.13 77.22 160.44" transform="matrix(.12 0 0 -.12 -299.4136 235.7228)"/><path d="m1790 4298.61h130c11.05 0 20 8.95 20 20 0 11.04-8.95 20-20 20h-130c-11.05 0-20-8.96-20-20 0-11.05 8.95-20 20-20" transform="matrix(.12 0 0 -.12 -303.44 235.7332)"/><path d="m1840 4248.61h130c11.05 0 20 8.95 20 20 0 11.04-8.95 20-20 20h-130c-11.05 0-20-8.96-20-20 0-11.05 8.95-20 20-20" transform="matrix(.12 0 0 -.12 -303.17 236.0032)"/><path d="m3600 4188.61h130c11.05 0 20 8.95 20 20 0 11.04-8.95 20-20 20h-130c-11.05 0-20-8.96-20-20 0-11.05 8.95-20 20-20" transform="matrix(.12 0 0 -.12 -293.79 236.3232)"/><path d="m3650 4138.61h130c11.05 0 20 8.95 20 20 0 11.04-8.95 20-20 20h-130c-11.05 0-20-8.96-20-20 0-11.05 8.95-20 20-20" transform="matrix(.12 0 0 -.12 -293.52 236.5932)"/><path d="m0 858.609h5000v60h-5000z" transform="matrix(.12 0 0 -.12 -300 254.0332)"/></g></g></svg>