<svg height="81" viewBox="0 0 118 81" width="118" xmlns="http://www.w3.org/2000/svg"><g fill="#ebb21d"><path d="m15408 2737.15h-2755.4v783.34h2547v-559.99h-49.6v510.4h-2447.8v-684.16h2705.8z" transform="matrix(.04 0 0 -.04 -497.832 141.0328)"/><path d="m12493.8 1975.43h-49.6v297.55h24.8c113.7 0 170.4 56.68 230.5 116.69 64.5 64.53 131.2 131.24 265.5 131.24 134.2 0 201-66.71 265.5-131.24 60-60.03 116.7-116.72 230.4-116.72s170.4 56.69 230.4 116.72c64.5 64.53 131.3 131.24 265.5 131.24 134.3 0 201-66.71 265.5-131.24 60-60.03 116.7-116.72 230.4-116.72s170.4 56.69 230.4 116.72c64.5 64.53 131.2 131.24 265.5 131.24 105.1 0 168.4-42.88 211.8-80.28l18.8-16.17-32.3-37.58-18.8 16.18c-39.2 33.76-91.3 68.26-179.5 68.26-113.7 0-170.4-56.69-230.4-116.72-64.5-64.53-131.3-131.24-265.5-131.24-134.3 0-201 66.71-265.5 131.24-60 60.03-116.7 116.72-230.4 116.72s-170.4-56.69-230.4-116.72c-64.5-64.53-131.2-131.24-265.5-131.24-134.2 0-200.9 66.71-265.5 131.24-60 60.03-116.7 116.72-230.4 116.72s-170.4-56.69-230.5-116.72c-60.4-60.41-122.8-122.74-240.7-130.42z" transform="matrix(.04 0 0 -.04 -497.828 141.0268)"/><path d="m15199.6 1479.51h-2547v297.52h49.6v-247.93h2447.8v446.33h-2705.8v49.59h2755.4z" transform="matrix(.04 0 0 -.04 -497.836 141.0304)"/><path d="m13388.4 3013.32h57.2v57.14h-57.2zm106.7-49.6h-156.3v156.33h156.3z" transform="matrix(.04 0 0 -.04 -497.838 141.0256)"/><path d="m13643 3217.88h57.1v57.14h-57.1zm106.7-49.59h-156.3v156.33h156.3z" transform="matrix(.04 0 0 -.04 -497.832 141.028)"/><path d="m14406.6 3013.32h57.1v57.14h-57.1zm106.7-49.6h-156.3v156.33h156.3z" transform="matrix(.04 0 0 -.04 -497.836 141.0256)"/><path d="m14148.3 3214.13h57.1v57.12h-57.1zm106.7-49.59h-156.3v156.3h156.3z" transform="matrix(.04 0 0 -.04 -497.834 141.0276)"/><path d="m13897.5 3013.32h57.1v57.14h-57.1zm106.7-49.6h-156.3v156.33h156.3z" transform="matrix(.04 0 0 -.04 -497.832 141.0256)"/></g></svg>