<svg height="385" width="406" xmlns="http://www.w3.org/2000/svg"><rect fill="none" height="100%" width="100%"/><path d="m2.7150296 382.9991685h248.3v-161.2767h-248.3z" fill="#fff"/><path d="m251.0150296 382.9991685v-.65h-247.6505083v-159.976882h247.0005083v160.626882h.65v-.65.65h.65v-161.276882c0-.1716-.0689-.338-.1898-.4602-.1209-.1209-.2886-.1898-.4602-.1898h-248.3005083c-.171132 0-.3382028.0689-.4595695.1898-.1208597.1222-.19043001.2886-.19043001.4602v161.276882c0 .170118.06957031.337701.19043001.458549.1213667.120861.2884375.191451.4600778.191451h248.3c.1716 0 .3393-.07059.4602-.191451.1209-.120848.1898-.288431.1898-.458549z" fill="#1d2a30"/><path d="m2.7145213 220.69178967 124.1510283 80.63783 124.14948-80.63783z" fill="#fff"/><g fill="#1d2a30"><path d="m2.7145213 220.69178967-.3539445.5447 124.1504628 80.639c.21593.1391.49309.1391.7085 0l124.15039-80.639c.2418-.1573.351-.4524.2691-.7293s-.3354-.4654-.624-.4654h-248.3005083c-.2884375 0-.54081976.1885-.62308545.4654-.08175778.2769.02742194.572.26914095.7293l.3539445-.5447v.65h246.1074083l-121.95638 79.2129-123.7965742-80.4076-.3544541.5447v.65z"/><path d="m86.97842071 278.42719126-86.8294011 104.8801c-.22851543.275743-.18992168.686556.0863278.915083.2767583.229021.6865625.189917.9150791-.08684l86.8293842-104.879073c.22841-.27677.18993-.68653-.08632-.91507-.27677-.22893-.68666-.19084-.91507.0858"/><path d="m166.45973214 279.25646126 86.8283 104.879073c.2288.276757.6383.315861.9152.08684.2769-.228527.3159-.63934.0858-.915083l-86.8283-104.8801c-.2288-.27664-.6383-.31473-.9152-.0858-.2756.22854-.3146.6383-.0858.91507"/></g><path d="m388.42642072 13.05719158h-57.7187c-3.3891 0-6.5104 1.8473-8.1393 4.8191l-.0325.0585c-4.3953 7.9196-14.3767 10.7757-22.2963 6.3817-2.6832-1.4885-4.8932-3.6998-6.3817-6.3817-1.6198-3.0043-4.758-4.8776-8.1718-4.8776h-57.6303c-6.6547-.0845-12.1186 5.2403-12.207 11.895v325.53664c.0884 6.65639 5.5523 11.9808 12.207 11.89656h160.3706c6.6573.08424 12.1238-5.23913 12.2161-11.89656v-325.53664c-.0923-6.656-5.5588-11.9795-12.2161-11.895" fill="#73cd91"/><path d="m400.64642452 350.61843729c-.0923 6.65743-5.5588 11.9808-12.2161 11.89656h-160.3706c-6.6547.08424-12.1186-5.24017-12.207-11.89656v-325.53664c.0884-6.6547 5.5523-11.9795 12.207-11.895h57.6745c3.4138 0 6.552 1.8733 8.1718 4.8776 4.3953 7.9196 14.3767 10.7757 22.2963 6.3817 2.6832-1.4885 4.8932-3.6998 6.3817-6.3817l.0325-.0585c1.6302-2.9718 4.7502-4.8191 8.1406-4.8191h57.7174c6.6573-.0845 12.1238 5.239 12.2161 11.895zm5.6264-329.13894c0-9.2001-7.4568-16.6582-16.6569-16.6582h-.0091-162.7236c-9.2001-.0039-16.6621 7.449-16.666 16.6504v.0078 342.12373c0 9.19854 7.4581 16.658252 16.6569 16.658252h.0091 162.7236c9.2001.005083 16.6608-7.450612 16.666-16.649152v-.0091z" fill="#1d2a30"/><path d="m290.96123214 362.38539158h-42.7206l100.5771-349.3282h39.0117z" fill="#91d8a6"/><path d="m391.98931818.00259602c-.0962-.0013-.1924-.0026-.2899-.0026h.2899" fill="#e2f4e4"/><path d="m243.09782833 380.2460085 5.1064-17.735822h42.7206l-4.9062 17.691635zm144.6952-367.064022h-39.0117l2.4089-8.3655h38.6321c.0975 0 .1937.0013.2899.0026z" fill="#45555c"/><path d="m220.0208277 384.39637179h-1.4716l.1365-.448903c.4368.168077.8814.317382 1.3351.448903" fill="#fff"/><path d="m218.39452198 385.06647185.1976-.65h1.4716c1.1206.322465 2.2893.531674 3.4931.61191z" fill="#45555c"/><path d="m225.80583658 366.86421904c-.6357 0-1.2597-.0507-1.8694-.14573.6097.09503 1.2337.14573 1.8694.14573" fill="#fff"/><path d="m227.2082423 362.39552031c-.0026 0-.0052 0-.0078 0-.6357 0-1.2597-.0507-1.8694-.14573l106.2867-349.1839h4.1613l-104.3497 349.3282h-4.0664c-.0507.00143-.1027.00143-.1547.00143z" fill="#91d8a6"/><path d="m225.01411691 380.22287659c-1.2038-.080236-2.3725-.289445-3.4931-.61191-.4537-.131521-.8983-.280826-1.3351-.448903l5.1116-16.791879c.6097.09503 1.2337.14573 1.8694.14573h.0078c.052 0 .104 0 .1547-.00143h4.0664l-5.2871 17.69976zm110.7314-367.036592h-4.1613l2.5467-8.3655h4.1132z" fill="#45555c"/><path d="m337.41453849 286.26128618c.2769 15.73507-12.2538 28.48924-27.9877 28.48924s-28.7131-12.75417-28.9913-28.48924c-.2769-15.7326 12.2525-28.4882 27.9877-28.4882 15.7339 0 28.7144 12.7556 28.9913 28.4882" fill="#fff"/><path d="m337.41453849 286.26128618-.65.0117c.0026.16653.0039.33254.0039.4992-.0013 15.14396-12.1355 27.3273-27.3416 27.32834-15.3764.00312-28.0735-12.47337-28.3413-27.85094-.0026-.16653-.0039-.3341-.0039-.50076.0013-15.14084 12.1342-27.32314 27.3416-27.32574 15.3751-.0026 28.0735 12.4748 28.3413 27.8499l.65-.0117.65-.0117c-.286-16.0901-13.5499-29.1239-29.6413-29.1265-7.9573 0-15.1229 3.19306-20.2917 8.36667-5.1701 5.174-8.3512 12.3357-8.3499 20.25907 0 .1742.0013.3484.0039.52416.2873 16.09257 13.5499 29.12507 29.6413 29.12754 7.9573.00156 15.1229-3.19254 20.2917-8.36771 5.1701-5.17309 8.3512-12.33583 8.3499-20.26063 0-.17277-.0013-.34684-.0039-.5226z" fill="#1d2a30"/><path d="m310.31072325 294.04426285c1.2805-.9243 2.2334-2.2334 2.717-3.7375l2.7183-9.56007-.1794-.38753c-.1742-.31577-.3822-.60931-.6227-.8775-.325-.37323-.6773-.71851-1.0556-1.03844-.4862-.39156-1.0387-.69316-1.6315-.89076-1.5392-.54431-3.2253-.48594-4.7229.16406-.8138.34944-1.5613.83694-2.2113 1.4391-.6773.63284-1.2805 1.34173-1.7979 2.11003-.5382.79781-.9932 1.6484-1.3585 2.53851-.3653.88673-.6487 1.80583-.845 2.74573-.1963.8918-.2964 1.80427-.3003 2.7183-.0039.585.0325 1.17.1053 1.75253.0637.51441.1768 1.02167.3393 1.51424.1456.4459.3497.871.6097 1.261.2392.36049.5408.67743.8905.93483.3705.2717.7891.47177 1.2324.5941.5213.14573 1.0621.21437 1.6029.2067 1.6263.01833 3.2123-.5057 4.5097-1.48733zm-10.7367 13.48139c-2.6455-.97656-5.0713-2.47-7.1344-4.39309-2.0813-2.00083-3.6946-4.43677-4.7229-7.13583-1.1648-3.02354-1.7446-6.24247-1.703-9.48441-.0208-2.76809.4667-5.51733 1.4417-8.10667.8814-2.37653 2.1996-4.56573 3.8896-6.4558 3.3384-3.65989 7.657-6.28823 12.441-7.5725 2.3491-.62972 4.7684-.94913 7.1994-.95069 2.0176-.00754 4.0274.23153 5.9865.71396 1.8941.46774 3.7063 1.21784 5.3755 2.22534 1.6497.99216 3.1291 2.24653 4.3797 3.71306 1.3078 1.57417 2.3036 3.3826 2.9393 5.33104.7332 2.21559 1.0933 4.5383 1.0699 6.87167-.026 4.49163-1.6341 8.82986-4.5422 12.25146-1.2584 1.43663-2.7521 2.6468-4.4174 3.5776-1.4339.83083-3.055 1.28323-4.7125 1.3117-1.1375.01417-2.2477-.34333-3.1629-1.0192-.9373-.68757-1.4924-1.77983-1.4989-2.94333-1.9383 2.7326-4.5604 4.09916-7.8676 4.09916-2.6936 0-4.8451-.9217-6.4558-2.7625-1.6107-1.84236-2.4128-4.1067-2.405-6.7951.0065-2.0449.3627-4.07563 1.053-5.99976.6747-1.94753 1.6406-3.78014 2.8678-5.43673 1.2155-1.63358 2.7703-2.98584 4.5565-3.965 1.7797-1.00594 3.7908-1.53257 5.8357-1.52841 1.4222-.0143 2.8236.32903 4.0781.99424 1.2207.64896 2.2126 1.66153 2.8353 2.8951l.2652-.86177c.4264-1.27166 1.7992-1.95663 3.0706-1.53257.2379.08073.4641.19591.6669.34684.3991.325.6188.8216.5902 1.33497.0013.24323-.039.48399-.117.71253l-4.2172 14.01556c-.4758 1.6042-.7124 2.70257-.7124 3.29771 0 1.01166.5148 1.51489 1.5444 1.51229 1.3455 0 2.6676-.6175 3.965-1.85406 1.3988-1.39594 2.4778-3.07827 3.1642-4.92934.8073-2.02813 1.2194-4.1899 1.2155-6.37143.0208-1.92166-.2613-3.835-.8333-5.67073-.4732-1.58184-1.2298-3.06527-2.2308-4.3784-.9516-1.19587-2.1008-2.2217-3.3982-3.03017-1.2948-.81497-2.7079-1.4274-4.1886-1.81233-1.5171-.39507-3.0784-.59514-4.6475-.5941-1.9942.00247-3.978.28327-5.8955.8333-1.9669.5616-3.8428 1.4092-5.5679 2.51056-1.7394 1.09837-3.315 2.4375-4.6774 3.97774-1.4079 1.6224-2.5038 3.4892-3.2357 5.50667-.8138 2.20246-1.2207 4.53232-1.2025 6.87739-.0442 2.77927.4602 5.53917 1.4846 8.12344.8749 2.24146 2.262 4.24476 4.0534 5.85 1.7264 1.50306 3.7206 2.665 5.8786 3.42823 2.2737.80483 4.6696 1.20757 7.0837 1.18924 2.5779.00416 5.1428-.38584 7.6037-1.15934.247-.0832.5083-.12337.7696-.11726.5044-.02184.9932.17979 1.3364.55003.3263.33813.507.79066.5057 1.25983.0663.7826-.4537 1.49344-1.2194 1.66517-3.0706.93886-6.2621 1.42896-9.4718 1.45483-3.0407.02236-6.0593-.50986-8.9089-1.57014" fill="#73cd91"/><path d="m310.31072325 294.04426285.3796.52663c1.3936-1.00503 2.4297-2.42996 2.9562-4.0651l.0065-.02236 2.7183-9.55851c.0416-.14989.0299-.30927-.0364-.45149l-.1781-.38688-.0208-.04069c-.1976-.35854-.4342-.69264-.7072-.99684l-.4849.43264.4901-.42601c-.3471-.3991-.7228-.7683-1.1258-1.10903l-.013-.01066c-.546-.43927-1.1674-.77753-1.833-.99944l-.2054.61594.2171-.61243c-.7683-.27261-1.5704-.40768-2.3712-.40768-.9646 0-1.9266.19747-2.8275.58747h.0013c-.8814.37934-1.6913.90753-2.3959 1.55857l-.0013.00247c-.715.66573-1.3494 1.41167-1.8941 2.22326l.0013-.00156c-.5629.8333-1.04 1.72406-1.4209 2.65486v-.00156c-.3809.92417-.676 1.88253-.8801 2.86v-.00507c-.2054.93743-.3094 1.8941-.3146 2.85493v-.0026.08944c0 .585.0377 1.16896.1105 1.74993v-.00156c.0689.55562.1911 1.10396.3666 1.63826v-.0026c.1625.50076.3926.98007.6864 1.4209l-.0013-.0026c.2821.4251.637.79677 1.0465 1.0985l.0013.00143c.4355.31941.9269.55354 1.4443.6968l-.0026-.00156c.5538.15639 1.1258.23153 1.6978.23153h.0884l-.0078-.65-.0065.65h.0871c1.7394 0 3.432-.56823 4.8217-1.61993l-.3926-.5174.3796.52663-.3796-.52663-.3926-.51857c-1.1635.88166-2.5805 1.3559-4.0365 1.3559h-.0741-.0143-.0728c-.4563 0-.91-.06097-1.3481-.1833h-.0026c-.3679-.10153-.715-.26767-1.0205-.49153l.0013.00143c-.2886-.21424-.5382-.47476-.7332-.77077l-.0013-.0026c-.2262-.33813-.4056-.70993-.5317-1.09993l-.0013-.00247c-.1495-.45253-.2522-.91819-.3107-1.39087v-.00156c-.0676-.5291-.1014-1.05833-.1014-1.58743v-.08021-.00156c.0039-.8684.0988-1.7342.2847-2.58167l.0013-.00663c.1885-.89934.4602-1.78087.8112-2.63094v-.00156c.3471-.84903.7826-1.6601 1.2961-2.42073v-.00104c.4901-.72826 1.0608-1.39906 1.7017-1.99667l-.0013.00091c.5954-.55094 1.2805-.99827 2.0267-1.31924h.0013c.7358-.31993 1.5223-.48087 2.3101-.48087.6552 0 1.3091.11011 1.937.33254l.0117.00416c.52.17407 1.0036.43771 1.43.78l.4069-.50583-.4199.49517c.3536.299.6825.62257.9854.97084l.0065.00663c.2067.23153.3861.48399.5369.7566l.5694-.3133-.5902.27326.078.16913-2.652 9.3275.6253.17771-.6188-.20007c-.442 1.37254-1.3104 2.56594-2.4791 3.4099l-.0117.0091zm-10.7367 13.48139.2249-.60996c-2.5649-.94653-4.9166-2.39473-6.916-4.25893l-.4433.4758.4498-.46917c-2.0111-1.93427-3.5711-4.29-4.5656-6.89767v-.00156c-1.0985-2.8483-1.6614-5.87327-1.6614-8.92424l.0013-.31993v-.01326-.1716c0-2.62951.4732-5.23861 1.4001-7.70094l.0013-.0026c.8528-2.29983 2.1294-4.42 3.7648-6.24754l-.0052.00351c3.2552-3.56837 7.4659-6.12937 12.1303-7.38257 2.2932-.61503 4.6566-.92677 7.0317-.92833h.0013.091c1.9331 0 3.8597.23257 5.7382.6942h-.0013c1.8304.45253 3.5815 1.17819 5.1961 2.15163 1.5899.95667 3.0147 2.16424 4.2198 3.57747l.4953-.42094-.5005.41444c1.2558 1.51216 2.2113 3.2474 2.821 5.11667l.0013.00403c.689 2.07896 1.0387 4.2575 1.0387 6.44826l-.0013.2132v.0026c-.0247 4.33771-1.5782 8.52917-4.3875 11.83507l.4953.4199-.4888-.42757c-1.2103 1.38034-2.6442 2.54267-4.2458 3.4385l-.0078.00507c-1.339.77493-2.8522 1.19587-4.3992 1.2233h.0039-.0559c-.9763 0-1.9279-.31187-2.7131-.8918l-.0013-.00143c-.7709-.56524-1.2285-1.4651-1.2337-2.42177-.0013-.2834-.1846-.5317-.4537-.61594-.2704-.08593-.5629.01261-.7254.24271-1.8499 2.58063-4.2133 3.81056-7.3385 3.82486-2.548-.00923-4.4707-.84409-5.967-2.54163-1.4937-1.71587-2.2399-3.78573-2.2438-6.3284v-.03406-.00091c.0065-1.97093.3497-3.92847 1.014-5.78409l.0026-.00507c.6539-1.88591 1.5899-3.6608 2.7768-5.2624l-.0013.00156c1.1596-1.55909 2.6429-2.84986 4.3472-3.78326l.0078-.00351c1.6757-.94809 3.5685-1.44573 5.4938-1.44573h.0156.013l.0767-.00156c1.287 0 2.5532.3159 3.6894.92066 1.1024.585 1.9981 1.49851 2.561 2.61274.1196.2366.3705.37726.6344.3549.2652-.02184.4888-.20267.5668-.45604l.2652-.86229-.6214-.19084.6175.20566c.247-.74399.9425-1.21316 1.6835-1.21316.1872 0 .3757.02834.5629.09087.1755.05837.3406.14417.4888.25337l.3848-.52247-.4108.50323c.2249.1833.3536.45643.3536.7449l-.0013.05187-.0013.03653v.01014c0 .16406-.0273.33059-.0819.48906l-.0078.02483-4.2159 14.01517-.0013.00247c-.4797 1.63319-.7332 2.73403-.7397 3.48257-.0026.6058.1599 1.18573.5785 1.59809.4186.4108.9984.5668 1.6081.5642h.0052l-.0013-.49257-.0104.49257h.0117l-.0013-.49257-.0104.49257h.0143c1.5535.00104 3.042-.72306 4.4135-2.03333l.0104-.01066c1.4651-1.4625 2.5961-3.22348 3.3137-5.16438l-.6084-.22503.6032.24024c.8346-2.09573 1.2623-4.32913 1.2623-6.58177v-.0299h-.65l.65.0065.0013-.20007c0-1.92309-.2925-3.83396-.8632-5.67073l-.6214.19357.6227-.18694c-.4953-1.65646-1.2883-3.21087-2.3374-4.58653l-.0078-.0091c-.9971-1.25437-2.2009-2.32934-3.562-3.1785l.0026.00104c-1.352-.85007-2.8262-1.48837-4.3732-1.89007-1.5652-.40677-3.1759-.6149-4.7957-.6149h-.0234l.0091.65-.0013-.65c-2.054.00247-4.0976.29146-6.0723.85813-2.0293.57993-3.9611 1.45236-5.7395 2.5883l.0026-.00143c-1.7914 1.13139-3.4138 2.51056-4.8178 4.095l-.0039.00559c-1.4586 1.68337-2.5961 3.61764-3.3553 5.71181l.0013-.00351c-.8216 2.22417-1.2428 4.57431-1.2428 6.94434v.1625l.65-.00507-.65-.01066-.0026.34827c0 2.74729.52 5.46923 1.5327 8.02646l-.0013-.00403c.9126 2.33597 2.3582 4.42403 4.225 6.0983l.0078.00663c1.7875 1.55493 3.8532 2.76003 6.0879 3.54913 2.2945.8125 4.7125 1.22681 7.1474 1.22681h.1573-.0039.0377c2.6312 0 5.2481-.39858 7.7597-1.18924l.0143-.00403c.1638-.0559.3367-.08437.5083-.08437h.0351.0468l.0455-.00143c.2964 0 .5824.12493.7852.34476l.0078.00767c.2093.21723.325.5057.325.80483v.01274l.0026.04719.0039.07917c0 .42614-.2964.80184-.7176.89687l-.0481.0117c-3.0121.92157-6.1399 1.40153-9.2872 1.4274h-.1833c-2.899 0-5.7759-.5174-8.4929-1.5301h-.0026l-.2249.60996-.2262.6084c2.8626 1.06691 5.8929 1.61174 8.9466 1.61174h.1924.0013c3.2734-.02587 6.526-.52663 9.6564-1.4833l-.1898-.62153.1417.63323c1.0218-.22854 1.7342-1.13503 1.7342-2.16437l-.0078-.18889-.6487.05486.65-.00767-.2301.0026h.2301v-.0026l-.2301.0026h.2301c0-.63583-.2457-1.2467-.6877-1.70573l-.468.45097.4758-.44343c-.4498-.48334-1.079-.75764-1.7381-.75907l-.1014.00247.0273.65.0182-.65-.0715-.00104c-.3159 0-.6279.0533-.9256.1534l.2093.6149-.195-.61997c-2.3855.74997-4.8711 1.12931-7.371 1.12931h-.0377-.0039-.1495c-2.288 0-4.5578-.38844-6.7132-1.15167-2.0826-.7358-4.004-1.85757-5.6693-3.3059l-.4264.4901.4342-.48347c-1.716-1.53816-3.0446-3.4567-3.8818-5.60313l-.0013-.0026c-.9529-2.40344-1.4417-4.9634-1.4417-7.54663l.0026-.32747v-.01521-.15236c0-2.21507.3939-4.4135 1.1622-6.4935l.0013-.00403c.7046-1.94337 1.7602-3.74101 3.1148-5.30413l-.4901-.42497.4862.43056c1.3221-1.49396 2.8509-2.7924 4.5383-3.85827l.0026-.00156c1.6731-1.06847 3.4905-1.88903 5.3976-2.4349 1.859-.53274 3.783-.80496 5.7161-.80743h.0078.0065c1.508 0 3.0095.19396 4.4694.5733 1.417.36816 2.7677.95316 4.0066 1.73316l.0026.00104c1.2337.76973 2.327 1.74577 3.2318 2.88327l.5096-.40417-.5174.39403c.9542 1.25073 1.6757 2.66344 2.1255 4.17014l.0026.00663c.533 1.71236.8047 3.49323.8047 5.28476l-.0013.18694v.00663.0299c0 2.0891-.3965 4.15844-1.17 6.1009l-.0052.01417c-.6539 1.76423-1.6809 3.36583-3.0134 4.69573l.4589.46007-.4485-.47073c-1.2233 1.1609-2.379 1.67323-3.5165 1.67479v.65l.0156-.65h-.0234c-.4134-.00156-.6032-.09906-.6968-.19149-.0936-.09191-.1872-.26754-.1898-.6708-.0078-.44018.2145-1.5392.6864-3.11337l-.0013.0026 4.2159-14.01517-.6214-.18733.6136.21216c.1014-.2925.1534-.60073.1534-.91299v-.01274l-.65.00104.65.03562.0026-.12246c0-.67743-.3042-1.32236-.832-1.7524l-.0247-.01937c-.2587-.18993-.5447-.33813-.8463-.43979h-.0013c-.3224-.10764-.6513-.15834-.975-.15834-1.287-.00104-2.4856.81393-2.9172 2.1008l-.0052.01573-.2652.86177.6214.19097.5811-.29354c-.6851-1.3533-1.7719-2.46337-3.1122-3.17486-1.3234-.7033-2.7989-1.0725-4.2991-1.0725l-.0897.00156.0065.65.0065-.65h-.0286c-2.1502 0-4.2627.55497-6.1347 1.6133l.3211.56511-.3133-.56914c-1.8681 1.02323-3.4931 2.4375-4.7645 4.14726l-.0013.00104c-1.2662 1.7082-2.2633 3.59983-2.9601 5.60924l.6149.21333-.6123-.21944c-.7137 1.9942-1.0842 4.0976-1.0907 6.21764v-.00247.0416c-.0039 2.80007.8554 5.23354 2.5649 7.1851 1.7264 1.98497 4.108 2.99247 6.9459 2.98493 3.4879.01261 6.37-1.48993 8.398-4.37177l-.5304-.37739-.65.00416c.0078 1.36747.6604 2.6533 1.7641 3.4632l-.0013-.00143c1.0101.74646 2.2308 1.1466 3.4853 1.1466h.0715.0039c1.768-.03094 3.497-.51337 5.0271-1.39906l-.3263-.56264.3172.56823c1.7303-.96889 3.2825-2.22573 4.589-3.7167l.0065-.00806c3.0069-3.53847 4.6709-8.02503 4.6969-12.66941v.00351l.0013-.22594c0-2.32986-.3718-4.64503-1.105-6.8575l.0013.00351c-.6604-2.02514-1.6965-3.90754-3.0576-5.54528l-.0052-.00663c-1.2961-1.5184-2.8288-2.8184-4.5396-3.84813h.0013c-1.7251-1.04-3.5971-1.81493-5.5549-2.29996h-.0013c-1.9786-.48594-4.0092-.73177-6.0476-.73177h-.0949.0013c-2.4882.00156-4.9634.32903-7.3671.97253-4.9049 1.31677-9.3314 4.01063-12.753 7.76243l-.0052.00507c-1.7433 1.95-3.1044 4.2107-4.0144 6.6625l.0013-.0026c-.9815 2.60767-1.4833 5.37264-1.4833 8.15854v.18083l.65-.00364-.6487-.0091-.0026.3367c0 3.21087.5928 6.39431 1.7472 9.39094v-.00104c1.0621 2.78694 2.73 5.30361 4.8789 7.37087l.0078.00663c2.1255 1.9825 4.6267 3.5217 7.3528 4.52764l-.0013-.00091z" fill="#1d2a30"/><path d="m336.7545296 186.0799884c.2769 15.7352-12.2538 28.4895-27.9877 28.4895s-28.7144-12.7543-28.9913-28.4895c-.2769-15.7326 12.2525-28.4882 27.9877-28.4882 15.7326 0 28.7144 12.7556 28.9913 28.4882" fill="#fff"/><path d="m336.7545296 186.0799884-.65.0117c.0026.1677.0039.3341.0039.5005-.0026 15.1424-12.1355 27.326-27.3416 27.3273-15.3764.0039-28.0735-12.4735-28.3413-27.8499-.0026-.1677-.0039-.3341-.0039-.5018.0013-15.1411 12.1342-27.3234 27.3416-27.326 15.3751-.0026 28.0735 12.4748 28.3413 27.8499l.65-.0117.65-.0104c-.286-16.0914-13.5499-29.1239-29.6413-29.1278-7.9573 0-15.1229 3.1928-20.2917 8.3681-5.1701 5.1727-8.3512 12.3344-8.3499 20.2579 0 .1742.0013.3497.0039.5239.2873 16.0927 13.5486 29.1252 29.6413 29.1278 7.9573.0013 15.1229-3.1928 20.2917-8.3668 5.1701-5.174 8.3499-12.337 8.3499-20.2605 0-.1742-.0013-.3484-.0039-.5226z" fill="#1d2a30"/><path d="m326.16303849 183.4838884c-8.9219-5.8526-26.4342-5.8526-34.9453 0-3.1681.5928-5.5068 3.3943-5.3885 6.7483.1326 3.7804 15.8444 3.7804 15.7118 0-.0572-1.6315-.7085-3.1148-1.7082-4.2965 5.6264-1.2675 12.1719-1.2675 17.8854 0-.9165 1.1817-1.4638 2.665-1.4066 4.2965.1339 3.7804 15.8457 3.7804 15.7118 0-.117-3.354-2.652-6.1555-5.8604-6.7483" fill="#73cd91"/><path d="m326.16303849 183.4838884.3562-.5434c-4.6254-3.0264-11.3295-4.4902-17.9829-4.4954-6.6547.0052-13.2574 1.4677-17.6878 4.5032l.3692.5356-.1196-.6383c-3.393.6331-5.9241 3.5828-5.9228 7.1435l.0039.2652c.0234.7111.429 1.3039.962 1.7251.8073.6396 1.9539 1.0439 3.2851 1.326 1.3299.2769 2.8457.4121 4.3576.4121 2.0007-.0013 3.9871-.234 5.538-.728.7761-.2496 1.4469-.5616 1.9695-.9893.5161-.4173.9035-1.0166.9009-1.7212l-.0013-.0689v-.0013c-.0624-1.7927-.78-3.4138-1.8629-4.693l-.4953.4199.143.6344c2.7599-.6227 5.7577-.936 8.7672-.936 3.0082 0 6.0294.3133 8.8348.936l.1404-.6344-.5135-.3978c-.9529 1.2272-1.547 2.769-1.547 4.4616l.0052.2548c.0234.7111.429 1.3039.962 1.7251.8073.6396 1.9526 1.0439 3.2851 1.326 1.3299.2769 2.8457.4121 4.3576.4121 2.0007-.0013 3.9871-.234 5.5367-.728.7761-.2496 1.4482-.5616 1.9695-.988.5161-.4186.9035-1.0179.9009-1.7225l-.0013-.0689v-.0013c-.1339-3.6738-2.886-6.7119-6.3934-7.3632l-.117.6383.3562-.5434-.3562.5434-.1183.6396c2.912.5343 5.2299 3.0979 5.33 6.1308v.0247c-.0026.2262-.0988.4394-.4277.7189-.4862.4082-1.4534.7969-2.6468 1.0413-1.1934.2496-2.6104.3783-4.0326.3783-1.9097.0013-3.835-.234-5.2286-.6786-.6968-.2197-1.2558-.494-1.6016-.7735-.351-.2886-.4654-.5226-.4758-.7566l-.0039-.2093c.0013-1.3871.4823-2.6416 1.2753-3.666.1352-.1742.1729-.4095.0975-.6188-.0754-.208-.2548-.3653-.4706-.4134-2.9081-.6448-6.0177-.9659-9.1169-.9672-3.0992.0013-6.188.3211-9.0532.9672-.2223.0507-.4017.2119-.4732.4277-.0728.2171-.0273.4524.1196.6266.9178 1.0855 1.5041 2.4284 1.5548 3.8987v-.0013l.0013.026c-.0039.2262-.0988.4394-.4277.7189-.4862.4082-1.4547.7969-2.6468 1.0413-1.1934.2496-2.6117.3783-4.0339.3783-1.9097.0013-3.835-.234-5.2286-.6786-.6955-.2197-1.2545-.494-1.6003-.7735-.3523-.2886-.4654-.5213-.4758-.7566l-.0039-.2197c0-2.9315 2.0722-5.3417 4.862-5.8656l.2483-.104c4.082-2.8158 10.4897-4.2796 16.9507-4.2744 6.461-.0052 12.974 1.4573 17.2692 4.2822l.2392.0962z" fill="#1d2a30"/><path d="m336.7558296 88.9273884c.1521 7.0096-3.666 13.2678-9.7994 17.4421v17.0144l-12.2083-12.2083c-1.9266.3393-3.9247.5083-5.9839.5083-15.73 0-28.7144-10.1829-28.99-22.7565-.2769-12.5645 12.2512-22.7487 27.9916-22.7487 15.7287 0 28.7131 10.1842 28.99 22.7487" fill="#fff"/><path d="m336.75713087 88.9273884-.65.0143c.0026.13.0039.26.0039.39 0 6.5962-3.6439 12.4982-9.5199 16.4996-.1781.1222-.2834.3224-.2834.5382v15.4453l-11.0994-11.0981c-.1495-.1508-.3614-.2184-.572-.1807-1.8863.3315-3.8467.4979-5.8708.4979-7.7246.0013-14.7667-2.5038-19.8887-6.5247-5.1259-4.0248-8.3187-9.5368-8.4526-15.5961-.0026-.1313-.0039-.2626-.0039-.3926.0013-5.9644 2.9874-11.362 7.9157-15.3049 4.9257-3.9377 11.7845-6.3869 19.4311-6.3869 7.7246 0 14.7654 2.5038 19.8887 6.5247 5.1246 4.0235 8.3174 9.5329 8.4513 15.5883l.65-.0143.6487-.0143c-.143-6.5091-3.5802-12.3747-8.9479-16.5828-5.3716-4.2133-12.6854-6.8003-20.6908-6.8016-7.9235.0013-15.0618 2.5337-20.2423 6.6716-5.1792 4.134-8.4058 9.9073-8.4045 16.3202 0 .1404.0013.2808.0052.4212.143 6.513 3.5802 12.3799 8.9479 16.5906 5.3716 4.2133 12.6867 6.8016 20.6921 6.8016 2.0956 0 4.1314-.1716 6.097-.5174l-.1131-.6409-.4602.4602 12.2083 12.207c.1859.1859.4654.2418.7085.1417.2431-.1014.4017-.338.4017-.6006v-17.0144h-.65l.3653.5369c6.1568-4.1834 10.088-10.4806 10.088-17.5747 0-.1391-.0013-.2782-.0052-.4186z" fill="#1d2a30"/><path d="m295.73312198 88.78128967c0 2.0371-1.6523 3.6881-3.6881 3.6881-2.0384 0-3.6881-1.651-3.6881-3.6881s1.6497-3.6881 3.6881-3.6881c2.0358 0 3.6881 1.651 3.6881 3.6881" fill="#73cd91"/><path d="m295.73312198 88.78128967h-.65c-.0039 1.677-1.3611 3.0342-3.0381 3.0381-1.6783-.0039-3.0355-1.3598-3.0381-3.0381.0026-1.6783 1.3598-3.0355 3.0381-3.0381 1.677.0026 3.0342 1.3598 3.0381 3.0381h.65.65c-.0013-2.3959-1.9435-4.3381-4.3381-4.3381-2.3972 0-4.3381 1.9422-4.3381 4.3381s1.9409 4.3381 4.3381 4.3381c2.3946-.0013 4.3368-1.9422 4.3381-4.3381z" fill="#1d2a30"/><path d="m311.93312452 88.78128967c0 2.0371-1.6523 3.6881-3.6881 3.6881s-3.6881-1.651-3.6881-3.6881 1.6523-3.6881 3.6881-3.6881 3.6881 1.651 3.6881 3.6881" fill="#73cd91"/><path d="m311.93312452 88.78128967h-.65c-.0026 1.677-1.3611 3.0342-3.0381 3.0381-1.677-.0039-3.0342-1.3611-3.0381-3.0381.0039-1.6783 1.3611-3.0355 3.0381-3.0381 1.677.0026 3.0355 1.3598 3.0381 3.0381h.65.65c0-2.3959-1.9422-4.3381-4.3381-4.3381s-4.3368 1.9422-4.3381 4.3381c.0013 2.3959 1.9422 4.3368 4.3381 4.3381 2.3959-.0013 4.3381-1.9422 4.3381-4.3381z" fill="#1d2a30"/><path d="m328.12312579 88.78128967c0 2.0371-1.651 3.6881-3.6881 3.6881s-3.6868-1.651-3.6868-3.6881 1.6497-3.6881 3.6868-3.6881 3.6881 1.651 3.6881 3.6881" fill="#73cd91"/><path d="m328.12312579 88.78128967h-.65c-.0026 1.677-1.3598 3.0342-3.0381 3.0381-1.6783-.0039-3.0342-1.3598-3.0368-3.0381.0026-1.6783 1.3585-3.0355 3.0368-3.0381 1.6783.0026 3.0355 1.3598 3.0381 3.0381h.65.65c0-2.3959-1.9422-4.3381-4.3381-4.3381s-4.3368 1.9422-4.3368 4.3381 1.9409 4.3381 4.3368 4.3381c2.3959-.0013 4.3381-1.9422 4.3381-4.3381z" fill="#1d2a30"/></svg>