<svg height="492" width="566" xmlns="http://www.w3.org/2000/svg" xmlns:xlink="http://www.w3.org/1999/xlink"><clipPath id="a" stroke-width="0" transform="matrix(.13 0 0 -.13 444.365024 247.915498)"><path d="m119.87011719 6.45996582s-348.46-107.98-414.05-22.75l8.81 435.13h52.98l62.16-306.48 285.6 52.25s36.58-113.4 4.5-158.15"/></clipPath><clipPath id="b" stroke-width="0" transform="matrix(.13 0 0 -.13 474.125024 286.485498)"><path d="m3426.89 1828.84 61.33-376.78c-1.69-244.28 114.85-207.51 195.73-206.85 93.49.76 235.41 93.49 165.83 237.77l26.84 522.3-163.01 12.57c-53.75 4.14-273.72-2.76-291.2-30.85-45.42-73 4.48-158.16 4.48-158.16"/></clipPath><clipPath id="c" stroke-width="0" transform="matrix(.13 0 0 -.13 510.795024 249.435498)"><path d="m-412.5599707 6.46995605 61.33-376.78c-1.69-244.28 114.85-207.51 195.73-206.85 93.49.76 235.41 93.49 165.83 237.77l26.84 522.3-163.01 12.57c-53.75 4.14-273.72-2.76-291.2-30.85-45.42-73 4.48-158.16 4.48-158.16"/></clipPath><clipPath id="d" stroke-width="0" transform="matrix(.13 0 0 -.13 518.065024 255.455498)"><path d="m135.96998047-7.54994629c-24.42 35.45-42.5 75.25-53.15 116.96-5.26 20.64-8.81 41.99-18.26 61.09-15.07 30.47-45.36 52.94-78.89 58.5-7.2 1.2-14.78 1.62-21.6-.96-14.45-5.48-20.84-22.22-23.78-37.39-6.3-32.49-4.43-66.53 5.41-98.12 6.69-21.55 87.2-178.16 140.55-238.89-5.12 30.58 30.06 132.87 49.72 138.81"/></clipPath><rect fill="none" height="100%" width="100%"/><path d="m76.09560947 102.96290409c91.09022-103.649 247.48152-120.9143 317.21222-87.607 29.133 13.9217 53.781 30.966 74.373 49.6977 2.912 2.6403 5.746 5.3183 8.489 8.0223 8.84 8.71 16.8493 17.706 24.0903 26.871 9.2807 11.739 17.29 23.751 24.102 35.75 10.9707 19.292 18.8747 38.532 24.0877 56.511 4.121 14.196 6.565 27.612 7.514 39.663 1.9903 25.233.2613 50.648-3.133 75.725-.312 2.392-.65 4.784-1.014 7.176-.0897.663-.182 1.326-.286 1.989-3.731 24.921-9.0077 50.06183-20.787 71.79874-12.844 23.69913-57.759 89.648221-106.444 91.375791-25.259.898326-47.567-15.637531-70.46-27.311661-36.426-18.56413-77.5957-22.20517-117.7657-23.28417-40.1713-1.07913-80.8353.07917-119.97765-9.87857-39.14326-9.94643-77.53226-32.83813-97.539104-70.91513-6.799104-12.9233-11.9599974-31.538-11.9732002-46.436-.0126958-43.953 7.1759012-82.394 19.7081742-115.791 4.08239-10.907 8.73587-21.268 13.89687-31.109 7.94313-15.171 17.095-29.094 27.19639-41.821z" fill="#73cd91"/><path d="m423.2912282 479.97048309c-3.4905 0-6.9277-.326014-10.3181-.916097h20.4711c-2.7105.484965-5.4353.785083-8.1757.881049-.6591.023361-1.3221.035048-1.9773.035048m15.8821-2.216097h-32.1074c-2.5402-.672347-5.0596-1.477229-7.5569-2.388243 4.2705-3.014869 7.0603-7.987369 7.0629-13.610909v-.0091-342.12373c0-9.1026-7.3008-16.4996-16.367-16.6556v-.0026h-.2899-.0091-162.7236c-.0026 0-.0065 0-.0078 0-9.1975 0-16.6543 7.4516-16.6582 16.6504v.0078 196.8551h-201.620289c-.8582041-4.9556-1.3391027-9.8345-1.3431652-14.3676 0-.0429 0-.0858 0-.1287.0015236-43.8997 7.1880822-82.2978 19.7081742-115.6623 4.08239-10.907 8.73587-21.268 13.89687-31.109 7.94313-15.171 17.095-29.094 27.19639-41.821l8.71-10.426c63.95402-72.7714 160.10462-102.9626 235.84522-102.9626 32.1386 0 60.593 5.4327 81.367 15.3556 29.133 13.9217 53.781 30.966 74.373 49.6977 2.912 2.6403 5.746 5.3183 8.489 8.0223 8.84 8.71 16.8493 17.706 24.0903 26.871 9.2807 11.739 17.29 23.751 24.102 35.75 10.9707 19.292 18.8747 38.532 24.0877 56.511 4.121 14.196 6.565 27.612 7.514 39.663.5798 7.3437.8437 14.7017.8437 22.0636-.0013 17.9335-1.5704 35.8826-3.9767 53.6614-.312 2.392-.65 4.784-1.014 7.176-.0897.663-.182 1.326-.286 1.989-3.731 24.921-9.0077 50.06183-20.787 71.79874-11.6103 21.42153-49.4221 77.36573-92.5392 89.194742m-50.2892-17.095052h.0065c-.0026 0-.0039 0-.0065 0m0 0c-.052 0-.1027 0-.1547-.00143h-19.1074 19.1074c.0507.00143.1027.00143.1547.00143m12.0614-11.89799v-325.53664c-.0923-6.5975-5.4639-11.8859-12.0419-11.8963h.026c6.5871 0 11.9691 5.291 12.0601 11.8963zm-92.4612-324.10924c-2.691 0-5.421-.6643-7.9417-2.0631-2.6832-1.4885-4.8932-3.6998-6.3817-6.3817-1.6198-3.0043-4.758-4.8776-8.1718-4.8776h.0442c3.4138 0 6.552 1.8733 8.1718 4.8776 2.99 5.3872 8.5644 8.4318 14.3169 8.4448-.013 0-.0247 0-.0377 0m-80.1255-13.3224c-.052 0-.104-.0013-.156-.0013.0533 0 .104.0013.156.0013m-.1625-.0013h.0065c-.0013 0-.0039 0-.0065 0" fill="#d9f1dd"/><path d="m6.70252439 485.16567992h559.065c.3588 0 .65-.291486.65-.65 0-.360035-.2912-.65-.65-.65h-559.065c-.3595306 0-.65050781.289965-.65050781.65 0 .358514.29097721.65.65050781.65" fill="#1d2a30"/><path d="m440.04121169 292.99729584v.0364l.0195.1573.0351.1417.6305-.1573-.637.1274c.0455.2301.0936.4862.1573.7618l.6331-.1469-.6357.1326c.4316 2.0696.9347 4.9335 1.2987 8.5514.2457 2.4713.4316 5.2845.4914 8.4253.0143.728.0208 1.4729.0208 2.2347 0 5.5874-.3965 12.0991-1.5119 19.4207v.0026c-.2821 1.9006-.6214 3.8597-1.0205 5.8773v.0026c-.6331 3.2864-1.4209 6.7262-2.3725 10.2973v.0026c-.4342 1.6523-.9165 3.3436-1.4326 5.0596l.0013-.0026c-.2145.702-.416 1.4014-.6162 2.0969l-.0013.0052c-.2366.8489-.4732 1.7004-.6981 2.5558l.6279.1651-.6188-.1989-.0117.0364-.0091.0338c-1.5171 5.77967-2.6884 11.7078-3.588 17.58783v.00104c-1.1115 7.36827-1.7966 14.6757-2.1749 21.60327-.2964 5.3833-.4121 10.52896-.4121 15.28059 0 3.38611.0585 6.57111.1521 9.5017l.6487-.0208h-.65c0 .11674 0 .24934.0143.40521l.6474-.06188-.65.0208c.2366 7.13674.6747 12.71361.9815 15.91174v-.00507c.0832.92833.1534 1.65594.2054 2.16177.026.25337.0481.45097.0637.59007l.0195.16757.0156.1092c.0637.35399.4017.58799.7553.52403.3536-.06344.5876-.40261.5226-.75504l-.3627.065.3653-.05343-.0026-.01157-.3627.065.3653-.05343c-.0052-.0299-.0403-.33566-.091-.82823-.0507-.4966-.1196-1.2025-.1989-2.09677v-.00403c-.3055-3.1707-.741-8.72417-.9763-15.82997l-.0026-.04017c-.0078-.08073-.0091-.16146-.0091-.2808v-.0208c-.0923-2.91746-.1508-6.0892-.1508-9.4601 0-4.7307.1144-9.85153.4108-15.20896.3757-6.89247 1.0569-14.15934 2.1619-21.48094v.00104c.8931-5.8409 2.0566-11.72691 3.5594-17.45367l-.6292-.1651.6188.1989.0117-.0364.0104-.0325c.221-.8437.4563-1.69.6929-2.5376l-.0013.0052c.2002-.6955.4004-1.3884.6097-2.0774l.0013-.0026c.52-1.7277 1.0049-3.4333 1.4443-5.1038v.0013c.9581-3.5984 1.7524-7.0681 2.392-10.3857l-.0013.0039c.403-2.0371.7462-4.017 1.0309-5.9384v.0026c1.1258-7.3905 1.5262-13.9672 1.5262-19.617 0-.7709-.0065-1.5236-.0208-2.2594-.0598-3.1785-.2496-6.0255-.4979-8.5293v-.0013c-.3692-3.6686-.8801-6.5806-1.3195-8.6866l-.0039-.013c-.0559-.2431-.1014-.4849-.1495-.7241l-.0065-.0299-.0351-.143-.6305.1586h.65v-.0364c0-.3588-.2912-.65-.65-.65s-.65.2912-.65.65" fill="#1d2a30"/><path d="m440.76223455 291.22469393-.0234-.0247-.0234-.0221c-.9321-.8255-1.9578-1.534-3.0433-2.1229-1.1908-.624-2.4635-1.1206-3.7843-1.4274" fill="#fff"/><path d="m441.22243455 290.76319266-.0247-.0234-.0221-.0234-.0299-.026c-.9698-.8606-2.0371-1.5964-3.1629-2.2074l-.0091-.0052c-1.2337-.6474-2.5571-1.1635-3.939-1.4846-.3497-.0806-.6994.1365-.78.4862-.0806.351.1365.6994.4862.78 1.2597.2925 2.4817.7683 3.6296 1.3702l.3016-.5759-.3094.5707c1.0439.5668 2.0293 1.248 2.9211 2.0384l.4316-.4862-.4602.4589.0234.0234.0247.0247c.2535.2535.6643.2535.9191 0 .2535-.2548.2535-.6656 0-.9204" fill="#1d2a30"/><path d="m442.83153835 301.31560219 3.4606-3.1356c.2665-.2418.286-.6526.0455-.9191-.2418-.2652-.6526-.286-.9178-.0455l-3.4619 3.1369c-.2652.2405-.286.6513-.0442.9178.2405.2652.6513.286.9178.0455" fill="#1d2a30"/><path d="m438.40832058 348.46810219v-.0117l-.013-.1248c-.1846-.9516-.4693-1.8902-.8528-2.795l-.598.2548.6032-.2418c-.5317-1.3234-1.261-2.5597-2.1619-3.6699l.0013.0013c-.6695-.8294-1.4339-1.5821-2.2711-2.2464-.2821-.2236-.6903-.1768-.9139.104-.2236.2821-.1755.6903.1053.9139.7644.6071 1.4612 1.2935 2.0683 2.0449v.0013c.8203 1.0114 1.4833 2.1333 1.9656 3.3345l.0039.0117c.3484.819.6071 1.6718.7748 2.535l.6383-.1235h-.65v.0117c0 .3588.2899.65.65.65.3588 0 .65-.2912.65-.65" fill="#1d2a30"/><path d="m435.66422566 358.73489647c.8801-2.2464 2.7807-4.121 5.0388-4.9725.3354-.1274.5044-.5018.377-.8385-.1274-.3354-.5018-.5044-.8372-.377-2.613.9919-4.7619 3.1109-5.7889 5.7122-.1313.3341.0338.7111.3666.84253.3341.13104.7124-.0325.8437-.36673" fill="#1d2a30"/><path d="m428.86013835 408.01306774c1.157-1.39594 2.0332-6.71333 2.5025-9.56917.1131-.6851.2093-1.26607.2886-1.68597" fill="#fff"/><path d="m429.36063835 408.42789774c.3848-.4732.6591-1.1115.9282-1.88747.7852-2.3101 1.3611-5.84233 1.716-7.99149.1131-.68354.208-1.26438.2847-1.67011.0676-.35243-.1638-.69316-.5161-.7592-.3536-.0676-.6929.16354-.7605.51597-.0832.43563-.1781 1.01816-.2912 1.70157-.234 1.42753-.5694 3.46073-.9867 5.29503-.208.91663-.4368 1.78243-.6773 2.4882-.2353.70343-.5044 1.25177-.6981 1.47836-.2301.27521-.1911.68601.0845.91507.2769.22841.6864.19084.9165-.08593" fill="#1d2a30"/><path d="m419.80212947 418.08999647c.39-.02483.7787-.0117 1.1687.0351 3.3709.30563 6.5195 2.62834 7.7571 5.78903" fill="#fff"/><path d="m419.84242947 418.72843647.3471-.01157c.2327 0 .4667.01573.7033.04316l.0182.00247c3.1161.2743 6.0788 2.46337 7.2124 5.37823.13.33514.5083.4992.8424.3692.3341-.13156.4992-.5083.3679-.8424-1.3429-3.40496-4.6774-5.86326-8.3044-6.19996l-.0585.64753.0767-.64493c-.2847-.0351-.5707-.0533-.858-.0533-.143 0-.2847.00559-.4277.01469-.3575.02184-.6305.33007-.6084.68861.0221.3575.3302.63063.689.60827" fill="#1d2a30"/><path d="m440.76842058 337.6490952c.0013-.0052.0065-.2054.0065-.5694-.0013-1.7186-.1261-7.0824-1.5795-12.9272-1.4586-5.8383-4.238-12.2031-9.6915-15.8145-.3003-.1976-.7033-.1144-.9009.1846-.1976.3003-.1157.7033.1846.9009 5.0232 3.3046 7.7337 9.3522 9.1455 15.0423 1.4157 5.6823 1.5431 10.9603 1.5418 12.6139 0 .3497-.0052.5317-.0052.5317-.0104.3588.2717.6591.6305.6695s.6578-.273.6682-.6318" fill="#1d2a30"/><path d="m441.01393074 384.53312742c1.521 4.9192-9.0818 14.28531-9.0818 14.28531s-14.0374-1.75448-15.5584-6.67524c-1.5197-4.92063 2.0371-12.96997 8.84-15.07233 6.8042-2.10184 14.2805 2.54163 15.8002 7.46226" fill="#73cd91"/><path d="m453.18951296 323.1377933c-1.3442 5.226-11.3867 8.9375-11.3867 8.9375s-6.9992-8.099-5.6537-13.325c1.3442-5.2247 6.8952-10.9824 11.6012-9.7708 4.706 1.2103 6.7847 8.9336 5.4392 14.1583" fill="#73cd91"/><path d="m411.97933074 403.50272711c6.305 2.45323 10.1686 13.60424 10.1686 13.60424s-10.387 5.6017-16.692 3.14743-12.9779-9.37313-11.1761-13.9984c1.8018-4.62657 11.3932-5.2091 17.6995-2.75327" fill="#73cd91"/><path d="m426.29712693 340.23640536c1.3325.9893 2.7066 1.9981 4.3082 2.4323s3.5061.169 4.5942-1.0842c1.3507-1.5522.988-3.9598.1378-5.8331-1.6848-3.7128-7.8975-10.0113-12.6698-8.2043-6.8887 2.6091.5577 10.4091 3.6296 12.6893" fill="#73cd91"/><path d="m440.82743962 350.07229393c-.9048 1.1193-1.8642 2.5311-1.3689 3.8831.4394 1.1986 1.911 1.7498 3.1733 1.5574 1.2636-.1898 2.3608-.9399 3.4086-1.6666 2.4323-1.6887 7.4178-5.2325 4.2354-8.5462-3.3072-3.445-7.5439 2.4102-9.4484 4.7723" fill="#73cd91"/><path d="m419.95733962 301.81040092c-1.0413.1157-2.0943.8125-2.2724 1.8434-.2067 1.2077.793 2.262 1.7641 3.0108 2.4141 1.8603 9.672 6.8835 11.2918 2.0371 1.5314-4.5773-7.5751-7.2449-10.7835-6.8913" fill="#73cd91"/><path d="m433.5402282 285.40800028c-1.4976.1417-2.9913-.4017-4.4928-.3068s-3.1668 1.3026-2.834 2.7703c.3094 1.3559 1.9942 1.8096 3.3813 1.8967 2.3673.1482 4.7541-.0169 7.0785-.4888.5395-.1105 1.1271-.2704 1.4378-.7267.6071-.8931-.3601-2.0904-1.3936-2.4076-1.0309-.3159-2.1983-.2106-3.1356-.7475z" fill="#73cd91"/><path d="m448.61902058 295.9690952c1.5041.0429 2.9588-.5967 4.4642-.6019 1.5041-.0039 3.2461 1.092 3.0095 2.5779-.2184 1.3728-1.8694 1.937-3.2487 2.1164-2.353.3042-4.745.2964-7.0954-.0221-.546-.0741-1.1427-.1937-1.482-.6279-.663-.8528.2197-2.1112 1.2311-2.496 1.0088-.3835 2.1788-.3562 3.0797-.9529z" fill="#73cd91"/><path d="m446.92171169 409.88389933c.3718-.3133.793-.6357 1.2792-.63167.6448.00351 1.1557.61087 1.2766 1.2467.1196.63271-.0585 1.28024-.2418 1.89774-1.0192 3.4099-12.4631 28.10743-15.0956 23.67157-1.5574-2.6208 2.2685-11.30584 3.3982-13.76167 2.1814-4.75267 5.3846-9.04514 9.3834-12.42267" fill="#73cd91"/><path d="m441.99211169 292.59099393s-.039-.3406-.0793-.8736c-.0403-.5343-.0793-1.2532-.0793-1.9877-.0013-.7709.0455-1.5639.169-2.1411.0598-.2873.1404-.52.2158-.6526l.0871-.1235.0156-.013-.0143-.0234.0091.026.0052-.0026-.0143-.0234.0091.026c.3393-.1157.5213-.4849.4069-.8255-.1157-.3393-.4849-.5213-.8242-.4069-.3978.1378-.6526.4368-.8177.7371-.2496.4589-.3666.9945-.4459 1.5834-.0767.5863-.1014 1.2233-.1014 1.8395 0 1.56.1664 2.9965.1677 3.0095.0403.3575.3627.6136.7189.572.3575-.0403.6136-.3627.572-.7202" fill="#1d2a30"/><path d="m440.17703708 286.25509393c.9074-2.0384 1.8902-4.1717 3.6946-5.4847 1.8044-1.3117 4.6969-1.4105 6.0099.3926 1.4703 2.0176 0 5.0817-2.2516 6.1568-2.2503 1.0751-4.8893.7514-7.3593.4043-.0208-.3666-.0403-.7332-.0611-1.1011z" fill="#73cd91"/><path d="m445.88831804 483.67522054c-12.1719 2.075931-24.8547 2.075931-37.0266 0l-14.4027-42.496792h65.8307z" fill="#fff"/><path d="m445.88831804 483.67522054-.1092-.640861c-6.0489 1.032382-12.2265 1.548313-18.4041 1.548313s-12.3552-.515931-18.4041-1.548313l-.1092.640861.6162-.207701-14.1115-41.639091h64.0172l-14.1115 41.639091.6162.207701-.1092-.640861.1092.640861.6149.209209 14.4027-42.498261c.0663-.1976.0338-.41691-.0884-.5876-.1209-.16913-.3198-.27014-.5278-.27014h-65.8307c-.208 0-.4069.10101-.5278.27014-.1222.17069-.1547.39-.0871.5876l14.4027 42.498261c.0767.224965.2717.391534.5057.431652 6.123 1.044056 12.3721 1.566591 18.6225 1.566591 6.2491 0 12.4995-.522535 18.6225-1.566591.2353-.040118.4303-.206687.5057-.431652z" fill="#1d2a30"/><path d="m187.89991804 171.20729774v.0351l.0182.156.0351.1417.6318-.156-.637.1287c.0455.2301.0936.4836.156.7579l.6344-.1443-.637.1339c.4329 2.0683.936 4.9322 1.2987 8.5501.2457 2.4726.4329 5.2845.4927 8.4253.0143.7332.0208 1.4833.0208 2.2503 0 5.5848-.3965 12.09-1.5119 19.4064v.0026c-.2808 1.8993-.6214 3.8584-1.0205 5.8773v.0026c-.6344 3.2851-1.4209 6.7249-2.3725 10.296v.0013c-.4342 1.6549-.9152 3.3449-1.4326 5.0596v-.0013c-.2132.702-.4147 1.4001-.6149 2.0969l-.0026.0065c-.2353.8489-.4719 1.6991-.6981 2.5545l.6292.1664-.6175-.2028-.0117.0351-.0117.0377c-1.5158 5.7798-2.6871 11.7091-3.5867 17.5877v.0013c-1.1115 7.3684-1.7966 14.6757-2.1749 21.6047-.2977 5.382-.4121 10.5274-.4121 15.2789 0 3.3852.0585 6.5715.1521 9.5017l.6487-.0208h-.65c0 .117 0 .2509.0156.4095l.6474-.0663-.65.0221c.2353 7.1357.6734 12.714.9802 15.9107v-.0052c.0832.9282.1534 1.6562.2054 2.1619.026.2535.0481.4511.0637.5902.0169.1482.0221.2041.0325.2717.0611.3536.3978.5915.7514.5304s.5915-.3978.5304-.7514l-.0442.0078.0442-.0065v-.0013l-.0442.0078.0442-.0065c-.0208-.1547-.1352-1.1934-.2886-2.9185v-.0052c-.3055-3.1707-.741-8.7243-.9763-15.8301l-.0026-.0442c-.0078-.078-.0091-.1573-.0091-.2769v-.0208c-.0936-2.9172-.1508-6.0892-.1508-9.4601 0-4.7307.1144-9.8514.4095-15.2087.377-6.8926 1.0595-14.1596 2.1632-21.4812v.0013c.8931-5.8409 2.0566-11.726 3.5594-17.4551l-.6292-.1651.6175.2028.0117-.0351.0104-.0364c.2223-.8437.4589-1.69.6942-2.5389l-.6266-.1742.624.1807c.2015-.6968.4004-1.3884.611-2.0787v-.0013c.5213-1.7277 1.0062-3.4333 1.4456-5.1038v.0013c.9581-3.5984 1.7524-7.0681 2.392-10.3844l-.0013.0026c.403-2.0371.7462-4.017 1.0309-5.9384v.0026c1.1245-7.384 1.5262-13.9555 1.5262-19.6014 0-.7761-.0078-1.534-.0221-2.275-.0585-3.1785-.2483-6.0255-.4979-8.5293v-.0013c-.3679-3.6673-.8788-6.5806-1.3195-8.6866l-.0026-.0104c-.0559-.2457-.1014-.4875-.1495-.728l-.0065-.0273-.0351-.1404-.6305.1547h.65v-.0351c0-.3588-.2912-.65-.65-.65s-.65.2912-.65.65" fill="#1d2a30"/><path d="m188.62222629 169.44341171-.0234-.0234-.0234-.0234c-.9321-.8255-1.9578-1.534-3.042-2.1229-1.1921-.6253-2.4648-1.1206-3.7856-1.4261" fill="#fff"/><path d="m189.08762629 168.97971171-.0234-.0234-.0065-.0065-.0234-.0234-.0286-.0273c-.9698-.8593-2.0371-1.5951-3.1629-2.2061l-.0078-.0052c-1.235-.6474-2.5597-1.1635-3.9403-1.4846-.3497-.0806-.6994.1365-.78.4862s.1365.6994.4862.7813c1.2597.2925 2.4817.767 3.6296 1.3689l.3029-.5759-.3107.572c1.0439.5668 2.0293 1.2467 2.9211 2.0371l.4316-.4862-.4602.4589.0208.0208.0195.0208c.2509.2574.663.2626.9191.0117.2574-.2496.2639-.6617.013-.9191" fill="#1d2a30"/><path d="m190.6815301 179.53430536 3.4606-3.1343c.2665-.2418.286-.6526.0455-.9191-.2418-.2652-.6526-.286-.9178-.0442l-3.4606 3.1343c-.2665.2418-.2873.6526-.0455.9178.2405.2665.6513.2873.9178.0455" fill="#1d2a30"/><path d="m186.2683282 226.67810536v-.013l-.013-.1235c-.1846-.9516-.4693-1.8915-.8528-2.795l-.598.2548.6032-.2431c-.5317-1.3221-1.261-2.5571-2.1619-3.6686v.0013c-.6682-.8294-1.4326-1.5808-2.2711-2.2464-.2808-.2236-.6903-.1768-.9126.104-.2236.2821-.1768.6903.104.9139.7657.6084 1.4638 1.2935 2.0683 2.0449l.0013.0013c.8203 1.0114 1.482 2.1346 1.9656 3.3345l.0039.0117c.3484.8177.6058 1.6705.7748 2.535l.6383-.1248h-.65v.013c0 .3588.2899.65.65.65.3588 0 .65-.2912.65-.65" fill="#1d2a30"/><path d="m183.52291741 236.94489965c.8814-2.2464 2.782-4.121 5.0388-4.9725.3367-.1274.5057-.5031.3783-.8385s-.5031-.5044-.8385-.3783c-2.613.9932-4.7606 3.1122-5.7876 5.7135-.1313.3341.0325.7111.3666.8424s.7111-.0325.8424-.3666" fill="#1d2a30"/><path d="m176.7188301 286.23320092c1.1583-1.3962 2.0345-6.7132 2.5038-9.5693.1131-.6851.2093-1.2662.2886-1.6861" fill="#fff"/><path d="m177.2193301 286.64790092c.3848-.4732.6604-1.1115.9282-1.8876.7852-2.3101 1.3611-5.8422 1.7173-7.9911.1118-.6838.208-1.2636.2847-1.6705.0676-.3523-.1638-.6929-.5161-.7592-.3536-.0676-.6929.1638-.7605.5161-.0832.4342-.1781 1.0179-.2912 1.703-.2353 1.4261-.5694 3.4593-.9867 5.2936-.208.9165-.4368 1.7836-.6773 2.4882-.2366.7033-.5057 1.2532-.6994 1.4781-.2288.2769-.1911.6864.0858.9152s.6864.1911.9152-.0858" fill="#1d2a30"/><path d="m167.66212122 296.29869838c.3887-.0234.7787-.0117 1.1674.0351 3.3722.3068 6.5208 2.6299 7.7584 5.7889" fill="#fff"/><path d="m167.69982122 296.94739838.3497-.0104c.234 0 .468.0143.702.0429l.0195.0013c3.1161.2756 6.0788 2.4635 7.2124 5.3794.13.3341.5083.4992.8424.3679s.4992-.5083.3679-.8424c-1.3429-3.4047-4.6774-5.8617-8.3057-6.1997l-.0585.6474.078-.6448c-.286-.0351-.572-.052-.858-.052-.1417 0-.2834.0039-.4251.013-.3588.0208-.6318.3289-.611.6864.0208.3588.3289.6318.6864.611" fill="#1d2a30"/><path d="m188.6284282 215.86911298c0-.0065.0065-.2067.0065-.5707-.0013-1.7186-.1261-7.0824-1.5808-12.9272-1.4573-5.837-4.2367-12.2031-9.6902-15.8132-.3003-.1976-.7033-.1157-.9009.1846-.1976.299-.1157.702.1846.9009 5.0232 3.3033 7.7324 9.3522 9.1455 15.041 1.4157 5.6823 1.5418 10.9603 1.5418 12.6139 0 .3497-.0065.5317-.0065.5317-.0104.3588.273.6591.6318.6695s.6578-.2717.6682-.6305" fill="#1d2a30"/><path d="m188.87392248 262.74299266c1.521 4.9192-9.0818 14.2857-9.0818 14.2857s-14.0374-1.7537-15.5571-6.6755c-1.521-4.9205 2.0345-12.9701 8.84-15.0722 6.8042-2.1008 14.2805 2.5415 15.7989 7.462" fill="#73cd91"/><path d="m201.04082185 201.34779647c-1.3442 5.226-11.3867 8.9375-11.3867 8.9375s-6.9992-8.099-5.655-13.325c1.3455-5.2247 6.8965-10.9824 11.6025-9.7708 4.7047 1.2103 6.7847 8.9336 5.4392 14.1583" fill="#73cd91"/><path d="m159.82932248 281.71130028c6.305 2.4544 10.1699 13.6071 10.1699 13.6071s-10.3883 5.6004-16.6933 3.1447c-6.305-2.4531-12.9779-9.3717-11.1774-13.9971 1.8018-4.6267 11.3945-5.2091 17.7008-2.7547" fill="#73cd91"/><path d="m174.15711995 218.45509139c1.3338.9893 2.7066 1.9981 4.3095 2.4323 1.6016.4355 3.5061.1703 4.5942-1.0829 1.3494-1.5535.988-3.9598.1378-5.8331-1.6835-3.7128-7.8975-10.0126-12.6698-8.2043-6.8887 2.6078.5564 10.4078 3.6283 12.688" fill="#73cd91"/><path d="m188.68743137 228.28099711c-.9048 1.1206-1.8642 2.5324-1.3689 3.8844.4381 1.1986 1.911 1.7485 3.1733 1.5574 1.2623-.1898 2.3608-.9386 3.4099-1.6666 2.431-1.6887 7.4165-5.2325 4.2341-8.5462-3.3072-3.445-7.5439 2.4115-9.4484 4.771" fill="#73cd91"/><path d="m167.81733137 180.03170409c-1.0413.1144-2.0956.8112-2.2724 1.8434-.2067 1.2064.7943 2.262 1.7628 3.0082 2.4154 1.8616 9.6733 6.8848 11.2931 2.0384 1.5301-4.5773-7.5751-7.2449-10.7835-6.89" fill="#73cd91"/><path d="m181.39152122 163.61668632c-1.4976.1417-2.9913-.4004-4.4928-.3055s-3.1668 1.3026-2.834 2.769c.3094 1.3559 1.9942 1.8096 3.3826 1.8967 2.366.1482 4.7528-.0156 7.0772-.4888.5395-.1092 1.1284-.2691 1.4365-.7254.6071-.8944-.3588-2.0917-1.391-2.4089-1.0335-.3172-2.1996-.2119-3.1369-.7475z" fill="#73cd91"/><path d="m196.4803282 174.17781298c1.5028.0442 2.9575-.5967 4.4616-.6006s3.2461 1.0907 3.0108 2.5766c-.2184 1.3728-1.8707 1.937-3.2487 2.1151-2.353.3055-4.745.2977-7.0954-.0208-.546-.0728-1.1427-.195-1.482-.6292-.6643-.8515.2197-2.1099 1.2298-2.4947 1.0101-.3835 2.1801-.3549 3.081-.9529z" fill="#73cd91"/><path d="m194.78171931 288.1025933c.3718-.3133.793-.6357 1.2779-.6318.6448.0052 1.1583.611 1.2779 1.2467.1196.6331-.0585 1.2805-.2418 1.898-1.0192 3.4099-12.4631 28.1073-15.0956 23.673-1.5574-2.6221 2.2685-11.3074 3.3969-13.7631 2.1827-4.7528 5.3859-9.0454 9.3847-12.4228" fill="#73cd91"/><path d="m189.85342058 170.81101171c-.0013-.0013-.0403-.3406-.0793-.8749-.0403-.533-.0806-1.2532-.0806-1.9877-.0013-.7709.0468-1.5626.169-2.1411.0598-.2873.1417-.5187.2158-.6513l.0884-.1248.0156-.013-.0156-.0234.0091.026.0065-.0026-.0156-.0234.0091.026c.3406-.1144.5226-.4836.4069-.8242-.1144-.3393-.4836-.5226-.8242-.4069-.3965.1365-.6513.4368-.8177.7371-.2496.4589-.3653.9945-.4446 1.5821-.0767.5876-.1027 1.2233-.1027 1.8395 0 1.56.1664 2.9965.1677 3.0108.0416.3562.364.6123.7202.572.3562-.0416.6123-.364.572-.7202" fill="#1d2a30"/><path d="m188.02572883 164.46381171c.9074-2.0384 1.8902-4.1717 3.6959-5.4834 1.8044-1.313 4.6969-1.4105 6.0112.3926 1.469 2.0163 0 5.0804-2.2516 6.1555s-4.8906.7514-7.3619.4043c-.0195-.3666-.039-.7332-.0598-1.0998z" fill="#73cd91"/><g fill="#1d2a30"><path d="m20.39554344 315.04199076v-128.453c0-.3588-.29094-.65-.65-.65-.35893 0-.65.2912-.65.65v128.453c0 .3588.29107.65.65.65.35906 0 .65-.2912.65-.65"/><path d="m430.87672058 316.03550028h-15.8821c-.3588 0-.65.2899-.65.65 0 .3588.2912.65.65.65h15.8821c.3588 0 .65-.2912.65-.65 0-.3601-.2912-.65-.65-.65"/><path d="m558.3305282 316.03550028h-32.3297c-.3588 0-.65.2899-.65.65 0 .3588.2912.65.65.65h32.3297c.3588 0 .65-.2912.65-.65 0-.3601-.2912-.65-.65-.65"/><path d="m414.03950915 116.49120028h57.291c.1716 0 .3393-.0689.4602-.1898s.1898-.2886.1898-.4589v-54.574c0-.3588-.2912-.65-.65-.65s-.65.2912-.65.65v53.9227l-56.641.0013c-.3588 0-.65.2899-.65.65 0 .3588.2912.65.65.65"/><path d="m72.45740756 100.66800663h60.21522v43.745c0 .1703.0702.338.1911.4589s.2886.1911.4589.1911h66.7108c.3588 0 .65-.2912.65-.65s-.2912-.65-.65-.65h-66.0608v-43.745c0-.1716-.0689-.3393-.1898-.4602s-.2886-.1898-.4602-.1898h-60.86522c-.35906 0-.65.2912-.65.65s.29094.65.65.65"/><path d="m34.64541423 252.38451298v-98.098c0-.3588-.29107-.65-.65-.65-.35854 0-.65.2912-.65.65v98.098c0 .3588.29146.65.65.65.35893 0 .65-.2912.65-.65"/><path d="m61.23489375 110.35059647v76.8911c0 .3588.29094.65.65.65s.65-.2912.65-.65v-76.8911c0-.3588-.29094-.65-.65-.65s-.65.2912-.65.65"/><path d="m89.11554693 110.22830155v67.9731c0 .3601.29159.65.65.65.35906 0 .65-.2899.65-.65v-67.9731c0-.3588-.29094-.65-.65-.65-.35841 0-.65.2912-.65.65"/><path d="m116.99476756 110.88039139v118.8889c0 .3588.29094.65.65.65.35893 0 .65-.2912.65-.65v-118.8889c0-.3588-.29107-.65-.65-.65-.35906 0-.65.2912-.65.65"/><path d="m253.2818282 91.07130028v-77.5203h109.3677v77.5203c0 .3588.2912.65.65.65.3601 0 .65-.2912.65-.65v-78.1703c0-.1716-.0689-.3393-.1898-.4602s-.2886-.1898-.4602-.1898h-110.6677c-.1716 0-.3393.0689-.4602.1898s-.1898.2886-.1898.4602v78.1703c0 .3588.2899.65.65.65.3588 0 .65-.2912.65-.65"/><path d="m260.44921995 51.34128632v-28.9016h19.8029c.3588 0 .65-.2912.65-.65s-.2912-.65-.65-.65h-20.4529c-.1703 0-.338.0689-.4589.1898s-.1911.2886-.1911.4602v29.5516c0 .3601.2912.65.65.65s.65-.2899.65-.65"/><path d="m286.04923455 51.34128632v-28.9016h19.8016c.3601 0 .65-.2912.65-.65s-.2899-.65-.65-.65h-20.4516c-.1716 0-.3393.0689-.4602.1898s-.1898.2886-.1898.4602v29.5516c0 .3601.2912.65.65.65s.65-.2899.65-.65"/><path d="m311.64793328 51.34128632v-28.9016h19.8029c.3588 0 .65-.2912.65-.65s-.2912-.65-.65-.65h-20.4529c-.1716 0-.338.0689-.4589.1898-.1222.1209-.1911.2886-.1911.4602v29.5516c0 .3601.2912.65.65.65s.65-.2899.65-.65"/><path d="m337.24793328 51.34128632v-28.9016h19.8042c.3588 0 .65-.2912.65-.65s-.2912-.65-.65-.65h-20.4542c-.1703 0-.338.0689-.4589.1898s-.1911.2886-.1911.4602v29.5516c0 .3601.2912.65.65.65s.65-.2899.65-.65"/><path d="m260.44921995 91.69260155v-28.9029h19.8029c.3588 0 .65-.2912.65-.65s-.2912-.65-.65-.65h-20.4529c-.1703 0-.338.0689-.4589.1898-.1209.1222-.1911.2886-.1911.4602v29.5529c0 .3588.2912.65.65.65s.65-.2912.65-.65"/><path d="m286.04923455 91.69260155v-28.9029h19.8016c.3601 0 .65-.2912.65-.65s-.2899-.65-.65-.65h-20.4516c-.1716 0-.3393.0689-.4602.1898-.1209.1222-.1898.2886-.1898.4602v29.5529c0 .3588.2912.65.65.65s.65-.2912.65-.65"/><path d="m311.64793328 91.69260155v-28.9029h19.8029c.3588 0 .65-.2912.65-.65s-.2912-.65-.65-.65h-20.4529c-.1716 0-.338.0689-.4589.1898-.1222.1222-.1911.2886-.1911.4602v29.5529c0 .3588.2912.65.65.65s.65-.2912.65-.65"/><path d="m337.24793328 91.69260155v-28.9029h19.8042c.3588 0 .65-.2912.65-.65s-.2912-.65-.65-.65h-20.4542c-.1703 0-.338.0689-.4589.1898-.1209.1222-.1911.2886-.1911.4602v29.5529c0 .3588.2912.65.65.65s.65-.2912.65-.65"/><path d="m480.50503835 68.75798378v97.955c0 .3588.2912.65.65.65s.65-.2912.65-.65v-97.955c0-.3588-.2912-.65-.65-.65s-.65.2912-.65.65"/><path d="m522.41981296 309.97549393h3.1304c.3588 0 .65-.2912.65-.65s-.2912-.65-.65-.65h-3.1304c-.3588 0-.65.2912-.65.65s.2912.65.65.65"/><path d="m505.21502693 97.7627952v109.6654c0 .3601.2912.65.65.65s.65-.2899.65-.65v-109.6654c0-.3588-.2912-.65-.65-.65s-.65.2912-.65.65"/><path d="m530.18151423 280.96190472v28.0059c0 .1716.0689.338.1898.4602.1209.1209.2886.1898.4602.1898h19.2257c.3588 0 .65-.2912.65-.65s-.2912-.65-.65-.65h-18.5757v-27.3559c0-.3588-.2912-.65-.65-.65s-.65.2912-.65.65"/><path d="m529.93503962 133.97091044v74.4705c0 .3588.2912.65.65.65s.65-.2912.65-.65v-74.4705c0-.3588-.2912-.65-.65-.65s-.65.2912-.65.65"/><path d="m554.69452185 192.46150028v115.388c0 .1716.0702.338.1911.4602.1209.1209.2873.1898.4589.1898h4.381c.3588 0 .65-.2912.65-.65s-.2912-.65-.65-.65h-3.731v-114.738c0-.3588-.2912-.65-.65-.65s-.65.2912-.65.65"/></g><path d="m2.71502439 482.44337657h248.3v-161.2767h-248.3z" fill="#fff"/><path d="m251.01502439 482.44337657v-.65h-247.6505083v-159.976882h247.0005083v160.626882h.65v-.65.65h.65v-161.276882c0-.1716-.0689-.338-.1898-.4602-.1209-.1209-.2886-.1898-.4602-.1898h-248.3005083c-.171132 0-.3382028.0689-.4595695.1898-.1208597.1222-.19043001.2886-.19043001.4602v161.276882c0 .170118.06957031.337701.19043001.458549.1213667.120861.2884375.191451.4600778.191451h248.3c.1716 0 .3393-.07059.4602-.191451.1209-.120848.1898-.288431.1898-.458549z" fill="#1d2a30"/><path d="m2.71451609 320.13599774 124.1510283 80.63783 124.14948-80.63783z" fill="#fff"/><path d="m2.71451609 320.13599774-.3539445.5447 124.1504628 80.639c.21593.1391.49309.1391.7085 0l124.15039-80.639c.2418-.1573.351-.4524.2691-.7293s-.3354-.4654-.624-.4654h-248.3005083c-.2884375 0-.54081976.1885-.62308545.4654-.08175778.2769.02742194.572.26914095.7293l.3539445-.5447v.65h246.1074083l-121.95638 79.2129-123.7965742-80.4076-.3544541.5447v.65z" fill="#1d2a30"/><path d="m86.9784155 377.87139933-86.8294011 104.8801c-.22851543.275743-.18992168.686556.0863278.915083.2767583.229021.6865625.189917.9150791-.08684l86.8293842-104.879073c.22841-.27677.18993-.68653-.08632-.91507-.27677-.22893-.68666-.19084-.91507.0858" fill="#1d2a30"/><path d="m166.44972693 378.70066933 86.8283 104.879073c.2288.276757.6383.315861.9152.08684.2769-.228527.3159-.63934.0858-.915083l-86.8283-104.8801c-.2288-.27664-.6383-.31473-.9152-.0858-.2756.22854-.3146.6383-.0858.91507" fill="#1d2a30"/><path d="m388.4264155 112.50139965h-57.7187c-3.3891 0-6.5104 1.8473-8.1393 4.8191l-.0325.0585c-4.3953 7.9196-14.3767 10.7757-22.2963 6.3817-2.6832-1.4885-4.8932-3.6998-6.3817-6.3817-1.6198-3.0043-4.758-4.8776-8.1718-4.8776h-57.6303c-6.6547-.0845-12.1186 5.2403-12.207 11.895v325.53664c.0884 6.65639 5.5523 11.9808 12.207 11.89656h160.3706c6.6573.08424 12.1238-5.23913 12.2161-11.89656v-325.53664c-.0923-6.656-5.5588-11.9795-12.2161-11.895" fill="#73cd91"/><path d="m400.64641931 450.06264536c-.0923 6.65743-5.5588 11.9808-12.2161 11.89656h-160.3706c-6.6547.08424-12.1186-5.24017-12.207-11.89656v-325.53664c.0884-6.6547 5.5523-11.9795 12.207-11.895h57.6745c3.4138 0 6.552 1.8733 8.1718 4.8776 4.3953 7.9196 14.3767 10.7757 22.2963 6.3817 2.6832-1.4885 4.8932-3.6998 6.3817-6.3817l.0325-.0585c1.6302-2.9718 4.7502-4.8191 8.1406-4.8191h57.7174c6.6573-.0845 12.1238 5.239 12.2161 11.895zm5.6264-329.13894c0-9.2001-7.4568-16.6582-16.6569-16.6582h-.0091-162.7236c-9.2001-.0039-16.6621 7.449-16.666 16.6504v.0078 342.12373c0 9.19854 7.4581 16.658252 16.6569 16.658252h.0091 162.7236c9.2001.005083 16.6608-7.450612 16.666-16.649152v-.0091z" fill="#1d2a30"/><path d="m290.96122693 461.82959965h-42.7206l100.5771-349.3282h39.0117z" fill="#91d8a6"/><path d="m391.98931296 99.44680409c-.0962-.0013-.1924-.0026-.2899-.0026h.2899" fill="#e2f4e4"/><path d="m243.09782312 479.69021657 5.1064-17.735822h42.7206l-4.9062 17.691635zm144.6952-367.064022h-39.0117l2.4089-8.3655h38.6321c.0975 0 .1937.0013.2899.0026z" fill="#45555c"/><path d="m220.02082248 483.84057986h-1.4716l.1365-.448903c.4368.168077.8814.317382 1.3351.448903" fill="#fff"/><path d="m218.39451677 484.51067992.1976-.65h1.4716c1.1206.322465 2.2893.531674 3.4931.61191z" fill="#45555c"/><path d="m225.80583137 466.30842711c-.6357 0-1.2597-.0507-1.8694-.14573.6097.09503 1.2337.14573 1.8694.14573" fill="#fff"/><path d="m227.20823708 461.83972838c-.0026 0-.0052 0-.0078 0-.6357 0-1.2597-.0507-1.8694-.14573l106.2867-349.1839h4.1613l-104.3497 349.3282h-4.0664c-.0507.00143-.1027.00143-.1547.00143z" fill="#91d8a6"/><path d="m225.01411169 479.66708466c-1.2038-.080236-2.3725-.289445-3.4931-.61191-.4537-.131521-.8983-.280826-1.3351-.448903l5.1116-16.791879c.6097.09503 1.2337.14573 1.8694.14573h.0078c.052 0 .104 0 .1547-.00143h4.0664l-5.2871 17.69976zm110.7314-367.036592h-4.1613l2.5467-8.3655h4.1132z" fill="#45555c"/><path d="m337.41453328 385.70549425c.2769 15.73507-12.2538 28.48924-27.9877 28.48924s-28.7131-12.75417-28.9913-28.48924c-.2769-15.7326 12.2525-28.4882 27.9877-28.4882 15.7339 0 28.7144 12.7556 28.9913 28.4882" fill="#fff"/><path d="m337.41453328 385.70549425-.65.0117c.0026.16653.0039.33254.0039.4992-.0013 15.14396-12.1355 27.3273-27.3416 27.32834-15.3764.00312-28.0735-12.47337-28.3413-27.85094-.0026-.16653-.0039-.3341-.0039-.50076.0013-15.14084 12.1342-27.32314 27.3416-27.32574 15.3751-.0026 28.0735 12.4748 28.3413 27.8499l.65-.0117.65-.0117c-.286-16.0901-13.5499-29.1239-29.6413-29.1265-7.9573 0-15.1229 3.19306-20.2917 8.36667-5.1701 5.174-8.3512 12.3357-8.3499 20.25907 0 .1742.0013.3484.0039.52416.2873 16.09257 13.5499 29.12507 29.6413 29.12754 7.9573.00156 15.1229-3.19254 20.2917-8.36771 5.1701-5.17309 8.3512-12.33583 8.3499-20.26063 0-.17277-.0013-.34684-.0039-.5226z" fill="#1d2a30"/><path d="m310.31071804 393.48847092c1.2805-.9243 2.2334-2.2334 2.717-3.7375l2.7183-9.56007-.1794-.38753c-.1742-.31577-.3822-.60931-.6227-.8775-.325-.37323-.6773-.71851-1.0556-1.03844-.4862-.39156-1.0387-.69316-1.6315-.89076-1.5392-.54431-3.2253-.48594-4.7229.16406-.8138.34944-1.5613.83694-2.2113 1.4391-.6773.63284-1.2805 1.34173-1.7979 2.11003-.5382.79781-.9932 1.6484-1.3585 2.53851-.3653.88673-.6487 1.80583-.845 2.74573-.1963.8918-.2964 1.80427-.3003 2.7183-.0039.585.0325 1.17.1053 1.75253.0637.51441.1768 1.02167.3393 1.51424.1456.4459.3497.871.6097 1.261.2392.36049.5408.67743.8905.93483.3705.2717.7891.47177 1.2324.5941.5213.14573 1.0621.21437 1.6029.2067 1.6263.01833 3.2123-.5057 4.5097-1.48733zm-10.7367 13.48139c-2.6455-.97656-5.0713-2.47-7.1344-4.39309-2.0813-2.00083-3.6946-4.43677-4.7229-7.13583-1.1648-3.02354-1.7446-6.24247-1.703-9.48441-.0208-2.76809.4667-5.51733 1.4417-8.10667.8814-2.37653 2.1996-4.56573 3.8896-6.4558 3.3384-3.65989 7.657-6.28823 12.441-7.5725 2.3491-.62972 4.7684-.94913 7.1994-.95069 2.0176-.00754 4.0274.23153 5.9865.71396 1.8941.46774 3.7063 1.21784 5.3755 2.22534 1.6497.99216 3.1291 2.24653 4.3797 3.71306 1.3078 1.57417 2.3036 3.3826 2.9393 5.33104.7332 2.21559 1.0933 4.5383 1.0699 6.87167-.026 4.49163-1.6341 8.82986-4.5422 12.25146-1.2584 1.43663-2.7521 2.6468-4.4174 3.5776-1.4339.83083-3.055 1.28323-4.7125 1.3117-1.1375.01417-2.2477-.34333-3.1629-1.0192-.9373-.68757-1.4924-1.77983-1.4989-2.94333-1.9383 2.7326-4.5604 4.09916-7.8676 4.09916-2.6936 0-4.8451-.9217-6.4558-2.7625-1.6107-1.84236-2.4128-4.1067-2.405-6.7951.0065-2.0449.3627-4.07563 1.053-5.99976.6747-1.94753 1.6406-3.78014 2.8678-5.43673 1.2155-1.63358 2.7703-2.98584 4.5565-3.965 1.7797-1.00594 3.7908-1.53257 5.8357-1.52841 1.4222-.0143 2.8236.32903 4.0781.99424 1.2207.64896 2.2126 1.66153 2.8353 2.8951l.2652-.86177c.4264-1.27166 1.7992-1.95663 3.0706-1.53257.2379.08073.4641.19591.6669.34684.3991.325.6188.8216.5902 1.33497.0013.24323-.039.48399-.117.71253l-4.2172 14.01556c-.4758 1.6042-.7124 2.70257-.7124 3.29771 0 1.01166.5148 1.51489 1.5444 1.51229 1.3455 0 2.6676-.6175 3.965-1.85406 1.3988-1.39594 2.4778-3.07827 3.1642-4.92934.8073-2.02813 1.2194-4.1899 1.2155-6.37143.0208-1.92166-.2613-3.835-.8333-5.67073-.4732-1.58184-1.2298-3.06527-2.2308-4.3784-.9516-1.19587-2.1008-2.2217-3.3982-3.03017-1.2948-.81497-2.7079-1.4274-4.1886-1.81233-1.5171-.39507-3.0784-.59514-4.6475-.5941-1.9942.00247-3.978.28327-5.8955.8333-1.9669.5616-3.8428 1.4092-5.5679 2.51056-1.7394 1.09837-3.315 2.4375-4.6774 3.97774-1.4079 1.6224-2.5038 3.4892-3.2357 5.50667-.8138 2.20246-1.2207 4.53232-1.2025 6.87739-.0442 2.77927.4602 5.53917 1.4846 8.12344.8749 2.24146 2.262 4.24476 4.0534 5.85 1.7264 1.50306 3.7206 2.665 5.8786 3.42823 2.2737.80483 4.6696 1.20757 7.0837 1.18924 2.5779.00416 5.1428-.38584 7.6037-1.15934.247-.0832.5083-.12337.7696-.11726.5044-.02184.9932.17979 1.3364.55003.3263.33813.507.79066.5057 1.25983.0663.7826-.4537 1.49344-1.2194 1.66517-3.0706.93886-6.2621 1.42896-9.4718 1.45483-3.0407.02236-6.0593-.50986-8.9089-1.57014" fill="#73cd91"/><path d="m310.31071804 393.48847092.3796.52663c1.3936-1.00503 2.4297-2.42996 2.9562-4.0651l.0065-.02236 2.7183-9.55851c.0416-.14989.0299-.30927-.0364-.45149l-.1781-.38688-.0208-.04069c-.1976-.35854-.4342-.69264-.7072-.99684l-.4849.43264.4901-.42601c-.3471-.3991-.7228-.7683-1.1258-1.10903l-.013-.01066c-.546-.43927-1.1674-.77753-1.833-.99944l-.2054.61594.2171-.61243c-.7683-.27261-1.5704-.40768-2.3712-.40768-.9646 0-1.9266.19747-2.8275.58747h.0013c-.8814.37934-1.6913.90753-2.3959 1.55857l-.0013.00247c-.715.66573-1.3494 1.41167-1.8941 2.22326l.0013-.00156c-.5629.8333-1.04 1.72406-1.4209 2.65486v-.00156c-.3809.92417-.676 1.88253-.8801 2.86v-.00507c-.2054.93743-.3094 1.8941-.3146 2.85493v-.0026.08944c0 .585.0377 1.16896.1105 1.74993v-.00156c.0689.55562.1911 1.10396.3666 1.63826v-.0026c.1625.50076.3926.98007.6864 1.4209l-.0013-.0026c.2821.4251.637.79677 1.0465 1.0985l.0013.00143c.4355.31941.9269.55354 1.4443.6968l-.0026-.00156c.5538.15639 1.1258.23153 1.6978.23153h.0884l-.0078-.65-.0065.65h.0871c1.7394 0 3.432-.56823 4.8217-1.61993l-.3926-.5174.3796.52663-.3796-.52663-.3926-.51857c-1.1635.88166-2.5805 1.3559-4.0365 1.3559h-.0741-.0143-.0728c-.4563 0-.91-.06097-1.3481-.1833h-.0026c-.3679-.10153-.715-.26767-1.0205-.49153l.0013.00143c-.2886-.21424-.5382-.47476-.7332-.77077l-.0013-.0026c-.2262-.33813-.4056-.70993-.5317-1.09993l-.0013-.00247c-.1495-.45253-.2522-.91819-.3107-1.39087v-.00156c-.0676-.5291-.1014-1.05833-.1014-1.58743v-.08021-.00156c.0039-.8684.0988-1.7342.2847-2.58167l.0013-.00663c.1885-.89934.4602-1.78087.8112-2.63094v-.00156c.3471-.84903.7826-1.6601 1.2961-2.42073v-.00104c.4901-.72826 1.0608-1.39906 1.7017-1.99667l-.0013.00091c.5954-.55094 1.2805-.99827 2.0267-1.31924h.0013c.7358-.31993 1.5223-.48087 2.3101-.48087.6552 0 1.3091.11011 1.937.33254l.0117.00416c.52.17407 1.0036.43771 1.43.78l.4069-.50583-.4199.49517c.3536.299.6825.62257.9854.97084l.0065.00663c.2067.23153.3861.48399.5369.7566l.5694-.3133-.5902.27326.078.16913-2.652 9.3275.6253.17771-.6188-.20007c-.442 1.37254-1.3104 2.56594-2.4791 3.4099l-.0117.0091zm-10.7367 13.48139.2249-.60996c-2.5649-.94653-4.9166-2.39473-6.916-4.25893l-.4433.4758.4498-.46917c-2.0111-1.93427-3.5711-4.29-4.5656-6.89767v-.00156c-1.0985-2.8483-1.6614-5.87327-1.6614-8.92424l.0013-.31993v-.01326-.1716c0-2.62951.4732-5.23861 1.4001-7.70094l.0013-.0026c.8528-2.29983 2.1294-4.42 3.7648-6.24754l-.0052.00351c3.2552-3.56837 7.4659-6.12937 12.1303-7.38257 2.2932-.61503 4.6566-.92677 7.0317-.92833h.0013.091c1.9331 0 3.8597.23257 5.7382.6942h-.0013c1.8304.45253 3.5815 1.17819 5.1961 2.15163 1.5899.95667 3.0147 2.16424 4.2198 3.57747l.4953-.42094-.5005.41444c1.2558 1.51216 2.2113 3.2474 2.821 5.11667l.0013.00403c.689 2.07896 1.0387 4.2575 1.0387 6.44826l-.0013.2132v.0026c-.0247 4.33771-1.5782 8.52917-4.3875 11.83507l.4953.4199-.4888-.42757c-1.2103 1.38034-2.6442 2.54267-4.2458 3.4385l-.0078.00507c-1.339.77493-2.8522 1.19587-4.3992 1.2233h.0039-.0559c-.9763 0-1.9279-.31187-2.7131-.8918l-.0013-.00143c-.7709-.56524-1.2285-1.4651-1.2337-2.42177-.0013-.2834-.1846-.5317-.4537-.61594-.2704-.08593-.5629.01261-.7254.24271-1.8499 2.58063-4.2133 3.81056-7.3385 3.82486-2.548-.00923-4.4707-.84409-5.967-2.54163-1.4937-1.71587-2.2399-3.78573-2.2438-6.3284v-.03406-.00091c.0065-1.97093.3497-3.92847 1.014-5.78409l.0026-.00507c.6539-1.88591 1.5899-3.6608 2.7768-5.2624l-.0013.00156c1.1596-1.55909 2.6429-2.84986 4.3472-3.78326l.0078-.00351c1.6757-.94809 3.5685-1.44573 5.4938-1.44573h.0156.013l.0767-.00156c1.287 0 2.5532.3159 3.6894.92066 1.1024.585 1.9981 1.49851 2.561 2.61274.1196.2366.3705.37726.6344.3549.2652-.02184.4888-.20267.5668-.45604l.2652-.86229-.6214-.19084.6175.20566c.247-.74399.9425-1.21316 1.6835-1.21316.1872 0 .3757.02834.5629.09087.1755.05837.3406.14417.4888.25337l.3848-.52247-.4108.50323c.2249.1833.3536.45643.3536.7449l-.0013.05187-.0013.03653v.01014c0 .16406-.0273.33059-.0819.48906l-.0078.02483-4.2159 14.01517-.0013.00247c-.4797 1.63319-.7332 2.73403-.7397 3.48257-.0026.6058.1599 1.18573.5785 1.59809.4186.4108.9984.5668 1.6081.5642h.0052l-.0013-.49257-.0104.49257h.0117l-.0013-.49257-.0104.49257h.0143c1.5535.00104 3.042-.72306 4.4135-2.03333l.0104-.01066c1.4651-1.4625 2.5961-3.22348 3.3137-5.16438l-.6084-.22503.6032.24024c.8346-2.09573 1.2623-4.32913 1.2623-6.58177v-.0299h-.65l.65.0065.0013-.20007c0-1.92309-.2925-3.83396-.8632-5.67073l-.6214.19357.6227-.18694c-.4953-1.65646-1.2883-3.21087-2.3374-4.58653l-.0078-.0091c-.9971-1.25437-2.2009-2.32934-3.562-3.1785l.0026.00104c-1.352-.85007-2.8262-1.48837-4.3732-1.89007-1.5652-.40677-3.1759-.6149-4.7957-.6149h-.0234l.0091.65-.0013-.65c-2.054.00247-4.0976.29146-6.0723.85813-2.0293.57993-3.9611 1.45236-5.7395 2.5883l.0026-.00143c-1.7914 1.13139-3.4138 2.51056-4.8178 4.095l-.0039.00559c-1.4586 1.68337-2.5961 3.61764-3.3553 5.71181l.0013-.00351c-.8216 2.22417-1.2428 4.57431-1.2428 6.94434v.1625l.65-.00507-.65-.01066-.0026.34827c0 2.74729.52 5.46923 1.5327 8.02646l-.0013-.00403c.9126 2.33597 2.3582 4.42403 4.225 6.0983l.0078.00663c1.7875 1.55493 3.8532 2.76003 6.0879 3.54913 2.2945.8125 4.7125 1.22681 7.1474 1.22681h.1573-.0039.0377c2.6312 0 5.2481-.39858 7.7597-1.18924l.0143-.00403c.1638-.0559.3367-.08437.5083-.08437h.0351.0468l.0455-.00143c.2964 0 .5824.12493.7852.34476l.0078.00767c.2093.21723.325.5057.325.80483v.01274l.0026.04719.0039.07917c0 .42614-.2964.80184-.7176.89687l-.0481.0117c-3.0121.92157-6.1399 1.40153-9.2872 1.4274h-.1833c-2.899 0-5.7759-.5174-8.4929-1.5301h-.0026l-.2249.60996-.2262.6084c2.8626 1.06691 5.8929 1.61174 8.9466 1.61174h.1924.0013c3.2734-.02587 6.526-.52663 9.6564-1.4833l-.1898-.62153.1417.63323c1.0218-.22854 1.7342-1.13503 1.7342-2.16437l-.0078-.18889-.6487.05486.65-.00767-.2301.0026h.2301v-.0026l-.2301.0026h.2301c0-.63583-.2457-1.2467-.6877-1.70573l-.468.45097.4758-.44343c-.4498-.48334-1.079-.75764-1.7381-.75907l-.1014.00247.0273.65.0182-.65-.0715-.00104c-.3159 0-.6279.0533-.9256.1534l.2093.6149-.195-.61997c-2.3855.74997-4.8711 1.12931-7.371 1.12931h-.0377-.0039-.1495c-2.288 0-4.5578-.38844-6.7132-1.15167-2.0826-.7358-4.004-1.85757-5.6693-3.3059l-.4264.4901.4342-.48347c-1.716-1.53816-3.0446-3.4567-3.8818-5.60313l-.0013-.0026c-.9529-2.40344-1.4417-4.9634-1.4417-7.54663l.0026-.32747v-.01521-.15236c0-2.21507.3939-4.4135 1.1622-6.4935l.0013-.00403c.7046-1.94337 1.7602-3.74101 3.1148-5.30413l-.4901-.42497.4862.43056c1.3221-1.49396 2.8509-2.7924 4.5383-3.85827l.0026-.00156c1.6731-1.06847 3.4905-1.88903 5.3976-2.4349 1.859-.53274 3.783-.80496 5.7161-.80743h.0078.0065c1.508 0 3.0095.19396 4.4694.5733 1.417.36816 2.7677.95316 4.0066 1.73316l.0026.00104c1.2337.76973 2.327 1.74577 3.2318 2.88327l.5096-.40417-.5174.39403c.9542 1.25073 1.6757 2.66344 2.1255 4.17014l.0026.00663c.533 1.71236.8047 3.49323.8047 5.28476l-.0013.18694v.00663.0299c0 2.0891-.3965 4.15844-1.17 6.1009l-.0052.01417c-.6539 1.76423-1.6809 3.36583-3.0134 4.69573l.4589.46007-.4485-.47073c-1.2233 1.1609-2.379 1.67323-3.5165 1.67479v.65l.0156-.65h-.0234c-.4134-.00156-.6032-.09906-.6968-.19149-.0936-.09191-.1872-.26754-.1898-.6708-.0078-.44018.2145-1.5392.6864-3.11337l-.0013.0026 4.2159-14.01517-.6214-.18733.6136.21216c.1014-.2925.1534-.60073.1534-.91299v-.01274l-.65.00104.65.03562.0026-.12246c0-.67743-.3042-1.32236-.832-1.7524l-.0247-.01937c-.2587-.18993-.5447-.33813-.8463-.43979h-.0013c-.3224-.10764-.6513-.15834-.975-.15834-1.287-.00104-2.4856.81393-2.9172 2.1008l-.0052.01573-.2652.86177.6214.19097.5811-.29354c-.6851-1.3533-1.7719-2.46337-3.1122-3.17486-1.3234-.7033-2.7989-1.0725-4.2991-1.0725l-.0897.00156.0065.65.0065-.65h-.0286c-2.1502 0-4.2627.55497-6.1347 1.6133l.3211.56511-.3133-.56914c-1.8681 1.02323-3.4931 2.4375-4.7645 4.14726l-.0013.00104c-1.2662 1.7082-2.2633 3.59983-2.9601 5.60924l.6149.21333-.6123-.21944c-.7137 1.9942-1.0842 4.0976-1.0907 6.21764v-.00247.0416c-.0039 2.80007.8554 5.23354 2.5649 7.1851 1.7264 1.98497 4.108 2.99247 6.9459 2.98493 3.4879.01261 6.37-1.48993 8.398-4.37177l-.5304-.37739-.65.00416c.0078 1.36747.6604 2.6533 1.7641 3.4632l-.0013-.00143c1.0101.74646 2.2308 1.1466 3.4853 1.1466h.0715.0039c1.768-.03094 3.497-.51337 5.0271-1.39906l-.3263-.56264.3172.56823c1.7303-.96889 3.2825-2.22573 4.589-3.7167l.0065-.00806c3.0069-3.53847 4.6709-8.02503 4.6969-12.66941v.00351l.0013-.22594c0-2.32986-.3718-4.64503-1.105-6.8575l.0013.00351c-.6604-2.02514-1.6965-3.90754-3.0576-5.54528l-.0052-.00663c-1.2961-1.5184-2.8288-2.8184-4.5396-3.84813h.0013c-1.7251-1.04-3.5971-1.81493-5.5549-2.29996h-.0013c-1.9786-.48594-4.0092-.73177-6.0476-.73177h-.0949.0013c-2.4882.00156-4.9634.32903-7.3671.97253-4.9049 1.31677-9.3314 4.01063-12.753 7.76243l-.0052.00507c-1.7433 1.95-3.1044 4.2107-4.0144 6.6625l.0013-.0026c-.9815 2.60767-1.4833 5.37264-1.4833 8.15854v.18083l.65-.00364-.6487-.0091-.0026.3367c0 3.21087.5928 6.39431 1.7472 9.39094v-.00104c1.0621 2.78694 2.73 5.30361 4.8789 7.37087l.0078.00663c2.1255 1.9825 4.6267 3.5217 7.3528 4.52764l-.0013-.00091z" fill="#1d2a30"/><path d="m336.75452439 285.52419647c.2769 15.7352-12.2538 28.4895-27.9877 28.4895s-28.7144-12.7543-28.9913-28.4895c-.2769-15.7326 12.2525-28.4882 27.9877-28.4882 15.7326 0 28.7144 12.7556 28.9913 28.4882" fill="#fff"/><path d="m336.75452439 285.52419647-.65.0117c.0026.1677.0039.3341.0039.5005-.0026 15.1424-12.1355 27.326-27.3416 27.3273-15.3764.0039-28.0735-12.4735-28.3413-27.8499-.0026-.1677-.0039-.3341-.0039-.5018.0013-15.1411 12.1342-27.3234 27.3416-27.326 15.3751-.0026 28.0735 12.4748 28.3413 27.8499l.65-.0117.65-.0104c-.286-16.0914-13.5499-29.1239-29.6413-29.1278-7.9573 0-15.1229 3.1928-20.2917 8.3681-5.1701 5.1727-8.3512 12.3344-8.3499 20.2579 0 .1742.0013.3497.0039.5239.2873 16.0927 13.5486 29.1252 29.6413 29.1278 7.9573.0013 15.1229-3.1928 20.2917-8.3668 5.1701-5.174 8.3499-12.337 8.3499-20.2605 0-.1742-.0013-.3484-.0039-.5226z" fill="#1d2a30"/><path d="m326.16303328 282.92809647c-8.9219-5.8526-26.4342-5.8526-34.9453 0-3.1681.5928-5.5068 3.3943-5.3885 6.7483.1326 3.7804 15.8444 3.7804 15.7118 0-.0572-1.6315-.7085-3.1148-1.7082-4.2965 5.6264-1.2675 12.1719-1.2675 17.8854 0-.9165 1.1817-1.4638 2.665-1.4066 4.2965.1339 3.7804 15.8457 3.7804 15.7118 0-.117-3.354-2.652-6.1555-5.8604-6.7483" fill="#73cd91"/><path d="m326.16303328 282.92809647.3562-.5434c-4.6254-3.0264-11.3295-4.4902-17.9829-4.4954-6.6547.0052-13.2574 1.4677-17.6878 4.5032l.3692.5356-.1196-.6383c-3.393.6331-5.9241 3.5828-5.9228 7.1435l.0039.2652c.0234.7111.429 1.3039.962 1.7251.8073.6396 1.9539 1.0439 3.2851 1.326 1.3299.2769 2.8457.4121 4.3576.4121 2.0007-.0013 3.9871-.234 5.538-.728.7761-.2496 1.4469-.5616 1.9695-.9893.5161-.4173.9035-1.0166.9009-1.7212l-.0013-.0689v-.0013c-.0624-1.7927-.78-3.4138-1.8629-4.693l-.4953.4199.143.6344c2.7599-.6227 5.7577-.936 8.7672-.936 3.0082 0 6.0294.3133 8.8348.936l.1404-.6344-.5135-.3978c-.9529 1.2272-1.547 2.769-1.547 4.4616l.0052.2548c.0234.7111.429 1.3039.962 1.7251.8073.6396 1.9526 1.0439 3.2851 1.326 1.3299.2769 2.8457.4121 4.3576.4121 2.0007-.0013 3.9871-.234 5.5367-.728.7761-.2496 1.4482-.5616 1.9695-.988.5161-.4186.9035-1.0179.9009-1.7225l-.0013-.0689v-.0013c-.1339-3.6738-2.886-6.7119-6.3934-7.3632l-.117.6383.3562-.5434-.3562.5434-.1183.6396c2.912.5343 5.2299 3.0979 5.33 6.1308v.0247c-.0026.2262-.0988.4394-.4277.7189-.4862.4082-1.4534.7969-2.6468 1.0413-1.1934.2496-2.6104.3783-4.0326.3783-1.9097.0013-3.835-.234-5.2286-.6786-.6968-.2197-1.2558-.494-1.6016-.7735-.351-.2886-.4654-.5226-.4758-.7566l-.0039-.2093c.0013-1.3871.4823-2.6416 1.2753-3.666.1352-.1742.1729-.4095.0975-.6188-.0754-.208-.2548-.3653-.4706-.4134-2.9081-.6448-6.0177-.9659-9.1169-.9672-3.0992.0013-6.188.3211-9.0532.9672-.2223.0507-.4017.2119-.4732.4277-.0728.2171-.0273.4524.1196.6266.9178 1.0855 1.5041 2.4284 1.5548 3.8987v-.0013l.0013.026c-.0039.2262-.0988.4394-.4277.7189-.4862.4082-1.4547.7969-2.6468 1.0413-1.1934.2496-2.6117.3783-4.0339.3783-1.9097.0013-3.835-.234-5.2286-.6786-.6955-.2197-1.2545-.494-1.6003-.7735-.3523-.2886-.4654-.5213-.4758-.7566l-.0039-.2197c0-2.9315 2.0722-5.3417 4.862-5.8656l.2483-.104c4.082-2.8158 10.4897-4.2796 16.9507-4.2744 6.461-.0052 12.974 1.4573 17.2692 4.2822l.2392.0962z" fill="#1d2a30"/><path d="m336.75582439 188.37159647c.1521 7.0096-3.666 13.2678-9.7994 17.4421v17.0144l-12.2083-12.2083c-1.9266.3393-3.9247.5083-5.9839.5083-15.73 0-28.7144-10.1829-28.99-22.7565-.2769-12.5645 12.2512-22.7487 27.9916-22.7487 15.7287 0 28.7131 10.1842 28.99 22.7487" fill="#fff"/><path d="m336.75712566 188.37159647-.65.0143c.0026.13.0039.26.0039.39 0 6.5962-3.6439 12.4982-9.5199 16.4996-.1781.1222-.2834.3224-.2834.5382v15.4453l-11.0994-11.0981c-.1495-.1508-.3614-.2184-.572-.1807-1.8863.3315-3.8467.4979-5.8708.4979-7.7246.0013-14.7667-2.5038-19.8887-6.5247-5.1259-4.0248-8.3187-9.5368-8.4526-15.5961-.0026-.1313-.0039-.2626-.0039-.3926.0013-5.9644 2.9874-11.362 7.9157-15.3049 4.9257-3.9377 11.7845-6.3869 19.4311-6.3869 7.7246 0 14.7654 2.5038 19.8887 6.5247 5.1246 4.0235 8.3174 9.5329 8.4513 15.5883l.65-.0143.6487-.0143c-.143-6.5091-3.5802-12.3747-8.9479-16.5828-5.3716-4.2133-12.6854-6.8003-20.6908-6.8016-7.9235.0013-15.0618 2.5337-20.2423 6.6716-5.1792 4.134-8.4058 9.9073-8.4045 16.3202 0 .1404.0013.2808.0052.4212.143 6.513 3.5802 12.3799 8.9479 16.5906 5.3716 4.2133 12.6867 6.8016 20.6921 6.8016 2.0956 0 4.1314-.1716 6.097-.5174l-.1131-.6409-.4602.4602 12.2083 12.207c.1859.1859.4654.2418.7085.1417.2431-.1014.4017-.338.4017-.6006v-17.0144h-.65l.3653.5369c6.1568-4.1834 10.088-10.4806 10.088-17.5747 0-.1391-.0013-.2782-.0052-.4186z" fill="#1d2a30"/><path d="m295.73311677 188.22549774c0 2.0371-1.6523 3.6881-3.6881 3.6881-2.0384 0-3.6881-1.651-3.6881-3.6881s1.6497-3.6881 3.6881-3.6881c2.0358 0 3.6881 1.651 3.6881 3.6881" fill="#73cd91"/><path d="m295.73311677 188.22549774h-.65c-.0039 1.677-1.3611 3.0342-3.0381 3.0381-1.6783-.0039-3.0355-1.3598-3.0381-3.0381.0026-1.6783 1.3598-3.0355 3.0381-3.0381 1.677.0026 3.0342 1.3598 3.0381 3.0381h.65.65c-.0013-2.3959-1.9435-4.3381-4.3381-4.3381-2.3972 0-4.3381 1.9422-4.3381 4.3381s1.9409 4.3381 4.3381 4.3381c2.3946-.0013 4.3368-1.9422 4.3381-4.3381z" fill="#1d2a30"/><path d="m311.93311931 188.22549774c0 2.0371-1.6523 3.6881-3.6881 3.6881s-3.6881-1.651-3.6881-3.6881 1.6523-3.6881 3.6881-3.6881 3.6881 1.651 3.6881 3.6881" fill="#73cd91"/><path d="m311.93311931 188.22549774h-.65c-.0026 1.677-1.3611 3.0342-3.0381 3.0381-1.677-.0039-3.0342-1.3611-3.0381-3.0381.0039-1.6783 1.3611-3.0355 3.0381-3.0381 1.677.0026 3.0355 1.3598 3.0381 3.0381h.65.65c0-2.3959-1.9422-4.3381-4.3381-4.3381s-4.3368 1.9422-4.3381 4.3381c.0013 2.3959 1.9422 4.3368 4.3381 4.3381 2.3959-.0013 4.3381-1.9422 4.3381-4.3381z" fill="#1d2a30"/><path d="m328.12312058 188.22549774c0 2.0371-1.651 3.6881-3.6881 3.6881s-3.6868-1.651-3.6868-3.6881 1.6497-3.6881 3.6868-3.6881 3.6881 1.651 3.6881 3.6881" fill="#73cd91"/><path d="m328.12312058 188.22549774h-.65c-.0026 1.677-1.3598 3.0342-3.0381 3.0381-1.6783-.0039-3.0342-1.3598-3.0368-3.0381.0026-1.6783 1.3585-3.0355 3.0368-3.0381 1.6783.0026 3.0355 1.3598 3.0381 3.0381h.65.65c0-2.3959-1.9422-4.3381-4.3381-4.3381s-4.3368 1.9422-4.3368 4.3381 1.9409 4.3381 4.3368 4.3381c2.3959-.0013 4.3381-1.9422 4.3381-4.3381z" fill="#1d2a30"/><path d="m93.16337312 241.5664933-.00715.013c-.19448-.0715-.38844-.143-.59059-.208z" fill="#fff"/><path d="m88.66074502 323.53949838s2.94229 1.5314 4.12139 2.0566c1.18014.5265 1.06496 2.6767 1.06496 2.6767" fill="#fff"/><path d="m91.89807788 321.4209952s4.51087 3.2877 5.35938 4.251c.5083.5993.63635 1.4352.33163 2.158" fill="#fff"/><path d="m99.73317153 323.10289965s-4.31587-4.4876-4.87708-4.6761" fill="#fff"/><path d="m53.5913636 267.37189647c-.85059 12.3682-1.70118 24.7377-2.55177 37.1085.00403-.3172.0091-.6357.01378-.9529" fill="#1d2a30"/><path d="m52.9429236 267.32639647c-.85059 12.3695-1.70118 24.739-2.55177 37.1085l.64844.0455.64948.0091c.00455-.3172.00962-.6344.0143-.9529.00507-.3588-.28184-.6539-.6409-.6591s-.65403.2821-.6591.6409c-.00416.3172-.00923.6344-.01378.9529-.00507.3523.27014.6435.62309.6578s.65104-.2522.67535-.6045c.85059-12.3708 1.70118-24.739 2.55177-37.1085.02444-.3575-.2457-.6682-.60372-.6929-.35854-.0247-.66885.2457-.69316.6032" fill="#1d2a30"/><path d="m57.47344518 265.11940219c-.20969 3.4086-2.33337 6.357-4.37632 9.0935" fill="#1d2a30"/><path d="m56.82448518 265.07780092c-.1833 3.1525-2.20077 6.0151-4.24788 8.7451-.21528.2873-.15587.6942.13156.91.28795.2145.69524.1547.91-.1326 2.0384-2.7417 4.26816-5.7772 4.50385-9.4432.02236-.3575-.25038-.6656-.60892-.6877-.35802-.0221-.66677.2496-.68861.6084" fill="#1d2a30"/><path d="m459.67223962 246.46140219s-45.2998 14.0374-53.8265 2.9575l1.1453-56.5656h6.8874l8.0808 39.8398 37.128-6.7912s4.7554 14.742.585 20.5595" fill="#fff"/><g clip-path="url(#a)"><path d="m440.86153074 249.05300028c-2.5246 1.222-5.1935 2.2308-7.3905 3.9715 3.0706.962 6.3401-.2704 9.4055-1.248 4.0365-1.2883 8.1965-2.1502 12.3656-2.9055.1924-1.1596-1.2844-3.8012-1.8889-4.8204-1.0647-1.794-1.2558-1.9539-3.0953-1.0699-3.263 1.5678-6.0359 4.446-9.3964 6.0723" fill="#73cd91"/></g><path d="m459.67223962 246.46140219-.1924-.6201c-.0013 0-.3588.1105-1.0244.3068-4.6501 1.3767-24.2632 6.8861-38.3968 6.8796-3.1837.0013-6.0827-.2795-8.4448-.9295-2.3673-.65-4.1717-1.6653-5.2533-3.0758l-.5148.3965.65.013 1.1323-55.9299 5.7187.0013 7.9755 39.3198c.0715.3484.4056.5733.754.5096l37.128-6.7912-.117-.6396-.6188.1989c0 .0013.0338.1053.0949.3081.4342 1.4183 2.1762 7.5361 2.1723 12.9155.0052 2.6949-.4485 5.1805-1.5912 6.7587l.5278.3783-.1924-.6201.1924.6201.5291.3796c1.4001-1.9695 1.8291-4.6891 1.8343-7.5166-.0052-6.4454-2.3231-13.5902-2.3296-13.6227-.1001-.3094-.416-.4979-.7358-.4394l-36.5001 6.6768-7.9547-39.2158c-.0624-.3042-.3276-.52-.637-.52h-6.8874c-.3536 0-.6435.2834-.65.6357l-1.1453 56.5669c-.0026.1469.0442.2925.1352.4095 1.3312 1.7251 3.4125 2.8405 5.9384 3.536 2.5298.6942 5.5302.9763 8.7893.9763 16.4918-.0078 39.7748-7.241 39.806-7.2449.1352-.0416.2535-.1274.3367-.2418z" fill="#1d2a30"/><path d="m456.4946282 249.23590345 7.9729 48.9814c-.2197 31.7564 14.9305 26.9763 25.4449 26.8905 12.1537-.0988 30.6033-12.1537 21.5579-30.9101l3.4892-67.899-21.1913-1.6341c-6.9875-.5382-35.5836.3588-37.856 4.0105-5.9046 9.49.5824 20.5608.5824 20.5608" fill="#fff"/><g clip-path="url(#b)"><path d="m457.49673835 253.61890409c4.5942 17.6956 16.1876 33.4737 31.7044 43.1431-1.7082-.1326-3.2968-.8749-4.9179-1.4248-1.6224-.5499-3.432-.9048-5.0219-.2652-1.5886.6383-2.7261 2.6065-1.9383 4.1262.3276.6344.9165 1.0842 1.4989 1.4963 2.5766 1.8148 5.4093 3.2643 8.3889 4.2913-2.6104-.2691-5.2689-.0624-7.8052.6045-.4693 2.2542 2.0488 3.8402 4.0339 5.005 3.1642 1.859 5.9059 4.4304 7.9625 7.4698-6.9771.0182-13.9542.4186-20.8871 1.1999-.9282.104-1.9279.2015-2.7404-.2561-.9685-.5473-1.3754-1.7095-1.6822-2.7781-1.547-5.4015-2.4492-10.9876-2.6845-16.601-.1313-3.1616-.0533-6.3375-.416-9.4783-.2873-2.4765-.845-4.9114-1.3702-7.3463-2.0202-9.3639-3.5711-18.8279-4.6449-28.3465-.4732-.0195.52-.8398.52-.8398" fill="#73cd91"/></g><g clip-path="url(#c)"><path d="m512.11583074 248.72439711c-1.0569-.3354-3.211-1.2077-4.8334-2.5974.4082 1.9552 3.315 5.3144 5.0167 6.3596.3627.2223.8684.3978 1.1739.1027.2639-.2574.5161-1.0699.8346-1.2558z" fill="#73cd91"/></g><path d="m456.4946282 249.23590345-.6409.1053 7.9729 48.9814.6409-.1053-.65-.0039c-.0013.2288-.0026.4563-.0026.6825.0039 11.882 2.1762 18.6732 5.6147 22.5472 1.7173 1.9318 3.7466 3.1005 5.8877 3.7674 2.1424.6682 4.3953.8502 6.6209.8502 2.7846-.0013 5.5367-.2847 7.9794-.3029 5.1181-.0468 11.2112-2.1112 16.0862-5.8474 4.8685-3.7297 8.5293-9.1962 8.528-15.9913 0-3.094-.7592-6.4454-2.4752-10.0035l-.5863.2821.65.0338 3.4879-67.899c.0182-.3536-.247-.6552-.5993-.6825l-21.19-1.6341c-1.2454-.0949-3.1174-.1456-5.3937-.1456-5.4119 0-13.0832.2847-19.6599.949-3.2903.3328-6.3037.7592-8.6437 1.3-1.17.2717-2.1723.5694-2.9718.9139-.7969.351-1.4131.7163-1.7901 1.2974-1.9201 3.0875-2.5805 6.3414-2.5792 9.3262.0091 6.5598 3.1291 11.856 3.1538 11.908l.5603-.3289-.6409.1053.6409-.1053.5616-.3276-.0299-.0507c-.312-.546-2.9523-5.4431-2.9458-11.2008.0013-2.7976.611-5.7889 2.3842-8.6385.0923-.1729.507-.5031 1.1986-.7917 1.2051-.5213 3.1772-.9958 5.564-1.3858 7.1773-1.1791 18.1545-1.6718 25.1979-1.6705 2.2555 0 4.1106.0507 5.2936.1417l20.5595 1.586-3.4567 67.2672.0637.3159c1.6419 3.406 2.3465 6.5572 2.3465 9.438-.0013 6.3037-3.3761 11.3919-8.0197 14.9604-4.6345 3.5633-10.5261 5.5445-15.3049 5.5783-2.5311.0221-5.2715.3042-7.969.3029-2.1554.0013-4.2783-.1794-6.2335-.7917-2.9315-.9256-5.5081-2.7677-7.4412-6.5949-1.9253-3.8285-3.1499-9.6785-3.1486-18.4782 0-.2223.0013-.4472.0026-.6734l-.0078-.1092-7.9729-48.9814-.0806-.2236z" fill="#1d2a30"/><path d="m471.94653074 222.65080028c-2.2737 4.1457-3.3839 8.9219-3.1746 13.6448.0195.4134.0507.8398.2366 1.2103.5785 1.1557 2.1788 1.1505 3.4632 1.313 5.0024.6331 8.1185 5.915 12.8414 7.6843.3692.1378.7722.2548 1.1505.1456.3562-.104.6253-.3887.858-.6773 2.0553-2.5389 2.7846-6.2426 5.5874-7.9209 1.2194-.7293 2.7768-1.0296 3.6127-2.1801.9659-1.3286.5369-3.1707.0676-4.745-.7683-2.5857-1.6224-5.3053-3.6179-7.1201-1.9721-1.794-4.7463-2.3972-7.4035-2.6143-3.9195-.3211-7.8936.052-11.6844 1.0946.0325.5005-1.937.1651-1.937.1651" fill="#73cd91"/><path d="m471.94653074 222.65080028-.5694-.3133c-2.1463 3.9143-3.2799 8.3668-3.2799 12.8284 0 .3861.0078.7735.0247 1.1596.0234.4238.0455.9438.3055 1.4716.1976.3978.4979.7072.8294.9217 1.0062.6331 2.2165.6136 3.133.7449 2.2841.2847 4.2159 1.6614 6.1971 3.276 1.9799 1.6029 3.9806 3.4242 6.4974 4.3719.2912.1079.6422.2275 1.0608.2301.1599 0 .3289-.0195.5005-.0689.5863-.1794.9256-.585 1.1817-.8905v-.0013c1.0985-1.3624 1.8031-2.9614 2.5792-4.3823.7735-1.4287 1.6003-2.6533 2.8366-3.3904.5382-.325 1.2142-.5785 1.8967-.9035.6799-.3276 1.3884-.7397 1.9071-1.4521.5265-.7228.7059-1.5626.7046-2.3699-.0013-1.0296-.273-2.0449-.5382-2.9432-.7761-2.5857-1.6367-5.4327-3.8038-7.4152-2.1554-1.95-5.0778-2.5558-7.7883-2.782-.9282-.0754-1.8577-.1131-2.7885-.1131-3.0771 0-6.1542.4134-9.1221 1.2298-.2977.0819-.4966.3627-.4758.6695l.4615-.0299h-.4628l.0013.0299.4615-.0299h-.4628.4771l-.3172-.3601c-.0715.052-.1677.221-.1599.3601h.4771l-.3172-.3601.1885.2132-.1027-.2704-.0858.0572.1885.2132-.1027-.2704-.0221.0065c-.0533.0117-.1768.0234-.3172.0221-.2314.0013-.5096-.0234-.7241-.0494l-.2639-.0351-.0962-.0156c-.273-.0468-.546.0858-.6786.3276l.5694.3133-.1092.6409c.0195.0013.676.117 1.3026.1183.2327-.0013.4589-.0104.7046-.0806.1235-.0377.2613-.0897.4095-.2171.1482-.1196.2873-.3731.2795-.6136l-.0013-.0546-.6487.0416.1716.6266c2.8548-.7852 5.8162-1.183 8.7776-1.183.8957 0 1.7901.0364 2.6819.1092 2.6026.2093 5.2299.8112 7.02 2.4479 1.8239 1.6458 2.6689 4.2393 3.432 6.825.2587.8632.4875 1.7771.4849 2.5714-.0013.6279-.1313 1.1583-.4563 1.6055-.3159.4381-.8034.7514-1.417 1.0439-.6097.2938-1.3221.5551-2.0033.9607-1.5665.9412-2.5064 2.4063-3.3111 3.8844-.8034 1.4846-1.4911 3.0082-2.4466 4.186v-.0013c-.2119.2691-.4108.4342-.5343.4628l-.1378.0169c-.143.0026-.3614-.0546-.6045-.1469-2.2061-.8216-4.1236-2.5259-6.1334-4.1639-2.0085-1.6276-4.1353-3.2084-6.8549-3.5568-.6734-.0832-1.3702-.1261-1.9149-.2691-.2704-.0689-.4979-.1612-.6682-.273-.1716-.1144-.2886-.2379-.3796-.4173-.1118-.2132-.1534-.546-.169-.949v.0013c-.0156-.3666-.0234-.7332-.0234-1.1011-.0013-4.2406 1.0803-8.4851 3.12-12.2031l-.5707-.312-.1092.6409z" fill="#1d2a30"/><path d="m535.86212185 256.28969076c-3.1746-4.6085-5.525-9.7825-6.9095-15.2048-.6838-2.6832-1.1453-5.4587-2.3738-7.9417-1.9591-3.9611-5.8968-6.8822-10.2557-7.605-.936-.156-1.9214-.2106-2.808.1248-1.8785.7124-2.7092 2.8886-3.0914 4.8607-.819 4.2237-.5759 8.6489.7033 12.7556.8697 2.8015 11.336 23.1608 18.2715 31.0557-.6656-3.9754 3.9078-17.2731 6.4636-18.0453" fill="#fff"/><g clip-path="url(#d)"><path d="m515.2219282 252.44470155c2.1398 4.0378 4.2809 8.0743 6.422 12.1121.9126 1.7212 1.9578 3.5685 3.7531 4.329-1.1258-3.9975-1.7693-8.1302-1.9136-12.2811-.0715-2.0826-.026-4.2159-.7111-6.1828-.2626.2171-.5395-.7176-.5395-.7176-.2769.5356-1.0348.5512-1.625.4277-4.1938-.8775-7.0759-4.6228-9.5706-8.1068-.6812 2.3127-.1976 4.9387 1.261 6.8575 0 0 2.7105 3.1616 2.9237 3.562" fill="#73cd91"/></g><path d="m535.86212185 256.28969076.5356-.3692c-3.1304-4.5448-5.4496-9.6499-6.8146-14.9955-.6786-2.6468-1.1401-5.4704-2.4219-8.0704-2.0592-4.1561-6.1568-7.1942-10.7315-7.9573-.4563-.0767-.936-.1313-1.4261-.1326-.5655.0013-1.1505.0754-1.7186.2899-1.1219.4251-1.9071 1.2844-2.444 2.2503-.5395.9698-.8554 2.067-1.0556 3.0953-.325 1.677-.4875 3.3839-.4875 5.0908 0 2.7014.4043 5.4015 1.2077 7.982.1287.4108.3913 1.0374.78 1.8915 1.3546 2.9705 4.2211 8.5592 7.5192 14.2896 3.2994 5.7317 7.0122 11.5856 10.1062 15.1099.1911.2184.5044.2834.767.1586s.4095-.4082.3614-.6942c-.0364-.2184-.0559-.4914-.0559-.806-.0078-2.2256 1.0101-6.3245 2.3296-9.8631.6565-1.7719 1.3897-3.419 2.0865-4.6384.3484-.6097.689-1.1115.9893-1.4599.2964-.3536.5681-.5304.6617-.5499.1989-.0598.3562-.2106.4251-.4069.0689-.1976.0403-.4121-.078-.5837l-.5356.3692-.1885-.6227c-.5031.1612-.8827.5057-1.2688.9451-.6656.7761-1.3234 1.9188-1.9734 3.289-.9711 2.0527-1.9006 4.6033-2.5935 7.0538-.6916 2.4531-1.1518 4.784-1.1544 6.4675 0 .3679.0221.7085.0741 1.0205l.6409-.1079.4888-.429c-3.4021-3.8675-7.7532-10.92-11.3321-17.3264-1.7901-3.2032-3.393-6.2504-4.6007-8.6658-.6032-1.209-1.1076-2.2581-1.4859-3.0888-.3783-.8268-.6331-1.4495-.7215-1.7381-.7631-2.4531-1.1492-5.0245-1.1492-7.5959 0-1.625.1547-3.2487.4628-4.8438v.0013c.1833-.9438.4745-1.9214.9152-2.7105.4446-.7943 1.0127-1.3793 1.7706-1.6666.3822-.1456.8047-.2067 1.2571-.2067.3913 0 .8008.0455 1.2129.1144 4.1444.6838 7.9222 3.4853 9.7799 7.2527 1.1739 2.3647 1.6367 5.0934 2.327 7.8143 1.4027 5.4964 3.7856 10.7393 7.0031 15.4115l.5356-.3679-.1885-.6227z" fill="#1d2a30"/><path d="m527.0776155 270.85580028c-6.9927-13.4082-3.6114-44.2923-3.8285-49.2596l9.2326-.4888c.9243 0 5.1844 26.3341 8.1094 37.2671 2.6624 9.9567.1144 20.0278-4.498 20.0291-3.8207.0013-7.5465-4.732-9.0155-7.5478" fill="#fff"/><path d="m527.0776155 270.85580028.5772-.3003c-1.7524-3.354-2.8626-7.93-3.5178-12.9402-.6565-5.0115-.8671-10.4585-.8671-15.5805 0-8.9375.6383-16.848.6396-19.8796 0-.2184-.0039-.4147-.0104-.5876l-.65.0286.0338.6487 9.2326-.4888-.0338-.6487v.65-.5733l-.3575.4524c.0533.0429.1716.1196.3575.1209v-.5733l-.3575.4524.2392-.3042-.3172.2262.078.078.2392-.3042-.3172.2262.026-.0182-.0273.0156.0013.0026.026-.0182-.0273.0156c.0182.026.1014.2145.1846.4797.3276 1.0153.8242 3.2292 1.4053 6.0762 1.7537 8.5644 4.3381 22.9866 6.3284 30.4304.7267 2.7209 1.0582 5.4535 1.0582 7.9716.0013 3.2526-.5577 6.149-1.4833 8.1692-.4615 1.0114-1.0127 1.7979-1.599 2.3101-.5902.5122-1.1895.7579-1.846.7605h-.0013c-1.6315.0117-3.4086-1.053-4.9374-2.5363-1.5288-1.4716-2.8015-3.3189-3.4996-4.6618l-.5772.3003-.5759.3003c.7696 1.4716 2.0943 3.3982 3.7505 4.9972 1.6549 1.5873 3.6504 2.8886 5.8396 2.9003h.0013c1.0062.0026 1.9357-.4069 2.7027-1.0829 1.1557-1.0192 2.0124-2.6156 2.6091-4.5838.5941-1.9695.9152-4.3225.9165-6.8731-.0013-2.6312-.3445-5.4717-1.1024-8.307-1.4521-5.4236-3.25-14.742-4.7944-22.6902-.7735-3.9754-1.4846-7.6102-2.0618-10.2622-.2899-1.326-.5447-2.405-.7618-3.172-.1105-.3848-.208-.689-.3094-.9295-.0533-.1222-.1027-.2275-.182-.3432l-.1794-.1924c-.0858-.0676-.2353-.1586-.4485-.1599l-.0351.0013-9.2313.4888c-.3575.0182-.6305.3211-.6149.6773.0052.1469.0091.325.0091.5304.0013 2.9081-.6396 10.8992-.6396 19.8796 0 5.1571.2106 10.6535.8788 15.7495.6695 5.096 1.7888 9.7916 3.653 13.3718z" fill="#1d2a30"/><path d="m442.24412693 235.93670409c3.1499-4.5851 7.8299-7.0876 11.7494-8.4357 1.9565-.6734 3.718-1.0569 4.9855-1.2714.6331-.1079 1.144-.1729 1.4924-.2106.1755-.0195.3094-.0312.3991-.039l.1287-.0104c.3588-.0208.6318-.3289.611-.6864-.0221-.3588-.3289-.6318-.6877-.611-.039.0039-3.2721.1963-7.3515 1.6003-4.0768 1.4027-9.0233 4.0248-12.3981 8.9284-.2028.2951-.1287.7007.1677.9035.2951.2041.7007.1287.9035-.1677" fill="#1d2a30"/><path d="m415.80343455 241.0715952c2.2503-1.8772 3.9546-5.0284 4.5032-6.4922" fill="#fff"/><path d="m416.21943455 241.5707952c2.3933-2.0111 4.0989-5.1948 4.6956-6.7639.1261-.3354-.0442-.7098-.3809-.8359-.3354-.1261-.7111.0442-.8359.3809-.5005 1.3572-2.2022 4.4772-4.3108 6.2205-.2756.2301-.3133.6396-.0832.9152s.6396.3133.9152.0832" fill="#1d2a30"/><path d="m465.18441677 287.63509076c.9724 1.5652 2.9341 2.9757 5.5042 4.3329 7.7142 4.03 21.0275 7.3255 29.3189 7.3372 1.131 0 2.171-.0624 3.0979-.1963.3562-.052.6019-.3822.5499-.7371-.0507-.3549-.3809-.6019-.7358-.5499-.8476.1235-1.8291.1833-2.912.1833-5.3092.0026-13.0065-1.4495-19.7392-3.5867-3.3683-1.066-6.5-2.3049-8.9765-3.6023-2.4765-1.2896-4.2861-2.6741-4.9985-3.8597-.1872-.3068-.5876-.403-.8931-.2145-.3068.1872-.403.5876-.2158.8931" fill="#1d2a30"/><path d="m472.39243201 305.29629139c2.8574.494 5.7564.741 8.6554.741 4.1951 0 8.3902-.5161 12.4592-1.5444.3471-.0871.559-.4407.4706-.7891s-.4407-.559-.7891-.4706c-3.9624 1.001-8.0522 1.5041-12.1407 1.5041-2.8249 0-5.6498-.2405-8.4344-.7228-.3536-.0611-.689.1768-.7514.5304-.0611.3536.1768.6903.5304.7514" fill="#1d2a30"/><path d="m504.46602439 244.80420536c1.5223 2.0644 3.0446 4.1301 4.5656 6.1945.2964.4004.6526.8385 1.092 1.2012.4368.3575.9841.6591 1.6419.6617.1521 0 .3055-.0169.4602-.0507.3497-.0793.5694-.4277.4901-.7774-.0793-.351-.4277-.5707-.7774-.4914l-.1729.0195c-.2314.0026-.5109-.1144-.8177-.3666-.3029-.2483-.6071-.6084-.8684-.9672h-.0013c-1.521-2.0644-3.0433-4.1301-4.5656-6.1958-.2132-.2886-.6201-.3497-.9087-.1365-.2899.2132-.351.6201-.1378.9087" fill="#1d2a30"/><path d="m540.03053455 485.47435362c-.3978 1.658527-.5278 3.62427.65 4.857736 1.1037 1.1573094 2.9016 1.2065677 4.4993 1.1781302 1.8317-.0325 3.6621-.065 5.4925-.0990236 2.1216-.0375778 4.3121-.0908986 6.2387-.9785516 1.9266-.886639 3.5282-2.845791 3.3098-4.955743-.0858-.829257-.4368-1.605708-.7839-2.363361-.4901-1.071486-.9789-2.142465-1.469-3.213951-6.11-13.371722-15.3374-5.238532-17.9374 5.574764" fill="#fff"/><path d="m540.03180408 485.47435362-.6318-.152334c-.1716.719056-.3003 1.50007-.3003 2.288195-.0013 1.114139.2639 2.280083 1.1128 3.170791.6006.6317142 1.3637.9775337 2.1333 1.1633934.7748.1843361 1.5717.2208986 2.3231.2208986.1768 0 .3523-.00152344.5239-.00507812 1.8317-.03250007 3.6621-.06652341 5.4925-.09902341 2.1216-.04164017 4.4057-.07921927 6.4987-1.03847627.9997-.4615962 1.911-1.1725402 2.587-2.0566442.676-.88257 1.1206-1.951521 1.1206-3.101722 0-.150813-.0078-.30316-.0234-.455-.1027-.969917-.494-1.805778-.8385-2.566473-.4901-1.070979-.9789-2.142465-1.469-3.213444-1.1609-2.540109-2.4453-4.359069-3.8259-5.564039-1.378-1.20354-2.8769-1.78347-4.3602-1.77996-2.5207.0091-4.8425 1.59653-6.7366 3.96396-1.8967 2.37913-3.3995 5.588518-4.238 9.072622l.6318.152334.6331.15184c.7943-3.316014 2.2373-6.373549 3.9897-8.565726 1.755-2.20194 3.7882-3.48361 5.72-3.47503 1.1466.00312 2.3101.42406 3.5061 1.46003 1.1908 1.03636 2.3907 2.70049 3.4983 5.124795.4888 1.070966.9776 2.142452 1.469 3.213431.3484.756639.6591 1.471639.7267 2.159222l.0169.321438c.0013.808444-.3146 1.607736-.8528 2.311062-.5356.703313-1.2896 1.296438-2.0982 1.666639-1.7589.816569-3.8584.885625-5.9787.919139-1.8304.034021-3.6608.066521-5.4925.099021h.0013c-.1677.003562-.3354.005083-.5018.005083-.7072.0015236-1.4092-.037583-2.0176-.185861-.611-.148278-1.1141-.392535-1.4989-.795743-.5356-.560118-.7514-1.348243-.7527-2.273479-.0013-.643396.1079-1.334021.2652-1.984021z" fill="#1d2a30"/><path d="m531.95030915 469.59826731c.1924 6.13327-.3237 12.287483-1.5392 18.301504-.2756 1.369069-.0247 3.4318024 1.3663 3.3058649.4914-.0441792.8892-.4016792 1.2415-.7475039 4.7593-4.677452 8.2173-10.664056 9.8904-17.124965.3614-1.39347.6149-2.97271-.1443-4.19757-.3393-.54743-.8489-.9633-1.3507-1.3676-4.3589-3.52664-9.867-7.02143-9.464 1.83027" fill="#fff"/><path d="m531.95030915 469.59826731-.65.01976c.026.82771.039 1.65594.039 2.48573 0 5.25694-.5239 10.514257-1.5652 15.667548-.0728.361049-.1118.75257-.1118 1.150188.0026.638326.0936 1.289847.3731 1.8606276.1417.2833597.338.5525.6149.7551167.2756.2051569.6344.3260153 1.0075.3234764l.1768-.0076167h.0013c.3874-.0350389.715-.1924611.9776-.3691792.2639-.178243.4771-.3823833.6617-.5631652h-.0013c4.8451-4.7602386 8.3616-10.8483986 10.0646-17.4250856.195-.75413.3692-1.5834.3692-2.4284.0013-.7657-.1482-1.56091-.5902-2.27344-.4186-.6708-.9945-1.12476-1.495-1.53153-1.1726-.94913-2.4336-1.90333-3.6712-2.6325-1.2402-.72514-2.4466-1.25073-3.6127-1.25996-.4719 0-.9425.09659-1.3676.32409-.6422.34177-1.1323.9633-1.4339 1.78997-.3068.83187-.4576 1.88604-.4589 3.23583 0 .28847.0078.59163.0221.9074l.65-.02886-.65.01976.65-.01976.6487-.03003c-.013-.29861-.0208-.58097-.0208-.84851-.0026-1.6692.2678-2.73663.6279-3.30746.1794-.28834.3692-.45851.5785-.57174.2093-.11167.4524-.16913.754-.17069.7423-.00754 1.8122.40066 2.9523 1.07913 1.144.67496 2.366 1.59406 3.5139 2.5233.5031.40326.9477.78156 1.2077 1.20666.2808.4524.3952.9841.3952 1.58834.0013.66326-.1443 1.39659-.3276 2.1034-1.6419 6.344104-5.0427 12.230673-9.7175 16.823326-.1677.166569-.3302.314847-.4758.412347-.1469.098514-.2652.142688-.3679.15184l-.0611.002535c-.117-.002535-.1716-.025896-.2405-.072618-.0988-.067535-.2288-.249847-.3172-.538278-.091-.283361-.1391-.654069-.1378-1.028326 0-.310778.0312-.624104.0858-.892736 1.0582-5.238077 1.5912-10.58226 1.5912-15.925 0-.8424-.013-1.68493-.0403-2.52642v-.0091z" fill="#1d2a30"/><path d="m516.69863962 310.24009711s6.8445 11.9132 8.3122 14.6848c1.469 2.7729 32.5546 43.55273 38.454 73.242 1.1206 5.6368-21.7737 68.74517-21.7737 68.74517l-5.1714-2.94437s3.6114-57.5549 2.7339-62.3324c-.8775-4.76996-23.7276-40.08927-23.7276-40.08927s-12.7608-9.38223-17.9998-20.26713z" fill="#1d2a30"/><path d="m516.94063201 340.11219647s-3.9481 8.6814-3.9585 9.9294c-.0104 1.2467 21.4565 69.02597 27.7511 84.71177 4.0014 10.09489 7.5231 20.436 10.5482 30.98576 0 0 2.444 3.21347.5967 6.48024-1.8473 3.2708-9.1832 5.438108-10.699 2.4999-1.5145-2.9341-16.3696-18.20507-22.6291-33.38517-6.2257-15.09417-15.0371-40.52334-20.0525-50.0123-6.5845-12.09767-12.415-24.5635-17.4616-37.3191-6.3141-16.1343-12.7543-33.5179-12.7543-33.5179 2.6208.2314 5.252.3016 7.8754.2119 6.1607-.208 12.2902-1.2883 18.2169-3.224 13.6968-4.6007 19.6261-13.4069 19.6261-13.4069s3.3943 9.1845 4.2692 10.9642z" fill="#1d2a30"/><path d="m561.34540915 404.10769552c-1.2922 2.2165-3.0446 4.1665-5.122 5.6615-.2912.21073-.3575.61607-.1482.90753.2093.29094.6162.3575.9074.1482 2.2308-1.60719 4.1041-3.69226 5.486-6.0632.1807-.30927.0754-.70837-.234-.8892-.3107-.18083-.7085-.07566-.8892.23517" fill="#fff"/><path d="m563.06592693 400.30852711c-.1924.60931-.4199 1.20913-.6773 1.79517-.1443.32903.0052.71084.3341.85657.3289.1443.7124-.00507.8567-.3341.2756-.62764.5187-1.26997.7267-1.92517.1079-.34164-.0819-.70733-.4238-.81497-.3419-.1092-.7072.08021-.8164.4225" fill="#fff"/><path d="m503.91473201 318.68530536c3.1772 5.4561 6.1555 13.1781 6.1477 19.5702 0 .4914-.0182.975-.0533 1.4495-.0117.1742-.091.5057-.2132.8645-.182.5434-.4485 1.1687-.6695 1.6497-.1105.2405-.2093.4472-.2795.5928-.0702.1443-.1118.2262-.1118.2262-.1625.3198-.0351.7111.286.8736.3198.1625.7111.0351.8736-.286.0039-.0065.3237-.637.6578-1.4144.1664-.39.338-.8164.4758-1.2285.1378-.4147.2457-.8047.2769-1.1791.0377-.5096.0572-1.0257.0572-1.5483-.0091-6.7808-3.0693-14.6107-6.3232-20.2228-.1807-.3107-.5785-.416-.8892-.2353s-.416.5785-.2353.8879" fill="#fff"/><path d="m482.22033455 325.17479838c.2366 2.0852.5239 5.0349.5239 7.7129.0013 1.5613-.1001 3.0329-.3497 4.1561-.6929 3.1369-2.3868 6.1295-5.0245 7.7753-.3042.1898-.3965.5915-.2054.8957.1898.3042.5915.3965.8957.2054 3.0251-1.8993 4.8503-5.2078 5.603-8.5943.2821-1.2792.3796-2.821.3809-4.4382 0-2.7677-.2938-5.7538-.5317-7.8598-.0416-.3562-.3627-.6123-.7202-.572-.3562.0403-.6123.3627-.572.7189" fill="#fff"/><path d="m512.85853962 312.56510092c.7124.6721 1.0738 1.8096 1.6939 2.9575.9867 1.7797 2.418 3.3371 3.9988 4.5201 1.5834 1.1804 3.3163 1.9916 4.9543 2.2334.3549.052.6851-.1937.7371-.5499.052-.3549-.1937-.6851-.5499-.7371-1.3468-.1937-2.9211-.9074-4.3628-1.9877-1.4443-1.0777-2.7599-2.5155-3.64-4.108-.5473-.9646-.9061-2.2529-1.9266-3.2617-.2574-.2496-.6682-.2431-.9191.0143-.2496.2574-.2431.6695.0143.9191" fill="#fff"/><path d="m501.4620282 326.3527952c4.5669 9.997 8.0821 20.0577 15.2152 37.12826.1378.33111.5187.4875.8502.3484.3302-.13819.4875-.51896.3484-.85059-7.1214-17.03897-10.6301-27.09187-15.2308-37.16687-.1495-.3263-.5356-.4706-.8619-.3211s-.4706.5343-.3211.8619" fill="#fff"/><path d="m498.7832282 320.65539711c.3887.7813.767 1.5587 1.1362 2.3296.1547.325.5434.4615.8671.3068.3237-.156.4602-.5434.3055-.8671-.3718-.7774-.7527-1.56-1.144-2.3478-.1599-.3211-.5499-.4524-.871-.2925-.3224.1599-.4537.5499-.2938.871" fill="#fff"/><path d="m538.04763328 399.52129679c2.1242 4.1067 4.8438 7.90413 8.0483 11.2385.2483.25896.6604.26754.9191.0182.2587-.2483.2665-.66066.0182-.9191-3.1174-3.24337-5.7642-6.93927-7.8312-10.93417-.1651-.31993-.5564-.44486-.8762-.27989-.3185.16562-.4433.55809-.2782.87646" fill="#fff"/><path d="m540.21173962 403.29215679c1.3806 6.42174 3.9442 12.57334 7.5049 18.09691.1937.3016.5967.38896.8983.19396.3016-.19396.3887-.5967.1937-.8983-3.4749-5.39253-5.9787-11.39996-7.3255-17.66583-.0754-.35087-.4212-.57486-.7722-.4992-.351.07514-.5746.42094-.4992.77246" fill="#fff"/><path d="m507.74413708 402.01212425c-10.1296-21.62017-20.9183-43.03663-34.1874-75.67443-.1352-.3328-.5135-.4927-.8463-.3575s-.4927.5135-.3575.8463c13.2873 32.68213 24.0955 54.14136 34.2147 75.73657.1521.325.5395.46566.8645.3133.325-.15184.4654-.53924.312-.86424" fill="#fff"/><path d="m510.55251804 409.47163092c-.2509-.76323-.5135-1.52906-.7852-2.29333-.1209-.33813-.4927-.51493-.8307-.39507-.338.1209-.5148.49257-.3939.83083.2678.75504.5265 1.51021.7761 2.26434.1118.34073.4797.5265.8203.41327.3406-.11167.5265-.47931.4134-.82004" fill="#fff"/><path d="m545.92713962 476.62892584c-1.2779-1.67076-6.669-9.14173-12.3097-17.67493-5.642-8.52826-11.5518-18.16503-13.8606-24.08003-3.1343-8.01424-5.4886-13.64584-7.8338-21.59014-.1014-.34476-.4628-.54236-.8073-.43979-.3432.10166-.5408.46319-.4394.80743 2.366 8.01593 4.7437 13.70083 7.8689 21.69583 2.4011 6.1308 8.3252 15.75483 13.988 24.32417 5.6628 8.56427 11.0474 16.02757 12.3617 17.7476.2184.28483.6253.33917.9113.1209.2847-.2184.3393-.62517.1209-.91104" fill="#fff"/><path d="m538.02431804 426.06286663 9.0103 26.48503c.1157.33917.4849.52143.8255.40573.3393-.11583.5213-.48503.4056-.8242l-9.0116-26.48503c-.1157-.34073-.4849-.52247-.8242-.40677-.3393.11531-.5213.48503-.4056.82524" fill="#fff"/><path d="m531.93763074 220.14640282-2.7391.2275c-2.0631.1716-4.537.9425-10.3714-.4797-2.1736-.5304-7.1981-2.0969-7.7818-2.2035-1.1895-.234-3.3332-.6435-4.5318-.7215-4.5799-.2821-2.2607-1.9877-.351-1.9084 2.5233.1157 3.3722.0572 5.3014.2041-.2249-.1274-.9464-.273-.9542-.8385-.0299-1.365 1.7927-1.2766 1.7927-1.2766s-1.9682-.8385-1.6952-1.8707c.2418-.9061 1.5873-1.2857 2.4258-1.2181 0 0-1.1102-.5265-1.053-1.1011.2236-2.2126 4.7645-2.3686 4.7645-2.3686-1.2961-.7696-2.2113-1.0322-3.0485-1.8902-.3354-.3432-.5811-.8034-.689-1.2688-.247-1.0855.897-1.9045 1.8733-1.3676 1.2077.663 2.2347 1.716 3.3852 2.5298 1.404.9932 3.0303 1.6367 4.5123 2.5324.6422.39 2.6884 2.6897 3.4203 4.4837.2145.39 5.7395 8.5358 5.7395 8.5358" fill="#fff"/><path d="m531.93893201 220.14640282-.0533-.6474-2.7404.2275c-1.183.1014-2.3673.3601-4.1353.3601-1.4898 0-3.3995-.1833-6.0281-.8242-1.0595-.2587-2.8587-.7813-4.4564-1.2519-.8008-.2353-1.5509-.4576-2.1411-.6292-.6006-.1729-.9971-.2873-1.2207-.3302l-.117.6396.1248-.6383c-1.1999-.234-3.3358-.6461-4.6137-.7319h-.0026c-.9451-.0559-1.5639-.1833-1.8772-.3055-.1573-.0585-.2314-.117-.2327-.1209l-.1079.1105.1365-.065-.0286-.0455-.1079.1105.1365-.065-.2782.1326h.3068l-.0286-.1326-.2782.1326h.3068-.247l.2223.117.0247-.117h-.247l.2223.117-.0299-.0156.0273.0208.0026-.0052-.0299-.0156.0273.0208c.0091-.0299.2288-.2002.5317-.3029.3016-.1118.6825-.1846 1.0283-.1833l.1014.0013h-.0026c2.548.117 3.3891.0585 5.2819.2028.3029.0234.5824-.1677.6708-.4589s-.0364-.6045-.3016-.7553c-.1352-.0728-.2249-.1014-.3172-.1404-.1365-.0533-.2548-.1157-.2977-.1534l-.0195-.0182-.0507.0312.0611-.0013-.0104-.0299-.0507.0312.0611-.0013v-.0039l-.0013-.0182c.0039-.1651.0377-.2236.0832-.286.0663-.091.2444-.1924.4641-.2444.2145-.0559.4433-.065.5304-.065l.0312.0013h.0026c.3133.0156.5954-.1976.6656-.5044.0702-.3055-.0897-.6201-.3783-.7436l-.0546-.0247c-.1391-.0637-.5187-.2548-.8229-.4927-.1521-.117-.2834-.247-.3588-.3536l-.0897-.2041.0039-.0312v.0013c.0364-.1573.2067-.3523.5356-.5083.3172-.1534.7449-.2379 1.0647-.2353l.1456.0052c.312.026.5993-.1768.6799-.4797.0819-.3029-.0663-.6214-.3497-.7553l-.0273-.0143c-.078-.0377-.3003-.1612-.4667-.2977l-.1781-.1794-.0182-.0299-.1339.052h.1417l-.0078-.052-.1339.052h.1417-.221l.2197.0221.0013-.0221h-.221l.2197.0221v-.0013c.0351-.3211.2054-.5733.5694-.8385.5369-.39 1.4508-.6578 2.2139-.7891.3809-.0676.7254-.1066.9724-.1287.1235-.0117.221-.0182.2886-.0221l.0962-.0052c.2886-.0104.5356-.2093.6071-.4888s-.0494-.572-.2977-.7202c-.6786-.4017-1.2493-.6682-1.7186-.9243-.4719-.2574-.8398-.4953-1.1986-.8606h.0013c-.2457-.2483-.4433-.6162-.52-.9607v.0013l-.0182-.1534c.0013-.1703.0663-.3042.1781-.4147.1131-.1079.2717-.1755.4355-.1742.104 0 .2119.0234.3302.0884 1.0933.5941 2.1099 1.6263 3.3241 2.4908h-.0013c1.4911 1.0517 3.1343 1.6965 4.5513 2.5584.0611.0338.3068.2353.5759.5122.8307.8372 2.0995 2.4622 2.5792 3.6608l.0325.0676.1222.1989c.7982 1.2363 5.6459 8.385 5.6485 8.3889l.5382-.3653-.0533-.6474.0533.6474.5382-.3653c-.0026-.0039-1.3806-2.0358-2.7885-4.1197-.7046-1.0426-1.4144-2.0969-1.9617-2.9146-.2743-.4082-.507-.7579-.6773-1.0153-.0845-.13-.1534-.2353-.2041-.3133l-.0598-.0936-.0156-.026-.0026-.0052-.1248.0728.1261-.0689-.0013-.0039-.1248.0728.1261-.0689-.5694.3133.6019-.2457c-.4095-.9984-1.131-2.0488-1.8395-2.9302-.3536-.4394-.7046-.8333-1.0166-1.1505-.3172-.3185-.5694-.5512-.8294-.7124-1.5457-.9308-3.1577-1.5717-4.4733-2.5077v-.0013c-1.0894-.7618-2.1268-1.8343-3.4476-2.5675-.3055-.169-.637-.2509-.9568-.2496-.5083 0-.9815.1989-1.3325.5343-.351.3328-.5824.8164-.5811 1.3546 0 .1456.0169.2938.0507.442v.0013c.1365.585.4316 1.1388.8567 1.5769v.0013c.4797.4914.9893.8138 1.508 1.0946.5213.2821 1.0569.533 1.6744.8996l.3315-.559-.0221-.6487c-.0273.0013-1.1947.039-2.4453.377-.6266.1703-1.2779.4134-1.8343.8073-.5512.3861-1.0322.9828-1.1089 1.7667v-.0013l-.0052.1118c.0026.351.1547.6123.3042.8021.2314.2886.5005.4758.7189.6162.2184.1378.3874.2184.403.2262l.2782-.5876.052-.6487-.2496-.0091c-.5174.0026-1.0907.1118-1.6224.3614-.5213.247-1.0465.6656-1.2337 1.3468l-.0013.0013c-.0312.1209-.0468.2444-.0468.364.0013.4407.1963.7956.4121 1.0647.3302.4069.7449.6838 1.0842.8866.338.2002.6019.312.6201.3198l.2548-.598.0312-.6487-.0975-.0026c-.2093.0039-.7033.013-1.2363.2327-.2652.1118-.5499.2847-.7761.5681-.2275.2808-.3679.6721-.3653 1.0946l.0013.0468v-.0039c.0013.2808.1079.5486.2535.7345.2197.2834.4797.416.6799.5109l.2574.1092.078.0325.0182.0078.0195-.0403-.0221.039.0026.0013.0195-.0403-.0221.039.3198-.5655.0494-.6487c-1.9669-.1482-2.821-.0897-5.3209-.2054h-.0039l-.1547-.0026c-.6331.0013-1.2493.1456-1.7589.3783-.2548.1196-.4849.2587-.6838.4485-.1898.1872-.3848.455-.39.8372-.0039.2964.1482.5785.3367.754.286.2704.6383.4134 1.1063.5382.4693.1209 1.0634.2067 1.8304.2535h-.0026c1.118.0715 3.2695.4784 4.4473.7111l.0078.0013c.0689.0104.5187.1326 1.0933.299 1.7576.5096 4.9868 1.4898 6.6534 1.8967 2.7118.6604 4.7346.8606 6.3349.8606 1.8941 0 3.1889-.2795 4.2432-.364l2.7391-.2288c.2301-.0182.4342-.1599.533-.3666.0988-.208.0806-.455-.0481-.6461z" fill="#1d2a30"/><path d="m406.42593708 191.69999774v-7.2098c0-3.5932.4953-7.1747 1.5704-10.6028.5954-1.8993 1.287-3.5555 1.9383-3.7947 1.1791-.4342 1.7017 4.3667 1.7017 4.3667s-1.7017-7.4932-1.7017-11.661 5.6108 13.1495 5.6108 13.1495l-2.2321 15.7521z" fill="#fff"/><path d="m406.42853962 191.69999774h.65v-7.2098c0-3.5334.4862-7.0499 1.5405-10.4078.2912-.9321.6071-1.7992.9139-2.4323.1508-.3159.3016-.572.4277-.7384l.1586-.1755.0416-.0325.0013-.0013-.0754-.2041v.2171l.0754-.013-.0754-.2041v.2171-.2236l-.1027.2002.1027.0234v-.2236l-.1027.2002.026-.0533-.0351.0481.0091.0052.026-.0533-.0351.0481c.0247 0 .2197.273.351.6591.2158.5785.39 1.391.5005 2.041.0559.3263.0975.6149.1261.819.0273.2054.039.3237.0403.3237l.6461-.0702.6331-.1443c0-.0013-.104-.4615-.2626-1.2246-.4771-2.2802-1.4261-7.2813-1.4222-10.2921-.0013-.1911.0195-.3107.0208-.3107l-.3354-.0975.2587.2249.0767-.1274-.3354-.0975.2587.2249-.4134-.3588v.5447c.1651.0078.3523-.1014.4134-.1859l-.4134-.3588v.5447-.4706l-.2782.39c.0273.0169.1079.0767.2782.0806v-.4706l-.2782.39.091-.1274-.1079.1131.0169.0143.091-.1274-.1079.1131c.0273.013.2366.3185.4433.7449.7618 1.521 1.9422 4.7242 2.9133 7.5101.4875 1.3962.9256 2.6936 1.2415 3.6426.3159.9477.5083 1.5431.5096 1.5444l.6175-.2002-.6435-.091-2.1528 15.1931h-6.3232v.65h.65-.65v.65h6.8874c.3237 0 .598-.2392.6435-.559l2.2321-15.7521-.0247-.2912c-.0013-.0039-1.1193-3.4567-2.3621-6.9173-.6214-1.7316-1.2727-3.4632-1.8356-4.7801-.2834-.6591-.5421-1.2116-.7774-1.6276-.1196-.2093-.2301-.3822-.3588-.5369l-.2379-.2249c-.1001-.0689-.247-.156-.4771-.1599-.2236-.0078-.4615.1261-.5681.2626-.1677.2054-.1937.3653-.2262.5226-.0273.1573-.0364.3198-.0364.5122.0013 2.1658.4329 5.0934.8606 7.5075.4277 2.4089.8554 4.29.8567 4.2965.0767.3367.4004.5551.741.4979s.5759-.3679.5395-.7111c-.0026-.0143-.1222-1.1284-.3861-2.2737-.1339-.5746-.299-1.1544-.5291-1.6432-.1183-.2444-.2496-.4706-.4407-.6695-.1833-.195-.4745-.3874-.8424-.3874-.1287-.0013-.2574.0247-.3744.0676-.3549.1378-.5785.377-.7865.6435-.5993.8047-1.0842 2.1099-1.547 3.5672-1.0972 3.4957-1.6003 7.1448-1.6003 10.7965v7.2098c0 .1703.0689.338.1898.4589s.2886.1911.4602.1911z" fill="#1d2a30"/><path d="m413.31831042 180.10121044c.6747-.5161 1.1895-1.2415 1.4534-2.0501" fill="#fff"/><path d="m413.71221042 180.61600917c.7826-.598 1.3715-1.4274 1.677-2.3634.1118-.3419-.0741-.7085-.416-.8203-.3406-.1118-.7085.0754-.819.416-.2223.6812-.6617 1.3-1.2311 1.7342-.2847.2184-.3393.6266-.1209.9113.2171.286.6253.3406.91.1222" fill="#1d2a30"/><path d="m469.37733835 207.78560345c2.4453 4.0833 3.8064 8.7243 3.9559 13.4797.2288 7.9066 9.386 18.9774 12.0042 19.5 2.6182.5239 5.0258-12.4709 4.9101-16.419s-1.5704-14.8213-1.5704-14.8213-12.5775-9.4692-19.2998-1.7394" fill="#fff"/><path d="m469.37733835 207.78560345-.5577.3341c2.3881 3.9884 3.718 8.5202 3.8649 13.1664l-.0013-.0013c.1339 4.1886 2.5415 8.983 5.2221 12.87 1.3429 1.9396 2.7599 3.6452 4.0235 4.914.6331.6344 1.2259 1.1609 1.7654 1.5574.5447.3939 1.014.6695 1.5158.7774l.2808.0273c.5889-.0065 1.0452-.338 1.4066-.7384.6344-.7176 1.1388-1.807 1.6159-3.1356 1.4092-3.9819 2.3816-10.0607 2.3881-12.922l-.0039-.3068c-.1209-4.0313-1.5756-14.8746-1.5756-14.8889-.0234-.1729-.1157-.3289-.2535-.4329-.0208-.0156-1.6328-1.2285-4.0287-2.4479-2.3972-1.2168-5.577-2.4544-8.7893-2.4583-2.6169-.0091-5.2884.8632-7.3632 3.2591-.1846.2119-.2119.52-.0676.7605l.5577-.3341.4914.4264c1.8213-2.0839 4.0313-2.8041 6.3817-2.8119 2.8717-.0052 5.9059 1.1453 8.2004 2.3166 1.1479.5837 2.1125 1.17 2.7859 1.6068.338.2197.6019.4017.7813.5278l.2028.1456.065.0468.3913-.5187-.6448.0858c.0013.0026.091.6773.2288 1.7576.4147 3.2305 1.2532 10.1049 1.3364 12.9974l.0039.2691c.0039 1.9838-.5577 6.019-1.4235 9.4783-.4316 1.7316-.9438 3.3319-1.4768 4.4525-.2639.5603-.5369.9984-.7722 1.2584-.2405.2704-.4017.3133-.4381.3068l-.026-.0026c-.1534-.0234-.5434-.208-1.001-.5499-1.6393-1.1973-4.2692-4.1509-6.4493-7.6141-2.1918-3.4619-3.9455-7.4659-4.0313-10.7172v-.0013c-.1534-4.8672-1.5457-9.6161-4.0482-13.7943l-.5577.3341.4914.4264z" fill="#1d2a30"/><path d="m473.12253201 218.12450409s11.9964 16.3748 16.7024-.2743c4.706-16.6504-13.1963 4.55-16.7024.2743" fill="#1d2a30"/><path d="m493.25561169 205.84140282c-.6331 9.7149-5.0661 15.1723-10.1829 16.1265-4.667.8671-11.4881-3.9169-14.8993-10.9525l-.0091-.0104c-.2626-.1742-4.4057-3.0498-5.3989-3.7505-1.0231-.7306-1.7147-1.9487-1.6562-3.2071.0585-1.1986.8957-2.3673 2.0462-2.7092l.1261-.0377c.5954-.1469 1.1895-.0689 1.7537.1365-.8671-3.3241-1.5691-6.6859-2.0943-10.0763.2444-7.8351 2.8353-14.1687 11.1579-14.8018 8.3304-.6331 15.2685 4.0339 15.5909 7.3853.2444 2.6026 1.0816 9.4822 1.8421 16.5854.2132 1.9591 1.8616 3.1772 1.7238 5.3118" fill="#fff"/><path d="m493.25561169 205.84270409-.6487-.0429c-.3094 4.7684-1.5522 8.4487-3.2994 11.0266-1.7498 2.5805-3.9858 4.0612-6.3531 4.5045-.325.0598-.6643.0897-1.0192.0897-2.0735.0078-4.6241-1.0621-7.0174-2.9562-2.3959-1.8889-4.6345-4.5825-6.1594-7.7311l-.1248-.1755-.0104-.0104-.0988-.0819c-.2418-.1612-4.4018-3.0472-5.3833-3.7414l.0026.0026c-.8307-.5889-1.3936-1.573-1.3884-2.5298l.0026-.117v.0013c.0338-.9256.7384-1.8837 1.5821-2.1177l.0065-.0026.1261-.039-.1911-.6201.1547.6305c.1573-.0377.3146-.0559.4732-.0559.2925 0 .5954.0611.9048.1729.2262.0819.4823.0312.6591-.1313.1781-.1625.2522-.4121.1911-.6448-.8619-3.302-1.5587-6.6417-2.0813-10.0113l-.6422.1001.65.0208c.117-3.8545.8242-7.2852 2.444-9.7682 1.625-2.4765 4.108-4.0885 8.1133-4.407.5018-.0377.9971-.0559 1.4872-.0559 3.692-.0013 7.0278 1.0452 9.4484 2.4544 1.2103.7046 2.1892 1.4989 2.8652 2.2776.6799.7774 1.0413 1.5353 1.0946 2.1242l-.0013-.0013c.247 2.6234 1.0829 9.4939 1.8434 16.5932v.0013c.1235 1.105.6162 1.9552 1.0127 2.7222.4043.7761.7163 1.4521.7163 2.2685l-.0078.2093v-.0013l.6487.0429.6487.0416.0104-.2925c-.0013-1.1661-.4524-2.0787-.8632-2.8678-.4186-.7969-.7917-1.4859-.8736-2.2633v.0013c-.7605-7.1071-1.599-13.9971-1.8408-16.5763v-.0013c-.0988-.9828-.6162-1.9422-1.4066-2.8548-2.3829-2.717-7.384-5.1662-13.2951-5.1779-.5226 0-1.0517.0195-1.586.0598-4.3173.3159-7.2917 2.1879-9.1039 4.9946-1.8174 2.8015-2.5272 6.4545-2.6546 10.4364l.0078.1196c.5291 3.4125 1.235 6.7964 2.1086 10.14l.6279-.1638.2223-.6123c-.4225-.1521-.8749-.2496-1.3481-.2496-.2574 0-.52.0286-.7826.0936l-.0364.0104-.1261.039.1911.6201-.1846-.6227c-1.456.4485-2.4284 1.8291-2.5116 3.3007v.0013l-.0039.1781c.0065 1.4534.7969 2.7729 1.9331 3.588l.0026.0013c1.0036.7085 5.1285 3.5724 5.4119 3.7609l.3614-.5408-.4602.4602.0104.0104.4589-.4602-.5837.2834c1.6159 3.3345 3.9676 6.1685 6.5221 8.1848 2.5571 2.0124 5.3157 3.2292 7.8234 3.2357.4277 0 .8476-.0364 1.2571-.1118 2.7482-.5122 5.2871-2.2373 7.1916-5.0531 1.9071-2.8184 3.198-6.7236 3.5204-11.6714z" fill="#1d2a30"/><path d="m489.96263708 194.6859952s-5.3612-2.4622-4.4512 5.5198c.182 1.5769 3.1148 3.9624 3.1148 3.9624s-.7501 2.3543-2.1411 2.3543" fill="#fff"/><path d="m490.23433708 194.09709647c-.0468-.0169-.8853-.4134-1.9669-.4186-.7592-.0052-1.6952.2236-2.3985 1.0088-.702.7826-1.1115 2.0059-1.1115 3.8324 0 .5304.0351 1.1154.1079 1.7615.0715.5733.3419 1.0803.6708 1.5743.9906 1.4573 2.6585 2.795 2.6793 2.8184l.4108-.5044-.6201-.1976-.0052.0156c-.0325.0988-.2288.6435-.5382 1.1141-.1521.234-.3328.4485-.5057.5811-.1768.1365-.3224.1898-.4719.1911-.3588 0-.65.2912-.65.65s.2912.65.65.65c.5382 0 .9958-.2327 1.3364-.5187.5161-.4329.8463-.9958 1.0764-1.4521.2262-.4589.3406-.8164.3471-.8372.0806-.2535-.0026-.533-.2093-.7007l-.1157-.0975c-.2691-.2275-.9594-.832-1.5821-1.5275-.312-.3471-.6071-.7176-.8203-1.0608-.2171-.3406-.3419-.6578-.3601-.8463v.0013c-.0689-.6045-.1001-1.1401-.1001-1.6146 0-1.6458.3731-2.5181.7774-2.9627.4017-.442.8957-.5733 1.4326-.5785.3718 0 .741.0754 1.0101.1547.1339.0377.2431.0767.3159.1053l.0806.0325.0169.0078c.3263.1495.7124.0065.8619-.3198.1508-.3263.0078-.7124-.3185-.8619" fill="#1d2a30"/><path d="m479.32333074 197.33750282s-2.73-1.6575-4.602-.6409c-.9789.4264-1.8122 1.131-2.3933 2.0267" fill="#fff"/><path d="m479.66003074 196.78240282c-.0494-.0182-1.6809-1.0491-3.5256-1.066-.5668 0-1.1661.1066-1.7238.4095l.3107.5707-.26-.5954c-1.0946.4771-2.028 1.2662-2.678 2.2685-.1963.3016-.1105.7033.1911.8996.3003.195.7033.1092.8983-.1924.5122-.7878 1.2454-1.4079 2.1086-1.7849l.0494-.0247c.3224-.1742.6968-.2509 1.1037-.2509.663-.0026 1.3949.2132 1.9461.4381.2756.1118.5083.2249.6682.3081l.182.0988.0546.0325c.3068.1859.7072.0884.8931-.2184.1872-.3068.0884-.7072-.2184-.8931" fill="#1d2a30"/><path d="m477.78843328 202.01920155c.2041.9646-.0481 1.8278-.5668 1.9331-.5174.1053-1.0972-.5759-1.3013-1.5418-.2041-.9646.0546-1.8174.5759-1.9318.5187-.1144 1.0894.6058 1.2922 1.5405" fill="#1d2a30"/><path d="m488.61713708 199.18919901c.2067.9542-.0546 1.8161-.5655 1.9331-.5096.117-1.1037-.5876-1.3013-1.5418-.1976-.9529.0468-1.8278.5655-1.9344.5174-.1053 1.0946.5876 1.3013 1.5431" fill="#1d2a30"/><path d="m462.27573328 181.13159393c-1.0062.858-1.5288 2.1476-1.898 3.4164-1.5847 5.4743-.8515 11.5804 1.9877 16.523 0 0 1.443-.1859 2.6169.1144.9074.2314 2.0787 1.7849 2.509 2.6169.429.8307.5343 1.7862.6331 2.717-.2028-2.4635-.4043-4.927-.6071-7.3905-.0819-.9945-.1612-2.015.13-2.9692l.0091-.0286c.637-2.0215-.0663-6.8068.117-11.089 5.4002 6.6001 13.2314 5.4327 15.8379 5.2169 3.8987-.3224 7.2319-4.3147 7.0122-7.1591-.2236-2.9003-.9698-10.1777-13.8268-10.9304-2.8184-.1651-5.8019.1651-8.1705 1.7017-1.6016 1.0413-2.6299 2.7352-2.9185 4.6059-.182 1.1895.2795 1.3-.6344 1.8824-.7475.4758-1.9032.0104-2.7976.7722" fill="#1d2a30"/><path d="m462.27573328 181.1328952-.4212-.494c-1.1687 1.0023-1.7173 2.4206-2.1008 3.7297-.5681 1.963-.8476 4.0014-.8476 6.0398.0013 3.8285.9841 7.6583 2.8951 10.9876.1313.2275.3861.3536.6461.3211l.0637-.0078c.1352-.0143.4745-.0442.8892-.0442.4446-.0013.9789.0364 1.4222.1508.091.0208.2743.1131.4732.2717.6123.4693 1.3494 1.4807 1.6185 2.015v-.0013c.3575.6851.468 1.5574.5642 2.4869.0377.3536.3549.6123.7072.5785.3536-.0325.6162-.3458.5876-.7007-.2041-2.4622-.4056-4.9257-.6084-7.3905v.0013c-.0377-.4615-.0728-.9113-.0728-1.3403 0-.4953.0468-.9594.1768-1.3845v.0026l.0078-.0286v.0026c.2444-.7904.3003-1.7797.3029-2.9406-.0013-1.9591-.1885-4.3888-.1872-6.7639 0-.5226.0091-1.0426.0299-1.5535l-.6487-.0273-.5031.4121c1.9643 2.4024 4.2614 3.8324 6.5117 4.6462 2.2503.8151 4.4525 1.0244 6.2699 1.0244 1.56 0 2.8496-.1547 3.6127-.2171 2.0891-.1768 3.9689-1.2805 5.3417-2.7014 1.3676-1.4274 2.2672-3.1772 2.2776-4.836l-.0117-.3198c-.1144-1.469-.3627-4.1847-2.3166-6.6274-1.9565-2.4505-5.5796-4.5266-12.1199-4.9023-.4355-.026-.8762-.0403-1.3182-.0403-2.4973.0013-5.0804.4433-7.2449 1.846-1.768 1.1492-2.8938 3.0108-3.2071 5.0518-.0442.2873-.0559.5291-.0559.7241s.0104.3445.0104.4264l-.0039.0754.0793.0169-.0715-.0377-.0078.0208.0793.0169-.0715-.0377-.0013.0013c-.0143.0195-.104.104-.299.2262-.1469.1105-.5135.1482-1.0452.1794-.5135.039-1.2116.1248-1.8239.6474l.4212.494.4225.4953c.2821-.2405.6071-.3029 1.0816-.3406.4576-.0455 1.0413-.0117 1.6419-.3783.2925-.1885.5148-.3549.689-.6123.1781-.26.2132-.5707.2093-.767-.0013-.1547-.0104-.2795-.0104-.4264 0-.1456.0078-.3107.0403-.5278v.0013c.2626-1.7004 1.1934-3.2266 2.6312-4.1587h-.0013c1.8616-1.2103 4.1899-1.638 6.5377-1.6367.4147 0 .8294.013 1.2415.0377 6.3154.3757 9.4939 2.3166 11.1813 4.4174 1.6887 2.1086 1.9253 4.4824 2.0358 5.9137l.0078.221c.0104 1.1609-.7137 2.7001-1.9136 3.9338-1.1934 1.2402-2.8262 2.1723-4.5136 2.3075-.8034.0663-2.0254.2132-3.5048.2132-1.7186 0-3.7674-.1989-5.8266-.9464-2.0618-.7488-4.1366-2.0345-5.9488-4.2484-.1703-.208-.4537-.2899-.7085-.2041-.2548.0845-.4329.3198-.4446.5889-.0221.533-.0312 1.0699-.0312 1.6081 0 2.4388.1885 4.8841.1872 6.7639.0026 1.1063-.0728 2.0215-.2431 2.5493v.0026l-.0091.0286-.0013.0026c-.182.5941-.234 1.1908-.234 1.7654 0 .4979.039.9841.0767 1.4456v.0013c.2041 2.4622.4056 4.9257.6084 7.3905l.6474-.0533.6474-.0689c-.1027-.9308-.2028-1.9695-.7033-2.9471-.2483-.4784-.6669-1.0972-1.1661-1.6653-.2496-.2821-.5174-.5499-.8047-.7748-.2886-.2236-.5915-.4134-.9542-.5083-.6071-.1534-1.2298-.1898-1.7433-.1911-.6344 0-1.0998.0598-1.118.0624l.0832.6448.5629-.3237c-1.7927-3.1213-2.7222-6.734-2.7222-10.3402 0-1.9201.2639-3.8376.7969-5.6784.3523-1.2298.8502-2.3894 1.6952-3.1018z" fill="#1d2a30"/><path d="m479.4927155 211.3326952s1.9084 2.0982 5.9033.7098" fill="#fff"/><path d="m479.01301677 211.77209647c.065.0767 1.313 1.3962 3.7882 1.3962.8138 0 1.7537-.143 2.8093-.5109.3393-.1183.5187-.4888.4004-.8281s-.4888-.5174-.8268-.4004c-.9321.3237-1.7212.4394-2.3829.4394-.9997 0-1.7134-.2613-2.1814-.5135-.2327-.1261-.4043-.2509-.5109-.3393l-.1144-.1001-.0221-.0208-.0013-.0026-.2678.2509.2717-.2457-.0039-.0052-.2678.2509.2717-.2457c-.2418-.2665-.6526-.286-.9178-.0442-.2665.2418-.286.6526-.0442.9191" fill="#1d2a30"/></svg>