<?xml version="1.0" encoding="UTF-8" standalone="no" ?>
<!DOCTYPE svg PUBLIC "-//W3C//DTD SVG 1.1//EN" "http://www.w3.org/Graphics/SVG/1.1/DTD/svg11.dtd">
<svg xmlns="http://www.w3.org/2000/svg" xmlns:xlink="http://www.w3.org/1999/xlink" version="1.1" width="1424" height="1023" viewBox="0 0 1424 1023" xml:space="preserve">
<desc>Created with Fabric.js 3.6.3</desc>
<defs>
</defs>
<g transform="matrix(1 0 0 1 757 486)"  >
<g style=""   >
		<g transform="matrix(1.03 0 0 1.03 80.36 -393.93)" id="q5uNyu8cdmVRzd_olUo4U"  >
<path style="stroke: none; stroke-width: 1; stroke-dasharray: none; stroke-linecap: butt; stroke-dashoffset: 0; stroke-linejoin: miter; stroke-miterlimit: 4; fill: rgb(238,97,97); fill-rule: nonzero; opacity: 1;" vector-effect="non-scaling-stroke"  transform=" translate(-326.93, -88.97)" d="M 316.286 118.792 C 315.225 118.792 314.148 118.566 313.124 118.08800000000001 C 309.369 116.33900000000001 307.74300000000005 111.87700000000001 309.49300000000005 108.123 L 321.4200000000001 82.52000000000001 C 321.44200000000006 82.47300000000001 321.46400000000006 82.42600000000002 321.4870000000001 82.379 L 330.84400000000005 63.339000000000006 C 332.67100000000005 59.62100000000001 337.1650000000001 58.089000000000006 340.88300000000004 59.916000000000004 C 344.6 61.743 346.13300000000004 66.23700000000001 344.30600000000004 69.955 L 334.98300000000006 88.925 L 323.08900000000006 114.45599999999999 C 321.81800000000004 117.18699999999998 319.1120000000001 118.79199999999999 316.28600000000006 118.79199999999999 z" stroke-linecap="round" />
</g>
		<g transform="matrix(1.03 0 0 1.03 176.7 -281.19)" id="3"  >
<path style="stroke: none; stroke-width: 1; stroke-dasharray: none; stroke-linecap: butt; stroke-dashoffset: 0; stroke-linejoin: miter; stroke-miterlimit: 4; fill: rgb(238,97,97); fill-rule: nonzero; opacity: 1;" vector-effect="non-scaling-stroke"  transform=" translate(-420.57, -198.54)" d="M 394.023 218.518 C 391.19500000000005 218.518 388.488 216.911 387.21700000000004 214.178 C 385.47 210.422 387.1 205.96099999999998 390.85600000000005 204.215 L 419.5330000000001 190.882 L 443.89900000000006 179.294 C 447.64200000000005 177.514 452.11400000000003 179.10600000000002 453.89300000000003 182.846 C 455.672 186.58700000000002 454.08200000000005 191.061 450.341 192.84 L 425.916 204.45600000000002 L 397.18 217.817 C 396.157 218.293 395.082 218.518 394.023 218.518 z" stroke-linecap="round" />
</g>
		<g transform="matrix(1.03 0 0 1.03 99.8 -74.56)" id="9"  >
<path style="stroke: none; stroke-width: 1; stroke-dasharray: none; stroke-linecap: butt; stroke-dashoffset: 0; stroke-linejoin: miter; stroke-miterlimit: 4; fill: rgb(238,97,97); fill-rule: nonzero; opacity: 1;" vector-effect="non-scaling-stroke"  transform=" translate(-345.83, -399.39)" d="M 361.593 429.257 C 359.285 429.257 357.00800000000004 428.195 355.538 426.19100000000003 L 341.23 406.67100000000005 C 341.18 406.60300000000007 341.132 406.535 341.084 406.46500000000003 L 323.871 381.249 C 321.536 377.82800000000003 322.416 373.161 325.837 370.826 C 329.259 368.49 333.925 369.37100000000004 336.26 372.79200000000003 L 353.402 397.90500000000003 L 367.635 417.322 C 370.084 420.663 369.361 425.356 366.02 427.805 C 364.685 428.785 363.132 429.257 361.59299999999996 429.257 z" stroke-linecap="round" />
</g>
		<g transform="matrix(1.03 0 0 1.03 -30.12 -50.06)" id="8"  >
<path style="stroke: none; stroke-width: 1; stroke-dasharray: none; stroke-linecap: butt; stroke-dashoffset: 0; stroke-linejoin: miter; stroke-miterlimit: 4; fill: rgb(238,97,97); fill-rule: nonzero; opacity: 1;" vector-effect="non-scaling-stroke"  transform=" translate(-219.55, -423.2)" d="M 219.554 449.896 C 215.412 449.896 212.054 446.538 212.054 442.396 L 212.054 404.005 C 212.054 399.863 215.412 396.505 219.554 396.505 C 223.696 396.505 227.054 399.863 227.054 404.005 L 227.054 442.396 C 227.054 446.538 223.696 449.896 219.554 449.896 z" stroke-linecap="round" />
</g>
		<g transform="matrix(1.03 0 0 1.03 -75.24 -54.27)" id="Mokwy-AYaPMXQ-SDHjAx9"  >
<path style="stroke: none; stroke-width: 1; stroke-dasharray: none; stroke-linecap: butt; stroke-dashoffset: 0; stroke-linejoin: miter; stroke-miterlimit: 4; fill: rgb(238,97,97); fill-rule: nonzero; opacity: 1;" vector-effect="non-scaling-stroke"  transform=" translate(-175.69, -419.11)" d="M 165.842 449.898 C 164.872 449.898 163.88600000000002 449.709 162.936 449.309 C 159.118 447.702 157.326 443.30400000000003 158.933 439.487 L 169.507 414.367 L 178.643 392.882 C 180.264 389.069 184.669 387.295 188.479 388.915 C 192.29100000000003 390.536 194.067 394.94 192.44600000000003 398.75100000000003 L 183.32100000000003 420.211 L 172.75800000000004 445.30600000000004 C 171.55100000000004 448.17300000000006 168.76900000000003 449.898 165.84200000000004 449.898 z" stroke-linecap="round" />
</g>
		<g transform="matrix(1.03 0 0 1.03 -174.18 -162.6)" id="OWfFHJFD2uxrL6noS5489"  >
<path style="stroke: none; stroke-width: 1; stroke-dasharray: none; stroke-linecap: butt; stroke-dashoffset: 0; stroke-linejoin: miter; stroke-miterlimit: 4; fill: rgb(238,97,97); fill-rule: nonzero; opacity: 1;" vector-effect="non-scaling-stroke"  transform=" translate(-79.53, -313.81)" d="M 59.991 332.053 C 57.296 332.053 54.692 330.596 53.348 328.046 C 51.418 324.381 52.824999999999996 319.84499999999997 56.49 317.91499999999996 L 74.051 308.667 L 95.372 296.554 C 98.975 294.508 103.55199999999999 295.76899999999995 105.598 299.36999999999995 C 107.644 302.9719999999999 106.383 307.54999999999995 102.782 309.59599999999995 L 81.357 321.768 C 81.287 321.808 81.217 321.84599999999995 81.147 321.883 L 63.480000000000004 331.18699999999995 C 62.365 331.775 61.169000000000004 332.05299999999994 59.99100000000001 332.05299999999994 z" stroke-linecap="round" />
</g>
		<g transform="matrix(1.03 0 0 1.03 -189.52 -210.13)"  >
<path style="stroke: none; stroke-width: 1; stroke-dasharray: none; stroke-linecap: butt; stroke-dashoffset: 0; stroke-linejoin: miter; stroke-miterlimit: 4; fill: rgb(238,97,97); fill-rule: nonzero; opacity: 1;" vector-effect="non-scaling-stroke"  transform=" translate(-64.62, -267.61)" d="M 38.005 278.612 C 34.312000000000005 278.612 31.094 275.88300000000004 30.583000000000002 272.122 C 30.024 268.01800000000003 32.899 264.238 37.003 263.67900000000003 L 65.251 259.83500000000004 L 90.278 256.67 C 94.38900000000001 256.15700000000004 98.14 259.06100000000004 98.66000000000001 263.17 C 99.18000000000002 267.279 96.269 271.03200000000004 92.16000000000001 271.552 L 67.203 274.707 L 39.025000000000006 278.541 C 38.68300000000001 278.589 38.342000000000006 278.612 38.005 278.612 z" stroke-linecap="round" />
</g>
		<g transform="matrix(1.03 0 0 1.03 -85.44 -399.12)" id="soaVuuaxY49xw40LLof4V"  >
<path style="stroke: none; stroke-width: 1; stroke-dasharray: none; stroke-linecap: butt; stroke-dashoffset: 0; stroke-linejoin: miter; stroke-miterlimit: 4; fill: rgb(238,97,97); fill-rule: nonzero; opacity: 1;" vector-effect="non-scaling-stroke"  transform=" translate(-165.77, -83.92)" d="M 179.915 118.791 C 177.147 118.791 174.486 117.253 173.18099999999998 114.602 L 160.635 89.119 L 145.034 60.093 C 143.07299999999998 56.445 144.441 51.897000000000006 148.09 49.93600000000001 C 151.738 47.977000000000004 156.286 49.343 158.247 52.992000000000004 L 173.911 82.136 C 173.953 82.21499999999999 173.994 82.294 174.03300000000002 82.374 L 186.638 107.977 C 188.46800000000002 111.693 186.93800000000002 116.188 183.222 118.018 C 182.156 118.543 181.02700000000002 118.791 179.91500000000002 118.791 z" stroke-linecap="round" />
</g>
		<g transform="matrix(1.03 0 0 1.03 0 -229.47)" id="wqQuQqUjZFzGP6GjuKlKU"  >
<path style="stroke: none; stroke-width: 1; stroke-dasharray: none; stroke-linecap: butt; stroke-dashoffset: 0; stroke-linejoin: miter; stroke-miterlimit: 4; fill: rgb(247,149,149); fill-rule: nonzero; opacity: 1;" vector-effect="non-scaling-stroke"  transform=" translate(-248.83, -248.83)" d="M 481.315 258 C 491.005 258 497.675 265.82 496.155 275.38 L 491.54499999999996 304.33 C 490.18499999999995 312.88 482.79499999999996 318.97999999999996 474.405 318.97999999999996 C 473.49499999999995 318.97999999999996 472.575 318.90999999999997 471.645 318.75999999999993 C 462.245 317.2699999999999 455.815 308.47999999999996 457.185 299.0899999999999 L 428.975 298.19999999999993 C 425.82500000000005 298.0999999999999 423.005 300.11999999999995 422.07500000000005 303.13999999999993 C 417.42500000000007 318.24999999999994 410.86500000000007 332.5199999999999 402.665 345.66999999999996 C 400.935 348.44999999999993 401.345 352.04999999999995 403.675 354.34999999999997 L 420.945 371.45 C 423.835 367.78 428.135 365.86 432.47499999999997 365.86 C 435.585 365.86 438.715 366.84000000000003 441.37499999999994 368.88 C 448.93499999999995 368.88 453.2049999999999 377.55 448.61499999999995 383.54 L 430.35499999999996 407.35 C 427.47499999999997 411.12 423.11499999999995 413.09000000000003 418.715 413.09000000000003 C 415.59499999999997 413.09000000000003 412.465 412.11 409.80499999999995 410.07000000000005 C 403.42499999999995 405.18000000000006 402.18499999999995 396.08000000000004 406.97499999999997 389.6700000000001 L 385.35499999999996 377.07000000000005 C 382.60499999999996 375.46000000000004 379.12499999999994 375.93000000000006 376.86499999999995 378.18000000000006 C 357.2049999999999 397.9000000000001 333.04499999999996 413.14000000000004 306.06499999999994 422.2300000000001 C 303.00499999999994 423.2700000000001 301.03499999999997 426.24000000000007 301.31499999999994 429.4600000000001 L 303.6549999999999 456.9100000000001 C 312.88499999999993 455.05000000000007 321.9149999999999 460.87000000000006 324.0249999999999 470.0400000000001 C 326.19499999999994 479.50000000000006 319.7849999999999 488.99000000000007 310.2949999999999 491.0300000000001 L 281.3149999999999 497.2600000000001 C 280.09499999999986 497.5200000000001 278.9149999999999 497.6500000000001 277.7649999999999 497.6500000000001 C 269.8849999999999 497.6500000000001 263.9249999999999 491.7500000000001 263.9249999999999 483.2200000000001 C 261.9249999999999 473.9000000000001 267.7949999999999 464.74000000000007 277.0549999999999 462.6300000000001 L 267.6849999999999 435.9700000000001 C 266.6349999999999 433.00000000000006 263.7349999999999 431.0900000000001 260.5949999999999 431.31000000000006 C 256.3549999999999 431.61000000000007 252.0749999999999 431.76000000000005 247.7649999999999 431.76000000000005 C 203.1349999999999 431.76000000000005 162.2649999999999 415.72 130.56499999999988 389.11000000000007 C 128.3049999999999 387.2100000000001 125.09499999999989 386.94000000000005 122.54499999999989 388.43000000000006 L 98.28499999999988 402.64000000000004 L 102.08499999999988 406.73 C 106.50499999999988 411.51 108.69499999999988 417.56 108.69499999999988 423.59000000000003 C 108.69499999999988 430.26000000000005 106.02499999999988 436.91 100.74499999999988 441.8 C 90.68499999999987 451.11 74.98499999999987 450.51 65.67499999999987 440.45 L 39.724999999999866 412.43 C 35.29499999999987 407.66 33.11499999999987 401.61 33.11499999999987 395.58 C 33.11499999999987 388.90999999999997 35.78499999999987 382.26 41.06499999999987 377.37 C 51.11499999999987 368.06 66.81499999999987 368.66 76.12499999999987 378.71 L 79.92499999999987 382.81 L 96.37499999999987 359.08 C 98.01499999999987 356.71 98.04499999999987 353.58 96.43499999999987 351.19 C 76.83499999999987 322.12 65.39499999999987 287.09000000000003 65.39499999999987 249.39 C 65.39499999999987 242.08999999999997 65.82499999999987 234.89999999999998 66.66499999999986 227.82999999999998 C 67.03499999999987 224.61999999999998 65.19499999999987 221.57 62.17499999999986 220.42999999999998 L 36.344999999999864 210.74999999999997 C 34.374999999999865 218.62999999999997 27.304999999999865 223.91999999999996 19.504999999999864 223.91999999999996 C 18.184999999999864 223.91999999999996 16.834999999999866 223.76999999999995 15.494999999999864 223.44999999999996 C 5.674999999999864 223.44999999999996 -0.5150000000001373 215.62999999999997 1.7449999999998642 206.06999999999996 L 8.634999999999863 176.92999999999995 C 10.864999999999863 167.48999999999995 20.494999999999862 161.26999999999995 29.904999999999863 163.63999999999996 C 39.024999999999864 165.93999999999997 44.65499999999986 175.08999999999995 42.61499999999987 184.26999999999995 L 70.67499999999987 187.24999999999994 C 73.81499999999987 187.58999999999995 76.77499999999986 185.76999999999995 77.92499999999987 182.82999999999996 C 83.19499999999987 169.40999999999997 90.00499999999987 156.75999999999996 98.13499999999988 145.10999999999996 C 99.98499999999987 142.44999999999996 99.80499999999988 138.88999999999996 97.66499999999988 136.45999999999995 L 79.44499999999988 115.75999999999995 C 73.13499999999988 122.73999999999995 62.40499999999988 123.42999999999995 55.25499999999988 117.30999999999995 C 47.884999999999884 110.99999999999994 47.40499999999988 99.54999999999994 53.814999999999884 92.26999999999995 L 71.21499999999989 72.53999999999995 C 74.65499999999989 68.63999999999994 79.4449999999999 66.64999999999995 84.26499999999989 66.64999999999995 C 88.34499999999989 66.64999999999995 92.44499999999988 68.07999999999996 95.74499999999989 70.98999999999995 C 102.8949999999999 77.28999999999995 103.62499999999989 88.14999999999995 97.43499999999989 95.34999999999995 L 120.82499999999989 111.20999999999995 C 123.43499999999989 112.97999999999995 126.8949999999999 112.78999999999995 129.2949999999999 110.73999999999995 C 156.2249999999999 87.69999999999996 189.9549999999999 72.37999999999995 227.0549999999999 68.18999999999996 C 230.2749999999999 67.82999999999996 232.8249999999999 65.32999999999996 233.2349999999999 62.119999999999955 L 236.7149999999999 34.759999999999955 C 231.9649999999999 34.69999999999995 227.6749999999999 32.73999999999995 224.57499999999987 29.599999999999955 C 221.46499999999986 26.459999999999955 219.55499999999986 22.149999999999956 219.55499999999986 17.389999999999954 C 219.55499999999986 7.789999999999955 227.33499999999987 -4.618527782440651e-14 236.93499999999986 -4.618527782440651e-14 L 263.6949999999999 -4.618527782440651e-14 C 268.4949999999999 -4.618527782440651e-14 272.84499999999986 1.9499999999999538 275.9849999999999 5.089999999999954 C 279.1249999999999 8.239999999999954 281.0749999999999 12.589999999999954 281.0749999999999 17.389999999999954 C 281.0749999999999 26.909999999999954 273.41499999999985 34.63999999999996 263.9249999999999 34.759999999999955 L 267.4849999999999 62.77999999999996 C 267.8849999999999 65.91999999999996 270.3349999999999 68.38999999999996 273.4649999999999 68.82999999999996 C 305.9749999999999 73.40999999999995 335.7249999999999 86.55999999999996 360.3649999999999 105.92999999999995 C 362.8349999999999 107.86999999999995 366.2849999999999 107.94999999999995 368.8249999999999 106.09999999999995 L 391.3849999999999 89.69999999999996 C 387.4349999999999 85.52999999999996 385.46499999999986 80.18999999999996 385.46499999999986 74.84999999999997 C 385.46499999999986 69.31999999999996 387.5749999999999 63.789999999999964 391.78499999999985 59.57999999999997 C 400.17499999999984 51.18999999999997 413.72499999999985 51.36999999999997 421.89499999999987 59.97999999999997 L 446.04499999999985 85.46999999999997 C 449.9449999999998 89.58999999999997 451.8849999999998 94.84999999999997 451.8849999999998 100.10999999999997 C 451.8849999999998 105.74999999999997 449.6549999999998 111.37999999999997 445.23499999999984 115.56999999999996 C 436.70499999999987 123.65999999999997 423.22499999999985 123.29999999999997 415.1349999999998 114.75999999999996 L 414.93499999999983 114.54999999999997 L 397.34499999999986 136.18999999999997 C 395.37499999999983 138.61999999999998 395.2549999999999 142.05999999999997 397.05499999999984 144.61999999999998 C 417.90499999999986 174.26999999999998 430.1349999999998 210.39999999999998 430.1349999999998 249.39 C 430.1349999999998 252.08999999999997 430.0749999999998 254.76999999999998 429.9649999999998 257.43 C 429.8149999999998 260.66 431.8849999999998 263.57 434.9849999999998 264.48 L 461.4649999999998 272.22 C 463.0749999999998 262.86 471.9149999999998 256.51000000000005 481.3149999999998 258 z" stroke-linecap="round" />
</g>
		<g transform="matrix(1.03 0 0 1.03 -30.12 -130.47)" id="jvlKHLkCuHEuLfaHG1Hfq"  >
<path style="stroke: none; stroke-width: 1; stroke-dasharray: none; stroke-linecap: butt; stroke-dashoffset: 0; stroke-linejoin: miter; stroke-miterlimit: 4; fill: rgb(243,124,124); fill-rule: nonzero; opacity: 1;" vector-effect="non-scaling-stroke"  transform=" translate(-40.57, -40.57)" d="M 0 40.574 C 0 18.165599999999998 18.1656 0 40.574 0 C 62.9824 0 81.148 18.1656 81.148 40.574 C 81.148 62.9824 62.9824 81.148 40.574 81.148 C 18.165599999999998 81.148 0 62.9824 0 40.574 z" stroke-linecap="round" />
</g>
		<g transform="matrix(1.03 0 0 1.03 98.93 -252.56)" id="qaf9jPn_s-PDzH5AFOWW_"  >
<path style="stroke: none; stroke-width: 1; stroke-dasharray: none; stroke-linecap: butt; stroke-dashoffset: 0; stroke-linejoin: miter; stroke-miterlimit: 4; fill: rgb(249,198,198); fill-rule: nonzero; opacity: 1;" vector-effect="non-scaling-stroke"  transform=" translate(-28.69, -28.69)" d="M 0 28.69 C 0 12.84495 12.84495 0 28.69 0 C 44.53505 0 57.38 12.84495 57.38 28.69 C 57.38 44.53505 44.53505 57.38 28.69 57.38 C 12.84495 57.38 0 44.53505 0 28.69 z" stroke-linecap="round" />
</g>
		<g transform="matrix(1.03 0 0 1.03 80.36 -330.09)" id="H4ohfjV8SKrusaHYkpMfm"  >
<path style="stroke: none; stroke-width: 1; stroke-dasharray: none; stroke-linecap: butt; stroke-dashoffset: 0; stroke-linejoin: miter; stroke-miterlimit: 4; fill: rgb(243,124,124); fill-rule: nonzero; opacity: 1;" vector-effect="non-scaling-stroke"  transform=" translate(-326.93, -151.01)" d="M 337.575 158.513 L 316.291 158.513 C 312.149 158.513 308.791 155.155 308.791 151.013 C 308.791 146.871 312.149 143.513 316.291 143.513 L 337.575 143.513 C 341.717 143.513 345.075 146.871 345.075 151.013 C 345.075 155.155 341.717 158.513 337.575 158.513 z" stroke-linecap="round" />
</g>
		<g transform="matrix(1.03 0 0 1.03 49.84 -186.62)" id="a6clD3L4MR6IIRLG8aYnD"  >
<path style="stroke: none; stroke-width: 1; stroke-dasharray: none; stroke-linecap: butt; stroke-dashoffset: 0; stroke-linejoin: miter; stroke-miterlimit: 4; fill: rgb(249,198,198); fill-rule: nonzero; opacity: 1;" vector-effect="non-scaling-stroke"  transform=" translate(-297.27, -290.46)" d="M 304.291 297.961 L 290.24 297.961 C 286.098 297.961 282.74 294.603 282.74 290.461 C 282.74 286.319 286.098 282.961 290.24 282.961 L 304.291 282.961 C 308.433 282.961 311.791 286.319 311.791 290.461 C 311.791 294.603 308.433 297.961 304.291 297.961 z" stroke-linecap="round" />
</g>
		<g transform="matrix(1.03 0 0 1.03 91.33 -123.12)" id="hkuZPm1Sb38P7B6H9EkC7"  >
<path style="stroke: none; stroke-width: 1; stroke-dasharray: none; stroke-linecap: butt; stroke-dashoffset: 0; stroke-linejoin: miter; stroke-miterlimit: 4; fill: rgb(249,198,198); fill-rule: nonzero; opacity: 1;" vector-effect="non-scaling-stroke"  transform=" translate(-337.59, -352.18)" d="M 345.897 359.68 L 329.291 359.68 C 325.149 359.68 321.791 356.322 321.791 352.18 C 321.791 348.038 325.149 344.68 329.291 344.68 L 345.897 344.68 C 350.039 344.68 353.397 348.038 353.397 352.18 C 353.397 356.322 350.039 359.68 345.897 359.68 z" stroke-linecap="round" />
</g>
		<g transform="matrix(1.03 0 0 1.03 -133.98 -220.51)" id="-mM04HZopLUtnwzrLsPnx"  >
<path style="stroke: none; stroke-width: 1; stroke-dasharray: none; stroke-linecap: butt; stroke-dashoffset: 0; stroke-linejoin: miter; stroke-miterlimit: 4; fill: rgb(243,124,124); fill-rule: nonzero; opacity: 1;" vector-effect="non-scaling-stroke"  transform=" translate(-118.6, -257.53)" d="M 132.845 236.242 C 132.845 173.46599999999998 157.363 116.398 197.305 74.089 C 171.941 81.378 148.818 94.037 129.29500000000002 110.74000000000001 C 126.89500000000001 112.79 123.43500000000002 112.98 120.82500000000002 111.21000000000001 L 97.43500000000002 95.35000000000001 C 103.62500000000001 88.15 102.89500000000001 77.29 95.74500000000002 70.99000000000001 C 92.44500000000002 68.08000000000001 88.34500000000001 66.65 84.26500000000001 66.65 C 79.44500000000002 66.65 74.65500000000002 68.64 71.21500000000002 72.54 L 53.81500000000002 92.27000000000001 C 47.405000000000015 99.55000000000001 47.88500000000002 111.00000000000001 55.25500000000002 117.31 C 62.405000000000015 123.43 73.13500000000002 122.74000000000001 79.44500000000002 115.76 L 97.66500000000002 136.46 C 99.80500000000002 138.89000000000001 99.98500000000001 142.45000000000002 98.13500000000002 145.11 C 90.00500000000002 156.76000000000002 83.19500000000002 169.41000000000003 77.92500000000001 182.83 C 76.775 185.77 73.81500000000001 187.59 70.67500000000001 187.25 L 42.61500000000001 184.27 C 44.65500000000001 175.09 39.025000000000006 165.94 29.90500000000001 163.64000000000001 C 20.495000000000008 161.27 10.865000000000009 167.49 8.635000000000009 176.93 L 1.745000000000009 206.07 C -0.5149999999999908 215.63 5.67500000000001 223.45 15.495000000000008 223.45 C 16.835000000000008 223.76999999999998 18.18500000000001 223.92 19.50500000000001 223.92 C 27.30500000000001 223.92 34.37500000000001 218.63 36.34500000000001 210.75 L 62.17500000000001 220.43 C 65.19500000000001 221.57 67.03500000000001 224.62 66.665 227.83 C 65.825 234.9 65.39500000000001 242.09 65.39500000000001 249.39000000000001 C 65.39500000000001 287.09000000000003 76.83500000000001 322.12 96.435 351.19 C 98.045 353.58 98.015 356.71 96.375 359.08 L 79.925 382.81 L 76.125 378.71 C 66.815 368.65999999999997 51.114999999999995 368.06 41.065 377.37 C 35.785 382.26 33.114999999999995 388.91 33.114999999999995 395.58 C 33.114999999999995 401.60999999999996 35.294999999999995 407.65999999999997 39.724999999999994 412.43 L 65.675 440.45 C 74.985 450.51 90.685 451.11 100.745 441.8 C 106.025 436.91 108.69500000000001 430.26 108.69500000000001 423.59000000000003 C 108.69500000000001 417.56000000000006 106.50500000000001 411.51000000000005 102.08500000000001 406.73 L 98.28500000000001 402.64000000000004 L 122.54500000000002 388.43000000000006 C 125.09500000000001 386.94000000000005 128.305 387.21000000000004 130.56500000000003 389.11000000000007 C 159.43300000000002 413.3430000000001 195.92900000000003 428.81200000000007 235.92100000000002 431.3810000000001 C 173.70300000000003 388.8330000000001 132.84500000000003 317.3070000000001 132.84500000000003 236.24200000000008 z" stroke-linecap="round" />
</g>
		<g transform="matrix(1.03 0 0 1.03 -55.78 -274.69)" id="IGp7uAb7-JAqtZEVSryWr"  >
<path style="stroke: none; stroke-width: 1; stroke-dasharray: none; stroke-linecap: butt; stroke-dashoffset: 0; stroke-linejoin: miter; stroke-miterlimit: 4; fill: rgb(249,198,198); fill-rule: nonzero; opacity: 1;" vector-effect="non-scaling-stroke"  transform=" translate(-66.25, -66.25)" d="M 0 66.254 C 0 29.662930000000003 29.66293 0 66.254 0 C 102.84507 0 132.508 29.66293 132.508 66.254 C 132.508 102.84507 102.84507 132.508 66.254 132.508 C 29.662930000000003 132.508 0 102.84507 0 66.254 z" stroke-linecap="round" />
</g>
		<g transform="matrix(1.03 0 0 1.03 -114.98 -172.22)" id="LyqvZtNucP-IOd5Fgzxcd"  >
<path style="stroke: none; stroke-width: 1; stroke-dasharray: none; stroke-linecap: butt; stroke-dashoffset: 0; stroke-linejoin: miter; stroke-miterlimit: 4; fill: rgb(238,97,97); fill-rule: nonzero; opacity: 1;" vector-effect="non-scaling-stroke"  transform=" translate(-137.07, -304.46)" d="M 145.777 311.961 L 128.35799999999998 311.961 C 124.21599999999998 311.961 120.85799999999998 308.603 120.85799999999998 304.461 C 120.85799999999998 300.319 124.21599999999998 296.961 128.35799999999998 296.961 L 145.777 296.961 C 149.91899999999998 296.961 153.277 300.319 153.277 304.461 C 153.277 308.603 149.91899999999998 311.961 145.777 311.961 z" stroke-linecap="round" />
</g>
		<g transform="matrix(2 0 0 2 511.18 399.76)" id="JDdtGCD0hHUxgk5DB17A1"  >
<path style="stroke: none; stroke-width: 1; stroke-dasharray: none; stroke-linecap: butt; stroke-dashoffset: 0; stroke-linejoin: miter; stroke-miterlimit: 4; fill: rgb(249,207,207); fill-rule: nonzero; opacity: 1;" vector-effect="non-scaling-stroke"  transform=" translate(-128, -186.37)" d="M 175.893 163.149 L 156.11599999999999 163.149 C 156.11599999999999 147.72 156.11599999999999 137.269 156.11599999999999 119.73 L 99.82999999999998 119.73 L 99.82999999999998 163.149 L 80.10699999999999 163.149 C 64.54799999999999 163.149 51.93499999999999 175.762 51.93499999999999 191.321 L 51.93499999999999 253.001 L 204.065 253.001 C 204.065 244.227 204.065 200.191 204.065 191.321 C 204.065 175.762 191.452 163.149 175.893 163.149 z" stroke-linecap="round" />
</g>
		<g transform="matrix(2 0 0 2 406.38 490.72)" id="MXjbIcmobOiUMZ4eZxCgu"  >
<path style="stroke: none; stroke-width: 1; stroke-dasharray: none; stroke-linecap: butt; stroke-dashoffset: 0; stroke-linejoin: miter; stroke-miterlimit: 4; fill: rgb(55,98,204); fill-rule: nonzero; opacity: 1;" vector-effect="non-scaling-stroke"  transform=" translate(-75.6, -231.83)" d="M 75.6 255 C 74.496 255 73.6 254.104 73.6 253 L 73.6 210.667 C 73.6 209.563 74.496 208.667 75.6 208.667 C 76.704 208.667 77.6 209.563 77.6 210.667 L 77.6 253 C 77.6 254.104 76.704 255 75.6 255 z" stroke-linecap="round" />
</g>
		<g transform="matrix(2 0 0 2 615.98 490.72)" id="f2BG65rEdcHl0nDaKCyFs"  >
<path style="stroke: none; stroke-width: 1; stroke-dasharray: none; stroke-linecap: butt; stroke-dashoffset: 0; stroke-linejoin: miter; stroke-miterlimit: 4; fill: rgb(55,98,204); fill-rule: nonzero; opacity: 1;" vector-effect="non-scaling-stroke"  transform=" translate(-180.4, -231.83)" d="M 180.4 255 C 179.296 255 178.4 254.104 178.4 253 L 178.4 210.667 C 178.4 209.563 179.296 208.667 180.4 208.667 C 181.50400000000002 208.667 182.4 209.563 182.4 210.667 L 182.4 253 C 182.4 254.104 181.505 255 180.4 255 z" stroke-linecap="round" />
</g>
		<g transform="matrix(2 0 0 2 511.18 399.78)" id="vyl4575snxWCZMmX97_Dn"  >
<path style="stroke: none; stroke-width: 1; stroke-dasharray: none; stroke-linecap: butt; stroke-dashoffset: 0; stroke-linejoin: miter; stroke-miterlimit: 4; fill: rgb(55,98,204); fill-rule: nonzero; opacity: 1;" vector-effect="non-scaling-stroke"  transform=" translate(-128, -186.36)" d="M 204.065 255 L 51.935 255 C 50.831 255 49.935 254.104 49.935 253 L 49.935 191.32 C 49.935 174.683 63.47 161.148 80.108 161.148 L 97.83000000000001 161.148 L 97.83000000000001 119.729 C 97.83000000000001 118.625 98.72600000000001 117.729 99.83000000000001 117.729 L 156.115 117.729 C 157.21900000000002 117.729 158.115 118.625 158.115 119.729 L 158.115 161.148 L 175.892 161.148 C 192.53 161.148 206.065 174.683 206.065 191.32 L 206.065 253 C 206.065 254.104 205.17 255 204.065 255 z M 53.935 251 L 202.066 251 L 202.066 191.32 C 202.066 176.88899999999998 190.325 165.148 175.893 165.148 L 156.11599999999999 165.148 C 155.01199999999997 165.148 154.11599999999999 164.252 154.11599999999999 163.148 L 154.11599999999999 121.729 L 101.82999999999998 121.729 L 101.82999999999998 163.148 C 101.82999999999998 164.252 100.93399999999998 165.148 99.82999999999998 165.148 L 80.10699999999999 165.148 C 65.67499999999998 165.148 53.93399999999998 176.889 53.93399999999998 191.32 L 53.93399999999998 251 z" stroke-linecap="round" />
</g>
		<g transform="matrix(2 0 0 2 511.18 203.56)" id="f3RllDNE8RYvmoONW1t2z"  >
<path style="stroke: none; stroke-width: 1; stroke-dasharray: none; stroke-linecap: butt; stroke-dashoffset: 0; stroke-linejoin: miter; stroke-miterlimit: 4; fill: rgb(70,113,198); fill-rule: nonzero; opacity: 1;" vector-effect="non-scaling-stroke"  transform=" translate(-128, -88.26)" d="M 128 143.373 C 91.55199999999999 143.373 62.006 113.826 62.006 77.37899999999999 L 62.006 49.73799999999999 C 62.006 40.57699999999999 69.43299999999999 33.14999999999999 78.594 33.14999999999999 L 193.994 33.14999999999999 L 193.994 77.38 C 193.994 113.827 164.448 143.373 128 143.373 z" stroke-linecap="round" />
</g>
		<g transform="matrix(2 0 0 2 511.18 203.56)" id="9"  >
<path style="stroke: none; stroke-width: 1; stroke-dasharray: none; stroke-linecap: butt; stroke-dashoffset: 0; stroke-linejoin: miter; stroke-miterlimit: 4; fill: rgb(55,98,204); fill-rule: nonzero; opacity: 1;" vector-effect="non-scaling-stroke"  transform=" translate(-128, -88.26)" d="M 128 145.373 C 90.50800000000001 145.373 60.006 114.871 60.006 77.37899999999999 L 60.006 49.73799999999999 C 60.006 39.48799999999999 68.345 31.14999999999999 78.594 31.14999999999999 L 193.994 31.14999999999999 C 195.098 31.14999999999999 195.994 32.04599999999999 195.994 33.14999999999999 L 195.994 77.38 C 195.994 114.871 165.492 145.373 128 145.373 z M 78.594 35.14899999999999 C 70.55 35.14899999999999 64.006 41.692999999999984 64.006 49.73699999999999 L 64.006 77.37899999999999 C 64.006 112.66499999999999 92.714 141.373 128 141.373 C 163.286 141.373 191.994 112.66499999999999 191.994 77.37899999999999 L 191.994 35.148999999999994 z" stroke-linecap="round" />
</g>
		<g transform="matrix(2 0 0 2 511.18 206.64)" id="esoDuTJ5CN_UeXETavRZZ"  >
<path style="stroke: none; stroke-width: 1; stroke-dasharray: none; stroke-linecap: butt; stroke-dashoffset: 0; stroke-linejoin: miter; stroke-miterlimit: 4; fill: rgb(249,207,207); fill-rule: nonzero; opacity: 1;" vector-effect="non-scaling-stroke"  transform=" translate(-128, -89.79)" d="M 184.207 81.84 L 184.207 76.577 C 184.207 45.81399999999999 159.042 20.875999999999998 128 20.875999999999998 C 96.957 20.875999999999998 71.793 45.81399999999999 71.793 76.577 L 71.793 81.84 C 62.03300000000001 81.64200000000001 54.290000000000006 89.417 54.290000000000006 98.816 C 54.290000000000006 108.852 63.051 116.79 73.278 115.709 C 79.07900000000001 140.353 101.37 158.713 128.001 158.713 C 154.63400000000001 158.713 176.924 140.351 182.724 115.709 C 192.93699999999998 116.789 201.712 108.866 201.712 98.816 C 201.71099999999998 89.413 193.96099999999998 81.642 184.207 81.84 z" stroke-linecap="round" />
</g>
		<g transform="matrix(2 0 0 2 511.18 282.16)" id="EMfyRaLPvMdxLO1UvD-6H"  >
<path style="stroke: none; stroke-width: 1; stroke-dasharray: none; stroke-linecap: butt; stroke-dashoffset: 0; stroke-linejoin: miter; stroke-miterlimit: 4; fill: rgb(55,98,204); fill-rule: nonzero; opacity: 1;" vector-effect="non-scaling-stroke"  transform=" translate(-127.99, -127.55)" d="M 127.993 131.871 C 125.725 131.871 123.749 131.60500000000002 121.952 131.05800000000002 C 118.968 130.15000000000003 116.353 128.62400000000002 114.392 126.64600000000002 C 113.61399999999999 125.86200000000001 113.61999999999999 124.59600000000002 114.404 123.81800000000001 C 115.188 123.04 116.456 123.04500000000002 117.232 123.83000000000001 C 118.729 125.33900000000001 120.763 126.51500000000001 123.116 127.23100000000001 C 124.53 127.662 126.126 127.87100000000001 127.993 127.87100000000001 C 129.85999999999999 127.87100000000001 131.45499999999998 127.662 132.869 127.23100000000001 C 135.221 126.516 137.256 125.33900000000001 138.754 123.83000000000001 C 139.533 123.046 140.798 123.04100000000001 141.583 123.81900000000002 C 142.36599999999999 124.59700000000002 142.371 125.86300000000001 141.594 126.64700000000002 C 139.631 128.62500000000003 137.017 130.15000000000003 134.033 131.05800000000002 C 132.236 131.60500000000002 130.261 131.871 127.99299999999998 131.871 z" stroke-linecap="round" />
</g>
		<g transform="matrix(2 0 0 2 569.54 226.04)" id="bfoyNOB3Gqof-5fsLvTgm"  >
<path style="stroke: none; stroke-width: 1; stroke-dasharray: none; stroke-linecap: butt; stroke-dashoffset: 0; stroke-linejoin: miter; stroke-miterlimit: 4; fill: rgb(55,98,204); fill-rule: nonzero; opacity: 1;" vector-effect="non-scaling-stroke"  transform=" translate(-157.18, -99.5)" d="M 157.181 110.391 C 153.257 110.391 150.077 107.21000000000001 150.077 103.287 L 150.077 95.709 C 150.077 91.785 153.258 88.605 157.181 88.605 C 161.10500000000002 88.605 164.28500000000003 91.786 164.28500000000003 95.709 L 164.28500000000003 103.287 C 164.28500000000003 107.21000000000001 161.104 110.391 157.181 110.391 z" stroke-linecap="round" />
</g>
		<g transform="matrix(2 0 0 2 452.78 226.04)" id="bd7JO10DRPd-3YtkQi8pj"  >
<path style="stroke: none; stroke-width: 1; stroke-dasharray: none; stroke-linecap: butt; stroke-dashoffset: 0; stroke-linejoin: miter; stroke-miterlimit: 4; fill: rgb(55,98,204); fill-rule: nonzero; opacity: 1;" vector-effect="non-scaling-stroke"  transform=" translate(-98.81, -99.5)" d="M 98.805 110.391 C 94.881 110.391 91.70100000000001 107.21000000000001 91.70100000000001 103.287 L 91.70100000000001 95.709 C 91.70100000000001 91.785 94.882 88.605 98.805 88.605 C 102.72900000000001 88.605 105.909 91.786 105.909 95.709 L 105.909 103.287 C 105.909 107.21000000000001 102.729 110.391 98.805 110.391 z" stroke-linecap="round" />
</g>
		<g transform="matrix(2 0 0 2 511.18 206.64)" id="ZH3S0H78Khq2fO9ib_UVr"  >
<path style="stroke: none; stroke-width: 1; stroke-dasharray: none; stroke-linecap: butt; stroke-dashoffset: 0; stroke-linejoin: miter; stroke-miterlimit: 4; fill: rgb(55,98,204); fill-rule: nonzero; opacity: 1;" vector-effect="non-scaling-stroke"  transform=" translate(-128, -89.79)" d="M 128 160.713 C 101.377 160.713 78.481 143.153 71.74000000000001 117.803 C 66.894 117.88 62.17900000000001 116.13 58.57500000000001 112.886 C 54.58000000000001 109.291 52.28900000000001 104.163 52.28900000000001 98.816 C 52.28900000000001 93.697 54.31100000000001 88.897 57.98300000000001 85.298 C 61.19800000000001 82.149 65.33300000000001 80.272 69.793 79.904 L 69.793 76.577 C 69.793 44.760999999999996 95.90400000000001 18.875999999999998 128 18.875999999999998 C 160.096 18.875999999999998 186.207 44.760999999999996 186.207 76.577 L 186.207 79.904 C 190.667 80.27199999999999 194.801 82.149 198.017 85.29899999999999 C 201.689 88.898 203.71099999999998 93.698 203.71099999999998 98.81599999999999 C 203.71099999999998 104.16299999999998 201.421 109.29099999999998 197.427 112.88399999999999 C 193.822 116.12899999999999 189.113 117.88899999999998 184.26 117.80199999999999 C 177.51999999999998 143.153 154.624 160.713 128 160.713 z M 73.279 113.708 C 74.196 113.708 75.009 114.339 75.22399999999999 115.25 C 80.96999999999998 139.663 102.672 156.712 127.999 156.712 C 153.327 156.712 175.029 139.66199999999998 180.774 115.24999999999999 C 181.005 114.26899999999999 181.924 113.60699999999999 182.931 113.71899999999998 C 187.239 114.17599999999997 191.553 112.78599999999997 194.75 109.90999999999998 C 197.901 107.07399999999998 199.709 103.02999999999999 199.709 98.81499999999998 C 199.709 94.78099999999998 198.113 90.99499999999998 195.215 88.15499999999999 C 192.288 85.28699999999999 188.369 83.75999999999999 184.246 83.83899999999998 C 183.721 83.86199999999998 183.18900000000002 83.64399999999999 182.806 83.26799999999999 C 182.42200000000003 82.89199999999998 182.205 82.37699999999998 182.205 81.83899999999998 L 182.205 76.57599999999998 C 182.205 46.964999999999975 157.888 22.87499999999998 127.99800000000002 22.87499999999998 C 98.10800000000003 22.87499999999998 73.79100000000003 46.964999999999975 73.79100000000003 76.57599999999998 L 73.79100000000003 81.83899999999998 C 73.79100000000003 82.37699999999998 73.57400000000003 82.89099999999999 73.19000000000003 83.26799999999999 C 72.80600000000003 83.64299999999999 72.28600000000003 83.86399999999999 71.75000000000003 83.83899999999998 C 71.64300000000003 83.83699999999999 71.53400000000003 83.83599999999998 71.42600000000003 83.83599999999998 C 67.40000000000003 83.83599999999998 63.63100000000003 85.36199999999998 60.781000000000034 88.15499999999999 C 57.88300000000003 90.99499999999999 56.287000000000035 94.78099999999999 56.287000000000035 98.81599999999999 C 56.287000000000035 103.03099999999999 58.09600000000003 107.07499999999999 61.24900000000004 109.91299999999998 C 64.44300000000004 112.78799999999998 68.74000000000004 114.17499999999998 73.06500000000004 113.71999999999998 C 73.13800000000003 113.71199999999999 73.20900000000005 113.70799999999998 73.27900000000004 113.70799999999998 z" stroke-linecap="round" />
</g>
		<g transform="matrix(2 0 0 2 520.98 101.08)" id="3"  >
<path style="stroke: none; stroke-width: 1; stroke-dasharray: none; stroke-linecap: butt; stroke-dashoffset: 0; stroke-linejoin: miter; stroke-miterlimit: 4; fill: rgb(70,113,198); fill-rule: nonzero; opacity: 1;" vector-effect="non-scaling-stroke"  transform=" translate(-132.89, -37.02)" d="M 193.994 71.036 L 105.81099999999999 71.036 C 87.023 71.036 71.79299999999999 55.806 71.79299999999999 37.018 C 71.79299999999999 18.23 87.023 3 105.81099999999999 3 L 163.53199999999998 3 C 180.356 3 193.99399999999997 16.637999999999998 193.99399999999997 33.462 z" stroke-linecap="round" />
</g>
		<g transform="matrix(2 0 0 2 520.98 101.08)"  >
<path style="stroke: none; stroke-width: 1; stroke-dasharray: none; stroke-linecap: butt; stroke-dashoffset: 0; stroke-linejoin: miter; stroke-miterlimit: 4; fill: rgb(55,98,204); fill-rule: nonzero; opacity: 1;" vector-effect="non-scaling-stroke"  transform=" translate(-132.89, -37.02)" d="M 193.994 73.036 L 105.81 73.036 C 85.95 73.036 69.792 56.878 69.792 37.018 C 69.792 17.158 85.95 1 105.811 1 L 163.532 1 C 181.43200000000002 1 195.995 15.563 195.995 33.462 L 195.995 71.036 C 195.994 72.141 195.09900000000002 73.036 193.994 73.036 z M 105.81099999999999 5 C 88.15599999999999 5 73.79299999999999 19.363 73.79299999999999 37.018 C 73.79299999999999 54.673 88.15599999999999 69.036 105.81099999999999 69.036 L 191.995 69.036 L 191.995 33.462 C 191.994 17.768 179.226 5.0000000000000036 163.531 5.0000000000000036 z" stroke-linecap="round" />
</g>
		<g transform="matrix(2 0 0 2 511.18 453.18)" id="Gj0Q5IX6hHJwOfRuk4vcp"  >
<path style="stroke: none; stroke-width: 1; stroke-dasharray: none; stroke-linecap: butt; stroke-dashoffset: 0; stroke-linejoin: miter; stroke-miterlimit: 4; fill: rgb(249,167,167); fill-rule: nonzero; opacity: 1;" vector-effect="non-scaling-stroke"  transform=" translate(-128, -213.06)" d="M 124.344 240.816 C 126.536 242.467 129.557 242.464 131.74599999999998 240.808 L 158.427 220.623 C 165.94799999999998 214.957 168.59099999999998 204.867 164.813 196.243 C 160.712 186.879 150.29199999999997 182.01999999999998 140.483 184.898 C 134.879 186.542 130.435 190.442 127.982 195.41 C 125.53 190.442 121.086 186.542 115.482 184.898 C 105.175 181.875 94.194 187.392 90.577 197.703 C 87.61 206.163 90.837 215.576 97.998 220.97 z" stroke-linecap="round" />
</g>
		<g transform="matrix(2 0 0 2 511.22 453.16)" id="VGoLXA7qc3DKCv3L_-NFf"  >
<path style="stroke: none; stroke-width: 1; stroke-dasharray: none; stroke-linecap: butt; stroke-dashoffset: 0; stroke-linejoin: miter; stroke-miterlimit: 4; fill: rgb(55,98,204); fill-rule: nonzero; opacity: 1;" vector-effect="non-scaling-stroke"  transform=" translate(-128.02, -213.06)" d="M 128.04 244.044 C 126.312 244.044 124.58399999999999 243.501 123.142 242.41400000000002 L 96.79599999999999 222.568 C 88.85199999999999 216.583 85.51799999999999 206.086 88.69 197.041 C 92.63 185.812 104.648 179.635 116.045 182.978 C 120.887 184.398 125.095 187.436 127.983 191.51500000000001 C 130.872 187.436 135.079 184.399 139.921 182.978 C 150.664 179.82600000000002 162.153 185.184 166.646 195.44 C 170.814 204.957 167.92899999999997 215.969 159.631 222.22 L 132.953 242.403 C 131.508 243.49699999999999 129.773 244.04399999999998 128.04 244.04399999999998 z M 109.764 186.072 C 102.167 186.072 95.106 190.835 92.465 198.364 C 89.86200000000001 205.784 92.63300000000001 214.423 99.202 219.372 L 125.548 239.21800000000002 L 125.549 239.21800000000002 C 127.019 240.32500000000002 129.071 240.323 130.53900000000002 239.21300000000002 L 157.221 219.02700000000002 C 164.035 213.894 166.403 204.85500000000002 162.982 197.044 C 159.295 188.627 149.868 184.23000000000002 141.046 186.815 C 136.148 188.252 132.04 191.707 129.77499999999998 196.29399999999998 C 129.438 196.97699999999998 128.74399999999997 197.409 127.98199999999997 197.409 C 127.21999999999997 197.409 126.52599999999997 196.977 126.18899999999996 196.29399999999998 C 123.92399999999996 191.70799999999997 119.81699999999996 188.25199999999998 114.91799999999996 186.815 C 113.20299999999996 186.313 111.46999999999997 186.072 109.76399999999997 186.072 z" stroke-linecap="round" />
</g>
		<g transform="matrix(2 0 0 2 -568.74 442.98)" id="IglGhJA58taZB_LiGJgN1"  >
<path style="stroke: none; stroke-width: 1; stroke-dasharray: none; stroke-linecap: butt; stroke-dashoffset: 0; stroke-linejoin: miter; stroke-miterlimit: 4; fill: rgb(70,113,198); fill-rule: nonzero; opacity: 1;" vector-effect="non-scaling-stroke"  transform=" translate(-128, -207.97)" d="M 175.802 163.183 L 80.198 163.183 C 64.669 163.183 52.08 175.82399999999998 52.08 191.418 L 52.08 214.27100000000002 L 52.08 226.85100000000003 L 77.081 226.85100000000003 L 77.081 252.76100000000002 L 178.918 252.76100000000002 L 178.918 226.85100000000003 L 203.919 226.85100000000003 L 203.919 214.27100000000002 L 203.919 191.418 C 203.92000000000002 175.82500000000002 191.33100000000002 163.183 175.80200000000002 163.183 z" stroke-linecap="round" />
</g>
		<g transform="matrix(2 0 0 2 -569.92 359.3)" id="pzgkSwoKSsSep430VMp7x"  >
<path style="stroke: none; stroke-width: 1; stroke-dasharray: none; stroke-linecap: butt; stroke-dashoffset: 0; stroke-linejoin: miter; stroke-miterlimit: 4; fill: rgb(249,207,207); fill-rule: nonzero; opacity: 1;" vector-effect="non-scaling-stroke"  transform=" translate(-127.41, -166.14)" d="M 99.32 138.62 L 99.32 165.442 L 99.32 165.445 C 99.32 181.023 111.89599999999999 193.65099999999998 127.40899999999999 193.65099999999998 C 142.915 193.65099999999998 155.498 181.03199999999998 155.498 165.44199999999998 C 155.498 160.016 155.498 144.22799999999998 155.498 138.61999999999998 z" stroke-linecap="round" />
</g>
		<g transform="matrix(2 0 0 2 -695.58 506.64)" id="ZMP6AnWewqUTWkGMNZpo_"  >
<path style="stroke: none; stroke-width: 1; stroke-dasharray: none; stroke-linecap: butt; stroke-dashoffset: 0; stroke-linejoin: miter; stroke-miterlimit: 4; fill: rgb(249,207,207); fill-rule: nonzero; opacity: 1;" vector-effect="non-scaling-stroke"  transform=" translate(-64.58, -239.81)" d="M 52.08 226.852 L 77.081 226.852 L 77.081 252.762 L 52.08 252.762 z" stroke-linecap="round" />
</g>
		<g transform="matrix(2 0 0 2 -441.9 506.64)" id="bOjdvcolJ-CuYwZC75wOw"  >
<path style="stroke: none; stroke-width: 1; stroke-dasharray: none; stroke-linecap: butt; stroke-dashoffset: 0; stroke-linejoin: miter; stroke-miterlimit: 4; fill: rgb(249,207,207); fill-rule: nonzero; opacity: 1;" vector-effect="non-scaling-stroke"  transform=" translate(-191.42, -239.81)" d="M 178.919 226.852 L 203.92000000000002 226.852 L 203.92000000000002 252.762 L 178.919 252.762 z" stroke-linecap="round" />
</g>
		<g transform="matrix(2 0 0 2 -568.74 418.42)" id="kL5nFoUWnMLvEzUoT9FJX"  >
<path style="stroke: none; stroke-width: 1; stroke-dasharray: none; stroke-linecap: butt; stroke-dashoffset: 0; stroke-linejoin: miter; stroke-miterlimit: 4; fill: rgb(55,98,204); fill-rule: nonzero; opacity: 1;" vector-effect="non-scaling-stroke"  transform=" translate(-128, -195.69)" d="M 203.92 254.762 L 52.079999999999984 254.762 C 50.975999999999985 254.762 50.079999999999984 253.866 50.079999999999984 252.762 L 50.079999999999984 191.41899999999998 C 50.079999999999984 174.74699999999999 63.59099999999998 161.18399999999997 80.19799999999998 161.18399999999997 L 97.31999999999998 161.18399999999997 L 97.31999999999998 138.61999999999998 C 97.31999999999998 137.51599999999996 98.21599999999998 136.61999999999998 99.31999999999998 136.61999999999998 L 155.498 136.61999999999998 C 156.602 136.61999999999998 157.498 137.51599999999996 157.498 138.61999999999998 L 157.498 161.18299999999996 L 175.802 161.18299999999996 C 192.409 161.18299999999996 205.92 174.74599999999995 205.92 191.41799999999995 L 205.92 252.76099999999997 C 205.92 253.86599999999996 205.024 254.76199999999997 203.92 254.76199999999997 z M 54.079999999999984 250.762 L 201.92 250.762 L 201.92 191.41899999999998 C 201.92 176.95299999999997 190.20299999999997 165.18399999999997 175.802 165.18399999999997 L 155.498 165.18399999999997 C 154.39399999999998 165.18399999999997 153.498 164.28799999999998 153.498 163.18399999999997 L 153.498 140.61999999999998 L 101.32 140.61999999999998 L 101.32 163.18299999999996 C 101.32 164.28699999999998 100.42399999999999 165.18299999999996 99.32 165.18299999999996 L 80.198 165.18299999999996 C 65.797 165.18299999999996 54.08 176.95199999999997 54.08 191.41799999999995 z" stroke-linecap="round" />
</g>
		<g transform="matrix(2 0 0 2 -670.58 487.76)"  >
<path style="stroke: none; stroke-width: 1; stroke-dasharray: none; stroke-linecap: butt; stroke-dashoffset: 0; stroke-linejoin: miter; stroke-miterlimit: 4; fill: rgb(55,98,204); fill-rule: nonzero; opacity: 1;" vector-effect="non-scaling-stroke"  transform=" translate(-77.08, -230.37)" d="M 77.082 254.762 C 75.978 254.762 75.082 253.866 75.082 252.762 L 75.082 207.973 C 75.082 206.869 75.978 205.973 77.082 205.973 C 78.18599999999999 205.973 79.082 206.869 79.082 207.973 L 79.082 252.762 C 79.082 253.866 78.18599999999999 254.762 77.082 254.762 z" stroke-linecap="round" />
</g>
		<g transform="matrix(2 0 0 2 -466.9 487.76)"  >
<path style="stroke: none; stroke-width: 1; stroke-dasharray: none; stroke-linecap: butt; stroke-dashoffset: 0; stroke-linejoin: miter; stroke-miterlimit: 4; fill: rgb(55,98,204); fill-rule: nonzero; opacity: 1;" vector-effect="non-scaling-stroke"  transform=" translate(-178.92, -230.37)" d="M 178.919 254.762 C 177.815 254.762 176.919 253.866 176.919 252.762 L 176.919 207.973 C 176.919 206.869 177.815 205.973 178.919 205.973 C 180.02300000000002 205.973 180.919 206.869 180.919 207.973 L 180.919 252.762 C 180.919 253.866 180.02300000000002 254.762 178.919 254.762 z" stroke-linecap="round" />
</g>
		<g transform="matrix(2 0 0 2 -695.58 506.64)" id="wqWEPacyKnpcC90X-bWwp"  >
<path style="stroke: none; stroke-width: 1; stroke-dasharray: none; stroke-linecap: butt; stroke-dashoffset: 0; stroke-linejoin: miter; stroke-miterlimit: 4; fill: rgb(55,98,204); fill-rule: nonzero; opacity: 1;" vector-effect="non-scaling-stroke"  transform=" translate(-64.58, -239.81)" d="M 77.082 254.762 L 52.08 254.762 C 50.976 254.762 50.08 253.866 50.08 252.762 L 50.08 226.853 C 50.08 225.749 50.976 224.853 52.08 224.853 L 77.081 224.853 C 78.185 224.853 79.081 225.749 79.081 226.853 L 79.081 252.762 C 79.08200000000001 253.866 78.186 254.762 77.08200000000001 254.762 z M 54.08 250.762 L 75.081 250.762 L 75.081 228.853 L 54.08 228.853 z" stroke-linecap="round" />
</g>
		<g transform="matrix(2 0 0 2 -441.9 506.64)" id="gZ2FPW0Uk7TYh7sdaSSAl"  >
<path style="stroke: none; stroke-width: 1; stroke-dasharray: none; stroke-linecap: butt; stroke-dashoffset: 0; stroke-linejoin: miter; stroke-miterlimit: 4; fill: rgb(55,98,204); fill-rule: nonzero; opacity: 1;" vector-effect="non-scaling-stroke"  transform=" translate(-191.42, -239.81)" d="M 203.92 254.762 L 178.91899999999998 254.762 C 177.81499999999997 254.762 176.91899999999998 253.866 176.91899999999998 252.762 L 176.91899999999998 226.853 C 176.91899999999998 225.749 177.81499999999997 224.853 178.91899999999998 224.853 L 203.92 224.853 C 205.024 224.853 205.92 225.749 205.92 226.853 L 205.92 252.762 C 205.92 253.866 205.024 254.762 203.92 254.762 z M 180.91899999999998 250.762 L 201.92 250.762 L 201.92 228.853 L 180.91899999999998 228.853 z" stroke-linecap="round" />
</g>
		<g transform="matrix(2 0 0 2 -724.14 365.6)" id="3"  >
<path style="stroke: none; stroke-width: 1; stroke-dasharray: none; stroke-linecap: butt; stroke-dashoffset: 0; stroke-linejoin: miter; stroke-miterlimit: 4; fill: rgb(164,201,255); fill-rule: nonzero; opacity: 1;" vector-effect="non-scaling-stroke"  transform=" translate(-50.31, -169.28)" d="M 36.08 191.2 C 34.976 191.2 34.08 190.304 34.08 189.2 C 34.08 170.37 46.055 153.59799999999998 63.879 147.46699999999998 C 64.92099999999999 147.10699999999997 66.06099999999999 147.66299999999998 66.42099999999999 148.707 C 66.77999999999999 149.751 66.225 150.89 65.17999999999999 151.249 C 48.97099999999999 156.826 38.07999999999999 172.077 38.07999999999999 189.2 C 38.07999999999999 190.30499999999998 37.18399999999999 191.2 36.07999999999999 191.2 z" stroke-linecap="round" />
</g>
		<g transform="matrix(2 0 0 2 -414.68 365.18)" id="D9gGmpOePCz5VHrR-Fvr_"  >
<path style="stroke: none; stroke-width: 1; stroke-dasharray: none; stroke-linecap: butt; stroke-dashoffset: 0; stroke-linejoin: miter; stroke-miterlimit: 4; fill: rgb(164,201,255); fill-rule: nonzero; opacity: 1;" vector-effect="non-scaling-stroke"  transform=" translate(-205.04, -169.06)" d="M 219.92 191.2 C 218.81599999999997 191.2 217.92 190.304 217.92 189.2 C 217.92 171.745 206.26 155.971 189.56599999999997 150.84099999999998 C 188.50999999999996 150.516 187.91699999999997 149.397 188.24199999999996 148.34099999999998 C 188.56699999999995 147.28599999999997 189.68399999999997 146.69299999999998 190.74099999999996 147.01699999999997 C 209.09799999999996 152.65899999999996 221.91999999999996 170.00499999999997 221.91999999999996 189.19999999999996 C 221.91999999999996 190.30499999999995 221.02499999999995 191.19999999999996 219.91999999999996 191.19999999999996 z" stroke-linecap="round" />
</g>
		<g transform="matrix(2 0 0 2 -416.96 423.64)" id="4"  >
<path style="stroke: none; stroke-width: 1; stroke-dasharray: none; stroke-linecap: butt; stroke-dashoffset: 0; stroke-linejoin: miter; stroke-miterlimit: 4; fill: rgb(164,201,255); fill-rule: nonzero; opacity: 1;" vector-effect="non-scaling-stroke"  transform=" translate(-203.89, -198.3)" d="M 210.92 235.487 C 209.81599999999997 235.487 208.92 234.591 208.92 233.487 L 208.92 191.2 C 208.92 180.702 204.087 171.047 195.66 164.712 C 194.777 164.048 194.599 162.795 195.263 161.911 C 195.927 161.028 197.181 160.85 198.06300000000002 161.514 C 207.50400000000002 168.61200000000002 212.919 179.431 212.919 191.199 L 212.919 233.48600000000002 C 212.92000000000002 234.591 212.025 235.48700000000002 210.92000000000002 235.48700000000002 z" stroke-linecap="round" />
</g>
		<g transform="matrix(2 0 0 2 -720.5 423.64)" id="TPNWE4T7bK3jy_Utg8X1u"  >
<path style="stroke: none; stroke-width: 1; stroke-dasharray: none; stroke-linecap: butt; stroke-dashoffset: 0; stroke-linejoin: miter; stroke-miterlimit: 4; fill: rgb(164,201,255); fill-rule: nonzero; opacity: 1;" vector-effect="non-scaling-stroke"  transform=" translate(-52.12, -198.29)" d="M 45.08 235.487 C 43.976 235.487 43.08 234.591 43.08 233.487 L 43.08 191.2 C 43.08 179.42399999999998 48.501 168.599 57.954 161.50199999999998 C 58.838 160.83899999999997 60.091 161.01699999999997 60.754 161.89999999999998 C 61.418 162.783 61.239 164.03699999999998 60.355999999999995 164.7 C 51.919 171.034 47.080999999999996 180.69299999999998 47.080999999999996 191.19899999999998 L 47.080999999999996 233.486 C 47.08 234.59099999999998 46.184 235.487 45.08 235.487 z" stroke-linecap="round" />
</g>
		<g transform="matrix(2 0 0 2 -568.74 203.7)" id="Ho6r1wUK4xIJ_6BQ7wdEx"  >
<path style="stroke: none; stroke-width: 1; stroke-dasharray: none; stroke-linecap: butt; stroke-dashoffset: 0; stroke-linejoin: miter; stroke-miterlimit: 4; fill: rgb(70,113,198); fill-rule: nonzero; opacity: 1;" vector-effect="non-scaling-stroke"  transform=" translate(-128, -88.34)" d="M 128 143.344 C 91.622 143.344 62.132000000000005 113.854 62.132000000000005 77.476 L 62.132000000000005 49.887 C 62.132000000000005 40.743 69.545 33.33 78.68900000000001 33.33 L 193.86900000000003 33.33 L 193.86900000000003 77.476 C 193.86900000000003 113.854 164.37800000000004 143.344 128.00000000000003 143.344 z" stroke-linecap="round" />
</g>
		<g transform="matrix(2 0 0 2 -568.74 203.7)" id="43"  >
<path style="stroke: none; stroke-width: 1; stroke-dasharray: none; stroke-linecap: butt; stroke-dashoffset: 0; stroke-linejoin: miter; stroke-miterlimit: 4; fill: rgb(55,98,204); fill-rule: nonzero; opacity: 1;" vector-effect="non-scaling-stroke"  transform=" translate(-128, -88.34)" d="M 128 145.344 C 90.577 145.344 60.131 114.899 60.131 77.476 L 60.131 49.887 C 60.131 39.655 68.456 31.330000000000002 78.688 31.330000000000002 L 193.868 31.330000000000002 C 194.972 31.330000000000002 195.868 32.226 195.868 33.33 L 195.868 77.476 C 195.869 114.898 165.423 145.344 128 145.344 z M 78.688 35.33 C 70.662 35.33 64.131 41.86 64.131 49.887 L 64.131 77.476 C 64.131 112.693 92.782 141.344 127.999 141.344 C 163.216 141.344 191.867 112.693 191.867 77.476 L 191.867 35.33 z" stroke-linecap="round" />
</g>
		<g transform="matrix(2 0 0 2 -568.74 206.76)" id="kl4mLKYKWh_wJxrRH_Jux"  >
<path style="stroke: none; stroke-width: 1; stroke-dasharray: none; stroke-linecap: butt; stroke-dashoffset: 0; stroke-linejoin: miter; stroke-miterlimit: 4; fill: rgb(249,207,207); fill-rule: nonzero; opacity: 1;" vector-effect="non-scaling-stroke"  transform=" translate(-128, -89.87)" d="M 184.101 81.928 L 184.101 76.675 C 184.101 45.971 158.984 21.08 128.001 21.08 C 97.018 21.08 71.90100000000001 45.971 71.90100000000001 76.675 L 71.90100000000001 81.928 C 62.16000000000001 81.73 54.43100000000001 89.491 54.43100000000001 98.871 C 54.43100000000001 108.88799999999999 63.17600000000001 116.81099999999999 73.38300000000001 115.732 C 79.17300000000002 140.329 101.42200000000001 158.654 128.002 158.654 C 154.584 158.654 176.83100000000002 140.327 182.621 115.732 C 192.81400000000002 116.81 201.573 108.902 201.573 98.871 C 201.571 89.48599999999999 193.836 81.731 184.101 81.928 z" stroke-linecap="round" />
</g>
		<g transform="matrix(2 0 0 2 -568.74 206.76)" id="bWC-x1I7YGHeW5mIVpT0z"  >
<path style="stroke: none; stroke-width: 1; stroke-dasharray: none; stroke-linecap: butt; stroke-dashoffset: 0; stroke-linejoin: miter; stroke-miterlimit: 4; fill: rgb(55,98,204); fill-rule: nonzero; opacity: 1;" vector-effect="non-scaling-stroke"  transform=" translate(-128, -89.87)" d="M 128 160.654 C 101.425 160.654 78.57300000000001 143.129 71.844 117.82499999999999 C 67.04599999999999 117.89599999999999 62.30199999999999 116.15399999999998 58.702999999999996 112.91599999999998 C 54.715999999999994 109.32799999999999 52.428999999999995 104.20799999999998 52.428999999999995 98.87099999999998 C 52.428999999999995 93.76099999999998 54.44799999999999 88.96899999999998 58.114 85.37599999999998 C 61.321999999999996 82.23199999999997 65.448 80.35899999999998 69.899 79.99099999999997 L 69.899 76.67499999999997 C 69.9 44.91699999999997 95.964 19.07999999999997 128 19.07999999999997 C 160.036 19.07999999999997 186.1 44.91699999999997 186.1 76.67499999999997 L 186.1 79.99099999999997 C 190.551 80.35999999999997 194.677 82.23299999999998 197.886 85.37699999999997 C 201.552 88.96899999999997 203.571 93.76199999999997 203.571 98.87099999999997 C 203.571 104.20899999999996 201.284 109.32799999999997 197.298 112.91499999999996 C 193.698 116.15299999999996 188.959 117.86599999999996 184.156 117.82499999999996 C 177.427 143.12899999999996 154.57500000000002 160.65399999999997 128 160.65399999999997 z M 73.38300000000001 113.732 C 74.30100000000002 113.732 75.114 114.362 75.328 115.274 C 81.063 139.638 102.72200000000001 156.654 128 156.654 C 153.277 156.654 174.937 139.638 180.671 115.274 C 180.902 114.294 181.82399999999998 113.635 182.828 113.743 C 187.13 114.195 191.431 112.81299999999999 194.621 109.942 C 197.76600000000002 107.112 199.57000000000002 103.077 199.57000000000002 98.871 C 199.57000000000002 94.845 197.97700000000003 91.068 195.086 88.234 C 192.16600000000003 85.37299999999999 188.28300000000002 83.853 184.14100000000002 83.92699999999999 C 183.59900000000002 83.94999999999999 183.085 83.732 182.70100000000002 83.356 C 182.31700000000004 82.97999999999999 182.10100000000003 82.46499999999999 182.10100000000003 81.92699999999999 L 182.10100000000003 76.67399999999999 C 182.10100000000003 47.120999999999995 157.83200000000002 23.078999999999994 128.00100000000003 23.078999999999994 C 98.17000000000004 23.078999999999994 73.90000000000003 47.12299999999999 73.90000000000003 76.67499999999998 L 73.90000000000003 81.92799999999998 C 73.90000000000003 82.46599999999998 73.68400000000004 82.97999999999999 73.30000000000004 83.35699999999999 C 72.91600000000004 83.73299999999999 72.40200000000004 83.94899999999998 71.86000000000004 83.92799999999998 C 67.74700000000004 83.84899999999999 63.83500000000004 85.37299999999998 60.91500000000004 88.23399999999998 C 58.02300000000004 91.06699999999998 56.43100000000004 94.84499999999998 56.43100000000004 98.87199999999999 C 56.43100000000004 103.07799999999999 58.23500000000004 107.11299999999999 61.38100000000004 109.94399999999999 C 64.57000000000005 112.814 68.87000000000005 114.19699999999999 73.17300000000004 113.743 C 73.24300000000004 113.735 73.31300000000005 113.732 73.38300000000004 113.732 z" stroke-linecap="round" />
</g>
		<g transform="matrix(2 0 0 2 -558.96 101.42)" id="W4ua5WmgQ4tKMPC9N4_3g"  >
<path style="stroke: none; stroke-width: 1; stroke-dasharray: none; stroke-linecap: butt; stroke-dashoffset: 0; stroke-linejoin: miter; stroke-miterlimit: 4; fill: rgb(70,113,198); fill-rule: nonzero; opacity: 1;" vector-effect="non-scaling-stroke"  transform=" translate(-132.88, -37.19)" d="M 193.869 71.145 L 105.854 71.145 C 87.102 71.145 71.901 55.943999999999996 71.901 37.19199999999999 C 71.901 18.439999999999994 87.102 3.23899999999999 105.854 3.23899999999999 L 163.465 3.23899999999999 C 180.257 3.23899999999999 193.869 16.850999999999992 193.869 33.64299999999999 z" stroke-linecap="round" />
</g>
		<g transform="matrix(2 0 0 2 -558.96 101.42)" id="N27opTjuRajxyyqxHngva"  >
<path style="stroke: none; stroke-width: 1; stroke-dasharray: none; stroke-linecap: butt; stroke-dashoffset: 0; stroke-linejoin: miter; stroke-miterlimit: 4; fill: rgb(55,98,204); fill-rule: nonzero; opacity: 1;" vector-effect="non-scaling-stroke"  transform=" translate(-132.88, -37.19)" d="M 193.869 73.145 L 105.853 73.145 C 86.02799999999999 73.145 69.89999999999999 57.016999999999996 69.89999999999999 37.19199999999999 C 69.89999999999999 17.36699999999999 86.02799999999999 1.2379999999999924 105.853 1.2379999999999924 L 163.464 1.2379999999999924 C 181.332 1.2379999999999924 195.868 15.774999999999993 195.868 33.641999999999996 L 195.868 71.144 C 195.869 72.24900000000001 194.97299999999998 73.14500000000001 193.869 73.14500000000001 z M 105.853 5.2379999999999995 C 88.234 5.2379999999999995 73.89999999999999 19.572 73.89999999999999 37.191 C 73.89999999999999 54.81 88.234 69.144 105.853 69.144 L 191.869 69.144 L 191.869 33.642 C 191.869 17.980000000000004 179.127 5.238000000000003 163.465 5.238000000000003 z" stroke-linecap="round" />
</g>
		<g transform="matrix(2 0 0 2 -568.74 289.83)" id="EGeuwMgR_RjlgIWrS0fHN"  >
<path style="stroke: none; stroke-width: 1; stroke-dasharray: none; stroke-linecap: butt; stroke-dashoffset: 0; stroke-linejoin: miter; stroke-miterlimit: 4; fill: rgb(249,167,167); fill-rule: nonzero; opacity: 1;" vector-effect="non-scaling-stroke"  transform=" translate(-13.01, -10.81)" d="M 0 10.808 C 0 4.83891 5.82433 0 13.009 0 C 20.19367 0 26.018 4.83891 26.018 10.808 C 26.018 16.77709 20.19367 21.616 13.009 21.616 C 5.824330000000001 21.616 0 16.77709 0 10.808 z" stroke-linecap="round" />
</g>
		<g transform="matrix(2 0 0 2 -510.38 226.56)"  >
<path style="stroke: none; stroke-width: 1; stroke-dasharray: none; stroke-linecap: butt; stroke-dashoffset: 0; stroke-linejoin: miter; stroke-miterlimit: 4; fill: rgb(55,98,204); fill-rule: nonzero; opacity: 1;" vector-effect="non-scaling-stroke"  transform=" translate(-157.18, -99.75)" d="M 151.833 90.081 C 150.742 91.33 150.077 92.959 150.077 94.747 L 150.077 102.325 C 150.077 106.248 153.258 109.429 157.181 109.429 C 161.10500000000002 109.429 164.28500000000003 106.248 164.28500000000003 102.325 L 164.28500000000003 95.09100000000001 C 159.20000000000002 94.20200000000001 154.95900000000003 92.11500000000001 151.83300000000003 90.081 z" stroke-linecap="round" />
</g>
		<g transform="matrix(2 0 0 2 -627.12 226.52)" id="YTgvbjbIQkDqIDg_OcNwF"  >
<path style="stroke: none; stroke-width: 1; stroke-dasharray: none; stroke-linecap: butt; stroke-dashoffset: 0; stroke-linejoin: miter; stroke-miterlimit: 4; fill: rgb(55,98,204); fill-rule: nonzero; opacity: 1;" vector-effect="non-scaling-stroke"  transform=" translate(-98.8, -99.75)" d="M 91.701 95.084 L 91.701 102.325 C 91.701 106.248 94.88199999999999 109.429 98.80499999999999 109.429 C 102.728 109.429 105.90899999999999 106.248 105.90899999999999 102.325 L 105.90899999999999 94.747 C 105.90899999999999 92.951 105.237 91.315 104.13799999999999 90.064 C 101.01899999999999 92.09899999999999 96.782 94.189 91.701 95.08399999999999 z" stroke-linecap="round" />
</g>
		<g transform="matrix(2 0 0 2 -508.54 207.78)" id="mOlDlvi38bqQuRaSaxN8C"  >
<path style="stroke: none; stroke-width: 1; stroke-dasharray: none; stroke-linecap: butt; stroke-dashoffset: 0; stroke-linejoin: miter; stroke-miterlimit: 4; fill: rgb(55,98,204); fill-rule: nonzero; opacity: 1;" vector-effect="non-scaling-stroke"  transform=" translate(-158.1, -90.36)" d="M 169.344 97.539 C 154.428 97.539 144.773 86.985 144.361 86.525 C 143.623 85.703 143.691 84.43900000000001 144.512 83.70100000000001 C 145.332 82.96300000000001 146.595 83.031 147.334 83.85000000000001 C 147.441 83.96900000000001 156.671 93.986 170.28 93.52300000000001 C 171.408 93.50000000000001 172.31 94.35100000000001 172.347 95.45400000000001 C 172.38400000000001 96.558 171.519 97.483 170.416 97.52100000000002 C 170.05599999999998 97.53300000000002 169.698 97.53900000000002 169.344 97.53900000000002 z" stroke-linecap="round" />
</g>
		<g transform="matrix(2 0 0 2 -629.04 207.78)" id="j_h3RQ49C3d-G31UMk2g-"  >
<path style="stroke: none; stroke-width: 1; stroke-dasharray: none; stroke-linecap: butt; stroke-dashoffset: 0; stroke-linejoin: miter; stroke-miterlimit: 4; fill: rgb(55,98,204); fill-rule: nonzero; opacity: 1;" vector-effect="non-scaling-stroke"  transform=" translate(-97.85, -90.36)" d="M 86.602 97.539 C 86.247 97.539 85.891 97.533 85.53 97.521 C 84.426 97.483 83.562 96.558 83.599 95.45400000000001 C 83.63600000000001 94.35000000000001 84.548 93.483 85.666 93.52300000000001 C 99.33699999999999 93.99100000000001 108.519 83.953 108.61 83.852 C 109.348 83.02900000000001 110.612 82.962 111.434 83.70100000000001 C 112.256 84.43900000000001 112.324 85.703 111.585 86.525 C 111.17299999999999 86.985 101.517 97.539 86.60199999999999 97.539 z" stroke-linecap="round" />
</g>
		<g transform="matrix(2 0 0 2 -514.52 342.56)" id="99"  >
<path style="stroke: none; stroke-width: 1; stroke-dasharray: none; stroke-linecap: butt; stroke-dashoffset: 0; stroke-linejoin: miter; stroke-miterlimit: 4; fill: rgb(224,235,252); fill-rule: nonzero; opacity: 1;" vector-effect="non-scaling-stroke"  transform=" translate(-155.12, -157.77)" d="M 169.648 155.017 C 170.502 153.22299999999998 170.899 151.184 170.676 149.063 C 170.029 142.933 164.536 138.488 158.40599999999998 139.135 C 152.66199999999998 139.74099999999999 148.39799999999997 144.60299999999998 148.41599999999997 150.256 C 147.71199999999996 150.195 146.99399999999997 150.195 146.26499999999996 150.272 C 140.13499999999996 150.91899999999998 135.68999999999997 156.41299999999998 136.33699999999996 162.542 C 136.98399999999995 168.67100000000002 142.47699999999995 173.117 148.60699999999997 172.47 C 149.82299999999998 172.342 150.96799999999996 172.016 152.02499999999998 171.539 C 154.50799999999998 174.875 158.62699999999998 176.861 163.063 176.393 C 169.74699999999999 175.688 174.593 169.698 173.88799999999998 163.014 C 173.545 159.773 171.95299999999997 156.971 169.64799999999997 155.017 z" stroke-linecap="round" />
</g>
		<g transform="matrix(2 0 0 2 -540.9 309.7)" id="30"  >
<path style="stroke: none; stroke-width: 1; stroke-dasharray: none; stroke-linecap: butt; stroke-dashoffset: 0; stroke-linejoin: miter; stroke-miterlimit: 4; fill: rgb(224,235,252); fill-rule: nonzero; opacity: 1;" vector-effect="non-scaling-stroke"  transform=" translate(-141.91, -141.32)" d="M 146.004 147.273 C 145.384 147.338 144.73999999999998 147.136 144.261 146.665 L 136.535 139.063 C 135.685 138.226 135.674 136.85899999999998 136.511 136.009 C 137.347 135.159 138.715 135.147 139.566 135.98399999999998 L 147.292 143.58599999999998 C 148.142 144.42299999999997 148.153 145.79 147.316 146.64 C 146.95 147.011 146.484 147.22199999999998 146.004 147.273 z" stroke-linecap="round" />
</g>
		<g transform="matrix(2 0 0 2 -560.3 309.94)" id="bWH3pLm8i87oFmYbAv7u5"  >
<path style="stroke: none; stroke-width: 1; stroke-dasharray: none; stroke-linecap: butt; stroke-dashoffset: 0; stroke-linejoin: miter; stroke-miterlimit: 4; fill: rgb(224,235,252); fill-rule: nonzero; opacity: 1;" vector-effect="non-scaling-stroke"  transform=" translate(-132.22, -141.45)" d="M 136.312 147.4 C 135.692 147.465 135.048 147.263 134.56900000000002 146.792 L 126.84300000000002 139.19 C 125.99300000000002 138.353 125.98200000000001 136.986 126.81900000000002 136.136 C 127.65500000000002 135.286 129.02300000000002 135.274 129.87400000000002 136.111 L 137.60000000000002 143.713 C 138.45000000000002 144.54999999999998 138.461 145.917 137.62400000000002 146.767 C 137.25900000000001 147.138 136.79300000000003 147.349 136.312 147.4 z" stroke-linecap="round" />
</g>
		<g transform="matrix(2 0 0 2 -599.42 452.08)" id="qkCXjzJdglbEGYSMmv69O"  >
<path style="stroke: none; stroke-width: 1; stroke-dasharray: none; stroke-linecap: butt; stroke-dashoffset: 0; stroke-linejoin: miter; stroke-miterlimit: 4; fill: rgb(249,207,207); fill-rule: nonzero; opacity: 1;" vector-effect="non-scaling-stroke"  transform=" translate(-112.65, -212.51)" d="M 129.804 210.086 L 152.891 187.239 C 154.771 185.379 154.78699999999998 182.346 152.927 180.466 L 152.894 180.43200000000002 C 151.034 178.55200000000002 148.00300000000001 178.53600000000003 146.12300000000002 180.39600000000002 L 123.05600000000001 203.223 C 122.43100000000001 203.841 121.42600000000002 203.84500000000003 120.79700000000001 203.23100000000002 L 120.397 202.84000000000003 L 120.38600000000001 202.82900000000004 C 119.766 202.22500000000002 119.71100000000001 201.24600000000004 120.25900000000001 200.57600000000002 L 136.988 180.13600000000002 C 138.666 178.086 138.368 175.06500000000003 136.322 173.38200000000003 L 136.288 173.35400000000004 C 134.24800000000002 171.67500000000004 131.232 171.97300000000004 129.55800000000002 174.01700000000005 L 123.64300000000001 181.24400000000006 L 106.55000000000001 200.94100000000006 L 103.46700000000001 202.17900000000006 L 102.94700000000002 184.65700000000007 C 102.85700000000001 181.61100000000008 100.58600000000001 178.96400000000006 97.55300000000001 178.67300000000006 C 93.885 178.32100000000005 90.85700000000001 181.25000000000006 90.96300000000001 184.81400000000005 L 91.23200000000001 193.86500000000004 C 91.65000000000002 207.95300000000003 86.81600000000002 219.54100000000003 86.88700000000001 224.09900000000005 C 86.91600000000001 225.94300000000004 86.30400000000002 227.73800000000006 84.99900000000001 229.04100000000005 L 61.70300000000001 252.29300000000006 L 62.18200000000001 252.76000000000008 L 104.70000000000002 252.76000000000008 L 109.00400000000002 248.24400000000009 C 111.36100000000002 245.77100000000007 113.17100000000002 246.7340000000001 116.71100000000001 244.62800000000007 C 132.268 235.37400000000008 131.40200000000002 236.04200000000006 156.66000000000003 224.65600000000006 C 159.03300000000002 223.58600000000007 160.01300000000003 220.69400000000007 158.69100000000003 218.37700000000007 C 157.53800000000004 216.35700000000006 154.94600000000003 215.66100000000006 152.82600000000002 216.61600000000007 L 136.26500000000001 224.08200000000008 C 135.542 224.40800000000007 134.69600000000003 224.03800000000007 134.44400000000002 223.28500000000008 C 134.25300000000001 222.71200000000007 134.46900000000002 222.08200000000008 134.971 221.74700000000007 L 161.313 204.17900000000006 C 163.404 202.78400000000005 164.25199999999998 200.01000000000005 163.06199999999998 197.79600000000005 C 161.69699999999997 195.25600000000006 158.486 194.49500000000006 156.14499999999998 196.05700000000004 L 131.67499999999998 212.37700000000004 C 131.04999999999998 212.79400000000004 130.213 212.67900000000003 129.72299999999998 212.10900000000004 C 129.214 211.52000000000004 129.249 210.63500000000005 129.80399999999997 210.08600000000004 z" stroke-linecap="round" />
</g>
		<g transform="matrix(2 0 0 2 -599.44 452.08)" id="-D5Kunm_xiI9pkSP6YO2Y"  >
<path style="stroke: none; stroke-width: 1; stroke-dasharray: none; stroke-linecap: butt; stroke-dashoffset: 0; stroke-linejoin: miter; stroke-miterlimit: 4; fill: rgb(55,98,204); fill-rule: nonzero; opacity: 1;" vector-effect="non-scaling-stroke"  transform=" translate(-112.65, -212.51)" d="M 104.7 254.762 L 62.182 254.762 C 61.660000000000004 254.762 61.158 254.558 60.785000000000004 254.193 L 60.306000000000004 253.726 C 59.92400000000001 253.352 59.706 252.841 59.703 252.306 C 59.7 251.77100000000002 59.911 251.258 60.290000000000006 250.88000000000002 L 83.58600000000001 227.62800000000001 C 84.44600000000001 226.769 84.90800000000002 225.52800000000002 84.88700000000001 224.133 C 84.85800000000002 222.25900000000001 85.48300000000002 219.627 86.27400000000002 216.294 C 87.63300000000001 210.57000000000002 89.49400000000001 202.73100000000002 89.23300000000002 193.92700000000002 L 88.96400000000001 184.87600000000003 C 88.89600000000002 182.58400000000003 89.81800000000001 180.37000000000003 91.49200000000002 178.80200000000002 C 93.16600000000003 177.23600000000002 95.44800000000002 176.46400000000003 97.74400000000001 176.68400000000003 C 101.72700000000002 177.06600000000003 104.82300000000001 180.46900000000002 104.94600000000001 184.60000000000002 L 105.38100000000001 199.23800000000003 L 122.13200000000002 179.93400000000003 L 128.00900000000001 172.75200000000004 C 129.15800000000002 171.34900000000005 130.78400000000002 170.47800000000004 132.58900000000003 170.30000000000004 C 134.39400000000003 170.12600000000003 136.15700000000004 170.65900000000005 137.55700000000002 171.81100000000004 C 140.48200000000003 174.21700000000004 140.90500000000003 178.50800000000004 138.53400000000002 181.40400000000002 L 122.66100000000002 200.79800000000003 L 144.71400000000003 178.97400000000002 C 146.00300000000001 177.698 147.73800000000003 176.97400000000002 149.52500000000003 177.01100000000002 C 151.33800000000002 177.02100000000002 153.03900000000004 177.73600000000002 154.31500000000003 179.02500000000003 C 156.98100000000002 181.72000000000003 156.95800000000003 186.02700000000004 154.29700000000003 188.66000000000003 L 135.00400000000002 207.75300000000001 L 155.03400000000002 194.394 C 156.62900000000002 193.33100000000002 158.60800000000003 192.989 160.467 193.453 C 162.324 193.917 163.912 195.155 164.823 196.85 C 166.463 199.902 165.40800000000002 203.852 162.422 205.844 L 142.742 218.969 L 152.004 214.79399999999998 C 155.1 213.397 158.79999999999998 214.53599999999997 160.427 217.386 C 161.331 218.969 161.527 220.86599999999999 160.96699999999998 222.591 C 160.40599999999998 224.317 159.136 225.735 157.48199999999997 226.48000000000002 L 150.02699999999996 229.83400000000003 C 132.17399999999995 237.85700000000003 131.47799999999995 238.17100000000002 117.73299999999996 246.34700000000004 C 115.93399999999995 247.41700000000003 114.50599999999996 247.80400000000003 113.35799999999996 248.11400000000003 C 112.08399999999996 248.45900000000003 111.38099999999996 248.64800000000002 110.45099999999996 249.62500000000003 L 106.14699999999996 254.14100000000002 C 105.76999999999997 254.538 105.24699999999996 254.76200000000003 104.69999999999996 254.76200000000003 z M 66.07 250.762 L 103.84199999999998 250.762 L 107.55499999999998 246.866 C 109.25699999999998 245.08 110.81099999999998 244.66000000000003 112.31299999999997 244.25400000000002 C 113.31899999999997 243.98200000000003 114.35899999999998 243.70100000000002 115.68699999999997 242.91100000000003 C 129.62799999999996 234.61800000000002 130.68799999999996 234.14100000000002 148.38699999999997 226.18700000000004 L 155.83699999999996 222.83500000000004 C 156.47499999999997 222.54700000000003 156.94499999999996 222.02200000000005 157.16199999999995 221.35600000000002 C 157.37799999999996 220.69100000000003 157.30399999999995 219.98600000000002 156.95299999999995 219.371 C 156.33799999999994 218.292 154.88699999999994 217.88500000000002 153.64699999999993 218.443 L 137.08499999999992 225.90800000000002 C 136.2259999999999 226.29600000000002 135.23599999999993 226.30100000000002 134.3739999999999 225.923 C 133.5099999999999 225.54500000000002 132.8429999999999 224.815 132.5449999999999 223.921 C 132.0699999999999 222.498 132.6099999999999 220.921 133.8589999999999 220.087 L 160.2009999999999 202.51899999999998 C 161.4909999999999 201.65899999999996 161.9729999999999 200.00199999999998 161.29799999999992 198.74699999999999 C 160.91399999999993 198.03199999999998 160.27399999999992 197.53099999999998 159.49499999999992 197.33599999999998 C 158.7139999999999 197.141 157.91799999999992 197.279 157.25199999999992 197.725 L 132.78199999999993 214.045 C 131.31899999999993 215.01899999999998 129.3509999999999 214.75099999999998 128.20399999999992 213.41799999999998 C 127.01599999999992 212.03599999999997 127.09999999999992 209.94899999999998 128.39499999999992 208.66699999999997 L 151.4819999999999 185.81999999999996 C 152.5749999999999 184.73799999999997 152.58499999999992 182.96799999999996 151.5029999999999 181.87499999999997 C 150.3889999999999 180.74899999999997 148.6199999999999 180.73799999999997 147.5269999999999 181.82099999999997 L 124.4599999999999 204.64799999999997 C 123.0699999999999 206.02399999999997 120.7989999999999 206.03299999999996 119.3979999999999 204.66599999999997 L 118.9969999999999 204.27399999999997 C 117.6129999999999 202.92599999999996 117.4939999999999 200.79699999999997 118.7099999999999 199.31299999999996 L 135.4379999999999 178.87399999999997 C 136.4149999999999 177.67999999999998 136.2409999999999 175.91199999999998 135.0499999999999 174.93199999999996 C 134.4419999999999 174.43199999999996 133.71999999999989 174.20899999999995 132.9799999999999 174.28499999999997 C 132.2409999999999 174.35799999999998 131.5739999999999 174.71399999999997 131.1039999999999 175.28899999999996 L 125.1899999999999 182.51499999999996 L 108.0599999999999 202.25699999999995 C 107.8519999999999 202.49699999999996 107.5889999999999 202.68399999999994 107.2939999999999 202.80199999999994 L 104.2109999999999 204.03999999999994 C 103.6049999999999 204.28399999999993 102.9169999999999 204.21599999999992 102.3709999999999 203.85699999999994 C 101.8239999999999 203.49899999999994 101.4869999999999 202.89699999999993 101.4669999999999 202.24299999999994 L 100.9459999999999 184.72199999999992 C 100.8829999999999 182.6009999999999 99.3419999999999 180.85899999999992 97.3609999999999 180.66899999999993 C 96.1849999999999 180.55599999999993 95.0719999999999 180.93099999999993 94.22499999999991 181.7259999999999 C 93.3879999999999 182.5099999999999 92.92699999999991 183.6159999999999 92.96099999999991 184.7609999999999 L 93.22999999999992 193.8119999999999 C 93.50699999999992 203.1439999999999 91.57499999999992 211.2799999999999 90.16499999999992 217.2209999999999 C 89.46699999999993 220.1609999999999 88.86399999999992 222.6999999999999 88.88599999999992 224.0739999999999 C 88.92499999999993 226.5629999999999 88.04599999999992 228.8309999999999 86.41199999999992 230.4619999999999 z M 129.804 210.086 L 129.814 210.086 z" stroke-linecap="round" />
</g>
		<g transform="matrix(2 0 0 2 -97.12 364.18)" id="pG_qmkiNnRZtYL5P1HdNL"  >
<path style="stroke: none; stroke-width: 1; stroke-dasharray: none; stroke-linecap: butt; stroke-dashoffset: 0; stroke-linejoin: miter; stroke-miterlimit: 4; fill: rgb(249,207,207); fill-rule: nonzero; opacity: 1;" vector-effect="non-scaling-stroke"  transform=" translate(-78.43, -169.32)" d="M 121.873 148.261 L 103.934 148.261 C 103.934 134.266 103.934 124.78699999999999 103.934 108.87799999999999 L 52.881 108.87799999999999 L 52.881 148.261 L 34.992000000000004 148.261 C 20.879000000000005 148.261 9.439000000000004 159.701 9.439000000000004 173.814 L 9.439000000000004 229.76 L 147.427 229.76 C 147.427 221.801 147.427 181.85899999999998 147.427 173.814 C 147.426 159.701 135.986 148.261 121.87299999999999 148.261 z" stroke-linecap="round" />
</g>
		<g transform="matrix(2 0 0 2 -97.14 186.2)" id="tHILX6Q_qaLYn076mw-g5"  >
<path style="stroke: none; stroke-width: 1; stroke-dasharray: none; stroke-linecap: butt; stroke-dashoffset: 0; stroke-linejoin: miter; stroke-miterlimit: 4; fill: rgb(70,113,198); fill-rule: nonzero; opacity: 1;" vector-effect="non-scaling-stroke"  transform=" translate(-78.43, -80.34)" d="M 78.432 130.324 C 45.373000000000005 130.324 18.573 103.52400000000002 18.573 70.465 L 18.573 45.393 C 18.573 37.083 25.309 30.347 33.619 30.347 L 138.291 30.347 L 138.291 70.465 C 138.292 103.524 111.49199999999999 130.324 78.43199999999999 130.324 z" stroke-linecap="round" />
</g>
		<g transform="matrix(2 0 0 2 -97.12 188.98)" id="35"  >
<path style="stroke: none; stroke-width: 1; stroke-dasharray: none; stroke-linecap: butt; stroke-dashoffset: 0; stroke-linejoin: miter; stroke-miterlimit: 4; fill: rgb(249,207,207); fill-rule: nonzero; opacity: 1;" vector-effect="non-scaling-stroke"  transform=" translate(-78.43, -81.73)" d="M 129.415 74.511 L 129.415 69.737 C 129.415 41.833999999999996 106.589 19.21399999999999 78.43299999999999 19.21399999999999 C 50.275999999999996 19.21399999999999 27.450999999999993 41.83399999999999 27.450999999999993 69.737 L 27.450999999999993 74.511 C 18.597999999999992 74.33099999999999 11.574999999999994 81.384 11.574999999999994 89.90899999999999 C 11.574999999999994 99.01199999999999 19.521999999999995 106.21199999999999 28.797999999999995 105.231 C 34.059 127.584 54.278999999999996 144.237 78.434 144.237 C 102.591 144.237 122.809 127.582 128.07 105.231 C 137.333 106.211 145.293 99.024 145.293 89.90899999999999 C 145.291 81.38 138.262 74.332 129.41500000000002 74.511 z" stroke-linecap="round" />
</g>
		<g transform="matrix(2 0 0 2 -88.26 93.24)" id="TLo2iBhaoMk_U768gV60T"  >
<path style="stroke: none; stroke-width: 1; stroke-dasharray: none; stroke-linecap: butt; stroke-dashoffset: 0; stroke-linejoin: miter; stroke-miterlimit: 4; fill: rgb(70,113,198); fill-rule: nonzero; opacity: 1;" vector-effect="non-scaling-stroke"  transform=" translate(-82.87, -33.86)" d="M 138.292 64.712 L 58.306 64.712 C 41.265 64.712 27.449999999999996 50.897000000000006 27.449999999999996 33.856 C 27.449999999999996 16.815 41.26499999999999 3 58.306 3 L 110.661 3 C 125.921 3 138.292 15.371 138.292 30.631 z" stroke-linecap="round" />
</g>
		<g transform="matrix(2 0 0 2 -97.14 258.3)" id="ZvJrPLRIr-xTDvXf2C-g7"  >
<path style="stroke: none; stroke-width: 1; stroke-dasharray: none; stroke-linecap: butt; stroke-dashoffset: 0; stroke-linejoin: miter; stroke-miterlimit: 4; fill: rgb(55,98,204); fill-rule: nonzero; opacity: 1;" vector-effect="non-scaling-stroke"  transform=" translate(-78.43, -116.38)" d="M 121.873 146.261 L 105.934 146.261 L 105.934 138.67 C 105.934 138.67 105.934 138.67 105.93299999999999 138.67 C 117.33399999999999 131.83399999999997 125.982 120.79499999999999 129.60399999999998 107.31699999999998 C 133.96999999999997 107.38399999999997 138.259 105.74899999999998 141.529 102.80699999999997 C 145.191 99.51299999999998 147.291 94.81099999999998 147.291 89.90799999999997 C 147.291 85.21599999999998 145.43699999999998 80.81399999999998 142.07 77.51499999999997 C 141.432 76.88999999999997 140.748 76.32999999999997 140.037 75.81599999999997 C 140.192 74.01999999999997 140.291 72.22399999999998 140.291 70.46399999999997 L 140.291 64.71099999999997 L 140.291 30.629999999999967 C 140.292 14.291999999999966 127 0.999999999999968 110.661 0.999999999999968 L 58.306000000000004 0.999999999999968 C 41.378 0.999999999999968 27.402000000000005 13.869999999999967 25.641000000000005 30.338999999999967 C 20.096000000000004 33.279999999999966 16.573000000000008 39.06299999999997 16.573000000000008 45.392999999999965 L 16.573000000000008 70.46499999999996 C 16.573000000000008 72.22499999999997 16.672000000000008 74.01999999999997 16.82700000000001 75.81699999999996 C 16.11600000000001 76.32999999999997 15.43200000000001 76.89099999999996 14.795000000000009 77.51599999999996 C 11.428000000000008 80.81499999999997 9.574000000000009 85.21699999999996 9.574000000000009 89.90999999999997 C 9.574000000000009 94.81299999999997 11.675000000000008 99.51499999999997 15.337000000000009 102.80999999999997 C 18.57500000000001 105.72399999999998 22.79500000000001 107.31899999999997 27.13900000000001 107.31899999999997 L 27.26000000000001 107.31899999999997 C 30.87700000000001 120.77599999999998 39.504000000000005 131.80199999999996 50.88100000000001 138.64099999999996 L 50.88100000000001 146.26199999999997 L 34.99100000000001 146.26199999999997 C 19.79800000000001 146.26199999999997 7.438000000000006 158.62199999999996 7.438000000000006 173.81499999999997 L 7.438000000000006 229.76099999999997 C 7.438000000000006 230.86499999999998 8.334000000000007 231.76099999999997 9.438000000000006 231.76099999999997 L 147.42600000000002 231.76099999999997 C 148.53000000000003 231.76099999999997 149.42600000000002 230.86499999999998 149.42600000000002 229.76099999999997 L 149.42600000000002 173.81499999999997 C 149.42600000000002 158.62099999999998 137.06600000000003 146.26099999999997 121.87300000000002 146.26099999999997 z M 58.306000000000004 5 L 110.661 5 C 124.794 5 136.291 16.497999999999998 136.291 30.63 L 136.291 62.711 L 129.162 62.711 C 126.74300000000001 62.711 57.400000000000006 62.711 58.304 62.711 C 51.507000000000005 62.711 44.281000000000006 60.183 38.644000000000005 54.949 C 19.253000000000007 36.848 32.553000000000004 5 58.306000000000004 5 z M 131.33100000000002 66.90100000000001 C 131.32800000000003 66.83700000000002 131.329 66.775 131.32500000000002 66.71100000000001 L 136.29100000000003 66.71100000000001 C 136.29100000000003 70.70700000000001 136.31300000000002 71.70200000000001 136.19700000000003 73.72400000000002 C 134.64200000000002 73.11600000000001 132.87800000000004 72.71800000000002 131.41400000000004 72.58300000000001 C 131.41500000000005 69.54700000000001 131.43400000000005 68.778 131.33100000000005 66.90100000000001 z M 20.57300000000002 45.393000000000015 C 20.57300000000002 41.378000000000014 22.426000000000023 37.649000000000015 25.478000000000023 35.20800000000001 C 25.48000000000002 35.256000000000014 25.486000000000022 35.30400000000001 25.488000000000024 35.353000000000016 C 25.713000000000026 40.341000000000015 27.086000000000023 45.246000000000016 29.485000000000024 49.628000000000014 C 26.019000000000023 57.90000000000001 25.450000000000024 64.61700000000002 25.450000000000024 72.58400000000002 C 24.044000000000025 72.71400000000001 22.234000000000023 73.11200000000002 20.667000000000023 73.72500000000002 C 20.60500000000002 72.63000000000002 20.57300000000002 71.54000000000002 20.57300000000002 70.46500000000002 z M 33.72700000000002 55.625000000000014 L 33.716000000000015 55.63600000000002 C 34.45500000000001 56.460000000000015 35.94700000000002 57.94400000000002 36.72000000000001 58.615000000000016 L 36.731000000000016 58.603000000000016 C 38.38000000000002 60.04300000000001 40.283000000000015 61.38900000000002 41.954000000000015 62.34900000000002 L 41.960000000000015 62.33900000000002 C 41.96200000000002 62.34000000000002 41.96400000000001 62.34100000000002 41.966000000000015 62.34300000000002 L 41.960000000000015 62.35400000000002 C 46.796000000000014 65.12100000000002 52.420000000000016 66.71300000000002 58.30600000000001 66.71300000000002 L 127.30700000000002 66.71300000000002 C 127.37200000000001 67.75100000000002 127.41400000000002 68.63700000000003 127.41400000000002 69.73900000000002 L 127.41400000000002 74.51200000000001 C 127.41400000000002 75.69300000000001 128.43200000000002 76.56600000000002 129.455 76.51200000000001 C 131.973 76.45700000000001 134.589 77.11100000000002 136.9 78.53800000000001 C 136.915 78.54700000000001 136.93200000000002 78.55000000000001 136.947 78.55900000000001 C 137.776 79.07600000000001 138.558 79.677 139.27 80.37500000000001 C 141.863 82.91600000000001 143.291 86.30200000000002 143.291 89.91100000000002 C 143.291 93.68200000000002 141.674 97.30000000000001 138.85399999999998 99.83700000000002 C 135.993 102.41100000000002 132.135 103.64900000000002 128.279 103.24500000000002 C 127.27499999999999 103.13700000000001 126.353 103.79600000000002 126.122 104.77500000000002 C 120.93 126.83400000000002 101.319 142.24 78.43299999999999 142.24 C 55.54599999999999 142.24 35.93599999999999 126.834 30.743999999999993 104.77600000000001 C 30.529999999999994 103.86500000000001 29.71699999999999 103.23400000000001 28.798999999999992 103.23400000000001 C 28.728999999999992 103.23400000000001 28.657999999999994 103.23700000000001 28.586999999999993 103.245 C 24.727999999999994 103.65 20.87299999999999 102.412 18.01299999999999 99.839 C 15.191999999999991 97.3 13.574999999999992 93.682 13.574999999999992 89.912 C 13.574999999999992 86.30300000000001 15.002999999999993 82.91600000000001 17.595999999999993 80.375 C 20.253999999999994 77.771 23.874999999999993 76.44 27.410999999999994 76.514 C 28.427999999999994 76.564 29.451999999999995 75.704 29.451999999999995 74.514 C 29.451999999999995 68.753 29.111999999999995 62.5 32.19 53.779999999999994 C 32.711999999999996 54.422999999999995 33.094 54.910999999999994 33.727 55.62499999999999 z M 145.42600000000002 227.76 L 127.96100000000001 227.76 L 127.96100000000001 191.363 C 127.96100000000001 190.259 127.06500000000001 189.363 125.96100000000001 189.363 C 124.85700000000001 189.363 123.96100000000001 190.259 123.96100000000001 191.363 L 123.96100000000001 227.76 L 32.903000000000006 227.76 L 32.903000000000006 191.363 C 32.903000000000006 190.259 32.007000000000005 189.363 30.903000000000006 189.363 C 29.799000000000007 189.363 28.903000000000006 190.259 28.903000000000006 191.363 L 28.903000000000006 227.76 L 11.438000000000006 227.76 L 11.438000000000006 173.814 C 11.438000000000006 160.827 22.004000000000005 150.261 34.99100000000001 150.261 L 52.88100000000001 150.261 C 53.98500000000001 150.261 54.88100000000001 149.365 54.88100000000001 148.261 L 54.88100000000001 140.819 C 62.00600000000001 144.304 70.013 146.238 78.432 146.238 C 86.831 146.238 94.82000000000001 144.314 101.933 140.844 L 101.933 148.261 C 101.933 149.365 102.82900000000001 150.261 103.933 150.261 L 121.87200000000001 150.261 C 134.859 150.261 145.425 160.827 145.425 173.814 L 145.425 227.76 z" stroke-linecap="round" />
</g>
		<g transform="matrix(2 0 0 2 -150.1 206.58)" id="K4T-47uvU4uDp_WdutK5e"  >
<path style="stroke: none; stroke-width: 1; stroke-dasharray: none; stroke-linecap: butt; stroke-dashoffset: 0; stroke-linejoin: miter; stroke-miterlimit: 4; fill: rgb(55,98,204); fill-rule: nonzero; opacity: 1;" vector-effect="non-scaling-stroke"  transform=" translate(-51.95, -90.53)" d="M 60.52 81.958 C 59.739000000000004 81.17699999999999 58.472 81.17699999999999 57.692 81.958 L 51.952 87.698 L 46.211999999999996 81.958 C 45.431 81.17699999999999 44.163999999999994 81.17699999999999 43.38399999999999 81.958 C 42.602999999999994 82.739 42.602999999999994 84.005 43.38399999999999 84.786 L 49.123999999999995 90.526 L 43.38399999999999 96.26599999999999 C 42.602999999999994 97.047 42.602999999999994 98.31299999999999 43.38399999999999 99.094 C 44.16499999999999 99.875 45.43099999999999 99.87599999999999 46.211999999999996 99.094 L 51.952 93.354 L 57.692 99.094 C 58.473 99.875 59.739 99.87599999999999 60.52 99.094 C 61.301 98.31299999999999 61.301 97.047 60.52 96.26599999999999 L 54.78 90.526 L 60.52 84.786 C 61.301 84.006 61.301 82.739 60.52 81.958 z" stroke-linecap="round" />
</g>
		<g transform="matrix(2 0 0 2 -44.2 205.14)" id="J5rpiShLgqbIx5mgLaSx9"  >
<path style="stroke: none; stroke-width: 1; stroke-dasharray: none; stroke-linecap: butt; stroke-dashoffset: 0; stroke-linejoin: miter; stroke-miterlimit: 4; fill: rgb(55,98,204); fill-rule: nonzero; opacity: 1;" vector-effect="non-scaling-stroke"  transform=" translate(-104.9, -89.79)" d="M 107.729 89.794 L 113.469 84.054 C 114.25 83.273 114.25 82.007 113.469 81.226 C 112.68799999999999 80.445 111.42099999999999 80.445 110.64099999999999 81.226 L 104.901 86.966 L 99.161 81.226 C 98.38 80.445 97.113 80.445 96.333 81.226 C 95.55199999999999 82.007 95.55199999999999 83.273 96.333 84.054 L 102.073 89.794 L 96.333 95.53399999999999 C 95.55199999999999 96.315 95.55199999999999 97.58099999999999 96.333 98.362 C 97.114 99.143 98.38 99.14399999999999 99.161 98.362 L 104.901 92.622 L 110.64099999999999 98.362 C 111.422 99.143 112.68799999999999 99.14399999999999 113.469 98.362 C 114.25 97.58099999999999 114.25 96.315 113.469 95.53399999999999 z" stroke-linecap="round" />
</g>
		<g transform="matrix(2 0 0 2 -97.16 257.48)" id="94"  >
<path style="stroke: none; stroke-width: 1; stroke-dasharray: none; stroke-linecap: butt; stroke-dashoffset: 0; stroke-linejoin: miter; stroke-miterlimit: 4; fill: rgb(55,98,204); fill-rule: nonzero; opacity: 1;" vector-effect="non-scaling-stroke"  transform=" translate(-78.43, -115.98)" d="M 78.426 111.875 C 73.007 111.875 68.732 113.872 65.95700000000001 116.668 C 65.179 117.45200000000001 65.18400000000001 118.71900000000001 65.968 119.497 C 66.752 120.27499999999999 68.018 120.269 68.797 119.486 C 70.89999999999999 117.366 74.178 115.876 78.426 115.876 C 80.10000000000001 115.876 81.53 116.063 82.795 116.44800000000001 C 84.899 117.08800000000001 86.718 118.13900000000001 88.055 119.48700000000001 C 88.44600000000001 119.88100000000001 88.96000000000001 120.078 89.47500000000001 120.078 C 89.98400000000001 120.078 90.49400000000001 119.885 90.88400000000001 119.498 C 91.66800000000002 118.72 91.67300000000002 117.45400000000001 90.89500000000001 116.66900000000001 C 88.10400000000001 113.85500000000002 83.83100000000002 111.87500000000001 78.42600000000002 111.87500000000001 z" stroke-linecap="round" />
</g>
		<g transform="matrix(2 0 0 2 135.54 213.7)" id="t-TdXKqbNackkzAPRcuZp"  >
<path style="stroke: none; stroke-width: 1; stroke-dasharray: none; stroke-linecap: butt; stroke-dashoffset: 0; stroke-linejoin: miter; stroke-miterlimit: 4; fill: rgb(70,113,198); fill-rule: nonzero; opacity: 1;" vector-effect="non-scaling-stroke"  transform=" translate(-194.78, -94.09)" d="M 243.232 48.713 L 224.132 61.281 C 222.81300000000002 62.149 222.85 64.097 224.201 64.914 L 228.68699999999998 67.626 L 188.666 130.859 L 172.44299999999998 87.57600000000001 C 171.51399999999998 85.09700000000001 169.308 83.328 166.68599999999998 82.959 C 164.06599999999997 82.59100000000001 161.456 83.682 159.879 85.809 L 143.779 107.51599999999999 C 142.463 109.28999999999999 142.835 111.79599999999999 144.609 113.112 C 146.383 114.42699999999999 148.889 114.05699999999999 150.205 112.282 L 165.453 91.723 L 181.724 135.132 C 182.69299999999998 137.716 185 139.498 187.74599999999998 139.781 C 187.99899999999997 139.80700000000002 188.25199999999998 139.82 188.503 139.82 C 190.96599999999998 139.82 193.25099999999998 138.576 194.58999999999997 136.459 L 235.53499999999997 71.766 L 241.04599999999996 75.098 C 242.39799999999997 75.91499999999999 244.13999999999996 75.04299999999999 244.29499999999996 73.471 L 246.54999999999995 50.71900000000001 C 246.72799999999995 48.92100000000001 244.74099999999996 47.71900000000001 243.23199999999994 48.71300000000001 z" stroke-linecap="round" />
</g>
		<g transform="matrix(2 0 0 2 40 336.9)" id="pvPi377ceVLa9kQGwCTAV"  >
<path style="stroke: none; stroke-width: 1; stroke-dasharray: none; stroke-linecap: butt; stroke-dashoffset: 0; stroke-linejoin: miter; stroke-miterlimit: 4; fill: rgb(107,221,221); fill-rule: nonzero; opacity: 1;" vector-effect="non-scaling-stroke"  transform=" translate(-146.99, -155.67)" d="M 146.993 175.605 C 145.33599999999998 175.605 143.993 174.262 143.993 172.605 L 143.993 161.31799999999998 C 143.993 159.66099999999997 145.33599999999998 158.31799999999998 146.993 158.31799999999998 C 148.65 158.31799999999998 149.993 159.66099999999997 149.993 161.31799999999998 L 149.993 172.605 C 149.993 174.262 148.649 175.605 146.993 175.605 z M 146.993 153.03099999999998 C 145.33599999999998 153.03099999999998 143.993 151.688 143.993 150.03099999999998 L 143.993 138.74399999999997 C 143.993 137.08699999999996 145.33599999999998 135.74399999999997 146.993 135.74399999999997 C 148.65 135.74399999999997 149.993 137.08699999999996 149.993 138.74399999999997 L 149.993 150.03099999999998 C 149.993 151.688 148.649 153.03099999999998 146.993 153.03099999999998 z" stroke-linecap="round" />
</g>
		<g transform="matrix(2 0 0 2 40 274.95)" id="WnBSQ78J8GZ44n0l-ECSf"  >
<path style="stroke: none; stroke-width: 1; stroke-dasharray: none; stroke-linecap: butt; stroke-dashoffset: 0; stroke-linejoin: miter; stroke-miterlimit: 4; fill: rgb(107,221,221); fill-rule: nonzero; opacity: 1;" vector-effect="non-scaling-stroke"  transform=" translate(-146.99, -124.71)" d="M 146.993 130.458 C 145.33599999999998 130.458 143.993 129.115 143.993 127.458 L 143.993 121.958 C 143.993 120.301 145.33599999999998 118.958 146.993 118.958 C 148.65 118.958 149.993 120.301 149.993 121.958 L 149.993 127.458 C 149.993 129.115 148.649 130.458 146.993 130.458 z" stroke-linecap="round" />
</g>
		<g transform="matrix(2 0 0 2 -37.28 430.04)" id="X1fUOSKC3nytGNbSqki3t"  >
<path style="stroke: none; stroke-width: 1; stroke-dasharray: none; stroke-linecap: butt; stroke-dashoffset: 0; stroke-linejoin: miter; stroke-miterlimit: 4; fill: rgb(55,98,204); fill-rule: nonzero; opacity: 1;" vector-effect="non-scaling-stroke"  transform=" translate(-108.36, -202.25)" d="M 138.292 217.78 L 78.426 217.78 C 76.769 217.78 75.426 216.437 75.426 214.78 L 75.426 189.717 C 75.426 188.06 76.769 186.717 78.426 186.717 C 80.083 186.717 81.426 188.06 81.426 189.717 L 81.426 211.78 L 138.291 211.78 C 139.948 211.78 141.291 213.123 141.291 214.78 C 141.291 216.437 139.948 217.78 138.292 217.78 z" stroke-linecap="round" />
</g>
		<g transform="matrix(2 0 0 2 -97.15 402.16)" id="lGtJpMopYIcrZDrkd_d-F"  >
<path style="stroke: none; stroke-width: 1; stroke-dasharray: none; stroke-linecap: butt; stroke-dashoffset: 0; stroke-linejoin: miter; stroke-miterlimit: 4; fill: rgb(70,113,198); fill-rule: nonzero; opacity: 1;" vector-effect="non-scaling-stroke"  transform=" translate(-9.67, -9.67)" d="M 0 9.667 C 0 4.32806 4.32806 0 9.667 0 C 15.005939999999999 0 19.334 4.32806 19.334 9.667 C 19.334 15.005939999999999 15.005939999999999 19.334 9.667 19.334 C 4.32806 19.334 0 15.005939999999999 0 9.667 z" stroke-linecap="round" />
</g>
		<g transform="matrix(2 0 0 2 39.98 449.48)"  >
<path style="stroke: none; stroke-width: 1; stroke-dasharray: none; stroke-linecap: butt; stroke-dashoffset: 0; stroke-linejoin: miter; stroke-miterlimit: 4; fill: rgb(249,167,167); fill-rule: nonzero; opacity: 1;" vector-effect="non-scaling-stroke"  transform=" translate(-146.99, -211.96)" d="M 143.762 251.843 C 145.695 253.38799999999998 148.441 253.385 150.37 251.83599999999998 L 187.248 222.22899999999998 C 197.195 214.277 200.691 200.11599999999999 195.694 188.01 C 190.26999999999998 174.867 176.488 168.048 163.51399999999998 172.087 C 156.10199999999998 174.39399999999998 150.224 179.869 146.98 186.84099999999998 C 143.737 179.86899999999997 137.85899999999998 174.39399999999998 130.447 172.087 C 116.73400000000001 167.819 102.12 175.679 97.424 190.315 C 93.656 202.058 97.72600000000001 215.04399999999998 107.06400000000001 222.50799999999998 z" stroke-linecap="round" />
</g>
		<g transform="matrix(2 0 0 2 39.98 449.46)" id="fiXIfwUMB7qzmWq1F9iLj"  >
<path style="stroke: none; stroke-width: 1; stroke-dasharray: none; stroke-linecap: butt; stroke-dashoffset: 0; stroke-linejoin: miter; stroke-miterlimit: 4; fill: rgb(55,98,204); fill-rule: nonzero; opacity: 1;" vector-effect="non-scaling-stroke"  transform=" translate(-147, -211.97)" d="M 147.062 255.012 C 145.458 255.012 143.853 254.477 142.513 253.406 L 105.81700000000001 224.072 C 95.668 215.958 91.53 202.147 95.522 189.70600000000002 C 100.524 174.114 116.12800000000001 165.538 131.043 170.17900000000003 C 137.596 172.21900000000002 143.246 176.67900000000003 146.982 182.65500000000003 C 150.718 176.67800000000003 156.368 172.21800000000002 162.921 170.17900000000003 C 176.85299999999998 165.84400000000002 191.738 173.18100000000004 197.54399999999998 187.25000000000003 C 202.89999999999998 200.22600000000003 199.17999999999998 215.25300000000004 188.498 223.79300000000003 L 151.623 253.39800000000002 C 150.28099999999998 254.473 148.671 255.01200000000003 147.06199999999998 255.01200000000003 z M 122.86000000000001 172.925 C 112.47700000000002 172.925 102.86600000000001 179.905 99.33000000000001 190.92600000000002 C 95.84200000000001 201.798 99.45300000000002 213.86200000000002 108.31400000000001 220.947 L 145.01 250.281 C 146.22 251.249 147.91 251.246 149.117 250.27700000000002 L 185.995 220.67000000000002 C 195.3 213.23200000000003 198.526 200.11700000000002 193.845 188.774 C 188.835 176.633 176.053 170.279 164.108 173.997 C 157.46 176.066 151.87800000000001 181.056 148.794 187.685 C 148.466 188.391 147.758 188.842 146.98100000000002 188.842 C 146.20400000000004 188.842 145.496 188.39100000000002 145.16800000000003 187.685 C 142.08500000000004 181.056 136.50200000000004 176.066 129.85400000000004 173.997 C 127.52500000000005 173.27100000000002 125.17200000000004 172.925 122.86000000000004 172.925 z" stroke-linecap="round" />
</g>
		<g transform="matrix(2 0 0 2 41.59 457.62)" id="oa50KBP72VPV4BeNrjdCh"  >
<path style="stroke: none; stroke-width: 1; stroke-dasharray: none; stroke-linecap: butt; stroke-dashoffset: 0; stroke-linejoin: miter; stroke-miterlimit: 4; fill: rgb(224,235,252); fill-rule: nonzero; opacity: 1;" vector-effect="non-scaling-stroke"  transform=" translate(-147.79, -216.05)" d="M 144.768 221.8 L 141.858 198.65200000000002 C 141.208 195.42000000000002 143.642 192.36900000000003 147.811 192.36900000000003 C 151.472 192.36900000000003 154.31300000000002 194.68900000000002 153.763 198.71800000000002 L 150.787 221.799 C 150.601 223.91500000000002 149.31900000000002 224.907 147.811 224.907 C 146.071 224.90800000000002 145.008 223.64600000000002 144.768 221.8 z M 142.188 234.03500000000003 C 142.188 230.80700000000002 144.482 228.34700000000004 147.81 228.34700000000004 C 151.095 228.34700000000004 153.431 230.75800000000004 153.431 234.03500000000003 C 153.431 237.26600000000002 151.137 239.723 147.81 239.723 C 144.477 239.723 142.188 237.25900000000001 142.188 234.03500000000003 z" stroke-linecap="round" />
</g>
</g>
</g>
</svg>