<svg height="409" width="410" xmlns="http://www.w3.org/2000/svg"><rect fill="none" height="100%" width="100%"/><path d="m0 100v-100h100v100z" fill="none"/><path d="m259.15200349 126.21866983v-.66666666c-6.5346666 0-12.44533321-2.64666664-16.72799983-6.92933326-4.28133329-4.28266663-6.92799993-10.1919999-6.92799993-16.72799983 0-6.53333327 2.64666664-12.44399988 6.92799993-16.7266665 4.28399995-4.28266662 10.19333323-6.92799993 16.72799983-6.92933326 6.5346666.00133333 12.44399987 2.64666664 16.72666649 6.92933326 4.28266663 4.28266662 6.92933327 10.19333323 6.92933327 16.7266665 0 6.53599993-2.64666664 12.4453332-6.92933327 16.72799983-4.28266662 4.28133329-10.19199989 6.92933326-16.72666649 6.92933326v.66666666.66666666c13.80133319 0 24.98799974-11.18799989 24.98933308-24.99066641-.00133334-13.79999986-11.18799989-24.98799975-24.98933308-24.98933308-13.8013332.00133333-24.98933308 11.18933322-24.98933308 24.98933308 0 13.80266652 11.18799988 24.98933308 24.98933308 24.99066641zm57.47866608-13.85733319h.66666666v-20.93066646c0-.34666666-.26533333-.63599999-.60933332-.66533332l-15.67999985-1.35199999-.05733333.66533333.64133333-.18133334c-.94666666-3.3573333-2.26399998-6.55599993-3.9373333-9.5399999l-.58133332.32533333.51066666.42933333 10.12133323-12.03066655c.22266666-.26399999.20666666-.65599999-.03866667-.89999999l-14.79999985-14.80133318c-.24533333-.244-.63599999-.26133333-.90133332-.03866667l-12.03066655 10.12266657.42933333.50933333.32533333-.58133333c-2.98399997-1.67333332-6.1826666-2.9893333-9.5399999-3.93733329l-.18133333.64266666.66533332-.05733334-1.35199998-15.67999984c-.02933334-.34533333-.31733333-.60933333-.664-.60933333h-20.93199978c-.34533333 0-.63333333.264-.664.60933333l-1.35066665 15.67999984.66399999.05733334-.18-.64266666c-3.3573333.94799999-6.55733326 2.26399997-9.54133323 3.93733329l.32533333.58133333.42933333-.50933333-12.03066655-10.12266657c-.264-.22266666-.65599999-.20533333-.89999999.03866667l-14.80133318 14.80133318c-.244.244-.26133333.636-.03866667.89999999l10.12266656 12.03066655.50933333-.42933333-.58133332-.32666666c-1.67333332 2.9853333-2.98933331 6.18399993-3.9373333 9.54133323l.64133333.18133334-.056-.66533333-15.67999984 1.35199999c-.344.02933333-.60933333.31866666-.60933333.66533332v20.93066646c0 .34533333.26533333.63333332.60933333.66399999l15.67999984 1.35066665.056-.66399999-.64133333.18133333c.94799999 3.3573333 2.26399998 6.55599994 3.9373333 9.54133324l.58133332-.32666666-.50933333-.42933333-10.12266656 12.03066654c-.22266666.264-.20533333.656.03866667.89999999l14.80133318 14.80133319c.244.24399999.63599999.26133333.89999999.03866666l12.03066655-10.12133323-.42933333-.51066666-.32533333.58266666c2.98399997 1.67199998 6.1826666 2.98799997 9.5399999 3.93599996l.18133333-.64133333-.66399999.05733334 1.35066665 15.67866651c.03066667.34533333.31866667.60933332.664.60933332h20.93199978c.34666667 0 .63466666-.26399999.664-.60933332l1.35199998-15.67866651-.66533332-.05733334.18133333.64133333c3.3573333-.94799999 6.55733327-2.26399998 9.54133324-3.93599996l-.32533333-.58266666-.42933333.51066666 12.02933321 10.12133323c.26533333.22266667.65599999.20533333.90133332-.03866666l14.79999985-14.80133319c.24533333-.24399999.26133333-.63599999.03866667-.89999999l-10.12133323-12.03066654-.51066666.42933333.58133332.32533333c1.67333332-2.98399997 2.99066664-6.18266661 3.9373333-9.53999991l-.64133333-.18133333.05733333.66399999 15.67999985-1.35066665c.34399999-.03066667.60933332-.31866666.60933332-.66399999h-.66666666l-.05733333-.664-15.67999984 1.35066666c-.276.024-.508.216-.584.48399999-.91999999 3.25866664-2.19733331 6.35999994-3.81733329 9.24933324-.136.24266667-.108.54266666.07066667.75599999l9.72933323 11.56266655-13.93599986 13.93466653-11.56133322-9.72666657c-.21333333-.17866666-.51333332-.208-.75599999-.072-2.8893333 1.61999999-5.99199994 2.89733331-9.25066657 3.8173333-.268.076-.46.30799999-.484.58399999l-1.29866665 15.06933318h-19.7079998l-1.29866665-15.06933318c-.02266667-.276-.21466667-.50799999-.48266667-.58399999-3.25999996-.91999999-6.36133327-2.19733331-9.25066657-3.8173333-.24266666-.136-.54266666-.10666666-.75466666.072l-11.56266655 9.72666657-13.93599986-13.93466653 9.7279999-11.56266655c.17866667-.21199999.20666667-.51333332.07066667-.75466665-1.61999998-2.89066664-2.89599997-5.99199994-3.81599996-9.25066658-.076-.26799999-.308-.45999999-.58533333-.48399999l-15.06933318-1.29866666v-19.7079998l15.06933318-1.29866665c.27733333-.024.50933333-.216.58533333-.484.91999999-3.25866663 2.19599998-6.35999993 3.81599996-9.24933324.136-.24266666.108-.54266666-.07066667-.75599999l-9.7279999-11.56133321 13.93599986-13.93599986 11.56266655 9.7279999c.212.17866666.512.20666666.75466666.07066666 2.8893333-1.61999998 5.99199994-2.89599997 9.25066657-3.81599996.268-.076.46-.30799999.48266667-.58399999l1.29866665-15.07066652h19.7079998l1.29866665 15.07066652c.024.276.216.50799999.484.58399999 3.25866663.91999999 6.35999993 2.19599998 9.24933324 3.81599996.24266666.136.54266666.108.75599999-.07066666l11.56266655-9.7279999 13.93599986 13.93599986-9.72933323 11.56266655c-.17866667.21199999-.20666667.51199999-.07066667.75466665 1.61999998 2.88933331 2.8973333 5.99066661 3.81733329 9.24933324.076.268.308.46.584.484l15.07066651 1.29866665v20.3199998h.66666666l-.05733333-.664z" fill="#1d2a30"/><path d="m356.89133461 129.16133555h-346.5648765v-15.80533317c0-3.11866664 2.52865331-5.64666661 5.64794661-5.64666661h335.26892995c3.11999997 0 5.64799994 2.52799997 5.64799994 5.64666661z" fill="#73cd91"/><path d="m356.89133461 129.16133555v-.66666666h-345.89820984v-15.13866651c.00052-1.37733332.55625333-2.61866664 1.45885332-3.5213333.90362666-.90266666 2.14482665-1.45866665 3.52242663-1.45866665h335.26892995c1.37733332 0 2.61866664.55599999 3.52266663 1.45866665.90266666.90266666 1.45866665 2.14399998 1.45866665 3.5213333v15.80533317h.66666666v-.66666666.66666666h.66666666v-15.80533317c0-3.48799997-2.82666664-6.31333327-6.3146666-6.31333327h-335.26892995c-3.48803996 0-6.31409327 2.8253333-6.31461327 6.31333327v15.80533317c0 .176.07084.34666667.19532.472.12396.12266666.29582666.19466666.47134666.19466666h346.5648765c.176 0 .348-.072.472-.19466666.124-.12533333.19466666-.296.19466666-.472z" fill="#1d2a30"/><path d="m375.77133015 379.62399725h-350.28346313v-246.48933085h350.28346313z" fill="#fff"/><path d="m375.77133015 379.62399725v-.66666666h-349.61679647v-245.15599753h348.95012981v245.82266419h.66666666v-.66666666.66666666h.66666666v-246.48933085c0-.17599999-.07066667-.34666666-.19466667-.47199999-.12399999-.124-.29599999-.19466667-.47199999-.19466667h-350.28346313c-.17546667 0-.34733333.07066667-.47133333.19466667-.1244.124-.19533333.296-.19533333.47199999v246.48933085c0 .176.07093333.34666666.19533333.47199999.124.124.29586666.19466667.47133333.19466667h350.28346313c.176 0 .348-.07066667.47199999-.19466667.124-.12533333.19466667-.29599999.19466667-.47199999z" fill="#1d2a30"/><path d="m381.1453307 118.43466899c0 2.96266664-2.4013333 5.36399995-5.36399994 5.36399995-2.9613333 0-5.36266661-2.40133331-5.36266661-5.36399995 0-2.9613333 2.40133331-5.36266661 5.36266661-5.36266661 2.96266664 0 5.36399994 2.40133331 5.36399994 5.36266661" fill="#fff"/><path d="m381.1453307 118.43466899h-.66666666c-.00533333 2.59333331-2.10266664 4.69199996-4.69733328 4.69733329-2.59333331-.00533333-4.69199995-2.10399998-4.69599995-4.69733329.004-2.5933333 2.10266664-4.69199995 4.69599995-4.69599995 2.59466664.004 4.69199995 2.10266665 4.69733328 4.69599995h.66666666.66666666c-.00133333-3.33066663-2.69999997-6.02933327-6.0306666-6.02933327s-6.02933327 2.69866664-6.02933327 6.02933327c0 3.33066664 2.69866664 6.02933328 6.02933327 6.03066661 3.33066663-.00133333 6.02933327-2.69999997 6.0306666-6.03066661z" fill="#1d2a30"/><path d="m362.26533578 118.43466899c0 2.96266664-2.40133331 5.36399995-5.36399995 5.36399995-2.96266663 0-5.36266661-2.40133331-5.36266661-5.36399995 0-2.9613333 2.39999998-5.36266661 5.36266661-5.36266661 2.96266664 0 5.36399995 2.40133331 5.36399995 5.36266661" fill="#fff"/><path d="m362.26533578 118.43466899h-.66666666c-.00533333 2.59333331-2.10399998 4.69199996-4.69733329 4.69733329-2.5933333-.00533333-4.69199995-2.10399998-4.69599995-4.69733329.004-2.5933333 2.10266665-4.69199995 4.69599995-4.69599995 2.59333331.004 4.69199996 2.10266665 4.69733329 4.69599995h.66666666.66666666c-.00133333-3.33066663-2.69999997-6.02933327-6.03066661-6.02933327-3.33066663 0-6.02933327 2.69866664-6.02933327 6.02933327 0 3.33066664 2.69866664 6.02933328 6.02933327 6.03066661 3.33066664-.00133333 6.02933328-2.69999997 6.03066661-6.03066661z" fill="#1d2a30"/><path d="m343.38400752 118.43466899c0 2.96266664-2.39999998 5.36399995-5.36266661 5.36399995-2.96266664 0-5.36399995-2.40133331-5.36399995-5.36399995 0-2.9613333 2.40133331-5.36266661 5.36399995-5.36266661 2.96266663 0 5.36266661 2.40133331 5.36266661 5.36266661" fill="#fff"/><g fill="#1d2a30"><path d="m343.38400752 118.43466899h-.66666666c-.004 2.59333331-2.10266665 4.69199996-4.69599995 4.69733329-2.59333331-.00533333-4.69199996-2.10399998-4.69733329-4.69733329.00533333-2.5933333 2.10399998-4.69199995 4.69733329-4.69599995 2.5933333.004 4.69199995 2.10266665 4.69599995 4.69599995h.66666666.66666666c0-3.33066663-2.69866664-6.02933327-6.02933327-6.02933327-3.33066664 0-6.02933328 2.69866664-6.03066661 6.02933327.00133333 3.33066664 2.69999997 6.02933328 6.03066661 6.03066661 3.33066663-.00133333 6.02933327-2.69999997 6.02933327-6.03066661z"/><path d="m365.17065199 142.37199781h-13.87199986c-.73599999 0-1.33333332.59733333-1.33333332 1.33333332 0 .736.59733333 1.33333332 1.33333332 1.33333332h13.87199986c.73733333 0 1.33333332-.59733332 1.33333332-1.33333332 0-.73599999-.59599999-1.33333332-1.33333332-1.33333332"/><path d="m365.17065199 147.99866931h-13.87199986c-.73599999 0-1.33333332.59599999-1.33333332 1.33333332 0 .73599999.59733333 1.33333332 1.33333332 1.33333332h13.87199986c.73733333 0 1.33333332-.59733333 1.33333332-1.33333332 0-.73733333-.59599999-1.33333332-1.33333332-1.33333332"/><path d="m365.17065199 153.6239977h-13.87199986c-.73599999 0-1.33333332.59733333-1.33333332 1.33333332 0 .73733333.59733333 1.33333332 1.33333332 1.33333332h13.87199986c.73733333 0 1.33333332-.59599999 1.33333332-1.33333332 0-.73599999-.59599999-1.33333332-1.33333332-1.33333332"/><path d="m49.75146616 290.4786758h104.96786561c.73599999 0 1.33333332-.59733333 1.33333332-1.33333332s-.59733333-1.33333332-1.33333332-1.33333332h-104.96786561c-.73639999 0-1.33333332.59733333-1.33333332 1.33333332s.59693333 1.33333332 1.33333332 1.33333332"/><path d="m49.75146616 298.75867694h104.96786561c.73599999 0 1.33333332-.59733333 1.33333332-1.33333332 0-.73733333-.59733333-1.33333332-1.33333332-1.33333332h-104.96786561c-.73639999 0-1.33333332.59599999-1.33333332 1.33333332 0 .73599999.59693333 1.33333332 1.33333332 1.33333332"/><path d="m49.76146677 307.19601751h82.76306584c.73639999 0 1.33279998-.59733333 1.33279998-1.33333332 0-.73733332-.59639999-1.33333332-1.33279998-1.33333332h-82.76306584c-.73639999 0-1.33333332.596-1.33333332 1.33333332 0 .73599999.59693333 1.33333332 1.33333332 1.33333332"/><path d="m271.68799115 135.91467126v.66666666c0 .368.29866667.66666666.66666666.66666666.36933333 0 .66666666-.29866666.66666666-.66666666v-.66666666c0-.368-.29733333-.66666666-.66666666-.66666666-.36799999 0-.66666666.29866666-.66666666.66666666"/><path d="m271.68799115 140.57467548v1.33066666c0 .36799999.29866667.66666666.66666666.66666666.36933333 0 .66666666-.29866667.66666666-.66666666v-1.33066666c0-.36799999-.29733333-.66666666-.66666666-.66666666-.36799999 0-.66666666.29866667-.66666666.66666666zm0 5.32533328v1.33066666c0 .36799999.29866667.66666666.66666666.66666666.36933333 0 .66666666-.29866667.66666666-.66666666v-1.33066666c0-.36799999-.29733333-.66666666-.66666666-.66666666-.36799999 0-.66666666.29866667-.66666666.66666666zm0 5.32399995v1.33199999c0 .36799999.29866667.66666666.66666666.66666666.36933333 0 .66666666-.29866667.66666666-.66666666v-1.33199999c0-.368-.29733333-.66666666-.66666666-.66666666-.36799999 0-.66666666.29866666-.66666666.66666666zm0 5.32533328v1.33199999c0 .36799999.29866667.66666666.66666666.66666666.36933333 0 .66666666-.29866667.66666666-.66666666v-1.33199999c0-.368-.29733333-.66666666-.66666666-.66666666-.36799999 0-.66666666.29866666-.66666666.66666666zm0 5.32533328v1.33199999c0 .36799999.29866667.66666666.66666666.66666666.36933333 0 .66666666-.29866667.66666666-.66666666v-1.33199999c0-.368-.29733333-.66666666-.66666666-.66666666-.36799999 0-.66666666.29866666-.66666666.66666666zm0 5.32533328v1.33066665c0 .368.29866667.66666666.66666666.66666666.36933333 0 .66666666-.29866666.66666666-.66666666v-1.33066665c0-.368-.29733333-.66666666-.66666666-.66666666-.36799999 0-.66666666.29866666-.66666666.66666666zm0 5.32533328v1.33066665c0 .368.29866667.66666666.66666666.66666666.36933333 0 .66666666-.29866666.66666666-.66666666v-1.33066665c0-.368-.29733333-.66666666-.66666666-.66666666-.36799999 0-.66666666.29866666-.66666666.66666666zm0 5.32399994v1.33199999c0 .368.29866667.66666666.66666666.66666666.36933333 0 .66666666-.29866666.66666666-.66666666v-1.33199999c0-.36799999-.29733333-.66666666-.66666666-.66666666-.36799999 0-.66666666.29866667-.66666666.66666666zm0 5.32533328v1.33199999c0 .368.29866667.66666666.66666666.66666666.36933333 0 .66666666-.29866666.66666666-.66666666v-1.33199999c0-.36799999-.29733333-.66666666-.66666666-.66666666-.36799999 0-.66666666.29866667-.66666666.66666666zm0 5.32533328v1.33199999c0 .368.29866667.66666666.66666666.66666666.36933333 0 .66666666-.29866666.66666666-.66666666v-1.33199999c0-.36799999-.29733333-.66666666-.66666666-.66666666-.36799999 0-.66666666.29866667-.66666666.66666666zm0 5.32533328v1.33066666c0 .36799999.29866667.66666666.66666666.66666666.36933333 0 .66666666-.29866667.66666666-.66666666v-1.33066666c0-.36799999-.29733333-.66666666-.66666666-.66666666-.36799999 0-.66666666.29866667-.66666666.66666666zm0 5.32533328v1.33066666c0 .36799999.29866667.66666666.66666666.66666666.36933333 0 .66666666-.29866667.66666666-.66666666v-1.33066666c0-.36799999-.29733333-.66666666-.66666666-.66666666-.36799999 0-.66666666.29866667-.66666666.66666666zm0 5.32399995v1.33199999c0 .36799999.29866667.66666666.66666666.66666666.36933333 0 .66666666-.29866667.66666666-.66666666v-1.33199999c0-.368-.29733333-.66666666-.66666666-.66666666-.36799999 0-.66666666.29866666-.66666666.66666666zm0 5.32533328v1.33199999c0 .36799999.29866667.66666665.66666666.66666665.36933333 0 .66666666-.29866666.66666666-.66666665v-1.33199999c0-.368-.29733333-.66666666-.66666666-.66666666-.36799999 0-.66666666.29866666-.66666666.66666666zm0 5.32533328v1.33199998c0 .368.29866667.66666666.66666666.66666666.36933333 0 .66666666-.29866666.66666666-.66666666v-1.33199998c0-.368-.29733333-.66666666-.66666666-.66666666-.36799999 0-.66666666.29866666-.66666666.66666666zm0 5.32533328v1.33066665c0 .368.29866667.66666666.66666666.66666666.36933333 0 .66666666-.29866666.66666666-.66666666v-1.33066665c0-.368-.29733333-.66666666-.66666666-.66666666-.36799999 0-.66666666.29866666-.66666666.66666666zm0 5.32533328v1.33066665c0 .368.29866667.66666666.66666666.66666666.36933333 0 .66666666-.29866666.66666666-.66666666v-1.33066665c0-.368-.29733333-.66666666-.66666666-.66666666-.36799999 0-.66666666.29866666-.66666666.66666666zm0 5.32399994v1.33199999c0 .368.29866667.66666666.66666666.66666666.36933333 0 .66666666-.29866666.66666666-.66666666v-1.33199999c0-.36799999-.29733333-.66666666-.66666666-.66666666-.36799999 0-.66666666.29866667-.66666666.66666666zm0 5.32533328v1.33199999c0 .368.29866667.66666666.66666666.66666666.36933333 0 .66666666-.29866666.66666666-.66666666v-1.33199999c0-.36799999-.29733333-.66666666-.66666666-.66666666-.36799999 0-.66666666.29866667-.66666666.66666666zm0 5.32533328v1.33066666c0 .36933333.29866667.66666666.66666666.66666666.36933333 0 .66666666-.29733333.66666666-.66666666v-1.33066666c0-.36799999-.29733333-.66666666-.66666666-.66666666-.36799999 0-.66666666.29866667-.66666666.66666666zm0 5.32533328v1.33066666c0 .36799999.29866667.66666666.66666666.66666666.36933333 0 .66666666-.29866667.66666666-.66666666v-1.33066666c0-.36799999-.29733333-.66666666-.66666666-.66666666-.36799999 0-.66666666.29866667-.66666666.66666666zm0 5.32533328v1.33066665c0 .368.29866667.66666666.66666666.66666666.36933333 0 .66666666-.29866666.66666666-.66666666v-1.33066665c0-.36933333-.29733333-.66666666-.66666666-.66666666-.36799999 0-.66666666.29733333-.66666666.66666666zm0 5.32399995v1.33199998c0 .368.29866667.66666666.66666666.66666666.36933333 0 .66666666-.29866666.66666666-.66666666v-1.33199998c0-.368-.29733333-.66666666-.66666666-.66666666-.36799999 0-.66666666.29866666-.66666666.66666666zm0 5.32533328v1.33199998c0 .368.29866667.66666666.66666666.66666666.36933333 0 .66666666-.29866666.66666666-.66666666v-1.33199998c0-.368-.29733333-.66666666-.66666666-.66666666-.36799999 0-.66666666.29866666-.66666666.66666666zm0 5.32533328v1.33066665c0 .36933333.29866667.66666666.66666666.66666666.36933333 0 .66666666-.29733333.66666666-.66666666v-1.33066665c0-.368-.29733333-.66666666-.66666666-.66666666-.36799999 0-.66666666.29866666-.66666666.66666666zm0 5.32533328v1.33066665c0 .368.29866667.66666666.66666666.66666666.36933333 0 .66666666-.29866666.66666666-.66666666v-1.33066665c0-.368-.29733333-.66666666-.66666666-.66666666-.36799999 0-.66666666.29866666-.66666666.66666666zm0 5.32533328v1.33066665c0 .368.29866667.66666666.66666666.66666666.36933333 0 .66666666-.29866666.66666666-.66666666v-1.33066665c0-.36933333-.29733333-.66666666-.66666666-.66666666-.36799999 0-.66666666.29733333-.66666666.66666666zm0 5.32399994v1.33199999c0 .368.29866667.66666666.66666666.66666666.36933333 0 .66666666-.29866666.66666666-.66666666v-1.33199999c0-.36799999-.29733333-.66666666-.66666666-.66666666-.36799999 0-.66666666.29866667-.66666666.66666666zm0 5.32533328v1.33199999c0 .36799999.29866667.66666666.66666666.66666666.36933333 0 .66666666-.29866667.66666666-.66666666v-1.33199999c0-.36799999-.29733333-.66666666-.66666666-.66666666-.36799999 0-.66666666.29866667-.66666666.66666666zm0 5.32533328v1.33066665c0 .36933333.29866667.66666666.66666666.66666666.36933333 0 .66666666-.29733333.66666666-.66666666v-1.33066665c0-.36799999-.29733333-.66666666-.66666666-.66666666-.36799999 0-.66666666.29866667-.66666666.66666666zm0 5.32533328v1.33066665c0 .368.29866667.66666666.66666666.66666666.36933333 0 .66666666-.29866666.66666666-.66666666v-1.33066665c0-.368-.29733333-.66666666-.66666666-.66666666-.36799999 0-.66666666.29866666-.66666666.66666666zm0 5.32533328v1.33066665c0 .368.29866667.66666666.66666666.66666666.36933333 0 .66666666-.29866666.66666666-.66666666v-1.33066665c0-.36933333-.29733333-.66666666-.66666666-.66666666-.36799999 0-.66666666.29733333-.66666666.66666666zm0 5.32399995v1.33199998c0 .368.29866667.66666666.66666666.66666666.36933333 0 .66666666-.29866666.66666666-.66666666v-1.33199998c0-.368-.29733333-.66666666-.66666666-.66666666-.36799999 0-.66666666.29866666-.66666666.66666666zm0 5.32533328v1.33199998c0 .368.29866667.66666666.66666666.66666666.36933333 0 .66666666-.29866666.66666666-.66666666v-1.33199998c0-.368-.29733333-.66666666-.66666666-.66666666-.36799999 0-.66666666.29866666-.66666666.66666666zm0 5.32533328v1.33066665c0 .368.29866667.66666666.66666666.66666666.36933333 0 .66666666-.29866666.66666666-.66666666v-1.33066665c0-.368-.29733333-.66666666-.66666666-.66666666-.36799999 0-.66666666.29866666-.66666666.66666666zm0 5.32533328v1.33066665c0 .36799999.29866667.66666666.66666666.66666666.36933333 0 .66666666-.29866667.66666666-.66666666v-1.33066665c0-.368-.29733333-.66666666-.66666666-.66666666-.36799999 0-.66666666.29866666-.66666666.66666666zm0 5.32399994v1.33199999c0 .36799999.29866667.66666666.66666666.66666666.36933333 0 .66666666-.29866667.66666666-.66666666v-1.33199999c0-.36799999-.29733333-.66666666-.66666666-.66666666-.36799999 0-.66666666.29866667-.66666666.66666666zm0 5.32533328v1.33199999c0 .36799999.29866667.66666666.66666666.66666666.36933333 0 .66666666-.29866667.66666666-.66666666v-1.33199999c0-.368-.29733333-.66666666-.66666666-.66666666-.36799999 0-.66666666.29866666-.66666666.66666666zm0 5.32533328v1.33199999c0 .36799999.29866667.66666666.66666666.66666666.36933333 0 .66666666-.29866667.66666666-.66666666v-1.33199999c0-.368-.29733333-.66666666-.66666666-.66666666-.36799999 0-.66666666.29866666-.66666666.66666666zm0 5.32533328v1.33066665c0 .368.29866667.66666666.66666666.66666666.36933333 0 .66666666-.29866666.66666666-.66666666v-1.33066665c0-.368-.29733333-.66666666-.66666666-.66666666-.36799999 0-.66666666.29866666-.66666666.66666666zm0 5.32533328v1.33066665c0 .368.29866667.66666666.66666666.66666666.36933333 0 .66666666-.29866666.66666666-.66666666v-1.33066665c0-.36933333-.29733333-.66666666-.66666666-.66666666-.36799999 0-.66666666.29733333-.66666666.66666666zm0 5.32399995v1.33199998c0 .368.29866667.66666666.66666666.66666666.36933333 0 .66666666-.29866666.66666666-.66666666v-1.33199998c0-.368-.29733333-.66666666-.66666666-.66666666-.36799999 0-.66666666.29866666-.66666666.66666666zm0 5.32533328v1.33199998c0 .368.29866667.66666666.66666666.66666666.36933333 0 .66666666-.29866666.66666666-.66666666v-1.33199998c0-.368-.29733333-.66666666-.66666666-.66666666-.36799999 0-.66666666.29866666-.66666666.66666666zm0 5.32533328v1.33066665c0 .36933333.29866667.66666666.66666666.66666666.36933333 0 .66666666-.29733333.66666666-.66666666v-1.33066665c0-.368-.29733333-.66666666-.66666666-.66666666-.36799999 0-.66666666.29866666-.66666666.66666666"/><path d="m271.68799115 374.87734406v.66666666c0 .36933333.29866667.66666666.66666666.66666666.36933333 0 .66666666-.29733333.66666666-.66666666v-.66666666c0-.368-.29733333-.66666666-.66666666-.66666666-.36799999 0-.66666666.29866666-.66666666.66666666"/><path d="m29.7177338 325.01332991h.66666666c.36826666 0 .66666666-.29866666.66666666-.66666666 0-.36799999-.2984-.66666666-.66666666-.66666666h-.66666666c-.36826667 0-.66666666.29866667-.66666666.66666666 0 .368.29839999.66666666.66666666.66666666"/><path d="m34.36652566 325.01332991h1.33133332c.3676 0 .66666666-.29866666.66666666-.66666666 0-.36799999-.29906666-.66666666-.66666666-.66666666h-1.33133332c-.36813333 0-.66666666.29866667-.66666666.66666666 0 .368.29853333.66666666.66666666.66666666zm5.32346661 0h1.33119999c.36773333 0 .66666666-.29866666.66666666-.66666666 0-.36799999-.29893333-.66666666-.66666666-.66666666h-1.33119999c-.36826666 0-.66666666.29866667-.66666666.66666666 0 .368.2984.66666666.66666666.66666666zm5.32346662 0h1.33066665c.36826666 0 .66666666-.29866666.66666666-.66666666 0-.36799999-.2984-.66666666-.66666666-.66666666h-1.33066665c-.36826667 0-.66666666.29866667-.66666666.66666666 0 .368.29839999.66666666.66666666.66666666zm5.32346661 0h1.33119999c.36773333 0 .66666666-.29866666.66666666-.66666666 0-.36799999-.29893333-.66666666-.66666666-.66666666h-1.33119999c-.36826666 0-.66666666.29866667-.66666666.66666666 0 .368.2984.66666666.66666666.66666666zm5.32333328 0h1.33079999c.36826666 0 .66666666-.29866666.66666666-.66666666 0-.36799999-.2984-.66666666-.66666666-.66666666h-1.33079999c-.36813333 0-.66666666.29866667-.66666666.66666666 0 .368.29853333.66666666.66666666.66666666zm5.32346661 0h1.33079999c.36813333 0 .66666666-.29866666.66666666-.66666666 0-.36799999-.29853333-.66666666-.66666666-.66666666h-1.33079999c-.36826666 0-.66666666.29866667-.66666666.66666666 0 .368.2984.66666666.66666666.66666666zm5.32346662 0h1.33066665c.36826666 0 .66666666-.29866666.66666666-.66666666 0-.36799999-.2984-.66666666-.66666666-.66666666h-1.33066665c-.36826667 0-.66666666.29866667-.66666666.66666666 0 .368.29839999.66666666.66666666.66666666zm5.32346661 0h1.33066665c.36826667 0 .66666666-.29866666.66666666-.66666666 0-.36799999-.29839999-.66666666-.66666666-.66666666h-1.33066665c-.36826666 0-.66666666.29866667-.66666666.66666666 0 .368.2984.66666666.66666666.66666666zm5.32333328 0h1.33079999c.36826666 0 .66666666-.29866666.66666666-.66666666 0-.36799999-.2984-.66666666-.66666666-.66666666h-1.33079999c-.36813333 0-.66666666.29866667-.66666666.66666666 0 .368.29853333.66666666.66666666.66666666zm5.32346661 0h1.33079999c.36813333 0 .66666666-.29866666.66666666-.66666666 0-.36799999-.29853333-.66666666-.66666666-.66666666h-1.33079999c-.36813333 0-.66666666.29866667-.66666666.66666666 0 .368.29853333.66666666.66666666.66666666zm5.32293328 0h1.33133332c.36813333 0 .66666666-.29866666.66666666-.66666666 0-.36799999-.29853333-.66666666-.66666666-.66666666h-1.33133332c-.36773333 0-.66666666.29866667-.66666666.66666666 0 .368.29893333.66666666.66666666.66666666zm5.32399995 0h1.33066665c.36826666 0 .66666666-.29866666.66666666-.66666666 0-.36799999-.2984-.66666666-.66666666-.66666666h-1.33066665c-.3688 0-.66666666.29866667-.66666666.66666666 0 .368.29786666.66666666.66666666.66666666zm5.32293328 0h1.33119998c.36826667 0 .66666666-.29866666.66666666-.66666666 0-.36799999-.29839999-.66666666-.66666666-.66666666h-1.33119998c-.36773333 0-.66666666.29866667-.66666666.66666666 0 .368.29893333.66666666.66666666.66666666zm5.32333328 0h1.33133332c.36826666 0 .66666666-.29866666.66666666-.66666666 0-.36799999-.2984-.66666666-.66666666-.66666666h-1.33133332c-.36813333 0-.66666666.29866667-.66666666.66666666 0 .368.29853333.66666666.66666666.66666666zm5.32346661 0h1.33133332c.3676 0 .66666666-.29866666.66666666-.66666666 0-.36799999-.29906666-.66666666-.66666666-.66666666h-1.33133332c-.36813333 0-.66666666.29866667-.66666666.66666666 0 .368.29853333.66666666.66666666.66666666zm5.32346661 0h1.33079999c.36813333 0 .66666666-.29866666.66666666-.66666666 0-.36799999-.29853333-.66666666-.66666666-.66666666h-1.33079999c-.36826666 0-.66666666.29866667-.66666666.66666666 0 .368.2984.66666666.66666666.66666666zm5.32346662 0h1.33066665c.36826666 0 .66666666-.29866666.66666666-.66666666 0-.36799999-.2984-.66666666-.66666666-.66666666h-1.33066665c-.36826667 0-.66666666.29866667-.66666666.66666666 0 .368.29839999.66666666.66666666.66666666zm5.32346661 0h1.33066665c.36826666 0 .66666666-.29866666.66666666-.66666666 0-.36799999-.2984-.66666666-.66666666-.66666666h-1.33066665c-.36826666 0-.66666666.29866667-.66666666.66666666 0 .368.2984.66666666.66666666.66666666zm5.32333328 0h1.33079998c.36826667 0 .66666666-.29866666.66666666-.66666666 0-.36799999-.29839999-.66666666-.66666666-.66666666h-1.33079998c-.36813333 0-.66666666.29866667-.66666666.66666666 0 .368.29853333.66666666.66666666.66666666zm5.32346661 0h1.33066665c.368 0 .66666666-.29866666.66666666-.66666666 0-.36799999-.29866666-.66666666-.66666666-.66666666h-1.33066665c-.368 0-.66666666.29866667-.66666666.66666666 0 .368.29866666.66666666.66666666.66666666zm5.32266661 0h1.33199999c.368 0 .66666666-.29866666.66666666-.66666666 0-.36799999-.29866666-.66666666-.66666666-.66666666h-1.33199999c-.36799999 0-.66666666.29866667-.66666666.66666666 0 .368.29866667.66666666.66666666.66666666zm5.32399995 0h1.33066665c.368 0 .66666666-.29866666.66666666-.66666666 0-.36799999-.29866666-.66666666-.66666666-.66666666h-1.33066665c-.368 0-.66666666.29866667-.66666666.66666666 0 .368.29866666.66666666.66666666.66666666zm5.32399995 0h1.33066665c.368 0 .66666666-.29866666.66666666-.66666666 0-.36799999-.29866666-.66666666-.66666666-.66666666h-1.33066665c-.36933333 0-.66666666.29866667-.66666666.66666666 0 .368.29733333.66666666.66666666.66666666zm5.32266661 0h1.33066665c.368 0 .66666666-.29866666.66666666-.66666666 0-.36799999-.29866666-.66666666-.66666666-.66666666h-1.33066665c-.368 0-.66666666.29866667-.66666666.66666666 0 .368.29866666.66666666.66666666.66666666zm5.32399995 0h1.33066665c.36799999 0 .66666666-.29866666.66666666-.66666666 0-.36799999-.29866667-.66666666-.66666666-.66666666h-1.33066665c-.368 0-.66666666.29866667-.66666666.66666666 0 .368.29866666.66666666.66666666.66666666zm5.32266661 0h1.33066665c.368 0 .66666666-.29866666.66666666-.66666666 0-.36799999-.29866666-.66666666-.66666666-.66666666h-1.33066665c-.368 0-.66666666.29866667-.66666666.66666666 0 .368.29866666.66666666.66666666.66666666zm5.32399994 0h1.33066666c.36799999 0 .66666666-.29866666.66666666-.66666666 0-.36799999-.29866667-.66666666-.66666666-.66666666h-1.33066666c-.36799999 0-.66666666.29866667-.66666666.66666666 0 .368.29866667.66666666.66666666.66666666zm5.32266662 0h1.33066665c.36933333 0 .66666666-.29866666.66666666-.66666666 0-.36799999-.29733333-.66666666-.66666666-.66666666h-1.33066665c-.368 0-.66666666.29866667-.66666666.66666666 0 .368.29866666.66666666.66666666.66666666zm5.32399994 0h1.33066666c.36799999 0 .66666666-.29866666.66666666-.66666666 0-.36799999-.29866667-.66666666-.66666666-.66666666h-1.33066666c-.36799999 0-.66666666.29866667-.66666666.66666666 0 .368.29866667.66666666.66666666.66666666zm5.32266662 0h1.33199998c.368 0 .66666666-.29866666.66666666-.66666666 0-.36799999-.29866666-.66666666-.66666666-.66666666h-1.33199998c-.368 0-.66666666.29866667-.66666666.66666666 0 .368.29866666.66666666.66666666.66666666zm5.32399994 0h1.33066666c.36799999 0 .66666666-.29866666.66666666-.66666666 0-.36799999-.29866667-.66666666-.66666666-.66666666h-1.33066666c-.36799999 0-.66666666.29866667-.66666666.66666666 0 .368.29866667.66666666.66666666.66666666zm5.32266662 0h1.33199998c.368 0 .66666666-.29866666.66666666-.66666666 0-.36799999-.29866666-.66666666-.66666666-.66666666h-1.33199998c-.368 0-.66666666.29866667-.66666666.66666666 0 .368.29866666.66666666.66666666.66666666zm5.32399994 0h1.33066665c.368 0 .66666666-.29866666.66666666-.66666666 0-.36799999-.29866666-.66666666-.66666666-.66666666h-1.33066665c-.36799999 0-.66666666.29866667-.66666666.66666666 0 .368.29866667.66666666.66666666.66666666zm5.32399995 0h1.33066665c.368 0 .66666666-.29866666.66666666-.66666666 0-.36799999-.29866666-.66666666-.66666666-.66666666h-1.33066665c-.36933333 0-.66666666.29866667-.66666666.66666666 0 .368.29733333.66666666.66666666.66666666zm5.32266661 0h1.33066665c.368 0 .66666666-.29866666.66666666-.66666666 0-.36799999-.29866666-.66666666-.66666666-.66666666h-1.33066665c-.368 0-.66666666.29866667-.66666666.66666666 0 .368.29866666.66666666.66666666.66666666zm5.32399995 0h1.33066665c.368 0 .66666666-.29866666.66666666-.66666666 0-.36799999-.29866666-.66666666-.66666666-.66666666h-1.33066665c-.36933333 0-.66666666.29866667-.66666666.66666666 0 .368.29733333.66666666.66666666.66666666zm5.32266661 0h1.33066665c.368 0 .66666666-.29866666.66666666-.66666666 0-.36799999-.29866666-.66666666-.66666666-.66666666h-1.33066665c-.368 0-.66666666.29866667-.66666666.66666666 0 .368.29866666.66666666.66666666.66666666zm5.32399995 0h1.33066665c.368 0 .66666666-.29866666.66666666-.66666666 0-.36799999-.29866666-.66666666-.66666666-.66666666h-1.33066665c-.368 0-.66666666.29866667-.66666666.66666666 0 .368.29866666.66666666.66666666.66666666zm5.32266661 0h1.33066665c.368 0 .66666666-.29866666.66666666-.66666666 0-.36799999-.29866666-.66666666-.66666666-.66666666h-1.33066665c-.368 0-.66666666.29866667-.66666666.66666666 0 .368.29866666.66666666.66666666.66666666zm5.32399995 0h1.33066665c.36799999 0 .66666666-.29866666.66666666-.66666666 0-.36799999-.29866667-.66666666-.66666666-.66666666h-1.33066665c-.368 0-.66666666.29866667-.66666666.66666666 0 .368.29866666.66666666.66666666.66666666zm5.32266661 0h1.33066665c.36933333 0 .66666666-.29866666.66666666-.66666666 0-.36799999-.29733333-.66666666-.66666666-.66666666h-1.33066665c-.368 0-.66666666.29866667-.66666666.66666666 0 .368.29866666.66666666.66666666.66666666zm5.32399994 0h1.33066666c.36799999 0 .66666666-.29866666.66666666-.66666666 0-.36799999-.29866667-.66666666-.66666666-.66666666h-1.33066666c-.36799999 0-.66666666.29866667-.66666666.66666666 0 .368.29866667.66666666.66666666.66666666zm5.32266662 0h1.33066665c.36933333 0 .66666666-.29866666.66666666-.66666666 0-.36799999-.29733333-.66666666-.66666666-.66666666h-1.33066665c-.368 0-.66666666.29866667-.66666666.66666666 0 .368.29866666.66666666.66666666.66666666zm5.32399994 0h1.33066666c.36799999 0 .66666666-.29866666.66666666-.66666666 0-.36799999-.29866667-.66666666-.66666666-.66666666h-1.33066666c-.36799999 0-.66666666.29866667-.66666666.66666666 0 .368.29866667.66666666.66666666.66666666zm5.32266662 0h1.33199998c.368 0 .66666666-.29866666.66666666-.66666666 0-.36799999-.29866666-.66666666-.66666666-.66666666h-1.33199998c-.368 0-.66666666.29866667-.66666666.66666666 0 .368.29866666.66666666.66666666.66666666zm5.32399994 0h1.33066666c.36799999 0 .66666666-.29866666.66666666-.66666666 0-.36799999-.29866667-.66666666-.66666666-.66666666h-1.33066666c-.36799999 0-.66666666.29866667-.66666666.66666666 0 .368.29866667.66666666.66666666.66666666zm5.32399995 0h1.33066665c.368 0 .66666666-.29866666.66666666-.66666666 0-.36799999-.29866666-.66666666-.66666666-.66666666h-1.33066665c-.36933333 0-.66666666.29866667-.66666666.66666666 0 .368.29733333.66666666.66666666.66666666zm5.32266661 0h1.33066666c.36799999 0 .66666666-.29866666.66666666-.66666666 0-.36799999-.29866667-.66666666-.66666666-.66666666h-1.33066666c-.36799999 0-.66666666.29866667-.66666666.66666666 0 .368.29866667.66666666.66666666.66666666zm5.32399995 0h1.33066665c.368 0 .66666666-.29866666.66666666-.66666666 0-.36799999-.29866666-.66666666-.66666666-.66666666h-1.33066665c-.36933333 0-.66666666.29866667-.66666666.66666666 0 .368.29733333.66666666.66666666.66666666zm5.32266661 0h1.33066665c.368 0 .66666666-.29866666.66666666-.66666666 0-.36799999-.29866666-.66666666-.66666666-.66666666h-1.33066665c-.368 0-.66666666.29866667-.66666666.66666666 0 .368.29866666.66666666.66666666.66666666zm5.32399995 0h1.33066665c.368 0 .66666666-.29866666.66666666-.66666666 0-.36799999-.29866666-.66666666-.66666666-.66666666h-1.33066665c-.368 0-.66666666.29866667-.66666666.66666666 0 .368.29866666.66666666.66666666.66666666zm5.32266661 0h1.33066665c.368 0 .66666666-.29866666.66666666-.66666666 0-.36799999-.29866666-.66666666-.66666666-.66666666h-1.33066665c-.368 0-.66666666.29866667-.66666666.66666666 0 .368.29866666.66666666.66666666.66666666zm5.32399995 0h1.33066665c.368 0 .66666666-.29866666.66666666-.66666666 0-.36799999-.29866666-.66666666-.66666666-.66666666h-1.33066665c-.368 0-.66666666.29866667-.66666666.66666666 0 .368.29866666.66666666.66666666.66666666zm5.32266661 0h1.33066665c.36933333 0 .66666666-.29866666.66666666-.66666666 0-.36799999-.29733333-.66666666-.66666666-.66666666h-1.33066665c-.368 0-.66666666.29866667-.66666666.66666666 0 .368.29866666.66666666.66666666.66666666zm5.32399995 0h1.33066665c.368 0 .66666666-.29866666.66666666-.66666666 0-.36799999-.29866666-.66666666-.66666666-.66666666h-1.33066665c-.368 0-.66666666.29866667-.66666666.66666666 0 .368.29866666.66666666.66666666.66666666zm5.32266661 0h1.33066665c.36933333 0 .66666666-.29866666.66666666-.66666666 0-.36799999-.29733333-.66666666-.66666666-.66666666h-1.33066665c-.368 0-.66666666.29866667-.66666666.66666666 0 .368.29866666.66666666.66666666.66666666zm5.32399994 0h1.33066666c.36799999 0 .66666666-.29866666.66666666-.66666666 0-.36799999-.29866667-.66666666-.66666666-.66666666h-1.33066666c-.36799999 0-.66666666.29866667-.66666666.66666666 0 .368.29866667.66666666.66666666.66666666zm5.32266662 0h1.33199998c.368 0 .66666666-.29866666.66666666-.66666666 0-.36799999-.29866666-.66666666-.66666666-.66666666h-1.33199998c-.368 0-.66666666.29866667-.66666666.66666666 0 .368.29866666.66666666.66666666.66666666zm5.32399994 0h1.33066666c.36799999 0 .66666666-.29866666.66666666-.66666666 0-.36799999-.29866667-.66666666-.66666666-.66666666h-1.33066666c-.36799999 0-.66666666.29866667-.66666666.66666666 0 .368.29866667.66666666.66666666.66666666zm5.32266662 0h1.33199998c.368 0 .66666666-.29866666.66666666-.66666666 0-.36799999-.29866666-.66666666-.66666666-.66666666h-1.33199998c-.368 0-.66666666.29866667-.66666666.66666666 0 .368.29866666.66666666.66666666.66666666zm5.32399994 0h1.33066666c.36799999 0 .66666666-.29866666.66666666-.66666666 0-.36799999-.29866667-.66666666-.66666666-.66666666h-1.33066666c-.36799999 0-.66666666.29866667-.66666666.66666666 0 .368.29866667.66666666.66666666.66666666zm5.32399995 0h1.33066665c.368 0 .66666666-.29866666.66666666-.66666666 0-.36799999-.29866666-.66666666-.66666666-.66666666h-1.33066665c-.36933333 0-.66666666.29866667-.66666666.66666666 0 .368.29733333.66666666.66666666.66666666zm5.32266661 0h1.33066666c.36799999 0 .66666666-.29866666.66666666-.66666666 0-.36799999-.29866667-.66666666-.66666666-.66666666h-1.33066666c-.36799999 0-.66666666.29866667-.66666666.66666666 0 .368.29866667.66666666.66666666.66666666"/><path d="m369.74199993 325.01332991h.66666666c.36799999 0 .66666666-.29866666.66666666-.66666666 0-.36799999-.29866667-.66666666-.66666666-.66666666h-.66666666c-.368 0-.66666666.29866667-.66666666.66666666 0 .368.29866666.66666666.66666666.66666666"/></g><path d="m274.64334521 326.6453299h-4.59599996v-4.59599996h4.59599996z" fill="#fff"/><path d="m274.64334521 326.6453299v-.66666666h-3.9293333v-3.26266664h3.26266664v3.9293333h.66666666v-.66666666.66666666h.66666666v-4.59599996c0-.17466666-.072-.34666666-.196-.47066666s-.296-.196-.47066666-.196h-4.59599996c-.17466666 0-.34666666.072-.47066666.196s-.196.296-.196.47066666v4.59599996c0 .17466666.072.34666666.196.47066666s.296.196.47066666.196h4.59599996c.17466666 0 .34666666-.072.47066666-.196s.196-.296.196-.47066666z" fill="#1d2a30"/><path d="m167.29799587 38.52934059h-65.73773267c-1.60253332 0-2.9009333 1.29866665-2.9009333 2.9013333v30.59199969c0 1.60266665 1.29839998 2.90133331 2.9009333 2.90133331h29.50106637l3.3673333 12.05866654 3.36799996-12.05866654h29.50133304c1.60266665 0 2.9013333-1.29866666 2.9013333-2.90133331v-30.59199969c0-1.60266665-1.29866665-2.9013333-2.9013333-2.9013333" fill="#73cd91"/><path d="m167.29799587 38.52934059v-.66666666h-65.73773267c-1.97079998 0-3.56759996 1.59599998-3.56759996 3.56799996v30.59199969c0 1.97066665 1.59679998 3.56799997 3.56759996 3.56799997h28.99533304l3.2317333 11.57066655c.08.28933333.34133333.48799999.64133333.48799999.29999999 0 .56133333-.19866666.64266666-.48799999l3.23199997-11.57066655h28.99466637c1.97066665 0 3.56799996-1.59733332 3.56799996-3.56799997v-30.59199969c0-1.97199998-1.59733331-3.56799996-3.56799996-3.56799996v.66666666.66666666c1.23466665.00133333 2.23199998.99999999 2.23466664 2.23466664v30.59199969c-.00266666 1.23333332-.99999999 2.23199998-2.23466664 2.23466665h-29.50133304c-.29999999 0-.56133332.19866666-.64133332.48799999l-2.72666664 9.75866657-2.72506664-9.75866657c-.0808-.28933333-.34226666-.48799999-.64226666-.48799999h-29.50106637c-1.23386665-.00266667-2.23226664-1.00133333-2.23426664-2.23466665v-30.59199969c.002-1.23466665 1.00039999-2.23333331 2.23426664-2.23466664h65.73773267z" fill="#1d2a30"/><path d="m109.59679645 48.62133789h49.6651995c.73599999 0 1.33333332-.59733333 1.33333332-1.33333332s-.59733333-1.33333332-1.33333332-1.33333332h-49.6651995c-.73653332 0-1.33333332.59733333-1.33333332 1.33333332s.5968 1.33333332 1.33333332 1.33333332" fill="#1d2a30"/><path d="m109.59679645 54.91333691h49.6651995c.73599999 0 1.33333332-.59733332 1.33333332-1.33333332 0-.73599999-.59733333-1.33333332-1.33333332-1.33333332h-49.6651995c-.73653332 0-1.33333332.59733333-1.33333332 1.33333332 0 .736.5968 1.33333332 1.33333332 1.33333332" fill="#1d2a30"/><path d="m109.59679645 61.20667308h49.6651995c.73599999 0 1.33333332-.59733333 1.33333332-1.33333332 0-.73733332-.59733333-1.33333332-1.33333332-1.33333332h-49.6651995c-.73653332 0-1.33333332.596-1.33333332 1.33333332 0 .73599999.5968 1.33333332 1.33333332 1.33333332" fill="#1d2a30"/><path d="m109.60679157 67.49867378h37.43053295c.736 0 1.33333332-.59733333 1.33333332-1.33333332 0-.73733332-.59733332-1.33333332-1.33333332-1.33333332h-37.43053295c-.73653333 0-1.33333332.596-1.33333332 1.33333332 0 .73599999.59679999 1.33333332 1.33333332 1.33333332" fill="#1d2a30"/><path d="m140.47666403 408.14133396h-71.54026595v-44.83999955h71.54026595z" fill="#1d2a30"/><path d="m140.47666403 408.14133396v-.66666666h-70.87359929v-43.50666623h70.20693263v44.17333289h.66666666v-.66666666.66666666h.66666666v-44.83999955c0-.176-.07066667-.348-.19466667-.472s-.29599999-.19466666-.47199999-.19466666h-71.54026595c-.1756 0-.34746666.07066666-.47133333.19466666-.12399999.124-.19533333.296-.19533333.472v44.83999955c0 .17466666.07133334.34666666.19533333.47066666.12386667.124.29573333.196.47133333.196h71.54026595c.176 0 .34799999-.072.47199999-.196s.19466667-.296.19466667-.47066666z" fill="#1d2a30"/><path d="m140.47666403 370.11867744h-71.54026595v-6.81733327h71.54026595z" fill="#73cd91"/><path d="m140.47666403 370.11867744v-.66666666h-70.87359929v-5.48399995h70.20693263v6.15066661h.66666666v-.66666666.66666666h.66666666v-6.81733327c0-.17599999-.07066667-.34799999-.19466667-.47199999s-.29599999-.19466667-.47199999-.19466667h-71.54026595c-.1756 0-.34746666.07066667-.47133333.19466667-.12399999.124-.19533333.296-.19533333.47199999v6.81733327c0 .176.07133334.348.19533333.47199999.12386667.124.29573333.19466667.47133333.19466667h71.54026595c.176 0 .34799999-.07066667.47199999-.19466667.124-.12399999.19466667-.29599999.19466667-.47199999z" fill="#1d2a30"/><path d="m76.24786651 376.53200705h18.28599981c.36826667 0 .66666666-.29866667.66666666-.66666666 0-.36933333-.29839999-.66666666-.66666666-.66666666h-18.28599981c-.36813333 0-.66666666.29733333-.66666666.66666666 0 .36799999.29853333.66666666.66666666.66666666" fill="#fff"/><path d="m85.39066672 381.63067732h31.64839968c.36826666 0 .66666666-.29866666.66666666-.66666666 0-.36799999-.2984-.66666666-.66666666-.66666666h-31.64839968c-.36826666 0-.66666666.29866667-.66666666.66666666 0 .368.2984.66666666.66666666.66666666" fill="#fff"/><path d="m81.33693038 386.38666751h9.31813323c.36826667 0 .66666666-.29866666.66666666-.66666666s-.29839999-.66666666-.66666666-.66666666h-9.31813323c-.36826667 0-.66666666.29866666-.66666666.66666666s.29839999.66666666.66666666.66666666" fill="#fff"/><path d="m85.38066275 392.00400567h21.31613312c.36826666 0 .66666666-.29866667.66666666-.66666666 0-.368-.2984-.66666666-.66666666-.66666666h-21.31613312c-.36826666 0-.66666666.29866666-.66666666.66666666 0 .36799999.2984.66666666.66666666.66666666" fill="#fff"/><path d="m76.24786651 397.10266618h18.28599981c.36826667 0 .66666666-.29866666.66666666-.66666666s-.29839999-.66666666-.66666666-.66666666h-18.28599981c-.36813333 0-.66666666.29866666-.66666666.66666666s.29853333.66666666.66666666.66666666" fill="#fff"/><path d="m253.99000415 279.48933281h-61.42133271c-.368 0-.66666666.29866667-.66666666.66666666 0 .36933333.29866666.66666666.66666666.66666666h61.42133271c.368 0 .66666666-.29733333.66666666-.66666666 0-.36799999-.29866666-.66666666-.66666666-.66666666" fill="#1d2a30"/><path d="m255.83800413 308.55732764c-.004-.06133334.00266667-7.2906666-4.07199996-14.59466652-2.03733331-3.64799997-5.10933328-7.31466659-9.7079999-10.05733323-4.59733329-2.74399998-10.70799989-4.55466662-18.77866648-4.55333329-8.07066658-.00133333-14.18133319 1.80933331-18.77866647 4.55333329-6.90133327 4.11733329-10.35066657 10.29733323-12.06399988 15.41066651-1.71466665 5.11866661-1.71466665 9.19466657-1.71599999 9.24133324 0 .36799999.29866667.66666666.66666666.66666666.368 0 .66666666-.29866667.66666666-.66666666 0 0 0-.09466667.008-.296.052-1.50266665.54933333-8.45333325 4.67066662-14.95199985 2.05999998-3.25199997 5.01599995-6.39599993 9.28799991-8.73733324 4.27333329-2.33999998 9.8759999-3.8853333 17.25866649-3.88666663 7.87466659.00133333 13.72399986 1.75866665 18.09599982 4.36533329 6.55199993 3.90933329 9.83066657 9.76933323 11.48133322 14.68933318.82399999 2.45733331 1.23733332 4.67333329 1.44266665 6.26933327.10266666.79733333.15466666 1.44133332.18 1.88133332.012.21999999.01866666.38933333.02133333.50266666l.004.164c0 .36799999.29733333.66666666.66666666.66666666.368 0 .66666666-.29866667.66666666-.66666666" fill="#1d2a30"/><path d="m252.49333811 308.55733862c0-1.48399998 1.20399999-2.68666664 2.68799997-2.68666664 1.48399999 0 2.68666664 1.20266666 2.68666664 2.68666664 0 1.48266666-1.20266665 2.68666664-2.68666664 2.68666664-1.48399998 0-2.68799997-1.20399998-2.68799997-2.68666664" fill="#73cd91"/><path d="m252.49333811 308.55733862h.66666666c.00266666-1.11599999.90533332-2.01866664 2.02133331-2.01999998 1.11599999.00133334 2.01866665.90399999 2.01999998 2.01999998-.00133333 1.11466666-.90399999 2.01733332-2.01999998 2.01999998-1.11599999-.00266666-2.01866665-.90533332-2.02133331-2.01999998h-.66666666-.66666666c.00133333 1.85199998 1.50133332 3.35199997 3.35466663 3.3533333 1.85199998-.00133333 3.3533333-1.50133332 3.3533333-3.3533333s-1.50133332-3.3533333-3.3533333-3.3533333c-1.85333331 0-3.3533333 1.50133332-3.35466663 3.3533333z" fill="#1d2a30"/><path d="m188.70067086 308.55733862c0-1.48399998 1.20266666-2.68666664 2.68666664-2.68666664 1.48399999 0 2.68799998 1.20266666 2.68799998 2.68666664 0 1.48266666-1.20399999 2.68666664-2.68799998 2.68666664-1.48399998 0-2.68666664-1.20399998-2.68666664-2.68666664" fill="#73cd91"/><path d="m188.70067086 308.55733862h.66666666c.00266667-1.11599999.90533333-2.01866664 2.01999998-2.01999998 1.11599999.00133334 2.01866665.90399999 2.02133332 2.01999998-.00266667 1.11466666-.90533333 2.01733332-2.02133332 2.01999998-1.11466665-.00266666-2.01733331-.90533332-2.01999998-2.01999998h-.66666666-.66666666c0 1.85199998 1.50133332 3.35199997 3.3533333 3.3533333 1.85333332-.00133333 3.3533333-1.50133332 3.35466664-3.3533333 0-1.85199998-1.50133332-3.3533333-3.35466664-3.3533333-1.85199998 0-3.3533333 1.50133332-3.3533333 3.3533333z" fill="#1d2a30"/><path d="m252.81867144 277.65601415h4.72533328v4.72533328h-4.72533328z" fill="#73cd91"/><path d="m252.81867144 277.65601415v.66666666h4.05866662v3.39199996h-3.39199996v-4.05866662h-.66666666v.66666666-.66666666h-.66666666v4.72533328c0 .176.07066666.34666667.196.47066666.12399999.12533334.29466666.196.47066666.196h4.72533328c.17466667 0 .34666667-.07066666.47066667-.196.12399999-.12399999.19599999-.29466666.19599999-.47066666v-4.72533328c0-.17466667-.072-.34666667-.19599999-.47066666-.124-.124-.296-.196-.47066667-.196h-4.72533328c-.176 0-.34666667.072-.47066666.196-.12533334.12399999-.196.29599999-.196.47066666z" fill="#1d2a30"/><path d="m220.91667115 277.65601415h4.72533329v4.72533328h-4.72533329z" fill="#73cd91"/><path d="m220.91667115 277.65601415v.66666666h4.05866663v3.39199996h-3.39199997v-4.05866662h-.66666666v.66666666-.66666666h-.66666666v4.72533328c0 .176.072.34666667.196.47066666.124.12533334.29466666.196.47066666.196h4.72533329c.17466666 0 .34666666-.07066666.47066666-.196.124-.12399999.19599999-.29466666.19599999-.47066666v-4.72533328c0-.17466667-.07199999-.34666667-.19599999-.47066666-.124-.124-.296-.196-.47066666-.196h-4.72533329c-.176 0-.34666666.072-.47066666.196-.12533333.12399999-.196.29599999-.196.47066666z" fill="#1d2a30"/><path d="m189.02600419 277.65601415h4.72399996v4.72533328h-4.72399996z" fill="#73cd91"/><path d="m189.02600419 277.65601415v.66666666h4.0573333v3.39199996h-3.39066664v-4.05866662h-.66666666v.66666666-.66666666h-.66666666v4.72533328c0 .176.07066667.34666667.19466667.47066666.124.12533334.296.196.47199999.196h4.72399996c.17599999 0 .34799999-.07066666.47199999-.196.124-.12399999.19466667-.29466666.19466667-.47066666v-4.72533328c0-.17466667-.07066667-.34666667-.19466667-.47066666-.124-.124-.296-.196-.47199999-.196h-4.72399996c-.17599999 0-.34799999.072-.47199999.196-.124.12399999-.19466667.29599999-.19466667.47066666z" fill="#1d2a30"/><path d="m62.01920059 200.57200882c-6.05159993 0-10.95679989-4.90533328-10.95679989-10.95599989 0-6.05199994 4.90519996-10.95866655 10.95679989-10.95866655 6.05146661 0 10.95679989 4.90666661 10.95679989 10.95866655 0 6.05066661-4.90533328 10.95599989-10.95679989 10.95599989zm25.89373308-6.24133327v-9.43066657l-7.06359993-.60799999c-.4208-1.49066666-1.00466666-2.90933331-1.74626665-4.23199996l4.55933329-5.41999995-6.66719994-6.66799993-5.42026661 4.55999996c-1.32293332-.74266666-2.74226664-1.32533332-4.23226662-1.74666665l-.60893333-7.06399993h-9.42973324l-.60879999 7.06399993c-1.49013332.42133333-2.90933331 1.00399999-4.23226663 1.74666665l-5.41986661-4.55999996-6.6670666 6.66799993 4.55933329 5.41866662c-.74173333 1.32399998-1.32559999 2.74266663-1.74639998 4.23333329l-7.0634666.60799999v9.43066657l7.0634666.608c.42079999 1.49066665 1.00466665 2.9093333 1.74639998 4.23333329l-4.55933329 5.41999994 6.6670666 6.6666666 5.41986661-4.55999995c1.32293332.74266666 2.74213331 1.32666665 4.23226663 1.74666665l.60879999 7.06399992h9.42973324l.60893333-7.06399992c1.48999998-.42 2.9093333-1.00399999 4.23226662-1.74666665l5.42026661 4.55999995 6.66719994-6.6666666-4.55933329-5.41999994c.74159999-1.32399999 1.32546665-2.74399998 1.74626665-4.23333329z" fill="#73cd91"/><path d="m62.01920059 200.57200882v-.66666666c-2.8437333 0-5.41199994-1.15066665-7.27653326-3.0133333-1.86306664-1.86399998-3.01359997-4.43333329-3.0141333-7.27599993.00053333-2.84399997 1.15106666-5.41333328 3.0141333-7.27733326 1.86453332-1.86266665 4.43279996-3.0133333 7.27653326-3.01466663 2.84373331.00133333 5.41199995 1.15199998 7.27653326 3.01466663 1.86306665 1.86399998 3.01359997 4.43333329 3.01359997 7.27733326 0 2.84266664-1.15053332 5.41199995-3.01359997 7.27599993-1.86453331 1.86266665-4.43279995 3.0133333-7.27653326 3.0133333v.66666666.66666666c6.41973327 0 11.62346655-5.20266661 11.62346655-11.62266655 0-6.41999993-5.20373328-11.62399988-11.62346655-11.62533321-6.4198666.00133333-11.62346655 5.20533328-11.62346655 11.62533321 0 6.41999994 5.20359995 11.62266655 11.62346655 11.62266655zm25.89373308-6.24133327h.66666666v-9.43066657c0-.34533333-.26453333-.63333333-.60933333-.66399999l-7.06359993-.608-.05733333.664.64173332-.18133334c-.43493332-1.53866665-1.03853332-3.00666663-1.80626664-4.37733328l-.58173333.32666666.51039999.42799999 4.55879996-5.41866661c.22293333-.26533333.20626666-.65599999-.03853334-.90133332l-6.66719993-6.66799993c-.2448-.244-.63586666-.26133333-.90053332-.03866667l-5.42026661 4.55999995.42919999.51066667.326-.58266667c-1.36973332-.76799999-2.83799997-1.37066665-4.37706662-1.80666664l-.1812.64266666.66399999-.05733334-.60826666-7.06399993c-.02973333-.34399999-.31826666-.60933332-.66466666-.60933332h-9.42973324c-.34573333 0-.63426666.26533333-.66399999.60933332l-.6088 7.06399993.664.05733334-.1812-.64266666c-1.53853332.43599999-3.00679997 1.03866665-4.37666662 1.80666664l.32559999.58266667.4292-.51066667-5.41986661-4.55999995c-.26453333-.22266666-.65573333-.20533333-.90053333.03866667l-6.66719993 6.66799993c-.2448.24533333-.26146666.63599999-.03906667.90133332l4.55946663 5.41866661.51039999-.42933332-.58173333-.32533333c-.76773332 1.37066665-1.37186665 2.83866663-1.80626665 4.37733328l.6416.18133334-.0572-.664-7.06359993.608c-.3448.03066666-.60933333.31866666-.60933333.66399999v9.43066657c0 .34533333.26453333.63466666.60933333.664l7.06359993.60799999.0572-.66399999-.6416.18133333c.4344 1.53866665 1.03853333 3.00799997 1.80626665 4.37733329l.58173333-.32533333-.51039999-.42933333-4.55946663 5.41999994c-.22239999.264-.20573333.656.03906667.89999999l6.66719993 6.66799994c.2448.24399999.636.26133333.90053333.03866666l5.41986661-4.55999995-.4292-.51066666-.32599999.58133332c1.37026665.76933333 2.8385333 1.37333332 4.37759995 1.80666665l.18066667-.64133332-.664.05733333.6088 7.06266659c.02973333.34533333.31826666.61066666.66399999.61066666h9.42973324c.3464 0 .63493333-.26533333.66466666-.61066666l.60826666-7.06266659-.66399999-.05733333.1812.64133332c1.53906665-.43333333 3.0073333-1.03733332 4.37759995-1.80666665l-.32653333-.58133332-.42919999.51066666 5.42026661 4.55999995c.26466666.22266667.65573332.20533333.90053332-.03866666l6.66719993-6.66799994c.2448-.24399999.26146667-.63599999.03853334-.89999999l-4.55879996-5.41999994-.51039999.42933333.58173333.32533333c.76773332-1.37066666 1.37186665-2.83866664 1.80626664-4.37733329l-.64173332-.18133333.05733333.66399999 7.06359993-.60799999c.3448-.02933334.60933333-.31866667.60933333-.664h-.66666666l-.05733334-.66399999-7.06346659.60799999c-.27706667.024-.50893333.21466667-.5844.48266666-.40679999 1.44133332-.97133332 2.81199998-1.68599998 4.08799996-.13586666.24266667-.10773333.54266666.07133333.75466666l4.16519996 4.95199995-5.80213327 5.80266661-4.95213329-4.16533329c-.21239999-.18-.51293332-.208-.75519999-.072-1.27546665.71599999-2.64573331 1.27999999-4.08746662 1.68666665-.2672.076-.4588.308-.4828.58399999l-.55626666 6.4546666h-8.20626658l-.55626667-6.4546666c-.02386666-.27599999-.21559999-.50799999-.48333332-.58399999-1.44106666-.40666666-2.81133331-.97066666-4.0869333-1.68666665-.24213333-.136-.54266666-.108-.75573332.072l-4.95159995 4.16533329-5.80253328-5.80266661 4.16559996-4.95199995c.1792-.212.20733333-.51199999.07133333-.75466666-.71506666-1.27599998-1.27919998-2.6453333-1.68586665-4.08799996-.07559999-.26666666-.30786666-.45866666-.58439999-.48266666l-6.45413327-.55599999v-8.20666659l6.45413327-.55599999c.27653333-.024.5088-.216.58439999-.48266666.40666667-1.44133332.97079999-2.81199997 1.68586665-4.08799996.136-.24266666.10786667-.54266666-.07133333-.75599999l-4.16559996-4.95066662 5.80253328-5.80266661 4.95159995 4.16533329c.21306666.17866667.51306666.208.75519999.072 1.27613332-.71599999 2.64639997-1.27999998 4.08799996-1.68666665.2672-.076.45893333-.30799999.48279999-.58399999l.55626667-6.4546666h8.20626658l.55626666 6.4546666c.024.276.2156.50799999.4828.58399999 1.44173331.40666667 2.81199997.97066666 4.08746662 1.68666665.2428.136.5428.10666667.75519999-.072l4.95213329-4.16533329 5.80213327 5.80266661-4.16519996 4.95199995c-.17906666.212-.20719999.512-.07133333.75466666.71519999 1.27599999 1.27919999 2.64666664 1.68599998 4.08799996.07546667.26666666.30733333.45866666.5844.48266666l6.45413327.55599999v8.81866658h.66666666l-.05733334-.66399999z" fill="#1d2a30"/><path d="m102.2353323 219.75333708c-4.14266662 0-7.50053326-3.3573333-7.50053326-7.49999993 0-4.14266662 3.35786664-7.50133325 7.50053326-7.50133325 4.14266663 0 7.50053326 3.35866663 7.50053326 7.50133325 0 4.14266663-3.35786663 7.49999993-7.50053326 7.49999993zm17.72439982-4.27333329v-6.4546666l-4.83426662-.416c-.28853333-1.01999999-.68853332-1.99199998-1.19639998-2.8973333l3.12186663-3.71066663-4.56453329-4.56399996-3.70946663 3.12133331c-.90626665-.508-1.87759998-.90799999-2.89786663-1.19599999l-.41666667-4.83466662h-6.45413326l-.41666667 4.83466662c-1.02039999.288-1.99173331.68799999-2.89746663 1.19599999l-3.71039997-3.12133331-4.56346662 4.56399996 3.12079997 3.70933329c-.50786666.90666666-.90733332 1.87866665-1.19586665 2.89866664l-4.83439995.416v6.4546666l4.83439995.41733333c.28853333 1.01999999.68799999 1.99199998 1.19586665 2.8973333l-3.12079997 3.7093333 4.56346662 4.56399995 3.70986663-3.11999997c.90626666.508 1.87759998.90666666 2.89799997 1.19466666l.41666667 4.83599995h6.45413326l.41666667-4.83599995c1.02026665-.288 1.99213331-.68666666 2.89786663-1.19466666l3.70946663 3.11999997 4.56453329-4.56399995-3.12186663-3.7093333c.50786666-.90533332.90786665-1.87733331 1.19639998-2.8973333z" fill="#73cd91"/><path d="m102.2353323 219.75333708v-.66666666c-1.88959998 0-3.5937333-.76399999-4.83226662-2.00133331-1.23799998-1.23866666-2.00159998-2.94266664-2.00159998-4.83199996 0-1.88933331.7636-3.59466663 2.00159998-4.83333328 1.23853332-1.23733332 2.94266664-2.00133331 4.83226662-2.00133331 1.88906665 0 3.59319996.76399999 4.83226662 2.00133331 1.23746665 1.23866665 2.00159998 2.94399997 2.00159998 4.83333328 0 1.88933332-.76413333 3.5933333-2.00159998 4.83199996-1.23906666 1.23733332-2.94319997 2.00133331-4.83226662 2.00133331v.66666666.66666666c4.51093329 0 8.16666658-3.65599996 8.16719992-8.16666659-.00053334-4.51199995-3.65626663-8.16799991-8.16719992-8.16799991s-8.16666658 3.65599996-8.16719992 8.16799991c.00053334 4.51066663 3.65626663 8.16666659 8.16719992 8.16666659zm17.72439982-4.27333329h.66666666v-6.4546666c0-.34533333-.26453333-.63466666-.60933333-.664l-4.83493328-.41599999-.05666667.66399999.64106666-.18133333c-.30199999-1.06933332-.72133332-2.08933331-1.25573332-3.04266664l-.58173332.32666667.51039999.42933333 3.1213333-3.71066663c.22293333-.264.20626667-.656-.03853333-.89999999l-4.56453329-4.56399996c-.24426666-.24533333-.63546666-.26133333-.90053332-.03866666l-3.7093333 3.1213333.42906666.50933333.32613333-.58133333c-.95373332-.53466666-1.97399998-.95333333-3.04279996-1.25599999l-.1812.64133333.66399999-.05733333-.41666666-4.83466662c-.0296-.344-.31813333-.60933333-.664-.60933333h-6.45413326c-.3464 0-.6344.26533333-.66466666.60933333l-.41666667 4.83466662.66466666.05733333-.18186666-.64133333c-1.06866666.30266666-2.08906665.72133333-3.04159997 1.25599999l.326.58133333.42919999-.50933333-3.71039996-3.1213333c-.26453333-.22266667-.65573333-.20666667-.90053332.03866666l-4.56359996 4.56399996c-.2448.24399999-.26146666.63599999-.03906666.89999999l3.12146663 3.70933329.50986666-.42933333-.58133333-.32533333c-.53426666.95333333-.95413332 1.97333332-1.25613332 3.04266664l.6416.18133333-.05733334-.66399999-4.83426661.41599999c-.3448.02933334-.60946666.31866667-.60946666.664v6.4546666c0 .34666666.26466666.63466666.60946666.66399999l4.83426661.41733333.05733334-.66399999-.6416.18133333c.302 1.06799999.72186666 2.08933331 1.25613332 3.0413333l.58133333-.32533333-.50986666-.42933333-3.12146663 3.7093333c-.2224.26533333-.20573334.65599999.03906666.90133332l4.56359996 4.56399996c.24479999.24399999.63599999.26133333.90053332.03866666l3.70986663-3.1213333-.4292-.50933333-.32599999.58133333c.95359999.53333333 1.97399998.95333332 3.04266663 1.25466665l.18133333-.64133332-.66466666.05733333.41666667 4.83599995c.02973333.344.31826666.60933333.66466666.60933333h6.45413326c.34586667 0 .6344-.26533333.664-.60933333l.41666666-4.83599995-.66399999-.05733333.1812.64133332c1.06879998-.30133333 2.08959997-.71999999 3.04279996-1.25466665l-.32613333-.58133333-.42906666.50933333 3.7093333 3.1213333c.26506666.22266667.65626666.20533333.90106666-.03866666l4.56399995-4.56399996c.2448-.24533333.26146666-.63599999.03853333-.90133332l-3.1213333-3.7093333-.51039999.42933333.58173332.32533333c.5344-.95199999.95373333-1.97333331 1.25573332-3.0413333l-.64106666-.18133333.05666667.66399999 4.83493328-.41733333c.3448-.02933333.60933333-.31733333.60933333-.66399999h-.66666666l-.0572-.66399999-4.83439995.41599999c-.27706666.024-.50879999.216-.58439999.484-.27493333.97066665-.65466666 1.89466664-1.13586666 2.75199997-.136.24266666-.10733333.54266666.07133333.75599999l2.72813331 3.2413333-3.69946663 3.69999996-3.2417333-2.72799997c-.21253333-.17866666-.51306666-.20666666-.75519999-.07066666-.85826666.47999999-1.78119998.85999999-2.75253331 1.13466665-.26773333.07466667-.45946666.308-.48333333.584l-.36413333 4.22666662h-5.23119994l-.36413333-4.22666662c-.02386667-.276-.21613333-.50933333-.48333333-.584-.97133332-.27466666-1.89373332-.65333333-2.75253331-1.13599999-.24279999-.13466666-.54279999-.10666666-.75519999.072l-3.2417333 2.72666664-3.6989333-3.69866663 2.72759998-3.2413333c.17866666-.21333333.20733333-.51333333.07133333-.75599999-.4812-.85733333-.86146666-1.78133332-1.13586666-2.75199997-.07559999-.268-.30786666-.46-.58439999-.484l-4.22506662-.364v-5.23066661l4.22506662-.364c.27653333-.024.5088-.21599999.58439999-.48266666.2744-.97199999.65466666-1.89466664 1.13586666-2.7533333.136-.24266667.10733333-.54266666-.07133333-.75466666l-2.72759998-3.24266664 3.6989333-3.69866662 3.24226663 2.72799997c.2124.17866666.51293333.20666666.7552.07066666.85826665-.48133332 1.78066665-.86133332 2.7525333-1.13599999.2672-.07466666.45893333-.30666666.4828-.58399999l.36413333-4.22533329h5.23119994l.36413333 4.22533329c.02386667.27733333.2156.50933333.4828.58399999.97133332.27466667 1.89426665.65466667 2.75306664 1.13599999.24213333.136.54266666.108.75519999-.07066666l3.2417333-2.72799997 3.69946663 3.69866662-2.72813331 3.24266664c-.17866666.212-.20733333.51333333-.07133333.75466666.4812.85866666.86146666 1.78133331 1.13586666 2.7533333.0756.26666667.30733333.45866666.58439999.48266666l4.22493329.364v5.84266661h.66666666l-.0572-.66399999z" fill="#1d2a30"/><path d="m285.53732435 341.36000374h51.63333281c.73733332 0 1.33333332-.59733333 1.33333332-1.33333332 0-.73733333-.596-1.33333332-1.33333332-1.33333332h-51.63333281c-.73733333 0-1.33333332.59599999-1.33333332 1.33333332 0 .73599999.59599999 1.33333332 1.33333332 1.33333332" fill="#1d2a30"/><path d="m285.53732435 349.63867154h51.63333281c.73733332 0 1.33333332-.59733333 1.33333332-1.33333332 0-.73733332-.596-1.33333332-1.33333332-1.33333332h-51.63333281c-.73733333 0-1.33333332.596-1.33333332 1.33333332 0 .73599999.59599999 1.33333332 1.33333332 1.33333332" fill="#1d2a30"/><path d="m285.53733045 358.07601211h29.42933304c.73599999 0 1.33333332-.59733332 1.33333332-1.33333332 0-.73599999-.59733333-1.33333332-1.33333332-1.33333332h-29.42933304c-.73733333 0-1.33333332.59733333-1.33333332 1.33333332 0 .736.59599999 1.33333332 1.33333332 1.33333332" fill="#1d2a30"/><path d="m217.49333724 360.17332467h-27.18399973c-3.69466662 0-6.69066659-2.99466663-6.69066659-6.68933326s2.99599997-6.6906666 6.69066659-6.6906666h27.18399973c3.69466663 0 6.6906666 2.99599997 6.6906666 6.6906666s-2.99599997 6.68933326-6.6906666 6.68933326" fill="#73cd91"/><path d="m217.49333724 360.17332467v-.66666666h-27.18399973c-1.66533331 0-3.16666663-.67333332-4.25999995-1.76399998-1.09066666-1.09199999-1.76399998-2.5933333-1.76399998-4.25866662s.67333332-3.16666664 1.76399998-4.25999996c1.09333332-1.09066665 2.59466664-1.76399998 4.25999995-1.76399998h27.18399973c1.66533332 0 3.16799997.67333333 4.25999996 1.76399998 1.09066665 1.09333332 1.76399998 2.59466664 1.76399998 4.25999996s-.67333333 3.16666663-1.76399998 4.25866662c-1.09199999 1.09066666-2.59466664 1.76399998-4.25999996 1.76399998v.66666666.66666666c4.06399996 0 7.35733326-3.2933333 7.35733326-7.35599992 0-4.06266663-3.2933333-7.35733326-7.35733326-7.35733326h-27.18399973c-4.06399995 0-7.35599992 3.29466663-7.35733325 7.35733326.00133333 4.06266662 3.2933333 7.35599992 7.35733325 7.35599992h27.18399973z" fill="#1d2a30"/><path d="m268.15199973 360.17332467h-27.18533306c-3.69466662 0-6.68933326-2.99466663-6.68933326-6.68933326s2.99466664-6.6906666 6.68933326-6.6906666h27.18533306c3.69466663 0 6.6906666 2.99599997 6.6906666 6.6906666s-2.99599997 6.68933326-6.6906666 6.68933326" fill="#73cd91"/><path d="m268.15199973 360.17332467v-.66666666h-27.18533306c-1.66533331 0-3.16666663-.67333332-4.25866662-1.76399998-1.09066665-1.09199999-1.76399998-2.5933333-1.76399998-4.25866662s.67333333-3.16799997 1.76399998-4.25999996c1.09199999-1.09066665 2.59333331-1.76399998 4.25866662-1.76399998h27.18533306c1.66533332 0 3.16666664.67333333 4.25866663 1.76399998 1.09199999 1.09333332 1.76399998 2.59466664 1.76533331 4.25999996-.00133333 1.66533332-.67333332 3.16666663-1.76533331 4.25866662-1.09199999 1.09066666-2.59333331 1.76399998-4.25866663 1.76399998v.66666666.66666666c4.06266663 0 7.35599993-3.2933333 7.35733326-7.35599992-.00133333-4.06266663-3.2933333-7.35733326-7.35733326-7.35733326h-27.18533306c-4.06266662 0-7.35599992 3.29466663-7.35599992 7.35733326 0 4.06266662 3.2933333 7.35599992 7.35599992 7.35599992h27.18533306z" fill="#1d2a30"/><path d="m346.95264851 274.78532981h-57.65333275v-57.65466609h57.65333275z" fill="#fff"/><path d="m346.95264851 274.78532981v-.66666666h-56.98666609v-56.32133277h56.31999943v56.98799943h.66666666v-.66666666.66666666h.66666666v-57.65466609c0-.17599999-.07066666-.34799999-.19466666-.47199999-.12533333-.124-.296-.19466667-.472-.19466667h-57.65333275c-.176 0-.34799999.07066667-.47199999.19466667s-.19466667.296-.19466667.47199999v57.65466609c0 .17466666.07066667.34666666.19466667.47066666s.29599999.196.47199999.196h57.65333275c.176 0 .34666667-.072.472-.196.124-.124.19466666-.296.19466666-.47066666z" fill="#1d2a30"/><path d="m289.29931576 217.13066372 57.65333275 57.65466609" fill="#fff"/><path d="m288.82731577 217.60133039 57.65333275 57.65466608c.26133333.26.68266666.26.94399999 0 .26-.26.26-.68266666 0-.94266666l-57.65466608-57.65466608c-.26-.26-.68266666-.26-.94266666 0-.26.26133333-.26.68266666 0 .94266666" fill="#1d2a30"/><path d="m346.95264851 217.13066372-57.65333275 57.65466609" fill="#fff"/><path d="m346.48064852 216.65866373-57.65333275 57.65466608c-.26.26-.26.68266666 0 .94266666s.68266666.26.94266666 0l57.65466608-57.65466608c.26-.26.26-.68133333 0-.94266666-.26133333-.26-.68266666-.26-.94399999 0" fill="#1d2a30"/><path d="m409.56132065 227.72266728h-71.53999928v-44.83866621h71.53999928z" fill="#1d2a30"/><path d="m409.56132065 227.72266728v-.66666666h-70.87333262v-43.50533289h70.20666596v44.17199955h.66666666v-.66666666.66666666h.66666666v-44.83866621c0-.176-.07066666-.348-.19466666-.472s-.296-.19466666-.472-.19466666h-71.53999928c-.17599999 0-.34666666.07066666-.47199999.19466666-.124.124-.19466667.296-.19466667.472v44.83866621c0 .176.07066667.348.19466667.472.12533333.12399999.296.19466666.47199999.19466666h71.53999928c.176 0 .348-.07066667.472-.19466666.124-.124.19466666-.296.19466666-.472z" fill="#1d2a30"/><path d="m409.56132065 189.7013441h-71.53999928v-6.81733327h71.53999928z" fill="#73cd91"/><path d="m409.56132065 189.7013441v-.66666666h-70.87333262v-5.48399995h70.20666596v6.15066661h.66666666v-.66666666.66666666h.66666666v-6.81733327c0-.176-.07066666-.34799999-.19466666-.47199999s-.296-.19466667-.472-.19466667h-71.53999928c-.17599999 0-.34666666.07066667-.47199999.19466667-.124.124-.19466667.29599999-.19466667.47199999v6.81733327c0 .17466666.07066667.34666666.19466667.47066666.12533333.124.296.196.47199999.196h71.53999928c.176 0 .348-.072.472-.196s.19466666-.296.19466666-.47066666z" fill="#1d2a30"/><path d="m345.31266196 196.11334037h18.28533315c.36933333 0 .66666666-.29866666.66666666-.66666666s-.29733333-.66666666-.66666666-.66666666h-18.28533315c-.36933333 0-.66666666.29866666-.66666666.66666666s.29733333.66666666.66666666.66666666" fill="#fff"/><path d="m354.45532121 201.21200088h31.64799968c.368 0 .66666666-.29733333.66666666-.66666666 0-.368-.29866666-.66666666-.66666666-.66666666h-31.64799968c-.368 0-.66666666.29866666-.66666666.66666666 0 .36933333.29866666.66666666.66666666.66666666" fill="#fff"/><path d="m350.42134322 205.96933417h9.31866657c.368 0 .66666666-.29866667.66666666-.66666666 0-.368-.29866666-.66666666-.66666666-.66666666h-9.31866657c-.36799999 0-.66666666.29866666-.66666666.66666666 0 .36799999.29866667.66666666.66666666.66666666" fill="#fff"/><path d="m354.46533464 211.58667233h21.31599978c.368 0 .66666666-.29866667.66666666-.66666666 0-.368-.29866666-.66666666-.66666666-.66666666h-21.31599978c-.368 0-.66666666.29866666-.66666666.66666666 0 .36799999.29866666.66666666.66666666.66666666" fill="#fff"/><path d="m345.31266196 216.68533284h18.28533315c.36933333 0 .66666666-.29866667.66666666-.66666666 0-.368-.29733333-.66666666-.66666666-.66666666h-18.28533315c-.36933333 0-.66666666.29866666-.66666666.66666666 0 .36799999.29733333.66666666.66666666.66666666" fill="#fff"/><path d="m311.91732896 151.68266622v13.45333319l-5.93199994 5.93333328h-13.45466653v-19.38666647z" fill="#fff"/><path d="m311.91732896 151.68266622h-.66666666v13.1773332l-5.54266661 5.54266661h-12.51066654v-18.05333315h18.71999981v-.66666666h-.66666666.66666666v-.66666666h-19.38666647c-.176 0-.34799999.07066666-.47199999.19466666s-.19466667.296-.19466667.472v19.38666647c0 .176.07066667.34666666.19466667.47199999.124.124.29599999.19466667.47199999.19466667h13.45466653c.17733333 0 .34533333-.06933334.47066666-.196l5.93199994-5.93333327c.12533334-.124.196-.296.196-.47066667v-13.45333319c0-.176-.072-.348-.196-.472-.12399999-.124-.29599999-.19466666-.47066666-.19466666z" fill="#1d2a30"/><path d="m311.91731798 165.13599819-5.93199994 5.93333328v-5.93333328z" fill="#fff"/><path d="m311.91731798 165.13599819-.472-.47199999-4.79333328 4.79599995v-3.6573333h5.26533328v-.66666666l-.472-.47199999.472.47199999v-.66666666h-5.93199994c-.176 0-.348.07066667-.472.19466667s-.19466666.296-.19466666.47199999v5.93333328c0 .26933333.16133333.51333333.41066666.61599999.24933333.10266667.53599999.04533333.72666666-.14533333l5.93199994-5.93333327c.19066666-.19066667.248-.47733333.14533333-.72666666-.104-.248-.34666666-.41066667-.61599999-.41066667z" fill="#1d2a30"/><path d="m105.73212921 255.72932329v13.4533332l-5.93373327 5.93333327h-13.45319986v-19.38666647z" fill="#fff"/><path d="m105.73212921 255.72932329h-.66666666v13.1773332l-5.54319994 5.54266661h-12.51039987v-18.05333315h18.72026647v-.66666666h-.66666666.66666666v-.66666666h-19.38693313c-.17546667 0-.34733333.07066666-.47133333.196-.124.12399999-.19533333.29466666-.19533333.47066666v19.38666647c0 .176.07133333.348.19533333.47199999.124.124.29586666.19466667.47133333.19466667h13.45319986c.17546667 0 .34733333-.07066667.47133333-.19466667l5.93386661-5.9346666c.12386666-.124.19519999-.29466667.19519999-.47066666v-13.4533332c0-.176-.07133333-.34666667-.19519999-.47066666-.12453334-.12533334-.29586667-.196-.47146667-.196z" fill="#1d2a30"/><path d="m105.73213349 269.18267602-5.93373328 5.93333327v-5.93333327z" fill="#fff"/><path d="m105.73213349 269.18267602-.47186667-.472-4.79519995 4.79599995v-3.65733329h5.26706662v-.66666666l-.47186667-.472.47186667.472v-.66666666h-5.93373328c-.1756 0-.34746666.07066666-.47146666.19466666-.12386666.124-.1952.296-.1952.472v5.93333327c0 .26933333.1624.51333333.41133333.61599999.2496.10266667.536.04666667.72666666-.14399999l5.93386661-5.93466661c.19053333-.19066667.24733333-.47733333.14426666-.72533333-.1032-.24933333-.34639999-.41199999-.61573332-.41199999z" fill="#1d2a30"/><path d="m32.48439876 338.61200499v13.45333319l-5.93386661 5.93333328h-13.4531332v-19.38666647z" fill="#fff"/><path d="m32.48439876 338.61200499h-.66666666v13.1773332l-5.54319995 5.54266661h-12.5105332v-18.05333315h18.72039981v-.66666666h-.66666666.66666666v-.66666666h-19.38699981c-.17552 0-.34739999.072-.47135999.19599999-.12396.124-.19530667.296-.19530667.47066667v19.38666647c0 .176.07134667.34799999.19530667.47199999s.29583999.19466667.47135999.19466667h13.4531332c.17546666 0 .34733333-.07066667.47133333-.19466667l5.9338666-5.93333327c.124-.12533333.19533334-.296.19533334-.472v-13.45333319c0-.17466667-.07133334-.34666667-.19533334-.47066667-.12453333-.12399999-.29586666-.19599999-.47133332-.19599999z" fill="#1d2a30"/><path d="m32.47439921 352.06533696-5.9338666 5.93333328v-5.93333328z" fill="#fff"/><path d="m32.47439921 352.06533696-.47133332-.47199999-4.79586662 4.79599995v-3.6573333h5.26719994v-.66666666l-.47133332-.47199999.47133332.47199999v-.66666666h-5.9338666c-.17546667 0-.34746667.07066667-.47133333.19466667-.124.12533333-.19533333.296-.19533333.47199999v5.93333328c0 .26933333.16253333.51333332.41146666.61599999.24946666.104.53586666.04666667.72653333-.144l5.9338666-5.93333327c.19066667-.19066667.24733333-.47866666.14426667-.72666666-.10306667-.24933333-.3464-.412-.6156-.412z" fill="#1d2a30"/><path d="m260.40799371 226.46000978-.016.028c-.09333333.16266667-.6.99999999-1.42533332 1.85599998-.82666666.85866666-1.96266665 1.72133332-3.2853333 2.01866665-.35866666.08133333-.58399999.43866666-.50266666.79733332.08266666.36.43866666.584.79866666.50266667 1.80799998-.416 3.1893333-1.56799999 4.13066662-2.58799998.94133332-1.02399999 1.44933332-1.93733331 1.46666665-1.96666665.17866667-.32133333.06266667-.72799999-.25999999-.90666665-.32133333-.17866667-.72666666-.06266667-.90666666.25866666" fill="#1d2a30"/><path d="m133.18119804 150.37201278c.3688 0 .66613333-.29866667.66613333-.66666666 0-.36933333-.29733333-.66666666-.66613333-.66666666h-.66666666c-.17559999 0-.34746666.07066666-.47146666.19466666-.12386666.124-.1952.296-.1952.472v.66666666c0 .36799999.2984.66666666.66666666.66666666.36813333 0 .66666666-.29866667.66666666-.66666666" fill="#1d2a30"/><path d="m137.10266101 150.37199935h1.30533332c.368 0 .66666666-.29866666.66666666-.66666666 0-.36933333-.29866666-.66666666-.66666666-.66666666h-1.30533332c-.368 0-.66666666.29733333-.66666666.66666666 0 .368.29866666.66666666.66666666.66666666zm5.21733328 0h1.30399999c.36799999 0 .66666666-.29866666.66666666-.66666666 0-.36933333-.29866667-.66666666-.66666666-.66666666h-1.30399999c-.36933333 0-.66666666.29733333-.66666666.66666666 0 .368.29733333.66666666.66666666.66666666zm5.21599995 0h1.30399998c.368 0 .66666666-.29866666.66666666-.66666666 0-.36933333-.29866666-.66666666-.66666666-.66666666h-1.30399998c-.368 0-.66666666.29733333-.66666666.66666666 0 .368.29866666.66666666.66666666.66666666zm5.21599994 0h1.30399999c.368 0 .66666666-.29866666.66666666-.66666666 0-.36933333-.29866666-.66666666-.66666666-.66666666h-1.30399999c-.36799999 0-.66666666.29733333-.66666666.66666666 0 .368.29866667.66666666.66666666.66666666zm5.21599995 0h1.30399999c.368 0 .66666666-.29866666.66666666-.66666666 0-.36933333-.29866666-.66666666-.66666666-.66666666h-1.30399999c-.36799999 0-.66666666.29733333-.66666666.66666666 0 .368.29866667.66666666.66666666.66666666zm5.21599995 0h1.30399999c.36799999 0 .66666666-.29866666.66666666-.66666666 0-.36933333-.29866667-.66666666-.66666666-.66666666h-1.30399999c-.368 0-.66666666.29733333-.66666666.66666666 0 .368.29866666.66666666.66666666.66666666zm5.21599995 0h1.30399998c.368 0 .66666666-.29866666.66666666-.66666666 0-.36933333-.29866666-.66666666-.66666666-.66666666h-1.30399998c-.368 0-.66666666.29733333-.66666666.66666666 0 .368.29866666.66666666.66666666.66666666zm5.21599994 0h1.30399999c.368 0 .66666666-.29866666.66666666-.66666666 0-.36933333-.29866666-.66666666-.66666666-.66666666h-1.30399999c-.36799999 0-.66666666.29733333-.66666666.66666666 0 .368.29866667.66666666.66666666.66666666zm5.21599995 0h1.30399999c.36799999 0 .66666666-.29866666.66666666-.66666666 0-.36933333-.29866667-.66666666-.66666666-.66666666h-1.30399999c-.36799999 0-.66666666.29733333-.66666666.66666666 0 .368.29866667.66666666.66666666.66666666zm5.21599995 0h1.30399999c.36799999 0 .66666666-.29866666.66666666-.66666666 0-.36933333-.29866667-.66666666-.66666666-.66666666h-1.30399999c-.368 0-.66666666.29733333-.66666666.66666666 0 .368.29866666.66666666.66666666.66666666zm5.21599995 0h1.30399998c.36933333 0 .66666666-.29866666.66666666-.66666666 0-.36933333-.29733333-.66666666-.66666666-.66666666h-1.30399998c-.368 0-.66666666.29733333-.66666666.66666666 0 .368.29866666.66666666.66666666.66666666zm5.21599994 0h1.30399999c.36933333 0 .66666666-.29866666.66666666-.66666666 0-.36933333-.29733333-.66666666-.66666666-.66666666h-1.30399999c-.36799999 0-.66666666.29733333-.66666666.66666666 0 .368.29866667.66666666.66666666.66666666zm5.21733328 0h1.30399999c.368 0 .66666666-.29866666.66666666-.66666666 0-.36933333-.29866666-.66666666-.66666666-.66666666h-1.30399999c-.36933333 0-.66666666.29733333-.66666666.66666666 0 .368.29733333.66666666.66666666.66666666zm5.21599995 0h1.30399999c.36799999 0 .66666666-.29866666.66666666-.66666666 0-.36933333-.29866667-.66666666-.66666666-.66666666h-1.30399999c-.36933333 0-.66666666.29733333-.66666666.66666666 0 .368.29733333.66666666.66666666.66666666zm5.21599995 0h1.30399999c.36799999 0 .66666666-.29866666.66666666-.66666666 0-.36933333-.29866667-.66666666-.66666666-.66666666h-1.30399999c-.368 0-.66666666.29733333-.66666666.66666666 0 .368.29866666.66666666.66666666.66666666zm5.21599995 0h1.30399998c.368 0 .66666666-.29866666.66666666-.66666666 0-.36933333-.29866666-.66666666-.66666666-.66666666h-1.30399998c-.368 0-.66666666.29733333-.66666666.66666666 0 .368.29866666.66666666.66666666.66666666zm5.21599994 0h1.30399999c.368 0 .66666666-.29866666.66666666-.66666666 0-.36933333-.29866666-.66666666-.66666666-.66666666h-1.30399999c-.36799999 0-.66666666.29733333-.66666666.66666666 0 .368.29866667.66666666.66666666.66666666zm5.21599995 0h1.30399999c.36799999 0 .66666666-.29866666.66666666-.66666666 0-.36933333-.29866667-.66666666-.66666666-.66666666h-1.30399999c-.368 0-.66666666.29733333-.66666666.66666666 0 .368.29866666.66666666.66666666.66666666zm5.21599995 0h1.30399998c.368 0 .66666666-.29866666.66666666-.66666666 0-.36933333-.29866666-.66666666-.66666666-.66666666h-1.30399998c-.368 0-.66666666.29733333-.66666666.66666666 0 .368.29866666.66666666.66666666.66666666zm5.21599995 0h1.30399998c.368 0 .66666666-.29866666.66666666-.66666666 0-.36933333-.29866666-.66666666-.66666666-.66666666h-1.30399998c-.368 0-.66666666.29733333-.66666666.66666666 0 .368.29866666.66666666.66666666.66666666zm5.21599994 0h1.30399999c.368 0 .66666666-.29866666.66666666-.66666666 0-.36933333-.29866666-.66666666-.66666666-.66666666h-1.30399999c-.36799999 0-.66666666.29733333-.66666666.66666666 0 .368.29866667.66666666.66666666.66666666zm5.21599995 0h1.30399999c.36799999 0 .66666666-.29866666.66666666-.66666666 0-.36933333-.29866667-.66666666-.66666666-.66666666h-1.30399999c-.368 0-.66666666.29733333-.66666666.66666666 0 .368.29866666.66666666.66666666.66666666" fill="#1d2a30"/><path d="m251.85732835 150.37201278c0 .36799999.29866666.66666666.66666666.66666666.36933333 0 .66666666-.29866667.66666666-.66666666v-.66666666c0-.176-.07066667-.348-.19466667-.472s-.29599999-.19466666-.47199999-.19466666h-.66666666c-.368 0-.66666666.29733333-.66666666.66666666 0 .36799999.29866666.66666666.66666666.66666666" fill="#1d2a30"/><path d="m251.85732652 154.37199931v1.33333332c0 .368.29866666.66666666.66666666.66666666.36933333 0 .66666666-.29866666.66666666-.66666666v-1.33333332c0-.36933333-.29733333-.66666666-.66666666-.66666666-.368 0-.66666666.29733333-.66666666.66666666zm0 5.33333328v1.33333332c0 .368.29866666.66666666.66666666.66666666.36933333 0 .66666666-.29866666.66666666-.66666666v-1.33333332c0-.36933333-.29733333-.66666666-.66666666-.66666666-.368 0-.66666666.29733333-.66666666.66666666zm0 5.33333328v1.33333332c0 .36799999.29866666.66666666.66666666.66666666.36933333 0 .66666666-.29866667.66666666-.66666666v-1.33333332c0-.36933333-.29733333-.66666666-.66666666-.66666666-.368 0-.66666666.29733333-.66666666.66666666zm0 5.33333328v1.33333332c0 .36799999.29866666.66666666.66666666.66666666.36933333 0 .66666666-.29866667.66666666-.66666666v-1.33333332c0-.36933333-.29733333-.66666666-.66666666-.66666666-.368 0-.66666666.29733333-.66666666.66666666zm0 5.33333328v1.33333332c0 .36799999.29866666.66666666.66666666.66666666.36933333 0 .66666666-.29866667.66666666-.66666666v-1.33333332c0-.36933333-.29733333-.66666666-.66666666-.66666666-.368 0-.66666666.29733333-.66666666.66666666zm0 5.33333328v1.33333332c0 .36799999.29866666.66666666.66666666.66666666.36933333 0 .66666666-.29866667.66666666-.66666666v-1.33333332c0-.36933333-.29733333-.66666666-.66666666-.66666666-.368 0-.66666666.29733333-.66666666.66666666zm0 5.33333328v1.33333332c0 .36799999.29866666.66666666.66666666.66666666.36933333 0 .66666666-.29866667.66666666-.66666666v-1.33333332c0-.36933333-.29733333-.66666666-.66666666-.66666666-.368 0-.66666666.29733333-.66666666.66666666zm0 5.33333328v1.33333332c0 .36799999.29866666.66666666.66666666.66666666.36933333 0 .66666666-.29866667.66666666-.66666666v-1.33333332c0-.36933333-.29733333-.66666666-.66666666-.66666666-.368 0-.66666666.29733333-.66666666.66666666zm0 5.33333328v1.33333332c0 .36799999.29866666.66666665.66666666.66666665.36933333 0 .66666666-.29866666.66666666-.66666665v-1.33333332c0-.36933333-.29733333-.66666666-.66666666-.66666666-.368 0-.66666666.29733333-.66666666.66666666zm0 5.33333327v1.33333332c0 .368.29866666.66666666.66666666.66666666.36933333 0 .66666666-.29866666.66666666-.66666666v-1.33333332c0-.36933332-.29733333-.66666666-.66666666-.66666666-.368 0-.66666666.29733334-.66666666.66666666zm0 5.33333328v1.33333332c0 .368.29866666.66666666.66666666.66666666.36933333 0 .66666666-.29866666.66666666-.66666666v-1.33333332c0-.36933333-.29733333-.66666666-.66666666-.66666666-.368 0-.66666666.29733333-.66666666.66666666zm0 5.33333328v1.33333332c0 .368.29866666.66666666.66666666.66666666.36933333 0 .66666666-.29866666.66666666-.66666666v-1.33333332c0-.36933333-.29733333-.66666666-.66666666-.66666666-.368 0-.66666666.29733333-.66666666.66666666zm0 5.33333328v1.33333332c0 .368.29866666.66666666.66666666.66666666.36933333 0 .66666666-.29866666.66666666-.66666666v-1.33333332c0-.36933333-.29733333-.66666666-.66666666-.66666666-.368 0-.66666666.29733333-.66666666.66666666zm0 5.33333328v1.33333332c0 .368.29866666.66666666.66666666.66666666.36933333 0 .66666666-.29866666.66666666-.66666666v-1.33333332c0-.36933333-.29733333-.66666666-.66666666-.66666666-.368 0-.66666666.29733333-.66666666.66666666" fill="#1d2a30"/><path d="m251.85732835 229.03867682c-.368 0-.66666666.29733333-.66666666.66666666 0 .36799999.29866666.66666666.66666666.66666666h.66666666c.176 0 .34799999-.072.47199999-.196s.19466667-.296.19466667-.47066666v-.66666666c0-.36933333-.29733333-.66666666-.66666666-.66666666-.368 0-.66666666.29733333-.66666666.66666666" fill="#1d2a30"/><path d="m247.94532656 229.03866522h-1.30399999c-.368 0-.66666666.29733333-.66666666.66666666 0 .368.29866666.66666666.66666666.66666666h1.30399999c.36799999 0 .66666666-.29866666.66666666-.66666666 0-.36933333-.29866667-.66666666-.66666666-.66666666zm-5.21599995 0h-1.30399999c-.36799999 0-.66666666.29733333-.66666666.66666666 0 .368.29866667.66666666.66666666.66666666h1.30399999c.368 0 .66666666-.29866666.66666666-.66666666 0-.36933333-.29866666-.66666666-.66666666-.66666666zm-5.21599995 0h-1.30399998c-.368 0-.66666666.29733333-.66666666.66666666 0 .368.29866666.66666666.66666666.66666666h1.30399998c.368 0 .66666666-.29866666.66666666-.66666666 0-.36933333-.29866666-.66666666-.66666666-.66666666zm-5.21599995 0h-1.30399998c-.368 0-.66666666.29733333-.66666666.66666666 0 .368.29866666.66666666.66666666.66666666h1.30399998c.368 0 .66666666-.29866666.66666666-.66666666 0-.36933333-.29866666-.66666666-.66666666-.66666666zm-5.21599994 0h-1.30399999c-.368 0-.66666666.29733333-.66666666.66666666 0 .368.29866666.66666666.66666666.66666666h1.30399999c.36799999 0 .66666666-.29866666.66666666-.66666666 0-.36933333-.29866667-.66666666-.66666666-.66666666zm-5.21599995 0h-1.30399999c-.36799999 0-.66666666.29733333-.66666666.66666666 0 .368.29866667.66666666.66666666.66666666h1.30399999c.368 0 .66666666-.29866666.66666666-.66666666 0-.36933333-.29866666-.66666666-.66666666-.66666666zm-5.21599995 0h-1.30399998c-.368 0-.66666666.29733333-.66666666.66666666 0 .368.29866666.66666666.66666666.66666666h1.30399998c.368 0 .66666666-.29866666.66666666-.66666666 0-.36933333-.29866666-.66666666-.66666666-.66666666zm-5.21599994 0h-1.30399999c-.368 0-.66666666.29733333-.66666666.66666666 0 .368.29866666.66666666.66666666.66666666h1.30399999c.36799999 0 .66666666-.29866666.66666666-.66666666 0-.36933333-.29866667-.66666666-.66666666-.66666666zm-5.21599995 0h-1.30399999c-.36933333 0-.66666666.29733333-.66666666.66666666 0 .368.29733333.66666666.66666666.66666666h1.30399999c.36799999 0 .66666666-.29866666.66666666-.66666666 0-.36933333-.29866667-.66666666-.66666666-.66666666zm-5.21599995 0h-1.30399999c-.36933333 0-.66666666.29733333-.66666666.66666666 0 .368.29733333.66666666.66666666.66666666h1.30399999c.368 0 .66666666-.29866666.66666666-.66666666 0-.36933333-.29866666-.66666666-.66666666-.66666666zm-5.21733328 0h-1.30399999c-.36799999 0-.66666666.29733333-.66666666.66666666 0 .368.29866667.66666666.66666666.66666666h1.30399999c.36933333 0 .66666666-.29866666.66666666-.66666666 0-.36933333-.29733333-.66666666-.66666666-.66666666zm-5.21599995 0h-1.30399998c-.368 0-.66666666.29733333-.66666666.66666666 0 .368.29866666.66666666.66666666.66666666h1.30399998c.36933333 0 .66666666-.29866666.66666666-.66666666 0-.36933333-.29733333-.66666666-.66666666-.66666666zm-5.21599994 0h-1.30399999c-.368 0-.66666666.29733333-.66666666.66666666 0 .368.29866666.66666666.66666666.66666666h1.30399999c.36799999 0 .66666666-.29866666.66666666-.66666666 0-.36933333-.29866667-.66666666-.66666666-.66666666zm-5.21599995 0h-1.30399999c-.36799999 0-.66666666.29733333-.66666666.66666666 0 .368.29866667.66666666.66666666.66666666h1.30399999c.36799999 0 .66666666-.29866666.66666666-.66666666 0-.36933333-.29866667-.66666666-.66666666-.66666666zm-5.21599995 0h-1.30399999c-.36799999 0-.66666666.29733333-.66666666.66666666 0 .368.29866667.66666666.66666666.66666666h1.30399999c.368 0 .66666666-.29866666.66666666-.66666666 0-.36933333-.29866666-.66666666-.66666666-.66666666zm-5.21599995 0h-1.30399998c-.368 0-.66666666.29733333-.66666666.66666666 0 .368.29866666.66666666.66666666.66666666h1.30399998c.368 0 .66666666-.29866666.66666666-.66666666 0-.36933333-.29866666-.66666666-.66666666-.66666666zm-5.21599994 0h-1.30399999c-.368 0-.66666666.29733333-.66666666.66666666 0 .368.29866666.66666666.66666666.66666666h1.30399999c.36799999 0 .66666666-.29866666.66666666-.66666666 0-.36933333-.29866667-.66666666-.66666666-.66666666zm-5.21599995 0h-1.30399999c-.36799999 0-.66666666.29733333-.66666666.66666666 0 .368.29866667.66666666.66666666.66666666h1.30399999c.368 0 .66666666-.29866666.66666666-.66666666 0-.36933333-.29866666-.66666666-.66666666-.66666666zm-5.21599995 0h-1.30399999c-.36799999 0-.66666666.29733333-.66666666.66666666 0 .368.29866667.66666666.66666666.66666666h1.30399999c.368 0 .66666666-.29866666.66666666-.66666666 0-.36933333-.29866666-.66666666-.66666666-.66666666zm-5.21599995 0h-1.30399998c-.368 0-.66666666.29733333-.66666666.66666666 0 .368.29866666.66666666.66666666.66666666h1.30399998c.368 0 .66666666-.29866666.66666666-.66666666 0-.36933333-.29866666-.66666666-.66666666-.66666666zm-5.21599994 0h-1.30399999c-.36933333 0-.66666666.29733333-.66666666.66666666 0 .368.29733333.66666666.66666666.66666666h1.30399999c.36799999 0 .66666666-.29866666.66666666-.66666666 0-.36933333-.29866667-.66666666-.66666666-.66666666zm-5.21599995 0h-1.30399999c-.36933333 0-.66666666.29733333-.66666666.66666666 0 .368.29733333.66666666.66666666.66666666h1.30399999c.368 0 .66666666-.29866666.66666666-.66666666 0-.36933333-.29866666-.66666666-.66666666-.66666666" fill="#1d2a30"/><path d="m133.18119804 229.03867682c0-.36933333-.29853333-.66666666-.66666666-.66666666-.36826666 0-.66666666.29733333-.66666666.66666666v.66666666c0 .17466666.07133334.34666666.1952.47066666.124.124.29586667.196.47146666.196h.66666666c.3688 0 .66613333-.29866667.66613333-.66666666 0-.36933333-.29733333-.66666666-.66613333-.66666666" fill="#1d2a30"/><path d="m133.19119438 225.03866526v-1.33333332c0-.36933333-.29853333-.66666666-.66666666-.66666666-.36826666 0-.66666666.29733333-.66666666.66666666v1.33333332c0 .368.2984.66666666.66666666.66666666.36813333 0 .66666666-.29866666.66666666-.66666666zm0-5.33333328v-1.33333332c0-.36933333-.29853333-.66666666-.66666666-.66666666-.36826666 0-.66666666.29733333-.66666666.66666666v1.33333332c0 .368.2984.66666666.66666666.66666666.36813333 0 .66666666-.29866666.66666666-.66666666zm0-5.33333328v-1.33333332c0-.36933333-.29853333-.66666666-.66666666-.66666666-.36826666 0-.66666666.29733333-.66666666.66666666v1.33333332c0 .368.2984.66666666.66666666.66666666.36813333 0 .66666666-.29866666.66666666-.66666666zm0-5.33333328v-1.33333332c0-.36933333-.29853333-.66666666-.66666666-.66666666-.36826666 0-.66666666.29733333-.66666666.66666666v1.33333332c0 .368.2984.66666666.66666666.66666666.36813333 0 .66666666-.29866666.66666666-.66666666zm0-5.33333328v-1.33333332c0-.36933332-.29853333-.66666666-.66666666-.66666666-.36826666 0-.66666666.29733334-.66666666.66666666v1.33333332c0 .368.2984.66666666.66666666.66666666.36813333 0 .66666666-.29866666.66666666-.66666666zm0-5.33333327v-1.33333332c0-.36933333-.29853333-.66666666-.66666666-.66666666-.36826666 0-.66666666.29733333-.66666666.66666666v1.33333332c0 .36799999.2984.66666665.66666666.66666665.36813333 0 .66666666-.29866666.66666666-.66666665zm0-5.33333328v-1.33333332c0-.36933333-.29853333-.66666666-.66666666-.66666666-.36826666 0-.66666666.29733333-.66666666.66666666v1.33333332c0 .36799999.2984.66666666.66666666.66666666.36813333 0 .66666666-.29866667.66666666-.66666666zm0-5.33333328v-1.33333332c0-.36933333-.29853333-.66666666-.66666666-.66666666-.36826666 0-.66666666.29733333-.66666666.66666666v1.33333332c0 .36799999.2984.66666666.66666666.66666666.36813333 0 .66666666-.29866667.66666666-.66666666zm0-5.33333328v-1.33333332c0-.36933333-.29853333-.66666666-.66666666-.66666666-.36826666 0-.66666666.29733333-.66666666.66666666v1.33333332c0 .36799999.2984.66666666.66666666.66666666.36813333 0 .66666666-.29866667.66666666-.66666666zm0-5.33333328v-1.33333332c0-.36933333-.29853333-.66666666-.66666666-.66666666-.36826666 0-.66666666.29733333-.66666666.66666666v1.33333332c0 .36799999.2984.66666666.66666666.66666666.36813333 0 .66666666-.29866667.66666666-.66666666zm0-5.33333328v-1.33333332c0-.36933333-.29853333-.66666666-.66666666-.66666666-.36826666 0-.66666666.29733333-.66666666.66666666v1.33333332c0 .36799999.2984.66666666.66666666.66666666.36813333 0 .66666666-.29866667.66666666-.66666666zm0-5.33333328v-1.33333332c0-.36933333-.29853333-.66666666-.66666666-.66666666-.36826666 0-.66666666.29733333-.66666666.66666666v1.33333332c0 .36799999.2984.66666666.66666666.66666666.36813333 0 .66666666-.29866667.66666666-.66666666zm0-5.33333328v-1.33333332c0-.36933333-.29853333-.66666666-.66666666-.66666666-.36826666 0-.66666666.29733333-.66666666.66666666v1.33333332c0 .368.2984.66666666.66666666.66666666.36813333 0 .66666666-.29866666.66666666-.66666666zm0-5.33333328v-1.33333332c0-.36933333-.29853333-.66666666-.66666666-.66666666-.36826666 0-.66666666.29733333-.66666666.66666666v1.33333332c0 .368.2984.66666666.66666666.66666666.36813333 0 .66666666-.29866666.66666666-.66666666" fill="#1d2a30"/><path d="m194.50266043 149.70534246c0 1.09199998-.88533332 1.97733331-1.97866665 1.97733331-1.09199999 0-1.97733331-.88533333-1.97733331-1.97733331 0-1.09333333.88533332-1.97866665 1.97733331-1.97866665 1.09333333 0 1.97866665.88533332 1.97866665 1.97866665" fill="#73cd91"/><path d="m194.50266043 149.70534246h-.66666666c-.00133333.72399999-.58799999 1.30933332-1.31199999 1.31066665-.72399999-.00133333-1.30933332-.58666666-1.31066665-1.31066665.00133333-.724.58666666-1.31066666 1.31066665-1.31199999.724.00133333 1.31066666.58799999 1.31199999 1.31199999h.66666666.66666666c0-1.46133332-1.18399999-2.64533331-2.64533331-2.64533331-1.45999998 0-2.64399997 1.18399999-2.64399997 2.64533331 0 1.45999998 1.18399999 2.64399997 2.64399997 2.64399997 1.46133332 0 2.64533331-1.18399999 2.64533331-2.64399997z" fill="#1d2a30"/><path d="m134.50266104 189.70534205c0 1.09199999-.88533333 1.97733331-1.97813332 1.97733331-1.09226665 0-1.97759998-.88533332-1.97759998-1.97733331 0-1.09333332.88533333-1.97866665 1.97759998-1.97866665 1.09279999 0 1.97813332.88533333 1.97813332 1.97866665" fill="#73cd91"/><path d="m134.50266104 189.70534205h-.66666666c-.00133334.72399999-.5876 1.30933332-1.31146666 1.31066665-.72399999-.00133333-1.30999998-.58666666-1.31093332-1.31066665.00093334-.72399999.58693333-1.31066665 1.31093332-1.31199999.72386666.00133334 1.31013332.588 1.31146666 1.31199999h.66666666.66666666c0-1.46133332-1.18399999-2.64533331-2.64479998-2.64533331-1.46093332 0-2.64426664 1.18399999-2.64426664 2.64533331 0 1.45999999 1.18333332 2.64399997 2.64426664 2.64399997 1.46079999 0 2.64479998-1.18399998 2.64479998-2.64399997z" fill="#1d2a30"/><path d="m194.50266043 229.70534165c0 1.09199999-.88533332 1.97733331-1.97866665 1.97733331-1.09199999 0-1.97733331-.88533332-1.97733331-1.97733331 0-1.09333332.88533332-1.97866665 1.97733331-1.97866665 1.09333333 0 1.97866665.88533333 1.97866665 1.97866665" fill="#73cd91"/><path d="m194.50266043 229.70534165h-.66666666c-.00133333.72399999-.58799999 1.30933332-1.31199999 1.31066665-.72399999-.00133333-1.30933332-.58666666-1.31066665-1.31066665.00133333-.724.58666666-1.31066666 1.31066665-1.31199999.724.00133333 1.31066666.58799999 1.31199999 1.31199999h.66666666.66666666c0-1.46133332-1.18399999-2.64533331-2.64533331-2.64533331-1.45999998 0-2.64399997 1.18399999-2.64399997 2.64533331 0 1.45999998 1.18399999 2.64399997 2.64399997 2.64399997 1.46133332 0 2.64533331-1.18399999 2.64533331-2.64399997z" fill="#1d2a30"/><path d="m254.50265982 189.70534205c0 1.09199999-.88533332 1.97733331-1.97866664 1.97733331-1.09199999 0-1.97733332-.88533332-1.97733332-1.97733331 0-1.09333332.88533333-1.97866665 1.97733332-1.97866665 1.09333332 0 1.97866664.88533333 1.97866664 1.97866665" fill="#73cd91"/><path d="m254.50265982 189.70534205h-.66666666c-.00133333.72399999-.58799999 1.30933332-1.31199998 1.31066665-.724-.00133333-1.30933332-.58666666-1.31066666-1.31066665.00133334-.72399999.58666666-1.31066665 1.31066666-1.31199999.72399999.00133334 1.31066665.588 1.31199998 1.31199999h.66666666.66666666c0-1.46133332-1.18399998-2.64533331-2.6453333-2.64533331-1.45999999 0-2.64399998 1.18399999-2.64399998 2.64533331 0 1.45999999 1.18399999 2.64399997 2.64399998 2.64399997 1.46133332 0 2.64399997-1.18399998 2.6453333-2.64399997z" fill="#1d2a30"/><path d="m254.82265982 232.00267496h-4.59599995v-4.59599996h4.59599995z" fill="#73cd91"/><path d="m254.82265982 232.00267496v-.66666666h-3.92933329v-3.26266664h3.26266663v3.9293333h.66666666v-.66666666.66666666h.66666666v-4.59599996c0-.17466666-.072-.34666666-.196-.47066666s-.29599999-.196-.47066666-.196h-4.59599995c-.17466667 0-.34666667.072-.47066666.196-.124.124-.196.296-.196.47066666v4.59599996c0 .17466666.072.34666666.196.47066666.12399999.124.29599999.196.47066666.196h4.59599995c.17466667 0 .34666666-.072.47066666-.196s.196-.296.196-.47066666z" fill="#1d2a30"/><path d="m254.82265982 152.00267577h-4.59599995v-4.59599996h4.59599995z" fill="#73cd91"/><path d="m254.82265982 152.00267577v-.66666666h-3.92933329v-3.26266664h3.26266663v3.9293333h.66666666v-.66666666.66666666h.66666666v-4.59599996c0-.17466666-.072-.34666666-.196-.47066666s-.29599999-.196-.47066666-.196h-4.59599995c-.17466667 0-.34666667.072-.47066666.196-.124.124-.196.296-.196.47066666v4.59599996c0 .17466666.072.34666666.196.47066666.12399999.124.29599999.196.47066666.196h4.59599995c.17466667 0 .34666666-.072.47066666-.196s.196-.296.196-.47066666z" fill="#1d2a30"/><path d="m134.82266103 232.00267496h-4.59559995v-4.59599996h4.59559995z" fill="#73cd91"/><path d="m134.82266103 232.00267496v-.66666666h-3.92893329v-3.26266664h3.26226663v3.9293333h.66666666v-.66666666.66666666h.66666666v-4.59599996c0-.17466666-.072-.34666666-.196-.47066666-.12399999-.124-.29599999-.196-.47066666-.196h-4.59559995c-.17546667 0-.34733333.072-.47133333.196-.12453333.124-.19533333.296-.19533333.47066666v4.59599996c0 .17466666.0708.34666666.19533333.47066666.124.124.29586666.196.47133333.196h4.59559995c.17466667 0 .34666667-.072.47066666-.196.124-.124.196-.296.196-.47066666z" fill="#1d2a30"/><path d="m134.82266103 152.00267577h-4.59559995v-4.59599996h4.59559995z" fill="#73cd91"/><path d="m134.82266103 152.00267577v-.66666666h-3.92893329v-3.26266664h3.26226663v3.9293333h.66666666v-.66666666.66666666h.66666666v-4.59599996c0-.17466666-.072-.34666666-.196-.47066666-.12399999-.124-.29599999-.196-.47066666-.196h-4.59559995c-.17546667 0-.34733333.072-.47133333.196-.12453333.124-.19533333.296-.19533333.47066666v4.59599996c0 .17466666.0708.34666666.19533333.47066666.124.124.29586666.196.47133333.196h4.59559995c.17466667 0 .34666667-.072.47066666-.196.124-.124.196-.296.196-.47066666z" fill="#1d2a30"/><path d="m244.91665748 223.13999861h-104.43999895v-66.35999932h104.43999895z" fill="#fff"/><path d="m244.91665748 223.13999861v-.66666666h-103.77333229v-65.026666h103.10666563v65.69333266h.66666666v-.66666666.66666666h.66666666v-66.35999932c0-.176-.07066667-.348-.19466667-.472-.12399999-.124-.29599999-.19466666-.47199999-.19466666h-104.43999895c-.17599999 0-.34666666.07066666-.47066666.19466666-.12533333.124-.196.296-.196.472v66.35999932c0 .176.07066667.348.196.472.124.124.29466667.19466666.47066666.19466666h104.43999895c.176 0 .348-.07066666.47199999-.19466666.124-.124.19466667-.296.19466667-.472z" fill="#1d2a30"/><path d="m244.91665748 203.53867769-11.61066655 11.61066655-31.40933302-31.41066635-13.21599986 13.21599986-21.07333312-21.07333312-27.1306664 27.1306664v20.12799979h104.43999895z" fill="#73cd91"/><path d="m244.91665748 203.53867769-.47066666-.47066667-11.13999989 11.13866656-30.93733302-30.93866636c-.12533333-.12399999-.296-.19599999-.472-.19599999-.17599999 0-.34666666.072-.47199999.19599999l-12.74399987 12.74399988-20.60133313-20.60266646c-.26-.26-.68266666-.26-.94266666 0l-27.13066639 27.13066639c-.12533333.124-.196.296-.196.472v20.12799979c0 .176.07066667.348.196.472.124.124.29466667.19466666.47066666.19466666h104.43999895c.176 0 .348-.07066666.47199999-.19466666.124-.124.19466667-.296.19466667-.472v-19.60133313c0-.26933333-.16266667-.512-.41066666-.616-.24933333-.10266666-.536-.04533333-.72666666.14533333l.47066666.47066667h-.66666666v18.93466647h-103.10666563v-19.18533314l26.46399974-26.46399973 20.60266646 20.60266646c.12399999.124.29599999.19466666.47066666.19466666.176 0 .34799999-.07066666.47199999-.19466666l12.74399987-12.74399987 30.93866636 30.93866635c.124.124.29466666.19466667.47066666.19466667s.348-.07066667.472-.19466667l11.61066654-11.61066655-.47199999-.47199999h-.66666666z" fill="#1d2a30"/><path d="m230.65267105 175.61601069c0 4.07199996-3.3013333 7.37333326-7.37333326 7.37333326s-7.37333326-3.3013333-7.37333326-7.37333326 3.3013333-7.37466659 7.37333326-7.37466659 7.37333326 3.30266663 7.37333326 7.37466659" fill="#73cd91"/><path d="m230.65267105 175.61601069h-.66666666c0 1.85333332-.74933332 3.52666663-1.96399998 4.74266662-1.21599999 1.21466665-2.88799997 1.96399998-4.74266662 1.96399998-1.85333331 0-3.52666663-.74933333-4.74266662-1.96399998-1.21466665-1.21599999-1.96399998-2.8893333-1.96399998-4.74266662 0-1.85466665.74933333-3.52666663 1.96399998-4.74266662 1.21599999-1.21466665 2.88933331-1.96399998 4.74266662-1.96533331 1.85466665.00133333 3.52666663.75066666 4.74266662 1.96533331 1.21466666 1.21599999 1.96399998 2.88799997 1.96399998 4.74266662h.66666666.66666666c0-4.44133329-3.59866663-8.03999992-8.03999992-8.04133325-4.43999995.00133333-8.03999992 3.59999996-8.03999992 8.04133325 0 4.43999996 3.59999997 8.03999992 8.03999992 8.03999992 4.44133329 0 8.03999992-3.59999996 8.03999992-8.03999992z" fill="#1d2a30"/></svg>