<svg xmlns="http://www.w3.org/2000/svg" xmlns:xlink="http://www.w3.org/1999/xlink" version="1.1" width="1676" height="1546" xml:space="preserve" style=""><rect id="backgroundrect" width="100%" height="100%" x="0" y="0" fill="none" stroke="none"/>
<desc>Created with Fabric.js 4.6.0</desc>
<defs>
</defs>




















<g class="currentLayer" style=""><title>Layer 1</title><g id="dM6wrUBhVnXotgl7GqzDp" class="">
<path style="stroke: none; stroke-width: 1; stroke-dasharray: none; stroke-linecap: butt; stroke-dashoffset: 0; stroke-linejoin: miter; stroke-miterlimit: 4; fill: rgb(95,37,45); fill-rule: nonzero; opacity: 1;" vector-effect="non-scaling-stroke" d="M903.083299316406,250.50069482421895 L922.297299316406,371.01069482421894 L962.8962993164059,210.34369482421903 C962.8962993164059,210.34369482421903 906.0082993164058,182.73169482421895 903.4862993164058,192.78069482421893 C900.9772993164058,202.81669482421898 903.0832993164058,250.50069482421895 903.0832993164058,250.50069482421895 " stroke-linecap="round" stroke-width="0" id="svg_1"/>
</g><g id="18PvLbyTV6ojJW-04-ZuU" class="">
<path style="stroke: none; stroke-width: 1; stroke-dasharray: none; stroke-linecap: butt; stroke-dashoffset: 0; stroke-linejoin: miter; stroke-miterlimit: 4; fill: rgb(255,192,187); fill-rule: nonzero; opacity: 1;" vector-effect="non-scaling-stroke" d="M1231.6564399414062,518.4156303710938 L1249.2194399414063,726.753630371094 L1065.3734399414063,717.9786303710939 L1086.5764399414063,533.4826303710938 L1231.6564399414062,518.4156303710938 " stroke-linecap="round" stroke-width="0" id="svg_2"/>
</g><g id="GOSBSCFUPZghJb9y-beYY" class="">
<path style="stroke: none; stroke-width: 1; stroke-dasharray: none; stroke-linecap: butt; stroke-dashoffset: 0; stroke-linejoin: miter; stroke-miterlimit: 4; fill: rgb(249,152,147); fill-rule: nonzero; opacity: 1;" vector-effect="non-scaling-stroke" d="M1076.4903637695315,620.0135659179689 L1086.5783637695315,532.2765659179688 L1231.6583637695314,517.2095659179688 L1237.7423637695315,589.3595659179689 C1208.8953637695315,618.1025659179686 1157.0253637695314,647.8985659179689 1076.4903637695315,620.0135659179689 " stroke-linecap="round" stroke-width="0" id="svg_3"/>
</g><g id="ismvxuV2cKv5pLUgV-1SJ" class="">
<path style="stroke: none; stroke-width: 1; stroke-dasharray: none; stroke-linecap: butt; stroke-dashoffset: 0; stroke-linejoin: miter; stroke-miterlimit: 4; fill: rgb(249,152,147); fill-rule: nonzero; opacity: 1;" vector-effect="non-scaling-stroke" d="M957.958633300781,372.18601513671865 C969.0216333007811,395.0530151367186 963.1456333007809,420.75401513671864 944.8676333007809,429.59401513671855 C926.5766333007809,438.4470151367186 902.7866333007807,427.0720151367186 891.7366333007808,404.2180151367186 C880.6736333007809,381.3510151367186 886.5366333007807,355.6500151367186 904.8276333007809,346.81001513671845 C923.1186333007811,337.97001513671853 946.908633300781,349.3320151367184 957.958633300781,372.18601513671865 " stroke-linecap="round" stroke-width="0" id="svg_4"/>
</g><g id="mxyxCwcwUHu1sHr9GXyZb" class="">
<path style="stroke: none; stroke-width: 1; stroke-dasharray: none; stroke-linecap: butt; stroke-dashoffset: 0; stroke-linejoin: miter; stroke-miterlimit: 4; fill: rgb(255,192,187); fill-rule: nonzero; opacity: 1;" vector-effect="non-scaling-stroke" d="M962.4361196289065,477.1631166992188 C949.2801196289063,447.6921166992188 941.5841196289066,415.9981166992188 937.0861196289065,388.21711669921865 C936.1241196289066,382.2501166992188 934.8241196289064,376.36111669921866 933.4071196289065,370.4851166992187 C927.6871196289064,346.78611669921884 926.1661196289065,321.3581166992187 930.1311196289064,294.8641166992186 C942.9101196289064,209.61011669921868 1011.4981196289064,141.65911669921866 1096.8821196289066,129.8551166992188 C1211.9191196289064,113.94311669921876 1313.2411196289065,199.1191166992187 1320.4041196289065,311.92011669921885 C1332.2341196289065,304.32811669921875 1345.9101196289066,301.88411669921857 1358.3771196289065,306.52511669921887 C1382.2971196289066,315.44311669921876 1392.6581196289067,346.91611669921895 1381.5171196289066,376.82911669921873 C1370.3631196289066,406.7291166992186 1341.9321196289065,423.74611669921865 1318.0121196289065,414.8281166992185 C1314.6971196289066,413.5801166992185 1311.6681196289067,411.8771166992185 1308.8861196289065,409.83611669921856 C1305.1941196289065,506.43911669921863 1231.2371196289066,585.5181166992186 1136.8181196289063,589.9381166992187 C1090.6421196289064,592.0961166992186 1047.6771196289062,576.0021166992185 1014.3321196289062,547.8051166992186 C992.9601196289063,532.1141166992184 972.7971196289063,501.5511166992187 962.4361196289062,477.16311669921856 " stroke-linecap="round" stroke-width="0" id="svg_5"/>
</g><g id="PsuDUIpll9h3EMMDvLi6U" class="">
<path style="stroke: none; stroke-width: 1; stroke-dasharray: none; stroke-linecap: butt; stroke-dashoffset: 0; stroke-linejoin: miter; stroke-miterlimit: 4; fill: rgb(249,152,147); fill-rule: nonzero; opacity: 1;" vector-effect="non-scaling-stroke" d="M1078.482645019531,325.7054252929686 C1078.105645019531,336.9634252929686 1078.014645019531,347.94842529296875 1077.429645019531,358.71242529296865 C1076.7666450195309,368.6574252929686 1075.674645019531,382.9704252929687 1069.473645019531,390.54942529296864 C1068.563645019531,391.8494252929686 1063.688645019531,397.11442529296846 1063.571645019531,405.09642529296843 C1063.324645019531,412.5454252929685 1067.2506450195308,419.2144252929686 1072.1516450195309,423.28342529296856 C1082.1876450195311,431.7334252929684 1095.1876450195311,432.5264252929685 1105.951645019531,429.87442529296845 C1094.966645019531,427.93742529296856 1084.449645019531,424.15442529296865 1078.313645019531,416.9914252929684 C1075.479645019531,413.4164252929686 1073.594645019531,409.43842529296853 1074.2576450195309,405.70742529296854 C1074.7386450195308,401.4174252929686 1077.130645019531,399.18142529296847 1077.9886450195308,397.8814252929685 C1081.043645019531,393.8384252929684 1084.7226450195308,389.6264252929684 1086.2826450195307,375.8724252929685 C1086.8416450195307,369.9704252929687 1086.7506450195308,364.2374252929685 1086.217645019531,358.55642529296847 C1085.1256450195308,347.2334252929684 1082.707645019531,336.19642529296857 1078.4826450195308,325.70542529296836 " stroke-linecap="round" stroke-width="0" id="svg_6"/>
</g><g id="cekP7AmVvWG3sC0xGGVI3" class="">
<path style="stroke: none; stroke-width: 1; stroke-dasharray: none; stroke-linecap: butt; stroke-dashoffset: 0; stroke-linejoin: miter; stroke-miterlimit: 4; fill: rgb(51,51,51); fill-rule: nonzero; opacity: 1;" vector-effect="non-scaling-stroke" d="M1145.5924145507813,339.5841049804685 C1146.0344145507813,349.04810498046845 1154.0684145507814,356.3541049804685 1163.5324145507814,355.9121049804685 C1172.9834145507814,355.4701049804685 1180.3024145507814,347.4491049804685 1179.8604145507813,337.9851049804686 C1179.4054145507814,328.52110498046864 1171.3844145507812,321.2151049804686 1161.9204145507813,321.6571049804686 C1152.4694145507813,322.0991049804684 1145.1504145507813,330.1331049804685 1145.5924145507813,339.5841049804685 " stroke-linecap="round" stroke-width="0" id="svg_7"/>
</g><g id="xFMGVhvnF5KDrUMlzKNi2" class="">
<path style="stroke: none; stroke-width: 1; stroke-dasharray: none; stroke-linecap: butt; stroke-dashoffset: 0; stroke-linejoin: miter; stroke-miterlimit: 4; fill: rgb(51,51,51); fill-rule: nonzero; opacity: 1;" vector-effect="non-scaling-stroke" d="M995.1888891601561,356.5442065429688 C995.6308891601561,366.00820654296876 1003.6648891601562,373.3142065429688 1013.1288891601562,372.8722065429688 C1022.5798891601562,372.4302065429688 1029.8988891601562,364.3962065429687 1029.4438891601562,354.9452065429689 C1029.0018891601562,345.48120654296895 1020.9808891601563,338.1752065429689 1011.5168891601563,338.6172065429689 C1002.0528891601564,339.0592065429687 994.7468891601563,347.0802065429689 995.1888891601561,356.5442065429688 " stroke-linecap="round" stroke-width="0" id="svg_8"/>
</g><g id="KQamyrHg1EAc2IqFcUVVD" class="">
<path style="stroke: none; stroke-width: 1; stroke-dasharray: none; stroke-linecap: butt; stroke-dashoffset: 0; stroke-linejoin: miter; stroke-miterlimit: 4; fill: rgb(249,152,147); fill-rule: nonzero; opacity: 1;" vector-effect="non-scaling-stroke" d="M1172.9974399414061,459.1293999023437 C1155.538439941406,474.33939990234376 1132.827439941406,486.2213999023436 1110.2854399414061,488.9513999023436 C1085.897439941406,492.03239990234374 1064.356439941406,484.5963999023436 1043.595439941406,471.8173999023436 C1062.9264399414062,488.0543999023437 1085.312439941406,496.2703999023438 1110.8314399414062,493.4233999023438 C1135.6874399414062,490.18639990234374 1158.9184399414062,475.8603999023437 1172.9974399414064,459.12939990234395 " stroke-linecap="round" stroke-width="0" id="svg_9"/>
</g><g id="bwlF8smr4G6xjp-pODlwD" class="">
<path style="stroke: none; stroke-width: 1; stroke-dasharray: none; stroke-linecap: butt; stroke-dashoffset: 0; stroke-linejoin: miter; stroke-miterlimit: 4; fill: rgb(95,37,45); fill-rule: nonzero; opacity: 1;" vector-effect="non-scaling-stroke" d="M1124.300363769531,299.77650146484393 C1148.454363769531,292.301501464844 1162.143363769531,291.88550146484386 1173.1803637695311,293.224501464844 C1197.282363769531,296.4615014648439 1210.8413637695312,307.12150146484396 1219.252363769531,310.81350146484397 C1209.1123637695312,292.1325014648437 1193.538363769531,282.1615014648439 1174.701363769531,279.80850146484386 C1154.304363769531,277.3645014648439 1134.349363769531,286.581501464844 1124.3003637695308,299.77650146484393 " stroke-linecap="round" stroke-width="0" id="svg_10"/>
</g><g id="1WdxGCpGV_Y5BBV-cUCPB" class="">
<path style="stroke: none; stroke-width: 1; stroke-dasharray: none; stroke-linecap: butt; stroke-dashoffset: 0; stroke-linejoin: miter; stroke-miterlimit: 4; fill: rgb(95,37,45); fill-rule: nonzero; opacity: 1;" vector-effect="non-scaling-stroke" d="M1044.4429399414064,308.83210498046856 C1032.0539399414065,297.8861049804684 1010.7079399414063,292.66010498046853 991.1169399414061,299.04310498046857 C973.1639399414062,304.9841049804688 959.7739399414063,317.7501049804687 953.4299399414062,338.0951049804685 C960.9959399414063,332.8301049804686 972.1889399414063,319.76510498046855 995.2119399414062,311.9131049804687 C1005.7549399414063,308.4551049804686 1019.2359399414061,306.19310498046866 1044.4429399414064,308.83210498046856 " stroke-linecap="round" stroke-width="0" id="svg_11"/>
</g><g id="4aEb5e8MvCSREWg8rJdii" class="">
<path style="stroke: none; stroke-width: 1; stroke-dasharray: none; stroke-linecap: butt; stroke-dashoffset: 0; stroke-linejoin: miter; stroke-miterlimit: 4; fill: rgb(247,47,58); fill-rule: nonzero; opacity: 1;" vector-effect="non-scaling-stroke" d="M1043.8658637695312,649.3532329101563 C1043.8658637695312,649.3532329101563 870.8488637695311,671.3232329101563 826.9088637695313,707.0342329101563 C782.9688637695313,742.7322329101564 571.5108637695312,1267.2562329101563 571.5108637695312,1267.2562329101563 L747.2708637695312,1473.2282329101563 L1120.7608637695312,1475.9712329101562 C1120.7608637695312,1475.9712329101562 1400.871863769531,1627.0182329101563 1576.6318637695313,1484.2132329101564 C1752.3918637695315,1341.4082329101561 1661.768863769531,844.3402329101561 1560.1478637695309,737.2332329101562 C1458.539863769531,630.1392329101564 1277.2938637695313,632.8822329101561 1277.2938637695313,632.8822329101561 C1277.2938637695313,632.8822329101561 1112.5188637695312,748.2182329101563 1043.8658637695312,649.3532329101563 " stroke-linecap="round" stroke-width="0" id="svg_12"/>
</g><g id="H3rL5Xb-ARwxU0pJoPrFU" class="">
<path style="stroke: none; stroke-width: 1; stroke-dasharray: none; stroke-linecap: butt; stroke-dashoffset: 0; stroke-linejoin: miter; stroke-miterlimit: 4; fill: rgb(25,34,47); fill-rule: nonzero; opacity: 1;" vector-effect="non-scaling-stroke" d="M1385.5949790039062,916.2341684570315 C1379.4069790039061,944.8211684570315 1375.6239790039062,973.8371684570316 1372.9199790039063,1002.9441684570315 C1371.4379790039063,1017.5041684570315 1370.7879790039062,1032.1161684570316 1369.9559790039064,1046.7281684570316 C1369.5139790039063,1061.3531684570316 1369.1759790039064,1075.9911684570316 1369.3709790039063,1090.6421684570316 C1369.9429790039064,1119.9311684570316 1371.5549790039063,1149.3111684570317 1376.5859790039065,1178.3011684570317 C1381.4999790039062,1207.1871684570317 1388.6499790039063,1236.1641684570318 1402.0789790039064,1262.2551684570317 C1393.0439790039065,1234.4221684570316 1388.5589790039064,1205.8091684570318 1385.3219790039066,1177.1181684570317 C1382.1369790039064,1148.4011684570319 1381.0319790039064,1119.437168457032 1380.6549790039064,1090.4991684570318 C1380.0569790039065,1061.5351684570317 1380.7719790039064,1032.5321684570317 1381.6819790039065,1003.4901684570318 C1382.7219790039064,974.4611684570318 1384.0479790039067,945.4061684570315 1385.5949790039065,916.2341684570317 " stroke-linecap="round" stroke-width="0" id="svg_13"/>
</g><g id="DYxzitrB-JbpMg0bRkicC" class="">
<path style="stroke: none; stroke-width: 1; stroke-dasharray: none; stroke-linecap: butt; stroke-dashoffset: 0; stroke-linejoin: miter; stroke-miterlimit: 4; fill: rgb(25,34,47); fill-rule: nonzero; opacity: 1;" vector-effect="non-scaling-stroke" d="M852.8078891601563,898.4011430664063 C844.9038891601563,940.9501430664063 836.531889160156,983.3301430664064 828.0168891601561,1025.6451430664063 C819.3328891601561,1067.9211430664063 810.3498891601562,1110.1191430664062 800.118889160156,1151.9791430664063 C789.991889160156,1193.8521430664064 778.759889160156,1235.4651430664062 765.1488891601559,1276.2461430664061 C758.3498891601562,1296.643143066406 750.731889160156,1316.7541430664064 741.8138891601559,1336.2801430664063 C733.0258891601559,1355.8451430664063 722.5998891601562,1374.786143066406 708.624889160156,1391.3481430664062 C724.5238891601559,1376.5151430664064 736.2108891601563,1357.7041430664062 746.779889160156,1338.7501430664063 C757.0108891601562,1319.5231430664062 765.8508891601562,1299.5811430664062 773.4558891601562,1279.2231430664065 C781.2298891601561,1258.9301430664063 787.8858891601562,1238.2341430664064 794.2168891601564,1217.4731430664065 C800.3008891601562,1196.6471430664064 805.8778891601564,1175.6911430664063 811.0778891601565,1154.6441430664063 C816.0438891601564,1133.5321430664062 820.8018891601562,1112.3941430664063 825.0788891601565,1091.1521430664063 C829.1998891601565,1069.8841430664063 833.2558891601564,1048.6161430664065 836.6618891601565,1027.2311430664063 C843.7338891601564,984.5131430664064 849.2198891601565,941.5481430664063 852.8078891601567,898.4011430664063 " stroke-linecap="round" stroke-width="0" id="svg_14"/>
</g><g id="8kBBsBjXC1jN_QuHmy2Nl" class="">
<path style="stroke: none; stroke-width: 1; stroke-dasharray: none; stroke-linecap: butt; stroke-dashoffset: 0; stroke-linejoin: miter; stroke-miterlimit: 4; fill: rgb(255,192,187); fill-rule: nonzero; opacity: 1;" vector-effect="non-scaling-stroke" d="M769.0476586914062,1368.3366494140628 C770.1526586914063,1359.6526494140626 836.1536586914062,1349.9416494140628 860.411658691406,1348.6806494140628 C878.7936586914061,1347.7316494140628 1000.6426586914063,1343.6626494140628 1042.086658691406,1341.7906494140627 L1039.044658691406,1352.4506494140628 L1039.681658691406,1399.5106494140628 L1046.480658691406,1430.7106494140626 C1010.1196586914059,1432.9986494140626 921.2256586914059,1436.4826494140627 902.713658691406,1440.1486494140627 C877.9876586914058,1445.0366494140626 835.1006586914059,1463.6786494140626 835.1006586914059,1463.6786494140626 C835.1006586914059,1463.6786494140626 817.2646586914059,1459.6226494140628 839.9366586914061,1449.8466494140625 C858.1366586914062,1441.9946494140627 870.9026586914063,1429.8136494140626 876.3106586914059,1423.7816494140627 C879.4176586914059,1420.2976494140626 876.0506586914059,1414.1096494140627 873.788658691406,1414.6946494140627 C812.077658691406,1430.8666494140627 805.720658691406,1433.5446494140626 805.720658691406,1433.5446494140626 C805.720658691406,1433.5446494140626 733.193658691406,1433.1416494140626 805.317658691406,1416.8396494140627 C848.5426586914059,1407.0636494140626 864.038658691406,1401.3826494140626 867.886658691406,1396.5336494140627 C869.5246586914059,1394.4666494140627 866.5996586914059,1387.4466494140627 863.9736586914057,1387.2776494140626 C826.5076586914056,1384.9636494140627 759.2846586914059,1398.2366494140626 777.7056586914057,1389.5396494140628 C792.7206586914058,1382.4286494140626 840.0146586914057,1374.6546494140625 858.396658691406,1371.7166494140624 C859.527658691406,1371.5346494140626 861.3606586914057,1364.6836494140625 856.3296586914059,1364.2676494140626 C820.6576586914059,1361.2906494140625 768.020658691406,1376.4226494140626 769.047658691406,1368.3366494140625 " stroke-linecap="round" stroke-width="0" id="svg_15"/>
</g><g id="wc3AP5FxOK-qnQp_37Msc" class="">
<path style="stroke: none; stroke-width: 1; stroke-dasharray: none; stroke-linecap: butt; stroke-dashoffset: 0; stroke-linejoin: miter; stroke-miterlimit: 4; fill: rgb(25,34,47); fill-rule: nonzero; opacity: 1;" vector-effect="non-scaling-stroke" d="M1378.5878383789063,1273.3416811523434 C1363.4428383789063,1276.9426811523433 1348.0768383789064,1279.5816811523432 1332.8668383789063,1282.7796811523435 C1302.2518383789063,1288.3696811523434 1271.5458383789062,1293.2316811523433 1240.7358383789062,1297.5476811523436 C1209.8998383789062,1301.6036811523436 1179.0248383789062,1305.3216811523434 1148.0588383789063,1308.3116811523435 C1117.222838378906,1311.3796811523434 1085.8538383789062,1314.0056811523436 1055.3298383789063,1315.7086811523436 L1051.2218383789063,1315.9296811523434 L1050.3248383789064,1319.4916811523435 C1047.6988383789062,1329.8396811523435 1045.9828383789063,1339.9406811523434 1044.6828383789064,1350.2886811523433 C1043.3958383789065,1360.5976811523433 1042.8498383789063,1370.9976811523434 1042.8628383789064,1381.3976811523435 C1042.9538383789065,1391.8106811523435 1043.8508383789065,1402.2366811523434 1045.5668383789064,1412.5326811523432 C1047.4648383789063,1422.8286811523433 1050.5068383789064,1432.9166811523432 1054.6018383789062,1442.5756811523433 L1054.9528383789063,1443.4076811523432 L1055.6288383789065,1443.8496811523432 L1089.5458383789064,1466.6126811523434 C1100.8428383789064,1474.2046811523433 1112.1918383789066,1481.7316811523433 1123.6448383789063,1489.1156811523433 C1113.0108383789066,1480.6006811523434 1102.2728383789065,1472.2286811523431 1091.4828383789063,1463.9086811523434 L1059.9318383789064,1439.5596811523433 C1056.6688383789062,1430.4336811523433 1054.3418383789062,1420.9956811523434 1053.0678383789063,1411.3626811523432 C1051.8718383789064,1401.4696811523434 1051.3128383789065,1391.4856811523432 1051.6118383789062,1381.4886811523434 C1051.9498383789064,1371.4916811523435 1052.9378383789065,1361.5076811523434 1054.3288383789063,1351.5886811523433 C1055.6028383789062,1342.9826811523435 1057.2798383789063,1334.2986811523433 1059.3988383789062,1325.9916811523435 C1074.0368383789064,1325.5106811523433 1088.0638383789062,1324.5616811523432 1102.4418383789064,1323.5086811523433 C1118.0288383789064,1322.3646811523433 1133.6288383789063,1321.1296811523434 1149.1768383789063,1319.4916811523435 C1180.2728383789065,1316.2676811523434 1211.3168383789064,1312.3936811523433 1242.2048383789063,1307.4536811523433 C1273.0928383789064,1302.4746811523432 1303.8118383789063,1296.4426811523433 1334.2578383789064,1289.2536811523432 C1349.4158383789065,1285.3796811523434 1364.5998383789063,1281.6486811523432 1379.5238383789065,1276.9296811523432 C1394.5778383789063,1272.7046811523433 1409.3198383789065,1267.4396811523434 1424.0098383789066,1262.2136811523433 C1408.8258383789066,1265.9056811523433 1393.8498383789067,1270.1436811523433 1378.5878383789066,1273.3416811523434 " stroke-linecap="round" stroke-width="0" id="svg_16"/>
</g><g id="aSIIiVXHbG-9T2q5dBEHJ" class="">
<path style="stroke: none; stroke-width: 1; stroke-dasharray: none; stroke-linecap: butt; stroke-dashoffset: 0; stroke-linejoin: miter; stroke-miterlimit: 4; fill: rgb(49,72,101); fill-rule: nonzero; opacity: 1;" vector-effect="non-scaling-stroke" d="M37.019934863281264,1015.3946430664064 L625.6261348632813,1015.3946430664064 C643.6831348632813,1015.3946430664064 659.9487348632813,1026.3146430664065 666.7945348632813,1043.0196430664064 L847.0317348632814,1482.9396430664065 L1172.4607348632812,1482.9396430664065 C1181.5607348632814,1482.9396430664065 1188.9317348632815,1490.3236430664065 1188.9317348632815,1499.4236430664064 C1188.9317348632815,1508.5236430664063 1181.5607348632814,1515.8946430664064 1172.4607348632812,1515.8946430664064 L232.9273348632812,1515.8946430664064 C215.57493486328133,1515.8946430664064 199.83973486328114,1505.7026430664064 192.73783486328125,1489.8686430664065 L3.28103486328132,1067.5116430664064 C-7.693565136718689,1043.0456430664062 10.206134863281363,1015.3946430664064 37.019934863281264,1015.3946430664064 " stroke-linecap="round" stroke-width="0" id="svg_17"/>
</g><g id="QheFxfa4t1qiDH3b8jbvi" class="">
<path style="stroke: none; stroke-width: 1; stroke-dasharray: none; stroke-linecap: butt; stroke-dashoffset: 0; stroke-linejoin: miter; stroke-miterlimit: 4; fill: rgb(95,37,45); fill-rule: nonzero; opacity: 1;" vector-effect="non-scaling-stroke" d="M903.9778247070312,133.21627099609418 C903.9778247070312,133.21627099609418 846.296824707031,135.0752709960941 906.8248247070312,86.29927099609426 C967.3528247070312,37.52327099609397 1129.8658247070312,-19.663729003905928 1234.034824707031,35.33927099609423 C1234.034824707031,35.33927099609423 1254.8608247070313,-8.938729003905792 1284.968824707031,1.6302709960941684 C1315.0768247070312,12.199270996094128 1265.390824707031,42.671270996094336 1265.390824707031,42.671270996094336 C1265.390824707031,42.671270996094336 1303.844824707031,41.42327099609429 1315.570824707031,60.286270996094345 C1324.2548247070308,74.23527099609419 1300.698824707031,74.84627099609429 1287.8288247070311,74.2222709960945 C1309.720824707031,77.94027099609457 1393.635824707031,130.94127099609432 1351.515824707031,300.1492709960944 C1336.552824707031,296.8602709960944 1251.246824707031,173.15227099609456 1251.246824707031,173.15227099609456 C1251.246824707031,173.15227099609456 1056.155824707031,281.53327099609464 1075.4478247070313,195.35627099609428 C1075.4478247070313,195.35627099609428 873.3498247070311,321.4822709960945 902.014824707031,217.30027099609424 C902.014824707031,217.30027099609424 823.871824707031,223.02027099609427 903.9778247070312,133.2162709960944 " stroke-linecap="round" stroke-width="0" id="svg_18"/>
</g><g id="6A3jEy6UMSGxKcJ3ruChB" class="">
<path style="stroke: none; stroke-width: 1; stroke-dasharray: none; stroke-linecap: butt; stroke-dashoffset: 0; stroke-linejoin: miter; stroke-miterlimit: 4; fill: rgb(95,37,45); fill-rule: nonzero; opacity: 1;" vector-effect="non-scaling-stroke" d="M1356.151094238281,303.38789990234363 C1356.151094238281,303.38789990234363 1339.9920942382812,297.7068999023436 1322.624094238281,311.4998999023435 C1305.243094238281,325.2928999023436 1307.1670942382812,373.7308999023437 1307.1670942382812,373.7308999023437 C1307.1670942382812,373.7308999023437 1224.2400942382812,427.2128999023437 1232.989094238281,200.93489990234366 C1242.284094238281,-39.799100097656265 1302.1620942382813,220.2398999023435 1302.1620942382813,220.2398999023435 L1356.151094238281,303.38789990234363 " stroke-linecap="round" stroke-width="0" id="svg_19"/>
</g><g id="ZYZxlnGOVz_eGSDXI1O-n" class="">
<path style="stroke: none; stroke-width: 1; stroke-dasharray: none; stroke-linecap: butt; stroke-dashoffset: 0; stroke-linejoin: miter; stroke-miterlimit: 4; fill: rgb(49,72,101); fill-rule: nonzero; opacity: 1;" vector-effect="non-scaling-stroke" d="M396.17119931640616,1259.0281811523437 C401.9691993164063,1286.5231811523436 390.3744993164062,1312.2501811523437 370.2751993164062,1316.4881811523437 C350.1745993164062,1320.7261811523435 329.1795993164062,1301.8761811523436 323.3815993164062,1274.3811811523437 C317.5835993164061,1246.8861811523439 329.1782993164062,1221.1591811523438 349.2788993164062,1216.9211811523437 C369.37949931640617,1212.6831811523436 390.3744993164062,1231.5331811523438 396.17119931640616,1259.0281811523437 " stroke-linecap="round" stroke-width="0" id="svg_20"/>
</g></g></svg>