<svg height="443" width="584" xmlns="http://www.w3.org/2000/svg"><rect fill="none" height="100%" width="100%"/><g fill="#17282f"><path d="m582.63939973 443.19852467h-581.2394c-.77336 0-1.4-.6244-1.4-1.4 0-.77308.62664-1.4 1.4-1.4h581.2394c.7728 0 1.4.62692 1.4 1.4 0 .7756-.6272 1.4-1.4 1.4"/><path d="m566.68577922 347.60156364c-3.6456 1.13736-12.1324.00868-12.1408.00532-.0868-.01092 2.4444-5.36704 2.6404-5.68624 2.2988-3.70132 8.9124-9.49704 13.6444-8.32132 3.4104.85092 4.9532 4.5248 3.8136 7.69664-1.1648 3.2396-4.8524 5.33764-7.9576 6.3056"/><path d="m485.1826175 345.0095568c-.0784.0392-.924-5.82428-.9352-6.19948-.1232-4.35316 2.1952-12.83744 6.7928-14.46704 3.3096-1.1704 6.6248 1.04132 7.4228 4.31704.8176 3.34684-1.1004 7.12684-3.1556 9.64908-2.4136 2.95736-10.1164 6.69816-10.1248 6.7004"/><path d="m487.4238175 409.08996227c2.8476.36428 8.4784-1.23704 10.0576-1.71276.2604 2.42368.5712 4.82328.9884 7.17276.2016 1.00828.3444 2.0496.5936 3.00776.2296.96796.4564 1.92836.6832 2.88092.5348 1.94908 1.0276 3.76348 1.5736 5.56612.2688.91336.546 1.76736.8176 2.65244-.6776-1.40336-1.7864-3.60416-1.9096-3.79204-2.0916-3.206-8.0192-8.16704-12.1548-7.03612-2.9792.81144-4.2616 4.07092-3.1976 6.83704 1.0892 2.82296 4.3708 4.59256 7.1176 5.37908 3.0296.87052 9.6936-.08988 10.5084-.21.6776 2.15908 1.3608 4.25348 2.0356 6.20256.4396 1.28184.868 2.48612 1.2936 3.6596h2.814c-.5572-1.43164-1.1284-2.91256-1.7164-4.51164-.6468-1.74664-1.3048-3.61144-1.96-5.53224.7476-.31052 6.5184-2.76612 8.8452-5.01256 2.4332 1.55204 5.2052 2.86216 5.6924 3.08868-.6216 2.1756-1.2096 4.29856-1.722 6.29776-.5236 2.0104-.9772 3.8808-1.3972 5.67h2.73c.3416-1.60776.7084-3.27012 1.1312-5.06296.4256-1.8144.9044-3.7296 1.4168-5.6952.826.15652 7.4284 1.3804 10.4888.63336 2.7748-.67816 6.1264-2.31336 7.3248-5.0904 1.176-2.71908.0252-6.02868-2.9176-6.96164-4.088-1.29612-10.2088 3.42468-12.4264 6.54388-.1428.19908-1.5568 2.74988-2.2512 4.0656.3136-1.18692.6216-2.36572.9716-3.5952.4844-1.77184 1.0584-3.63132 1.6016-5.4348.3164-.92428.6356-1.85612.9576-2.8.3052-.9604.714-1.83428 1.0696-2.76948.5516-1.35744 1.19-2.73 1.8228-4.09836 1.7752.60172 7.014 2.28508 9.772 2.04316 2.8476-.24808 6.4064-1.35716 8.0136-3.92224 1.5736-2.51216.938-5.95532-1.8312-7.3248-3.8416-1.89868-10.6064 1.84184-13.2748 4.58612-.084.08988-.588.72856-1.1788 1.49296.6608-1.31908 1.3132-2.63816 2.0272-3.95388 2.0188-3.7296 4.1944-7.4648 6.3588-11.2196.4508-.78092.8876-1.5708 1.3356-2.3548 1.4924.51828 7.1512 2.38868 10.0408 2.13612 2.8476-.24948 6.4064-1.35744 8.0136-3.92224 1.5736-2.50908.938-5.9556-1.8312-7.32284-3.8416-1.89756-10.6092 1.83988-13.2748 4.58724-.0952.09744-.6944.86184-1.358 1.72172 1.148-2.0552 2.2652-4.11908 3.3096-6.20172 1.8312-3.64 3.4384-7.3248 4.7124-11.0152.5236.18704 7.1148 2.51692 10.3264 2.23356 2.8476-.24836 6.4064-1.35744 8.0136-3.92224 1.5736-2.50908.938-5.95532-1.8312-7.32256-3.8416-1.89784-10.6092 1.8396-13.2748 4.58724-.1904.19572-2.3352 2.97612-3.0688 3.99196l.0504-.13104c1.2992-3.88612 2.0636-7.75908 2.6068-11.466.5488-3.6988.7504-7.22736.854-10.47788.1092-3.25304.0084-6.2356-.1008-8.876-.07-1.42492-.1596-2.73196-.2576-3.94716l.0728.05572c.0616.04704 1.7836-4.86724 1.8564-5.18868.8456-3.7352.2856-11.44388-3.402-13.62816-2.6572-1.57276-5.8912-.22316-7.1372 2.46428-1.2684 2.74736-.2576 6.33388 1.0892 8.85696 1.3776 2.58356 6.1264 6.36132 7.3164 7.28224.0756 1.2656.1428 2.61856.1848 4.11572.0532 2.63508.0868 5.61204-.0924 8.8452-.0476.86296-.1316 1.78948-.196 2.68856-.2044-1.53776-.5124-3.64336-.5656-3.84468-.9716-3.70104-5.0204-10.28664-9.3016-10.52492-3.0828-.1708-5.3312 2.5144-5.1968 5.474.1372 3.02428 2.6908 5.74 5.0484 7.35784 2.4584 1.68868 8.5624 2.86216 9.9008 3.10296-.1764 1.98828-.4032 4.02612-.7616 6.13816-.616 3.64756-1.4644 7.50092-2.8336 11.30276l-.2408-.03948c-.0168-1.44144-.1176-4.47132-.154-4.72052-.5572-3.7856-3.8584-10.77468-8.0892-11.48-3.0436-.50988-5.5748 1.91296-5.7652 4.8692-.196 3.01896 2.044 6.0004 4.2084 7.86856 2.492 2.1504 9.4752 4.16612 9.7356 4.23948-1.3188 3.53276-2.9428 7.05796-4.7964 10.54704-1.3384 2.53092-2.7972 5.03664-4.284 7.54012.014-1.01052-.1148-4.98624-.1568-5.27184-.5572-3.78532-3.8584-10.7744-8.0864-11.48336-3.0464-.50624-5.5776 1.9152-5.768 4.87172-.196 3.01868 2.044 6.00124 4.2084 7.86828 2.4332 2.1 9.114 4.06 9.6768 4.22296-.6748 1.13652-1.3468 2.27304-2.0328 3.40704-2.2428 3.69908-4.5052 7.4004-6.6248 11.11908-.7364 1.2908-1.414 2.58692-2.0972 3.88388-.0224-1.52124-.1176-4.28204-.1512-4.51696-.5572-3.78784-3.8612-10.77692-8.0892-11.48224-3.0464-.50988-5.5748 1.91184-5.7652 4.8692-.196 3.02092 2.0412 6.0004 4.2056 7.86744 2.1756 1.87572 7.756 3.6456 9.3352 4.12244-1.1228 2.16328-2.1868 4.33664-3.1332 6.52624-.3892.95172-.8456 1.89896-1.1648 2.83388-.3444.9352-.6832 1.86172-1.0192 2.7804-.6272 1.92276-1.218 3.70664-1.7584 5.5104-.2772.91-.5208 1.7752-.7784 2.66224.2072-1.54224.4956-3.99.4956-4.21428.0224-3.82704-2.1812-11.23612-6.2552-12.57368-2.9316-.96712-5.8016 1.04664-6.4372 3.93848-.0812.36736-.126.73948-.1344 1.1144-1.96 2.8-3.0996 6.87428-3.1864 9.41724-.0084.24276.2184 3.15.364 4.63092-.392-1.1648-.784-2.31532-1.1732-3.53388-.5712-1.74664-1.12-3.61144-1.6604-5.4152-.2464-.94612-.4956-1.90092-.7476-2.86664-.2744-.96684-.4144-1.92388-.6356-2.89828-.2856-1.43612-.5124-2.93468-.7392-4.42652 1.8144-.47684 7.112-1.96336 9.2764-3.6848 2.24-1.7808 4.5948-4.66816 4.522-7.69244-.0728-2.96184-2.5032-5.4852-5.5692-5.09796-4.2504.5348-7.8316 7.38612-8.54 11.14652-.0224.12348-.0896.93184-.1624 1.89532-.1764-1.4644-.3612-2.92572-.49-4.41532-.3724-4.2252-.6188-8.54-.8876-12.866-.0532-.8988-.1232-1.80012-.182-2.6992 1.5288-.3948 7.2828-1.95468 9.5536-3.75816 2.2372-1.78052 4.592-4.66704 4.5192-7.69356-.0728-2.96296-2.5032-5.48296-5.5664-5.09684-4.2532.5348-7.8344 7.38724-8.5428 11.14764-.0252.1344-.1036 1.10236-.182 2.18624-.1764-2.34612-.3836-4.6844-.6608-6.99664-.4816-4.04684-1.1732-8.0052-2.1476-11.78828.5404-.13132 7.322-1.8256 9.8448-3.83376 2.24-1.77744 4.5948-4.66704 4.522-7.69132-.0728-2.96184-2.5032-5.48492-5.5664-5.09908-4.2532.53816-7.8344 7.38948-8.5428 11.14988-.0504.26572-.308 3.76908-.3584 5.02348l-.0308-.13776c-1.0584-3.95836-2.5592-7.6104-4.1496-11.00316-1.582-3.3852-3.36-6.44-5.068-9.20948-1.7024-2.7748-3.4328-5.20492-4.9784-7.34776-.8456-1.15052-1.6436-2.1896-2.3968-3.15l.0924.00672c.0784.00532-1.1956-5.04336-1.3132-5.35388-1.3524-3.57896-6.0732-9.69948-10.3544-9.48724-3.0856.15428-5.04 3.06348-4.592 5.99256.4536 2.9904 3.2788 5.42388 5.7904 6.78468 2.576 1.3944 8.6212 1.92612 10.122 2.03756.7616 1.01388 1.5652 2.10644 2.4248 3.33256 1.498 2.17 3.1668 4.63092 4.802 7.43092.4368.74172.8792 1.56296 1.3188 2.34612-1.0164-1.16704-2.4388-2.7552-2.5928-2.89184-2.8504-2.55388-9.8616-5.81336-13.5632-3.64868-2.6656 1.55736-3.0576 5.04-1.3132 7.43428 1.7808 2.4444 5.4096 3.30092 8.2684 3.35104 2.982.0504 8.7192-2.33716 9.9708-2.87532.9492 1.75532 1.8844 3.58092 2.7496 5.54092 1.498 3.3796 2.9176 7.06244 3.8724 10.98776l-.224.1008c-.8092-1.19336-2.5648-3.66212-2.7328-3.85-2.5508-2.8504-9.1616-6.85692-13.0788-5.1156-2.8196 1.25664-3.5952 4.67348-2.1224 7.24388 1.5036 2.62612 5.0148 3.87744 7.8484 4.24172 3.2676.41776 10.2032-1.75224 10.4636-1.83428.8456 3.67388 1.4364 7.5096 1.8172 11.44052.28 2.8504.4452 5.74672.5852 8.6548-.546-.85316-2.8476-4.09612-3.038-4.31144-2.5536-2.8504-9.1644-6.85664-13.0816-5.1156-2.8196 1.25692-3.5952 4.67264-2.1224 7.24388 1.5036 2.62612 5.0148 3.87744 7.8484 4.24172 3.192.40908 9.8448-1.6408 10.402-1.81664.0644 1.32104.1316 2.63704.1848 3.9648.1708 4.32012.3248 8.65368.6076 12.93012.098 1.47784.2492 2.93356.3948 4.39264-.8568-1.25468-2.4612-3.5056-2.618-3.6848-2.5564-2.8504-9.1644-6.85692-13.0816-5.1156-2.8224 1.25776-3.5952 4.67376-2.1224 7.24612 1.5008 2.62388 5.012 3.8752 7.8484 4.23948"/><path d="m272.8558052 332.16132091c0-29.60468 23.9988-53.60348 53.6032-53.60348 29.6016 0 53.6004 23.9988 53.6004 53.60348 0 29.60132-23.9988 53.6004-53.6004 53.6004-29.6044 0-53.6032-23.99908-53.6032-53.6004zm138.11 0c0-4.1104-.308-8.14856-.8764-12.10244l21.8904-9.48276-6.5296-20.09868-22.8004 5.0848c-3.99-8.29052-9.3044-15.81664-15.652-22.3356l12.1436-20.55256-17.0996-12.42276-15.4588 17.5196c-7.9184-4.27868-16.604-7.31388-25.788-8.8844l-2.2568-23.75548h-21.1344l-2.212 23.29068c-9.254 1.2348-18.0348 3.95276-26.0904 7.93184l-15.7808-17.8808-17.0968 12.4208 11.9056 20.14908c-6.5884 6.28908-12.1604 13.62144-16.4472 21.74816l-23.27976-5.19204-6.53072 20.09868 21.46088 9.29908c-.8918 4.92184-1.38292 9.9848-1.38292 15.1648 0 4.10704.3094 8.1452.87612 12.09796l-21.88928 9.48388 6.5296 20.09868 22.79928-5.0848c3.99 8.2908 9.3072 15.81664 15.652 22.3356l-12.1408 20.5548 17.0968 12.42052 15.4588-17.5196c7.9184 4.28092 16.604 7.31388 25.788 8.8844l2.2568 23.7552h21.1344l2.212-23.29012c9.254-1.23172 18.0348-3.95416 26.0932-7.93212l15.778 17.8808 17.0968-12.4208-11.9028-20.14908c6.5856-6.2888 12.1576-13.62256 16.4444-21.74788l23.282 5.194 6.5296-20.10092-21.462-9.29908c.8932-4.92184 1.3832-9.9848 1.3832-15.16144"/><path d="m326.4562052 279.95784091c-28.784 0-52.2004 23.41584-52.2004 52.20348 0 28.78428 23.4164 52.2004 52.2004 52.2004 28.7868 0 52.206-23.41612 52.206-52.2004 0-28.78764-23.4192-52.20348-52.206-52.20348zm0 107.20388c-30.3268 0-55.0004-24.67388-55.0004-55.0004 0-30.32764 24.6736-55.00348 55.0004-55.00348 30.3296 0 55.006 24.67584 55.006 55.00348 0 30.32652-24.6764 55.0004-55.006 55.0004zm-10.8052 50.624h18.5864l2.0916-22.0192c.0616-.64988.5628-1.1704 1.2096-1.25776 8.9628-1.19224 17.5952-3.81948 25.6592-7.79744.5628-.2856 1.246-.14868 1.6688.32704l14.9352 16.92908 15.036-10.9256-11.256-19.054c-.3304-.56336-.2324-1.27428.238-1.72508 6.5408-6.244 11.9812-13.43664 16.1756-21.38612.2912-.55776.9156-.85092 1.5428-.714l22.0388 4.91624 5.7428-17.67808-20.2944-8.78948c-.5964-.2604-.9352-.89572-.8204-1.53468.9044-4.984 1.3608-10.00216 1.3608-14.91532 0-3.91244-.2884-7.9156-.8624-11.9-.0896-.62776.2492-1.2348.8288-1.48764l20.7228-8.9796-5.7428-17.67276-21.5572 4.80704c-.6384.1344-1.2824-.17612-1.5652-.76132-3.8836-8.07296-9.0636-15.46132-15.3944-21.96572-.4424-.45052-.5236-1.14296-.2044-1.6856l11.4968-19.45776-15.036-10.92532-14.6188 16.5648c-.434.48664-1.1424.61572-1.7164.3052-7.9044-4.27336-16.436-7.21336-25.3568-8.73376-.6244-.10808-1.0976-.61796-1.1564-1.25104l-2.1392-22.4868h-18.5864l-2.0916 22.02172c-.0616.65296-.5628 1.1704-1.2096 1.25804-8.96 1.19196-17.5896 3.81808-25.6564 7.79716-.5684.28-1.2488.14336-1.6688-.33012l-14.938-16.92376-15.036 10.92672 11.256 19.05288c.3304.56.2324 1.27428-.238 1.72284-6.5352 6.23756-11.9784 13.4344-16.1756 21.38612-.294.56-.9296.84-1.5428.714l-22.03712-4.91736-5.74224 17.67724 20.29216 8.7948c.5992.25704.938.89236.8232 1.53132-.9044 4.98092-1.3636 10.00104-1.3636 14.91868 0 3.90572.2912 7.91.8624 11.9.0896.6244-.2492 1.23144-.8288 1.48428l-20.72056 8.97848 5.74224 17.67388 21.55552-4.8048c.6412-.13664 1.2852.17388 1.568.75908 3.8836 8.0752 9.0636 15.4644 15.3916 21.96572.4424.4508.5236 1.14296.2044 1.6856l-11.494 19.46 15.036 10.92308 14.616-16.5648c.4312-.49 1.1424-.61572 1.7164-.30296 7.9044 4.27 16.436 7.21 25.3568 8.73376.6272.10612 1.1004.61572 1.1592 1.24908zm19.8604 2.8h-21.1316c-.7224 0-1.3272-.54908-1.3944-1.26868l-2.1588-22.69092c-8.47-1.55736-16.5928-4.35204-24.1752-8.32244l-14.728 16.6908c-.4816.54124-1.2908.63-1.8732.2044l-17.0968-12.42052c-.5824-.4256-.7504-1.22388-.3836-1.8452l11.6004-19.63388c-5.9444-6.26052-10.8752-13.29132-14.6776-20.93224l-21.72128 4.84428c-.70532.14224-1.41428-.24948-1.63632-.9352l-6.5296-20.09868c-.22316-.68572.11144-1.4308.77448-1.71612l20.9146-9.06388c-.49448-3.76908-.74368-7.54572-.74368-11.23612 0-4.72724.40796-9.53764 1.21408-14.32256l-20.45008-8.85948c-.66276-.2856-.99736-1.0304-.7742-1.71612l6.5296-20.09756c.22428-.68684.92764-1.08388 1.63632-.93632l22.24208 4.9644c4.0908-7.52276 9.2708-14.37492 15.4112-20.38624l-11.34-19.20296c-.3668-.62132-.2016-1.41876.3836-1.84184l17.0968-12.42388c.5824-.42224 1.3916-.336 1.8704.20776l15.0752 17.08c7.728-3.6904 15.946-6.1908 24.458-7.43764l2.1084-22.18944c.0672-.7196.672-1.2684 1.3944-1.2684h21.1316c.7224 0 1.3244.5488 1.3944 1.2684l2.156 22.69708c8.47 1.55428 16.5928 4.34756 24.1752 8.31908l14.7308-16.69192c.4788-.54236 1.288-.62664 1.8704-.2044l17.0968 12.42388c.5852.42336.7504 1.22052.3836 1.84296l-11.6004 19.63612c5.9472 6.25856 10.878 13.29132 14.6776 20.93l21.7224-4.84092c.6972-.15204 1.4112.24612 1.6352.9352l6.5324 20.09532c.2212.686-.112 1.4308-.7756 1.71948l-20.916 9.06052c.4956 3.76908.7448 7.54376.7448 11.23948 0 4.72052-.4088 9.53092-1.2124 14.31948l20.4484 8.85584c.6636.28784.9968 1.0304.7756 1.71612l-6.5324 20.10092c-.224.68908-.9296 1.08724-1.6352.9352l-22.2432-4.9644c-4.088 7.52164-9.2652 14.3696-15.4112 20.3896l11.3428 19.1996c.3668.62244.1988 1.41988-.3836 1.84296l-17.0968 12.42304c-.5824.42308-1.3972.33684-1.8732-.20356l-15.0752-17.08532c-7.7252 3.69236-15.9432 6.19276-24.458 7.43848l-2.1084 22.18776c-.0672.7196-.6692 1.26868-1.3916 1.26868"/></g><path d="m419.1586052 190.85103202c0-26.0064 21.084-47.0904 47.0904-47.0904s47.0876 21.084 47.0876 47.0904-21.0812 47.08816-47.0876 47.08816-47.0904-21.08176-47.0904-47.08816zm121.3296 0c0-3.612-.2716-7.1568-.77-10.6316l19.2304-8.33-5.7372-17.6568-20.0284 4.466c-3.5056-7.2828-8.176-13.8964-13.7508-19.6224l10.668-18.0544-15.022-10.9116-13.58 15.3888c-6.958-3.7604-14.5852-6.4232-22.6548-7.8036l-1.9824-20.8684h-18.5668l-1.9432 20.4596c-8.1312 1.0836-15.8424 3.4748-22.9208 6.9692l-13.8628-15.7108-15.0192 10.9144 10.458 17.7016c-5.7876 5.5216-10.682 11.9644-14.448 19.1016l-20.4512-4.5612-5.7372 17.6568 18.8524 8.1704c-.784 4.3232-1.2152 8.7724-1.2152 13.3224 0 3.6092.2716 7.1568.77 10.6288l-19.2304 8.3328 5.7372 17.6568 20.0284-4.4688c3.5056 7.2856 8.176 13.89612 13.7508 19.62184l-10.6652 18.05468 15.0192 10.9144 13.5828-15.39132c6.9552 3.7604 14.5852 6.426 22.6548 7.80388l1.9824 20.86784h18.564l1.9432-20.45988c8.1312-1.08276 15.8452-3.47144 22.9208-6.96584l13.8628 15.70828 15.0192-10.91244-10.4552-17.70104c5.7848-5.52468 10.682-11.96692 14.4452-19.1044l20.454 4.5612 5.7372-17.6568-18.8552-8.1704c.784-4.3232 1.2152-8.7696 1.2152-13.3196" fill="#6ccb94"/><path d="m466.2490052 145.15782928c-25.1944 0-45.6904 20.496-45.6904 45.6876 0 25.1972 20.496 45.69292 45.6904 45.69292 25.1916 0 45.6876-20.49572 45.6876-45.69292 0-25.1916-20.496-45.6876-45.6876-45.6876zm0 94.18052c-26.74 0-48.4904-21.75292-48.4904-48.49292 0-26.7344 21.7504-48.4876 48.4904-48.4876 26.7372 0 48.4876 21.7532 48.4876 48.4876 0 26.74-21.7504 48.49292-48.4876 48.49292zm-9.3408 44.13388h16.0216l1.8228-19.194c.0616-.64988.5628-1.1704 1.2096-1.25692 7.854-1.0444 15.4196-3.34348 22.484-6.8348.5628-.28308 1.2488-.14308 1.6688.3304l13.02 14.75236 12.9612-9.41276-9.8112-16.60736c-.3304-.55692-.2324-1.27428.238-1.72172 5.7316-5.47624 10.5028-11.7824 14.1764-18.746.294-.56.9184-.854 1.5428-.714l19.208 4.284 4.9532-15.232-17.6876-7.6664c-.5964-.2576-.938-.8932-.8204-1.5344.7896-4.3596 1.1928-8.7584 1.1928-13.0732 0-3.43-.2548-6.9384-.756-10.4272-.0896-.6272.2492-1.2348.8288-1.484l18.0628-7.826-4.9504-15.2376-18.7852 4.1916c-.644.1372-1.2852-.1736-1.568-.7588-3.4048-7.0784-7.9464-13.5576-13.4904-19.2528-.4424-.4508-.5236-1.1424-.2044-1.6884l10.0212-16.9568-12.9612-9.4192-12.7372 14.4396c-.434.4872-1.1452.6132-1.7164.3024-6.9272-3.7436-14.406-6.3196-22.2236-7.6524-.6244-.1064-1.1004-.6188-1.1592-1.2516l-1.862-19.6h-16.0188l-1.8228 19.1912c-.0616.6496-.5628 1.1704-1.2096 1.2572-7.854 1.0444-15.4196 3.3432-22.4868 6.8348-.5628.28-1.2516.1456-1.6688-.3304l-13.02-14.7532-12.9584 9.4164 9.8112 16.6068c.3304.56.2296 1.274-.2408 1.722-5.7288 5.4684-10.4972 11.774-14.1764 18.7432-.294.56-.9296.84-1.5428.714l-19.208-4.284-4.9504 15.2348 17.6848 7.6636c.5964.2576.9352.8932.8204 1.5344-.7896 4.3708-1.1928 8.7668-1.1928 13.0704 0 3.4216.2548 6.9328.756 10.4328.0896.6272-.2492 1.2348-.8288 1.484l-18.06 7.826 4.9476 15.2348 18.788-4.1916c.6356-.1344 1.2852.1736 1.5652.7588 3.4048 7.0756 7.9436 13.55424 13.4932 19.2528.4396.45052.5236 1.14184.2016 1.68868l-10.0212 16.9596 12.9612 9.41612 12.7372-14.43624c.4312-.48776 1.1424-.61376 1.7164-.30296 6.9216 3.73828 14.3976 6.314 22.2264 7.65296.6244.10612 1.0976.61796 1.1564 1.25104zm17.2928 2.8h-18.564c-.7224 0-1.3244-.55104-1.3944-1.27092l-1.8816-19.80776c-7.378-1.3692-14.4452-3.7996-21.0448-7.24052l-12.8492 14.56c-.4816.54348-1.2908.63-1.8732.20664l-15.0192-10.91328c-.5852-.42336-.7504-1.22192-.3836-1.84296l10.1276-17.14132c-5.166-5.45244-9.4556-11.57268-12.7764-18.21708l-18.9532 4.228c-.7028.1512-1.414-.2492-1.6352-.9352l-5.7372-17.6568c-.224-.686.112-1.428.7756-1.7164l18.256-7.9072c-.4256-3.2816-.6412-6.5632-.6412-9.772 0-4.1076.3528-8.2992 1.0472-12.474l-17.8416-7.728c-.6636-.2884-.9968-1.0304-.7756-1.7192l5.7372-17.6568c.224-.686.9296-1.0836 1.638-.9352l19.4152 4.3316c3.57-6.5408 8.0752-12.4992 13.412-17.7436l-9.898-16.7552c-.364-.6188-.1988-1.4196.3836-1.8424l15.0192-10.9116c.5852-.4284 1.3944-.336 1.8732.2044l13.16 14.9128c6.7256-3.2032 13.8768-5.3816 21.2856-6.4764l1.8396-19.3564c.0672-.7196.672-1.2712 1.3916-1.2712h18.5668c.7224 0 1.3244.5516 1.3916 1.2712l1.8844 19.8072c7.3696 1.3664 14.4368 3.7968 21.042 7.2408l12.8492-14.5628c.4788-.546 1.2936-.63 1.8732-.2072l15.0192 10.9144c.5852.4228.7504 1.2208.3836 1.8424l-10.1276 17.1416c5.166 5.4516 9.4556 11.5724 12.7764 18.2168l18.9532-4.228c.7-.1568 1.4112.2464 1.6352.9352l5.74 17.6596c.2212.686-.112 1.428-.7756 1.7164l-18.256 7.9072c.4228 3.2704.6384 6.552.6384 9.7664 0 4.1188-.3528 8.3104-1.0472 12.4796l17.8416 7.728c.6636.2884.9996 1.0304.7756 1.7192l-5.7372 17.654c-.224.686-.9296 1.0836-1.6352.9352l-19.418-4.3316c-3.5644 6.53464-8.0696 12.49668-13.412 17.74668l9.898 16.75184c.3668.61908.2016 1.41652-.3836 1.84296l-15.0192 10.91132c-.5824.42868-1.3916.33572-1.8732-.2044l-13.1572-14.91336c-6.7284 3.20348-13.8796 5.37908-21.2856 6.47724l-1.8396 19.3592c-.07.71988-.672 1.27092-1.3944 1.27092" fill="#17282f"/><path d="m196.25367768 76.98344569 34.7606 27.664 27.84992-34.1572 11.0348 7.882-35.73248 57.2768-40.98724-17.864z" fill="#6ccb94"/><path d="m194.65151768 116.89464296 38.96704 16.9848 34.39604-55.1348-8.8956-6.3532-27.01972 33.138c-.48356.5936-1.35296.6888-1.95776.21l-32.69-26.0148zm39.515 20.1516-.55888-.1176-40.98724-17.8668c-.54572-.238-.88172-.7924-.83664-1.386l3.07328-40.7988c.03836-.5208.36092-.9716.8358-1.1788.4746-.21 1.0248-.1372 1.43276.1848l33.67756 26.8044 26.97464-33.0848c.4676-.5684 1.2936-.6832 1.8984-.2548l11.0376 7.882c.602.4284.7644 1.2544.3724 1.8816l-35.7308 57.2768c-.26376.42-.71876.658-1.18888.658" fill="#17282f"/><path d="m183.31471631 189.00063954h-81.44724l-4.41112 221.7152h19.74672l25.38816-168.5404 25.38704 168.5404h19.74532z" fill="#17282f"/><path d="m169.17949067 409.31583954h17.11304l-4.35428-218.9124h-78.70072l-4.35428 218.9124h17.11276l25.20644-167.34816c.10416-.68572.69244-1.19224 1.386-1.19224.69216 0 1.28072.50652 1.3846 1.19224zm18.54244 2.8h-19.74644c-.69356 0-1.281-.50428-1.38488-1.19l-24.00216-159.35388-24.00244 159.35388c-.10388.68572-.69244 1.19-1.3846 1.19h-19.74672c-.37604 0-.73724-.14868-.9996-.42-.26348-.26908-.40684-.63336-.4004-1.0052l4.41-221.7152c.0154-.7644.63784-1.372 1.4-1.372h81.44612c.76356 0 1.3846.6076 1.4 1.372l4.41112 221.7152c.00672.37184-.13664.73612-.40152 1.0052-.26124.27132-.62216.42-.99848.42" fill="#17282f"/><path d="m157.11607699 63.29103202-14.43652 3.0464-14.43512-3.0464-36.25468 14.3584 9.88092 105.616h81.61888l9.88092-105.616z" fill="#6ccb94"/><path d="m103.14719699 181.86542928h79.06836l9.66308-103.3032-34.8852-13.8152-14.02492 2.9568h-.57652l-14.02296-2.9568-34.88744 13.8152zm80.34348 2.8h-81.62c-.72296 0-1.32552-.5516-1.3944-1.2684l-9.88092-105.6188c-.05684-.6216.30184-1.204.8792-1.4336l36.2558-14.3584c.25704-.1036.53928-.1204.80388-.0672l14.14532 2.9848 14.14784-2.9848c.26684-.0532.54796-.0364.805.0672l36.25328 14.3584c.57876.2296.93632.812.87948 1.4336l-9.8798 105.6188c-.06888.7168-.67172 1.2684-1.39468 1.2684" fill="#17282f"/><path d="m133.66507563 85.31145389 5.89316 14.574-4.65192 62.8936 7.44296 13.6444 8.68336-14.266-7.13244-61.6504 6.20172-12.7148-8.0906-11.7992z" fill="#17282f"/><path d="m136.33263563 162.47105389 6.08356 11.1496 7.17164-11.7796-7.07868-61.1744c-.03192-.2632.01512-.5348.13216-.7728l5.845-11.9812-6.62032-9.6572-6.5758 7.3388 5.565 13.7676.09856.6272zm6.01664 15.3524h-.03276c-.4998-.0112-.95704-.2884-1.19644-.7308l-7.44296-13.6444c-.12796-.2352-.18704-.504-.16632-.7728l4.62644-62.5688-5.7694-14.2716c-.20132-.4956-.10164-1.0612.25368-1.4616l8.34652-9.3156c.28756-.3164.7042-.4956 1.134-.462.42896.028.82152.252 1.06428.6048l8.09172 11.7992c.2842.4144.32368.952.10276 1.4056l-6.02336 12.348 7.08652 61.2444c.03612.308-.03276.6216-.19376.8876l-8.6842 14.266c-.2548.4172-.70896.672-1.19672.672" fill="#17282f"/><path d="m156.72320998 61.29383475-14.45724 18.2756-13.55368-18.2756v-16.464h28.01092z" fill="#fff"/><path d="m156.72320998 61.29383475h.02716zm-26.61092-.462 12.1898 16.4332 13.02112-16.4584v-14.5768h-25.21092zm12.1548 20.1348h-.02184c-.43652-.0056-.84336-.2156-1.10264-.5656l-13.55368-18.2728c-.17948-.2408-.27664-.532-.27664-.8344v-16.464c0-.7728.62664-1.4 1.4-1.4h28.01092c.7742 0 1.4.6272 1.4 1.4v16.464c0 .3136-.10612.6216-.30184.8708l-14.45612 18.2728c-.266.336-.6706.5292-1.09816.5292" fill="#17282f"/><path d="m127.14164178 59.13903475-3.85112 4.7404 4.35092 26.978 14.59612-10.878 15.86144 10.444 2.611-26.544-3.7954-3.808-14.91448 14.252z" fill="#6ccb94"/><path d="m124.77256178 64.27703475 3.88276 24.08 12.74672-9.5032c.47124-.3472 1.11552-.3696 1.60664-.0476l13.9244 9.1728 2.31896-23.5788-2.36264-2.3688-13.92244 13.3028c-.5544.5348-1.4294.5208-1.96756-.0308l-13.7606-14.0644zm2.86888 27.9804-.52724-.1036c-.45388-.182-.77756-.5908-.8554-1.0724l-4.35092-26.9752c-.06216-.3976.04396-.8008.2954-1.1088l3.85224-4.7404c.25032-.3108.62244-.4984 1.02144-.5152.39592-.028.78652.1316 1.0654.4172l13.89052 14.196 13.91488-13.2944c.54908-.5292 1.42184-.518 1.95776.0252l3.79428 3.808c.29512.294.44408.7084.40236 1.1228l-2.6096 26.544c-.04816.49-.34776.9156-.79072 1.1256-.44184.2072-.96376.1792-1.37284-.0924l-15.04104-9.9064-13.811 10.2956c-.24612.1792-.539.2744-.83552.2744" fill="#17282f"/><path d="m96.18756725 414.88544159s-8.37256 25.86948-7.12908 26.28388c1.24376.41468 28.18508 0 28.18508 0l-1.30928-26.28388z" fill="#fff"/><path d="m90.41672315 439.9000874c3.6456.13216 16.4346.01736 25.35764-.11172l-1.1704-23.50572h-17.395c-3.14468 9.7748-6.24428 20.31428-6.79224 23.61744zm-.08316.86604h.02856zm7.48132 1.98744c-4.98764 0-8.62764-.06664-9.19968-.25704-1.48512-.49644-2.5592-.85204 6.24204-28.0448.18704-.57764.7252-.96908 1.33224-.96908h19.74672c.74592 0 1.36164.5852 1.39776 1.33336l1.3104 26.28276c.01848.3752-.11816.74816-.37744 1.0248-.2604.27468-.62132.43764-.9996.44296-6.55816.10052-13.85356.18704-19.45244.18704" fill="#17282f"/><path d="m189.35932793 414.88544159s8.37256 25.86948 7.12908 26.28388c-1.24376.41468-28.1848 0-28.1848 0l1.309-26.28388z" fill="#fff"/><path d="m169.7827211 439.7883674c8.86592.12908 21.54572.2408 25.354.09296-.55664-3.32164-3.65092-13.83816-6.79-23.59868h-17.39388zm17.97012 2.9652c-5.6 0-12.8996-.08652-19.46308-.18704-.37968-.00532-.73948-.16828-.99988-.44296-.26012-.27664-.39704-.6496-.37716-1.0248l1.309-26.28276c.03724-.74816.65296-1.33336 1.39888-1.33336h19.74672c.60704 0 1.14632.39144 1.33224.96908 8.80012 27.19276 7.78204 27.5296 6.2398 28.0448-.57204.1904-4.20672.25704-9.18652.25704" fill="#17282f"/><path d="m173.3430411 10.57425936s6.8558 3.6372 7.45164 8.078c.59724 4.438-7.89908 13.3728-7.89908 13.3728l.31948-15.9684z" fill="#17282f"/><path d="m174.6862011 13.05785663-.31388 15.1536c2.65552-3.262 5.31328-7.3052 5.0344-9.3744-.29204-2.184-2.72664-4.3736-4.72052-5.7792zm-1.7906 20.3644-.53368-.1036c-.53256-.224-.87724-.7476-.86632-1.3244l.44856-21.4536c.01204-.4844.27356-.9296.69244-1.176s.93408-.2576 1.36388-.028c.76664.406 7.5096 4.1188 8.18216 9.128.66724 4.9588-7.35532 13.5576-8.27288 14.5208-.26908.2856-.63896.4368-1.01416.4368" fill="#17282f"/><path d="m165.39745067 4.70105663c2.94336 1.3188 5.45468 3.3264 7.1204 6.2804 4.23276 7.5096.75684 15.7416-1.15052 23.6712-1.08192 4.494-6.81184 28.91-11.08744 30.534-4.27644 1.6268-9.79888.7084-14.94276-2.4864-5.14276-3.192-13.80764-11.3092-15.64836-14.2856-1.8396-2.9736-.22428-12.7036-.22092-12.7204.20356-1.2236-1.17124-3.8332-1.40756-5.0932-.52724-2.8028-.89572-5.7904-.65856-8.638.80724-9.6712 7.57428-17.136 17.09652-18.7096 6.53184-1.078 14.74592-1.3076 20.8992 1.4476" fill="#fff"/><path d="m153.30340793 3.91465116c-3.33368 0-6.40724.378-8.57948.7364-8.91632 1.47-15.16816 8.3216-15.93032 17.444-.1904 2.3044.01204 4.928.6398 8.2628.07756.4144.3052.9884.53704 1.6044.52388 1.3972 1.0654 2.8392.87612 3.976-.50876 3.0044-1.16704 9.8196.03052 11.7572 1.74664 2.8224 10.20152 10.7324 15.1956 13.8292 4.74124 2.94 9.86328 3.8304 13.70684 2.366.57624-.2184 3.7744-2.6488 10.11164-29.0836l.11144-.4704c.31836-1.3188.67928-2.6516 1.04244-3.9844 1.80152-6.636 3.50224-12.8996.25172-18.6676-1.39804-2.478-3.5756-4.3932-6.47304-5.6924-3.53696-1.582-7.7-2.0776-11.52032-2.0776zm2.4346 63.4844c-3.5644 0-7.42756-1.19-11.14204-3.4944-5.36144-3.3264-14.17276-11.6228-16.10112-14.7392-2.18204-3.5252-.42-13.6556-.39816-13.7508.04396-.3556-.47124-1.7304-.749-2.4696-.2856-.7588-.55468-1.4784-.665-2.072-.67592-3.584-.89152-6.4512-.67816-9.0104.85848-10.2872 8.19756-18.312 18.26216-19.9724 4.97448-.826 14.40908-1.7164 21.7 1.5484 3.45632 1.5484 6.0704 3.8584 7.76916 6.8712 3.815 6.7676 1.88216 13.888.01176 20.7732-.35532 1.3104-.7098 2.6152-1.02144 3.9116l-.11144.4648c-7.00336 29.2124-10.51876 30.548-11.84008 31.052-1.56828.5964-3.2648.8876-5.03664.8876" fill="#17282f"/><path d="m167.45287836 3.45743065s7.14644 3.192 7.0392 7.8484c-.10612 4.6536-6.11408 8.6632-18.83532 8.8816-12.72152.2212-14.61572-.4284-14.61572-.4284s4.06084 3.682 2.16664 5.0344c-1.89448 1.3552-4.54664 3.2508-4.54664 3.2508l-.37744 6.2776s-3.51764 3.0884-3.7352.3808c-.21644-2.7048-.97552-6.1712-1.89644-6.6584-.92008-.4872-4.59928 2.0552-4.59928 2.0552s-.43652-7.8988 1.34736-14.6132c1.78388-6.7116 4.79836-9.3268 15.0906-12.7344 10.29336-3.4048 22.96224.7056 22.96224.7056" fill="#17282f"/><path d="m132.40023836 26.58263612c.47684 0 .74172.14.90664.2296 1.82784.966 2.43488 5.586 2.60876 7.4508.29092-.1456.65828-.378 1.00716-.6356l.3402-5.6616c.0252-.4228.23968-.8092.58408-1.0556l4.54468-3.248c-.05572-.336-1.13092-1.8032-2.29264-2.8588-.49112-.4452-.60144-1.176-.26348-1.7472.33796-.574 1.03124-.826 1.65704-.6132.03052.0028 2.30552.56 14.13888.35 12.76632-.2184 17.38408-4.186 17.46052-7.5152.07-3.0016-4.34112-5.6784-6.14124-6.5072-1.00968-.308-12.67672-3.7716-22.0206-.6832-10.3642 3.43-12.6294 5.9444-14.17612 11.7656-1.11776 4.2028-1.33308 8.96-1.34624 11.7572 1.47532-.8064 2.3996-1.0276 2.99236-1.0276zm3.05592 10.6316c-.29512 0-.5852-.0476-.86408-.1596-.48664-.1988-1.32104-.7504-1.4392-2.2344-.19376-2.4108-.73612-4.5304-1.12448-5.3452-.6944.2464-2.0244.9856-3.1794 1.7808-.41804.2912-.95816.3332-1.4112.1092-.45584-.2268-.7546-.6776-.78176-1.1816-.01988-.3332-.43008-8.2012 1.39104-15.05 1.925-7.238 5.3648-10.1836 16.00284-13.7032 10.61368-3.514 23.29992.532 23.835.7l.13888.056c.32704.1428 7.99512 3.6344 7.86828 9.156-.1092 4.788-5.47624 9.996-20.21124 10.2508-5.55856.098-9.0958.0308-11.34224-.084.47796.7896.8148 1.6548.76664 2.478-.0448.7896-.4298 1.484-1.085 1.9516l-4.00204 2.8588-.33796 5.614c-.02072.3724-.19236.7224-.47348.9688-.69244.6076-2.27388 1.834-3.7506 1.834" fill="#17282f"/><path d="m158.31999563 48.98982792 4.33132.0532-1.08724-11.5304 1.89336-5.3592" fill="#fff"/><path d="m162.65131563 49.76302792h-.00756l-4.33244-.0532c-.38612-.0056-.69552-.322-.69132-.7056.00448-.3836.31724-.6944.7-.6944h.00896l3.55236.0448-1.01388-10.7576.03724-.2968 1.89336-5.3592c.13104-.364.53032-.5516.89348-.4284.36428.1288.55552.5292.42672.8932l-1.84324 5.2136 1.07324 11.3792-.18172.5376z" fill="#17282f"/><path d="m165.29840383 36.13264843c-.25368 1.526.12264 2.8588.84 2.9764.71764.1204 1.505-1.0192 1.75896-2.5424.25368-1.526-.12264-2.8588-.84-2.9792-.71764-.1176-1.505 1.022-1.75896 2.5452" fill="#17282f"/><path d="m153.29063836 35.69265663c-.25284 1.5232.12236 2.856.84 2.9764.71736.1204 1.505-1.0192 1.75868-2.5452.25368-1.5232-.12236-2.8588-.84-2.9764-.71736-.1204-1.505 1.0192-1.75868 2.5452" fill="#17282f"/><path d="m160.16656588 53.06345389s-4.65388 3.8976-10.93652-2.4864" fill="#fff"/><path d="m156.42800588 54.93102792c-2.05604 0-4.7292-.84-7.69664-3.8584-.2702-.2744-.26796-.7168.00868-.9884.27692-.2688.71988-.266.99008.0084 5.719 5.8128 9.82072 2.5788 9.99012 2.4416.29764-.2464.73836-.21.98448.0924.24612.2968.20776.7336-.08764.98-.02828.0252-1.63296 1.3244-4.18908 1.3244" fill="#17282f"/><path d="m169.84517203 30.84262928s-1.19112-2.8672-4.49316-1.0808" fill="#fff"/><path d="m169.84629203 31.53986073c-.27328 0-.53144-.1596-.6454-.4256-.01624-.0392-.3892-.8568-1.21296-1.1368-.62888-.224-1.40644-.0868-2.30216.3976-.3402.182-.7658.0588-.94836-.28-.1848-.3416-.05796-.7672.28112-.9492 1.26448-.6832 2.42816-.84 3.4496-.4872 1.42632.504 2.0006 1.8564 2.02468 1.9124.14756.3556-.021.7672-.37744.9156z" fill="#17282f"/><path d="m158.63259699 29.36784296s-5.19876-2.8672-8.60804 1.5736" fill="#fff"/><path d="m150.02455699 31.63303475-.42644-.1456c-.30632-.2352-.36428-.6748-.12796-.98 3.73184-4.8608 9.44552-1.792 9.5004-1.7584.33908.1848.46032.6104.2744.9492-.1848.3388-.6104.4676-.94948.2744-.189-.1008-4.72052-2.5144-7.71512 1.386z" fill="#17282f"/><path d="m135.13536451 39.61024022s2.03-9.9484-3.1346-11.0012c-5.16488-1.0528-4.59928 2.0552-5.04336 6.6892-.54264 5.656 3.58428 7.5964 3.58428 7.5964" fill="#fff"/><path d="m130.54767631 44.29184022-.59052-.1316c-.20468-.098-5.01172-2.436-4.38172-8.9936.056-.5908.09632-1.1564.13468-1.694.1694-2.4164.31724-4.5024 1.86704-5.6812 1.07408-.8148 2.56928-.9884 4.7152-.5544 5.16012 1.0556 5.0848 8.4476 4.22604 12.6504-.154.7588-.88816 1.2544-1.6492 1.0948-.75796-.1568-1.24796-.8932-1.09284-1.652.44968-2.226 1.04132-8.7192-2.044-9.3492-1.64612-.336-2.25092-.1176-2.46204.042-.53928.406-.64988 1.9824-.76804 3.6484-.0392.5572-.0798 1.1452-.14 1.7612-.43624 4.5472 2.66448 6.1348 2.79692 6.1992.68908.3388.98224 1.1732.64848 1.8648-.24164.5012-.74032.7952-1.26.7952" fill="#17282f"/><path d="m179.13635631 146.438258c0-29.6044 23.99796-53.6032 53.60264-53.6032 29.6044 0 53.6032 23.9988 53.6032 53.6032s-23.9988 53.6032-53.6032 53.6032c-29.60468 0-53.60264-23.9988-53.60264-53.6032zm138.10944 0c0-4.1104-.308-8.1452-.8736-12.0988l21.8876-9.4864-6.5296-20.0984-22.8004 5.0848c-3.9872-8.2908-9.3044-15.8172-15.652-22.3356l12.1436-20.552-17.0968-12.4208-15.4616 17.5196c-7.9184-4.2812-16.604-7.3136-25.788-8.8844l-2.2568-23.7552h-21.13216l-2.21284 23.2904c-9.25512 1.232-18.03592 3.9536-26.09124 7.9296l-15.77968-17.8808-17.09736 12.4236 11.90448 20.1488c-6.58672 6.2888-12.15928 13.622-16.44692 21.7476l-23.28032-5.194-6.53072 20.0984 21.46256 9.2988c-.89264 4.9224-1.38376 9.9848-1.38376 15.1648 0 4.1104.30856 8.148.87612 12.0988l-21.89012 9.4864 6.53072 20.0984 22.79928-5.0848c3.98888 8.2908 9.30552 15.8172 15.65144 22.3356l-12.14164 20.552 17.09736 12.42332 15.4602-17.51932c7.91784 4.2784 16.60316 7.3108 25.78856 8.8816l2.25624 23.75548h21.133l2.212-23.28788c9.2568-1.2348 18.0376-3.9564 26.0932-7.9324l15.778 17.88108 17.0968-12.42108-11.9028-20.1488c6.5856-6.2888 12.1576-13.622 16.4444-21.7476l23.282 5.1912 6.5296-20.0984-21.462-9.2988c.8932-4.9224 1.3832-9.9848 1.3832-15.1648" fill="#a7aaa8"/><path d="m232.75787631 94.235058c-28.7854 0-52.20264 23.4192-52.20264 52.2032s23.41724 52.2032 52.20264 52.2032c28.78512 0 52.20432-23.4192 52.20432-52.2032s-23.4192-52.2032-52.20432-52.2032zm0 107.2064c-30.32848 0-55.00264-24.6736-55.00264-55.0032 0-30.3268 24.67416-55.0032 55.00264-55.0032 30.32792 0 55.00432 24.6764 55.00432 55.0032 0 30.3296-24.6764 55.0032-55.00432 55.0032zm-10.80632 50.62428h18.58584l2.0916-22.01948c.0616-.6496.5628-1.1704 1.2096-1.2544 8.9628-1.1984 17.5952-3.822 25.6592-7.8008.5628-.2856 1.246-.1484 1.6688.3276l14.9352 16.92544 15.036-10.92224-11.256-19.054c-.3304-.56-.2324-1.274.238-1.722 6.5408-6.2468 11.9812-13.44 16.1756-21.392.294-.5572.924-.8512 1.5456-.714l22.036 4.9168 5.7428-17.6764-20.2944-8.792c-.5964-.2604-.9352-.8932-.8204-1.5344.9044-4.9784 1.3608-9.9988 1.3608-14.9156 0-3.9088-.2884-7.91-.8596-11.9-.0896-.6272.2492-1.2348.8288-1.484l20.72-8.9768-5.7428-17.6792-21.5572 4.8104c-.6356.14-1.2824-.1736-1.5652-.7616-3.8864-8.0724-9.0664-15.4644-15.3944-21.966-.4396-.4536-.5236-1.1452-.2044-1.6884l11.4968-19.4572-15.036-10.9256-14.6188 16.5676c-.4312.4844-1.1424.6132-1.7164.3024-7.896-4.27-16.4276-7.2044-25.3568-8.7332-.6244-.1064-1.0976-.6188-1.1564-1.2516l-2.1392-22.484h-18.585l-2.09244 22.0192c-.06132.6524-.56224 1.1704-1.20848 1.26-8.96224 1.19-17.59408 3.8164-25.65612 7.798-.5656.2772-1.25132.1456-1.6702-.3276l-14.93744-16.926-15.03684 10.9228 11.25796 19.054c.3304.56.23184 1.274-.2394 1.722-6.53856 6.244-11.98092 13.44-16.1756 21.3892-.29624.5544-.93072.8428-1.54336.714l-22.03796-4.9168-5.74196 17.6764 20.29328 8.7948c.59724.2604.93632.8932.82152 1.5344-.90356 4.9784-1.36192 9.996-1.36192 14.9128 0 3.9088.29008 7.9128.86212 11.9.08848.6244-.2506 1.232-.8302 1.484l-20.72 8.9796 5.74224 17.6764 21.55664-4.8076c.6398-.14 1.28296.1708 1.56632.7588 3.885 8.0724 9.06388 15.4644 15.39552 21.966.4396.4508.52276 1.1424.20132 1.6884l-11.49428 19.4572 15.03572 10.92252 14.61796-16.56452c.43316-.4872 1.14408-.616 1.71612-.3024 7.89796 4.2672 16.42928 7.2072 25.35652 8.7332.62552.1064 1.099.6188 1.15808 1.2488zm19.85984 2.8h-21.133c-.72184 0-1.3244-.54908-1.39216-1.26868l-2.15796-22.69428c-8.47784-1.55652-16.60092-4.35372-24.17632-8.32132l-14.72856 16.6908c-.4802.5404-1.29052.63224-1.87236.2044l-17.09764-12.418c-.58408-.4256-.749-1.2236-.38276-1.8424l11.60264-19.6392c-5.94804-6.258-10.87968-13.2916-14.67928-20.9328l-21.72184 4.844c-.70224.1512-1.41428-.2464-1.63744-.9352l-6.5296-20.0984c-.22204-.686.11256-1.4308.77532-1.7164l20.91376-9.0608c-.49336-3.7688-.74396-7.546-.74396-11.2392 0-4.7236.40908-9.5312 1.21408-14.3164l-20.44868-8.862c-.66276-.2856-.99848-1.0304-.77532-1.7164l6.5296-20.0984c.22428-.6916.93072-1.0892 1.63632-.9352l22.24348 4.9616c4.08856-7.5208 9.26632-14.3696 15.41204-20.3868l-11.34224-19.2024c-.36624-.6188-.20132-1.4196.38276-1.8424l17.09652-12.418c.58072-.4256 1.3944-.3388 1.87348.2044l15.0752 17.08c7.72408-3.6932 15.94264-6.1936 24.45744-7.4396l2.10756-22.1872c.06776-.7196.67172-1.2684 1.39356-1.2684h21.13216c.7224 0 1.3244.5488 1.3944 1.2684l2.156 22.694c8.4784 1.5568 16.6012 4.354 24.1752 8.3216l14.7308-16.6908c.4816-.546 1.2908-.63 1.8732-.2072l17.0968 12.4236c.5824.4228.7476 1.2208.3808 1.8424l-11.6004 19.6364c5.9444 6.258 10.8752 13.2916 14.6776 20.9328l21.7224-4.844c.7028-.154 1.4112.2464 1.638.9352l6.5296 20.1012c.2212.686-.112 1.428-.7756 1.7164l-20.9132 9.058c.4928 3.7716.742 7.546.742 11.2392 0 4.7236-.4088 9.534-1.2124 14.3192l20.4484 8.8592c.6636.2884.9968 1.0304.7756 1.7164l-6.5296 20.0984c-.224.6888-.938 1.092-1.638.9352l-22.2432-4.9616c-4.088 7.518-9.2652 14.3724-15.4112 20.3896l11.3428 19.1968c.3668.6216.2016 1.4196-.3836 1.8452l-17.0968 12.4208c-.5796.42336-1.3916.33572-1.8732-.20468l-15.0752-17.08252c-7.7252 3.6932-15.9432 6.1908-24.458 7.43904l-2.1056 22.18776c-.07.7196-.672 1.26868-1.3944 1.26868" fill="#17282f"/><path d="m91.41496451 78.23662928s-5.59552 32.9868-5.59552 35.8512c0 2.8616 11.10816 45.2424 11.10816 45.2424l61.67868 46.1524 5.15256-13.7396-41.87092-50.176-8.015-41.7928" fill="#6ccb94"/><path d="m158.60740451 206.88262928c-.2996 0-.59276-.0952-.83776-.2772l-61.6798-46.1552c-.25396-.1876-.4354-.4592-.51632-.7644-1.86284-7.1064-11.15408-42.7028-11.15408-45.598 0-2.898 5.04112-32.6956 5.6154-36.0864.12992-.7588.85512-1.2796 1.6142-1.1452.76356.1316 1.27652.854 1.14744 1.6156-2.24224 13.2132-5.57704 33.6-5.57704 35.616.04368 2.1 6.67828 28.1456 10.93848 44.4136l59.79316 44.744 4.21092-11.2308-41.34816-49.5516-.30072-.6328-8.01612-41.7956c-.1442-.756.35336-1.4924 1.11244-1.638.75236-.1372 1.49296.35 1.63828 1.1144l7.94836 41.4372 41.63684 49.8988c.32284.3836.41356.9156.23744 1.3888l-5.15172 13.7396c-.154.4144-.49532.728-.91756.8512z" fill="#17282f"/><path d="m165.33924246 193.80863475 8.30816 1.9964 10.08224 4.62-.84112 3.78-6.72112-.84 10.08224 9.2428-3.36112 4.62-7.56112-.84s-7.14112-1.68-8.40112-2.1-6.7396-6.7396-6.7396-6.7396z" fill="#fff"/><path d="m161.79220246 207.25703475c2.28284 2.5928 4.9406 5.3676 5.64172 5.7288.9198.3024 6.24512 1.5736 8.21408 2.0384l6.58532.7224 2.14816-2.954-9.15908-8.3972c-.44828-.4088-.5796-1.0668-.32368-1.6184.25368-.5516.83132-.8876 1.44368-.8008l5.45664.6804.31836-1.428-9.05408-4.1524-6.84684-1.6212zm21.09632 11.368-.15428-.0084-7.56112-.8372c-.90328-.2044-7.40572-1.7332-8.6898-2.1644-1.34092-.4452-4.74012-4.1328-7.3542-7.1512-.336-.3836-.43316-.9268-.25284-1.4056l5.15172-13.7424c.2492-.658.94724-1.0276 1.63828-.868l8.30816 1.9964 10.33928 4.7096c.59948.2744.9254.9296.78316 1.5764l-.84112 3.7772c-.15764.7056-.82152 1.1844-1.54112 1.0864l-2.36572-.294 6.84684 6.2776c.525.4816.60368 1.2796.18592 1.8536l-3.36112 4.6172c-.2646.3668-.68796.5768-1.13204.5768" fill="#17282f"/><path d="m257.94061887 63.42505936 6.3056-5.2556 12.6112 4.7292-2.8588 6.4484z" fill="#fff"/><path d="m260.69861887 62.95182792 12.5524 4.6312 1.7248-3.8892-10.458-3.9228zm13.3 7.7952-.4844-.0868-16.058-5.9192c-.4676-.1736-.8092-.5824-.8932-1.0752-.0868-.4928.098-.9912.4816-1.3132l6.3056-5.2556c.3864-.3248.9156-.4116 1.3888-.2352l12.6112 4.732c.3612.1344.6496.4116.798.7672s.1456.7588-.0112 1.1116l-2.8588 6.4456c-.2296.518-.7392.8288-1.2796.8288" fill="#17282f"/></svg>